<?xml version="1.0" encoding="utf-8"?>
<!-- Generator: Adobe Illustrator 27.5.0, SVG Export Plug-In . SVG Version: 6.00 Build 0)  -->
<svg version="1.1" id="Capa_1" xmlns="http://www.w3.org/2000/svg" xmlns:xlink="http://www.w3.org/1999/xlink" x="0px" y="0px"
	 viewBox="0 0 36 36" style="enable-background:new 0 0 36 36;" xml:space="preserve">
<style type="text/css">
	.st0{fill:#FFFFFF;}
	.st1{fill:#3333FF;}
</style>
<g>
	<g>
		<path class="st0" d="M28.99,35.5H7.01c-3.6,0-6.51-2.91-6.51-6.51V7.01c0-3.6,2.91-6.51,6.51-6.51h21.98
			c3.6,0,6.51,2.91,6.51,6.51v21.98C35.5,32.59,32.59,35.5,28.99,35.5z"/>
	</g>
	<path class="st1" d="M23.1,18.28c0.02-0.09,0.04-0.19,0.04-0.28s-0.02-0.19-0.04-0.28c-0.02-0.09-0.03-0.19-0.07-0.28
		c-0.04-0.09-0.1-0.17-0.15-0.26c-0.04-0.06-0.06-0.14-0.12-0.19l-7.29-8.02c-0.56-0.61-1.51-0.66-2.12-0.1
		c-0.61,0.56-0.66,1.51-0.1,2.12L19.63,18l-6.38,7.01c-0.56,0.61-0.51,1.56,0.1,2.12c0.29,0.26,0.65,0.39,1.01,0.39
		c0.41,0,0.81-0.17,1.11-0.49l7.29-8.02c0.05-0.06,0.07-0.13,0.12-0.19c0.06-0.08,0.12-0.16,0.15-0.26
		C23.07,18.47,23.08,18.38,23.1,18.28z"/>
</g>
</svg>
