<?xml version="1.0" encoding="utf-8"?>
<!-- Generator: Adobe Illustrator 27.5.0, SVG Export Plug-In . SVG Version: 6.00 Build 0)  -->
<svg version="1.1" id="Capa_1" xmlns="http://www.w3.org/2000/svg" xmlns:xlink="http://www.w3.org/1999/xlink" x="0px" y="0px"
	 viewBox="0 0 40 40" style="enable-background:new 0 0 40 40;" xml:space="preserve">
<style type="text/css">
	.st0{fill:#0000FF;}
</style>
<g>
	<path class="st0" d="M39.87,20.07C39.87,9.1,30.97,0.2,20,0.2S0.13,9.1,0.13,20.07c0,9.91,7.26,18.1,16.74,19.6
		c0-4.32,0-8.63,0-12.95c0-0.05,0-0.1,0-0.17c-0.07,0-0.13,0-0.19,0c-1.38,0-2.77,0-4.15,0c-0.19,0-0.19,0-0.19-0.19
		c0-1.62,0-3.25,0-4.87c0-0.15,0.04-0.19,0.19-0.18c1.38,0.01,2.77,0,4.15,0c0.06,0,0.11,0,0.19,0c0-0.06,0-0.11,0-0.16
		c0-1.35-0.01-2.7,0.01-4.05c0.02-1.09,0.23-2.14,0.7-3.12c0.64-1.34,1.65-2.29,3.02-2.86c0.92-0.38,1.88-0.56,2.86-0.54
		c1.13,0.02,2.26,0.07,3.4,0.11c0.21,0.01,0.42,0.04,0.63,0.05c0.12,0.01,0.16,0.05,0.16,0.17c0,0.67,0,1.34,0,2.02
		c0,0.79,0,1.58,0,2.38c0,0.14-0.04,0.18-0.18,0.18c-0.86-0.01-1.72-0.02-2.58,0c-0.39,0.01-0.79,0.05-1.17,0.14
		c-0.74,0.16-1.17,0.65-1.32,1.38c-0.06,0.29-0.09,0.6-0.1,0.9c-0.01,1.1,0,2.2,0,3.3c0,0.03,0,0.07,0.01,0.12c0.07,0,0.13,0,0.19,0
		c1.58,0,3.17,0,4.75,0c0.21,0,0.21,0,0.19,0.2c-0.11,0.86-0.23,1.73-0.34,2.59c-0.09,0.72-0.18,1.45-0.27,2.17
		c-0.03,0.28-0.03,0.28-0.3,0.28c-1.34,0-2.69,0-4.03,0c-0.06,0-0.11,0-0.19,0c0,0.08,0,0.14,0,0.21c0,4.29,0,8.57,0,12.86
		c0,0.06,0,0.11,0,0.17C32.2,38.65,39.87,30.26,39.87,20.07z"/>
</g>
</svg>
