<?xml version="1.0" encoding="utf-8"?>
<!-- Generator: Adobe Illustrator 27.5.0, SVG Export Plug-In . SVG Version: 6.00 Build 0)  -->
<svg version="1.1" id="Capa_1" xmlns="http://www.w3.org/2000/svg" xmlns:xlink="http://www.w3.org/1999/xlink" x="0px" y="0px"
	 viewBox="0 0 40 40" style="enable-background:new 0 0 40 40;" xml:space="preserve">
<style type="text/css">
	.st0{fill:#0000FF;}
</style>
<g>
	<path class="st0" d="M24.57,10.29h-9.14c-2.66,0-4.83,2.17-4.83,4.83v9.75c0,2.66,2.17,4.83,4.83,4.83h9.14
		c2.66,0,4.83-2.17,4.83-4.83v-9.75C29.4,12.46,27.23,10.29,24.57,10.29z M20,26.01c-3.33,0-6.04-2.71-6.04-6.04
		c0-1.64,0.68-3.24,1.85-4.39c1.15-1.12,2.64-1.7,4.22-1.66c3.73,0.11,6.09,2.49,6.01,6.07C25.97,23.37,23.32,26.01,20,26.01z
		 M26.19,15.16c-0.78,0-1.41-0.63-1.41-1.41c0-0.78,0.63-1.41,1.41-1.41c0.78,0,1.41,0.63,1.41,1.41
		C27.6,14.53,26.97,15.16,26.19,15.16z"/>
	<path class="st0" d="M19.97,15.96c-0.04,0-0.07,0-0.11,0c-0.98,0-1.91,0.38-2.63,1.08c-0.79,0.76-1.24,1.83-1.24,2.93
		c0,2.21,1.8,4.01,4.01,4.01c2.2,0,3.96-1.77,4.01-4.03C24.06,17.53,22.55,16.04,19.97,15.96z"/>
	<path class="st0" d="M20,0.13C9.03,0.13,0.13,9.03,0.13,20S9.03,39.87,20,39.87S39.87,30.97,39.87,20S30.97,0.13,20,0.13z
		 M31.07,24.88c0,3.58-2.91,6.5-6.5,6.5h-9.14c-3.58,0-6.5-2.91-6.5-6.5v-9.75c0-3.58,2.91-6.5,6.5-6.5h9.14
		c3.58,0,6.5,2.91,6.5,6.5V24.88z"/>
</g>
</svg>
