<?xml version="1.0" encoding="utf-8"?>
<!-- Generator: Adobe Illustrator 27.5.0, SVG Export Plug-In . SVG Version: 6.00 Build 0)  -->
<svg version="1.1" id="Capa_1" xmlns="http://www.w3.org/2000/svg" xmlns:xlink="http://www.w3.org/1999/xlink" x="0px" y="0px"
	 viewBox="0 0 44 44" style="enable-background:new 0 0 44 44;" xml:space="preserve">
<style type="text/css">
	.st0{fill:#3333FF;}
</style>
<g>
	<path class="st0" d="M43.3,13.8c0-0.8-0.6-1.4-1.4-1.4H15.1c-0.8,0-1.4,0.6-1.4,1.4c0,0,0,0,0,0c0,0,0,0,0,0v16
		c-1.4-1.2-3.2-1.9-5.1-1.9c-4.3,0-7.9,3.5-7.9,7.9c0,4.3,3.5,7.9,7.9,7.9c4.3,0,7.9-3.5,7.9-7.9c0,0,0,0,0,0c0,0,0,0,0,0V15.2h24
		v14.7c-1.4-1.2-3.2-1.9-5.1-1.9c-4.3,0-7.9,3.5-7.9,7.9c0,4.3,3.5,7.9,7.9,7.9c4.3,0,7.9-3.5,7.9-7.9c0,0,0,0,0,0c0,0,0,0,0,0V13.8
		z M8.6,40.9c-2.8,0-5.1-2.3-5.1-5.1c0-2.8,2.3-5.1,5.1-5.1c2.8,0,5.1,2.3,5.1,5.1C13.7,38.6,11.4,40.9,8.6,40.9z M35.4,40.9
		c-2.8,0-5.1-2.3-5.1-5.1c0-2.8,2.3-5.1,5.1-5.1c2.8,0,5.1,2.3,5.1,5.1C40.5,38.7,38.2,40.9,35.4,40.9z"/>
	<path class="st0" d="M23.1,10c0.8,0,1.4-0.6,1.4-1.4V7c0-2.2,1.8-4,4-4s4,1.8,4,4v1.6c0,0.8,0.6,1.4,1.4,1.4s1.4-0.6,1.4-1.4V7
		c0-3.7-3-6.7-6.7-6.7c-3.7,0-6.7,3-6.7,6.7v1.6C21.7,9.4,22.4,10,23.1,10z"/>
</g>
</svg>
