<?xml version="1.0" encoding="utf-8"?>
<!-- Generator: Adobe Illustrator 27.5.0, SVG Export Plug-In . SVG Version: 6.00 Build 0)  -->
<svg version="1.1" id="Capa_1" xmlns="http://www.w3.org/2000/svg" xmlns:xlink="http://www.w3.org/1999/xlink" x="0px" y="0px"
	 viewBox="0 0 42 35" style="enable-background:new 0 0 42 35;" xml:space="preserve">
<style type="text/css">
	.st0{fill:none;stroke:#3333FF;stroke-width:0.9649;stroke-miterlimit:10;}
</style>
<g>
	<path class="st0" d="M21,6.86c0.99-1.69,1.99-2.98,3.23-3.98c1.69-1.34,3.68-2.04,6.27-2.04c2.93,0,5.57,1.19,7.46,3.08
		c1.94,1.94,3.08,4.58,3.08,7.46c0,5.07-1.44,8.85-4.72,12.33c-3.18,3.43-8.01,6.52-14.82,10.3c-0.35,0.2-0.75,0.2-1.09,0
		c-6.07-3.73-10.89-6.81-14.17-10.2c-3.48-3.53-5.27-7.36-5.27-12.43c0-2.88,1.14-5.52,3.08-7.46c1.89-1.89,4.53-3.08,7.46-3.08
		C16.13,0.84,18.71,2.83,21,6.86L21,6.86z"/>
</g>
</svg>
