<?xml version="1.0" encoding="utf-8"?>
<!-- Generator: Adobe Illustrator 27.5.0, SVG Export Plug-In . SVG Version: 6.00 Build 0)  -->
<svg version="1.1" id="Capa_1" xmlns="http://www.w3.org/2000/svg" xmlns:xlink="http://www.w3.org/1999/xlink" x="0px" y="0px"
	 viewBox="0 0 30 30" style="enable-background:new 0 0 30 30;" xml:space="preserve">
<style type="text/css">
	.st0{fill-rule:evenodd;clip-rule:evenodd;fill:#FFFFFF;}
	.st1{fill-rule:evenodd;clip-rule:evenodd;fill:#CFCFCF;}
	.st2{fill:#FFFFFF;}
	.st3{fill-rule:evenodd;clip-rule:evenodd;fill:#626262;}
	.st4{fill:#515151;}
	.st5{fill:#4D4D4D;}
</style>
<g>
	<circle class="st0" cx="15" cy="15" r="14.96"/>
	<g>
		<circle class="st1" cx="15" cy="15" r="14.23"/>
		<g>
			<path class="st2" d="M27.19,12.63c-0.05-0.01-0.09-0.02-0.14-0.02c-0.04,0-0.08,0-0.11,0.01l-4.56,1.17l-2.17-8.01
				c-0.05-0.2-0.24-0.33-0.44-0.33c-0.04,0-0.08,0-0.11,0.01L6.63,8.87C6.39,8.93,6.25,9.18,6.31,9.42l2,7.94l-4.4,1.17
				c-0.19,0.05-0.32,0.21-0.33,0.4c0,0.03,0,0.05,0,0.08c0.01,0.17,0.11,0.32,0.27,0.38l13.89,6.08c0.06,0.03,0.12,0.04,0.18,0.04
				c0.14,0,0.27-0.06,0.36-0.18l9.14-11.98c0.06-0.08,0.1-0.18,0.1-0.28C27.52,12.86,27.38,12.68,27.19,12.63z"/>
			<g>
				<polygon class="st3" points="27.05,13.07 27.05,13.06 22.06,14.34 19.78,5.9 6.75,9.31 8.86,17.68 4.03,18.96 4.04,18.97 
					4.03,18.97 17.92,25.05 27.07,13.06 				"/>
			</g>
			<path class="st2" d="M26.79,9.87c0,0,0-0.01,0-0.01l-0.06-0.19c-0.01-0.03-0.02-0.06-0.03-0.08l-0.11-0.22
				C26.5,9.19,26.4,9.04,26.29,8.9c-0.11-0.13-0.23-0.26-0.37-0.37c0,0-0.01,0-0.01-0.01c-0.28-0.22-0.59-0.39-0.93-0.51
				c-0.7-0.24-1.55-0.24-2.54,0.02c-0.74,0.19-1.37,0.49-1.87,0.88c-0.52,0.41-0.87,0.86-1.05,1.33c-0.01,0.02-0.02,0.05-0.03,0.07
				c-0.16-0.17-0.35-0.32-0.56-0.44c-0.39-0.22-0.84-0.34-1.34-0.36c-0.28-0.02-0.54-0.01-0.78,0.02c-0.23,0.03-0.5,0.08-0.79,0.16
				c-0.56,0.14-1.05,0.34-1.45,0.59c-0.05,0.03-0.1,0.06-0.15,0.1c-0.07,0.03-0.13,0.07-0.18,0.12c-0.28,0.21-0.51,0.44-0.7,0.7
				c-0.32,0.43-0.5,0.89-0.56,1.37l-1.12-1.36c-0.13-0.15-0.33-0.22-0.52-0.17L9.3,11.57c-0.19,0.05-0.33,0.2-0.37,0.38l-0.17,0.76
				c-0.11-0.09-0.22-0.16-0.35-0.22c-0.32-0.15-0.71-0.23-1.17-0.22c-0.41-0.01-0.89,0.06-1.46,0.21l-2.91,0.76
				c-0.27,0.07-0.43,0.34-0.37,0.61l1.04,4.47c0.03,0.13,0.12,0.25,0.23,0.32c0.08,0.05,0.17,0.07,0.27,0.07
				c0.04,0,0.09-0.01,0.13-0.02l6.2-1.61c0.2-0.05,0.35-0.22,0.38-0.43l0.04-0.31l1.32-0.34l0.18,0.25c0.12,0.17,0.34,0.25,0.54,0.2
				l1.98-0.51c0.17-0.04,0.3-0.17,0.36-0.34c0-0.01,0.01-0.03,0.01-0.04c0.59,0.12,1.26,0.09,1.98-0.1
				c0.58-0.15,1.07-0.38,1.45-0.68c0,0,0,0,0,0c0.12,0.08,0.27,0.11,0.42,0.08l1.27-0.33c0.27-0.07,0.43-0.34,0.37-0.61
				c0,0,0.3-0.25,0.55-0.16c0.7,0.25,1.57,0.25,2.57-0.01c0.74-0.19,1.36-0.49,1.86-0.88c0.52-0.41,0.88-0.89,1.07-1.41
				C26.9,10.91,26.93,10.38,26.79,9.87z"/>
			<g>
				<path class="st4" d="M26.45,9.98l-0.06-0.19l-0.12-0.24c-0.07-0.14-0.15-0.27-0.24-0.39c-0.09-0.11-0.19-0.22-0.31-0.31
					c-0.24-0.19-0.51-0.34-0.8-0.44c-0.62-0.22-1.39-0.21-2.3,0.03c-0.68,0.18-1.26,0.45-1.71,0.8c-0.46,0.36-0.76,0.74-0.91,1.15
					c-0.15,0.4-0.18,0.84-0.09,1.29l0.13,0.38l0.06,0.17l0,0.01c0.26,0.51,0.7,0.88,1.33,1.1c0.3,0.11,0.64,0.16,1.01,0.16
					c0.4,0,0.84-0.06,1.32-0.19c0.68-0.18,1.25-0.45,1.71-0.81c0.46-0.36,0.77-0.77,0.93-1.22C26.54,10.85,26.56,10.41,26.45,9.98z
					 M22.9,9.71c0.3-0.08,0.56-0.07,0.77,0.03c0.21,0.1,0.37,0.26,0.49,0.49c0.18,0.36,0.22,0.74,0.13,1.11
					c-0.1,0.37-0.37,0.6-0.84,0.73c-0.58,0.15-0.99-0.02-1.24-0.51c-0.2-0.58-0.21-1.03-0.04-1.34C22.3,9.97,22.55,9.8,22.9,9.71
					L22.9,9.71z"/>
				<path class="st4" d="M16.84,12.2l0.24,1l0.89-0.26c-0.05,0.14-0.15,0.35-0.28,0.47c-0.15,0.13-0.37,0.24-0.57,0.29
					c-0.65,0.17-1.08,0.02-1.32-0.45c-0.21-0.59-0.23-1.05-0.07-1.37c0.13-0.24,0.37-0.41,0.73-0.5c0.5-0.13,0.85-0.04,1.07,0.26
					l0.04,0.05l2.06-0.53l-0.06-0.12c-0.17-0.34-0.42-0.6-0.76-0.79c-0.33-0.18-0.72-0.29-1.16-0.31c-0.25-0.01-0.49-0.01-0.7,0.02
					c-0.21,0.03-0.46,0.08-0.74,0.15c-0.52,0.13-0.97,0.32-1.34,0.54c-0.37,0.22-0.68,0.5-0.91,0.81c-0.45,0.61-0.59,1.29-0.42,2.01
					l0.06,0.24l0.13,0.28c0.03,0.05,0.05,0.1,0.08,0.15l-2.23-2.7l-2.14,0.56l-0.4,1.8c-0.03-0.12-0.07-0.22-0.12-0.31
					C8.77,13.2,8.56,13,8.29,12.87c-0.26-0.13-0.6-0.19-0.98-0.18c-0.37-0.01-0.82,0.06-1.36,0.2l-3,0.78l1.08,4.64l2.16-0.56
					l-0.33-1.39l0.94-0.24c0.91-0.24,1.55-0.56,1.91-0.98l-0.47,2.09l2.14-0.56l0.08-0.65l1.88-0.49l0.38,0.53l2.18-0.56l-0.76-0.92
					c0.23,0.21,0.53,0.38,0.87,0.49c0.6,0.2,1.31,0.19,2.1-0.01c0.72-0.19,1.28-0.5,1.65-0.94l0.16,0.35l1.42-0.37l-0.61-2.64
					L16.84,12.2z M11.8,14.65l-1.27,0.33l0.26-1.78L11.8,14.65z M5.58,15.14l-0.24-0.91c0,0,0.45-0.12,0.72-0.19
					c0.39-0.1,0.68-0.13,0.83,0.11c0.07,0.11,0.08,0.37-0.02,0.49c-0.11,0.14-0.25,0.22-0.51,0.3C6.17,15,5.58,15.14,5.58,15.14z"/>
			</g>
			<g>
				<path class="st5" d="M20.48,18.17c0.08-0.12,0.18-0.24,0.28-0.35c0.49-0.58,0.94-1.18,1.29-1.85c0.11-0.21,0.28-0.55,0.37-0.78
					c0.03-0.07,0.02-0.13-0.04-0.19c-0.15-0.15-0.25-0.16-0.42-0.02c-0.91,0.73-1.61,1.77-1.93,2.89c-0.02,0.06-0.05,0.12-0.09,0.17
					c-0.35,0.38-0.71,0.76-1.06,1.14c-0.03,0.03-0.07,0.06-0.11,0.09c-0.03,0.02-0.08,0.03-0.11,0.02c-0.02-0.02-0.03-0.07-0.04-0.1
					c0-0.02,0-0.04,0.01-0.06c0.06-0.23,0.11-0.47,0.19-0.69c0.08-0.22,0.19-0.43,0.29-0.64c0.02-0.05,0.05-0.11-0.04-0.12
					c-0.21-0.01-0.37,0.02-0.49,0.24c-0.05,0.09-0.08,0.2-0.15,0.28c-0.35,0.42-0.7,0.83-1.06,1.23c-0.23,0.25-0.5,0.44-0.83,0.54
					c-0.09,0.03-0.15,0-0.16-0.1c-0.01-0.08,0-0.16,0.01-0.24c0.09-0.4,0.28-0.76,0.57-1.06c0.12-0.13,0.26-0.24,0.44-0.3
					c0,0.05,0,0.1-0.02,0.13c-0.09,0.13-0.19,0.24-0.29,0.37c-0.02,0.03-0.03,0.07-0.04,0.1c0.04,0.01,0.09,0.04,0.12,0.03
					c0.1-0.03,0.2-0.07,0.29-0.12c0.22-0.13,0.38-0.32,0.43-0.58c0.03-0.18-0.07-0.29-0.25-0.29c-0.02,0-0.05,0-0.07,0.01
					c-0.42,0.08-0.72,0.36-1.03,0.62c-0.07,0.06-0.12,0.15-0.19,0.23c-0.35,0.42-0.71,0.84-1.07,1.25c-0.05,0.05-0.1,0.1-0.17,0.16
					c0-0.03-0.01-0.04-0.01-0.05c0.04-0.14,0.07-0.29,0.12-0.42c0.12-0.29,0.25-0.57,0.38-0.86c0.03-0.06,0.04-0.12-0.02-0.16
					c-0.1-0.08-0.21-0.08-0.32,0.01c-0.11-0.14-0.23-0.11-0.36-0.03c-0.11,0.07-0.23,0.14-0.32,0.23c-0.47,0.43-0.81,0.97-1.04,1.56
					c-0.06,0.16-0.11,0.32-0.09,0.5c0.03,0.22,0.28,0.37,0.46,0.22c0.07-0.05,0.14-0.1,0.19-0.17c0.16-0.22,0.31-0.45,0.46-0.69
					c0.02-0.03,0.02-0.07,0.03-0.11c0.01,0.01,0.03,0.01,0.04,0.02c0.01,0.04,0.01,0.09,0.02,0.13c0.02,0.11,0.04,0.23,0.08,0.34
					c0.07,0.19,0.21,0.23,0.35,0.08c0.16-0.16,0.3-0.34,0.45-0.52c0.12-0.15,0.23-0.32,0.36-0.49c0.01,0.08,0.01,0.15,0.02,0.22
					c0.07,0.4,0.3,0.6,0.72,0.41c0.14-0.07,0.27-0.15,0.4-0.24c0.38-0.29,0.69-0.64,0.98-1.01c0.06-0.07,0.12-0.15,0.19-0.24
					c-0.02,0.1-0.03,0.18-0.05,0.25c-0.02,0.13-0.02,0.26,0.03,0.39c0.08,0.2,0.22,0.3,0.44,0.28c0.17-0.02,0.33-0.09,0.44-0.22
					c0.22-0.25,0.44-0.52,0.65-0.78c0.06-0.08,0.11-0.16,0.17-0.23c0.04,0.13,0.06,0.25,0.11,0.37c0.12,0.34,0.35,0.43,0.67,0.27
					c0.12-0.06,0.24-0.15,0.33-0.26c0.55-0.6,0.97-1.29,1.41-1.97c0.05-0.08,0.03-0.13-0.06-0.19c-0.02,0.03-0.04,0.05-0.06,0.07
					c-0.32,0.39-0.63,0.78-0.96,1.17c-0.21,0.24-0.42,0.48-0.69,0.66c-0.13,0.09-0.2,0.06-0.24-0.09
					C20.34,18.45,20.39,18.3,20.48,18.17z M21.83,15.52c0,0.26-0.94,1.83-1.14,1.9C20.98,16.74,21.35,16.1,21.83,15.52z M14.09,20.5
					c-0.01-0.01-0.02-0.01-0.03-0.02c0.01-0.04,0.01-0.08,0.02-0.12c0.19-0.49,0.45-0.93,0.85-1.29c0.06-0.05,0.14-0.09,0.21-0.13
					c0.01,0.01,0.02,0.02,0.02,0.03C14.81,19.49,14.5,20.03,14.09,20.5z"/>
				<path class="st5" d="M13.95,18.96c-0.04-0.06-0.07-0.13-0.12-0.19c-0.03-0.03-0.09-0.05-0.14-0.06
					c-0.08-0.01-0.15-0.02-0.23-0.02c-0.31,0.02-0.6,0.11-0.89,0.21c-0.08,0.03-0.15,0.05-0.25,0.08c0.02-0.04,0.02-0.06,0.03-0.07
					c0.19-0.29,0.37-0.59,0.56-0.88c0.09-0.14,0.09-0.15-0.06-0.25c0.09-0.04,0.17-0.07,0.25-0.1c0.59-0.19,1.19-0.37,1.78-0.56
					c0.15-0.05,0.3-0.09,0.45-0.13c0.02-0.01,0.04-0.03,0.06-0.05c-0.02-0.02-0.03-0.05-0.05-0.06c-0.21-0.13-0.43-0.22-0.67-0.23
					c-0.33-0.01-0.66,0.04-0.98,0.12c-0.66,0.16-1.29,0.41-1.9,0.68c-0.14,0.06-0.27,0.13-0.42,0.19c0.02-0.05,0.04-0.08,0.06-0.14
					c-0.07,0.02-0.12,0.02-0.16,0.04c-0.17,0.09-0.33,0.18-0.49,0.28c-0.12,0.08-0.24,0.17-0.34,0.27
					c-0.09,0.09-0.09,0.17-0.01,0.27c0.08,0.1,0.19,0.14,0.31,0.12c0.21-0.05,0.42-0.1,0.62-0.17c0.36-0.13,0.72-0.27,1.08-0.41
					c0.04-0.01,0.07-0.02,0.11-0.03c0,0.01,0.01,0.01,0.01,0.02c-0.06,0.07-0.12,0.14-0.17,0.21c-0.24,0.35-0.49,0.7-0.72,1.06
					c-0.06,0.09-0.13,0.15-0.23,0.19c-0.14,0.06-0.28,0.13-0.41,0.2c-0.1,0.06-0.11,0.14-0.04,0.24c0.04,0.05,0.08,0.1,0.13,0.14
					c0.06,0.06,0.06,0.1,0.02,0.18c-0.2,0.38-0.33,0.78-0.32,1.21c0,0.06,0.01,0.14,0.04,0.17c0.11,0.11,0.26,0.14,0.41,0.15
					c0.01-0.12,0.02-0.22,0.04-0.32c0.02-0.11,0.06-0.21,0.1-0.31c0.11-0.3,0.24-0.6,0.35-0.91c0.06-0.16,0.16-0.27,0.31-0.34
					c0.58-0.25,1.16-0.49,1.74-0.74C13.85,19.02,13.9,18.99,13.95,18.96z"/>
				<path class="st5" d="M15.15,18.12c-0.01,0.04,0,0.09,0.02,0.12c0.02,0.02,0.08,0.02,0.11,0c0.16-0.1,0.32-0.19,0.47-0.31
					c0.17-0.13,0.3-0.29,0.37-0.49c0.03-0.07,0.03-0.15,0.04-0.24c-0.06-0.08-0.11-0.17-0.18-0.23c-0.11-0.09-0.24-0.04-0.28,0.1
					c-0.08,0.34-0.26,0.64-0.49,0.9C15.2,18.02,15.17,18.07,15.15,18.12z"/>
				<path class="st5" d="M19.21,17.08c0.01-0.01,0.05-0.02,0.08-0.04c0.15-0.1,0.25-0.25,0.32-0.42c0.04-0.1,0.02-0.15-0.06-0.22
					c-0.07-0.06-0.15-0.05-0.21,0.01c-0.09,0.09-0.18,0.18-0.24,0.28c-0.05,0.08-0.07,0.19-0.07,0.29
					C19.01,17.07,19.1,17.11,19.21,17.08z"/>
			</g>
			<g>
				<path class="st2" d="M20.31,18.01c0.08-0.12,0.18-0.24,0.28-0.35c0.49-0.58,0.94-1.18,1.29-1.85c0.11-0.21,0.28-0.55,0.37-0.78
					c0.03-0.07,0.02-0.13-0.04-0.19c-0.15-0.15-0.25-0.16-0.42-0.02c-0.91,0.73-1.61,1.77-1.93,2.89c-0.02,0.06-0.05,0.12-0.09,0.17
					c-0.35,0.38-0.71,0.76-1.06,1.14c-0.03,0.03-0.07,0.06-0.11,0.09c-0.03,0.02-0.08,0.03-0.11,0.02c-0.02-0.02-0.03-0.07-0.04-0.1
					c0-0.02,0-0.04,0.01-0.06c0.06-0.23,0.11-0.47,0.19-0.69c0.08-0.22,0.19-0.43,0.29-0.64c0.02-0.05,0.05-0.11-0.04-0.12
					c-0.21-0.01-0.37,0.02-0.49,0.24c-0.05,0.09-0.08,0.2-0.15,0.28c-0.35,0.42-0.7,0.83-1.06,1.23c-0.23,0.25-0.5,0.44-0.83,0.54
					c-0.09,0.03-0.15,0-0.16-0.1c-0.01-0.08,0-0.16,0.01-0.24c0.09-0.4,0.28-0.76,0.57-1.06c0.12-0.13,0.26-0.24,0.44-0.3
					c0,0.05,0,0.1-0.02,0.13c-0.09,0.13-0.19,0.24-0.29,0.37c-0.02,0.03-0.03,0.07-0.04,0.1c0.04,0.01,0.09,0.04,0.12,0.03
					c0.1-0.03,0.2-0.07,0.29-0.12c0.22-0.13,0.38-0.32,0.43-0.58c0.03-0.18-0.07-0.29-0.25-0.29c-0.02,0-0.05,0-0.07,0.01
					c-0.42,0.08-0.72,0.36-1.03,0.62c-0.07,0.06-0.12,0.15-0.19,0.23c-0.35,0.42-0.71,0.84-1.07,1.25c-0.05,0.05-0.1,0.1-0.17,0.16
					c0-0.03-0.01-0.04-0.01-0.05c0.04-0.14,0.07-0.29,0.12-0.42c0.12-0.29,0.25-0.57,0.38-0.86c0.03-0.06,0.04-0.12-0.02-0.16
					c-0.1-0.08-0.21-0.08-0.32,0.01c-0.11-0.14-0.23-0.11-0.36-0.03c-0.11,0.07-0.23,0.14-0.32,0.23c-0.47,0.43-0.81,0.97-1.04,1.56
					c-0.06,0.16-0.11,0.32-0.09,0.5c0.03,0.22,0.28,0.37,0.46,0.22c0.07-0.05,0.14-0.1,0.19-0.17c0.16-0.22,0.31-0.45,0.46-0.69
					c0.02-0.03,0.02-0.07,0.03-0.11c0.01,0.01,0.03,0.01,0.04,0.02c0.01,0.04,0.01,0.09,0.02,0.13c0.02,0.11,0.04,0.23,0.08,0.34
					c0.07,0.19,0.21,0.23,0.35,0.08c0.16-0.16,0.3-0.34,0.45-0.52c0.12-0.15,0.23-0.32,0.36-0.49c0.01,0.08,0.01,0.15,0.02,0.22
					c0.07,0.4,0.3,0.6,0.72,0.41c0.14-0.07,0.27-0.15,0.4-0.24c0.38-0.29,0.69-0.64,0.98-1.01c0.06-0.07,0.12-0.15,0.19-0.24
					c-0.02,0.1-0.03,0.18-0.05,0.25c-0.02,0.13-0.02,0.26,0.03,0.39c0.08,0.2,0.22,0.3,0.44,0.28c0.17-0.02,0.33-0.09,0.44-0.22
					c0.22-0.25,0.44-0.52,0.65-0.78c0.06-0.08,0.11-0.16,0.17-0.23c0.04,0.13,0.06,0.25,0.11,0.37c0.12,0.34,0.35,0.43,0.67,0.27
					c0.12-0.06,0.24-0.15,0.33-0.26c0.55-0.6,0.97-1.29,1.41-1.97c0.05-0.08,0.03-0.13-0.06-0.19c-0.02,0.03-0.04,0.05-0.06,0.07
					c-0.32,0.39-0.63,0.78-0.96,1.17c-0.21,0.24-0.42,0.48-0.69,0.66c-0.13,0.09-0.2,0.06-0.24-0.09
					C20.17,18.29,20.22,18.14,20.31,18.01z M21.66,15.37c0,0.26-0.94,1.83-1.14,1.9C20.81,16.58,21.18,15.94,21.66,15.37z
					 M13.92,20.34c-0.01-0.01-0.02-0.01-0.03-0.02c0.01-0.04,0.01-0.08,0.02-0.12c0.19-0.49,0.45-0.93,0.85-1.29
					c0.06-0.05,0.14-0.09,0.21-0.13c0.01,0.01,0.02,0.02,0.02,0.03C14.64,19.34,14.33,19.88,13.92,20.34z"/>
				<path class="st2" d="M13.78,18.8c-0.04-0.06-0.07-0.13-0.12-0.19c-0.03-0.03-0.09-0.05-0.14-0.06
					c-0.08-0.01-0.15-0.02-0.23-0.02c-0.31,0.02-0.6,0.11-0.89,0.21c-0.08,0.03-0.15,0.05-0.25,0.08c0.02-0.04,0.02-0.06,0.03-0.07
					c0.19-0.29,0.37-0.59,0.56-0.88c0.09-0.14,0.09-0.15-0.06-0.25c0.09-0.04,0.17-0.07,0.25-0.1c0.59-0.19,1.19-0.37,1.78-0.56
					c0.15-0.05,0.3-0.09,0.45-0.13c0.02-0.01,0.04-0.03,0.06-0.05c-0.02-0.02-0.03-0.05-0.05-0.06c-0.21-0.13-0.43-0.22-0.67-0.23
					c-0.33-0.01-0.66,0.04-0.98,0.12c-0.66,0.16-1.29,0.41-1.9,0.68c-0.14,0.06-0.27,0.13-0.42,0.19c0.02-0.05,0.04-0.08,0.06-0.14
					c-0.07,0.02-0.12,0.02-0.16,0.04c-0.17,0.09-0.33,0.18-0.49,0.28c-0.12,0.08-0.24,0.17-0.34,0.27
					c-0.09,0.09-0.09,0.17-0.01,0.27c0.08,0.1,0.19,0.14,0.31,0.12c0.21-0.05,0.42-0.1,0.62-0.17c0.36-0.13,0.72-0.27,1.08-0.41
					c0.04-0.01,0.07-0.02,0.11-0.03c0,0.01,0.01,0.01,0.01,0.02c-0.06,0.07-0.12,0.14-0.17,0.21c-0.24,0.35-0.49,0.7-0.72,1.06
					c-0.06,0.09-0.13,0.15-0.23,0.19c-0.14,0.06-0.28,0.13-0.41,0.2c-0.1,0.06-0.11,0.14-0.04,0.24c0.04,0.05,0.08,0.1,0.13,0.14
					c0.06,0.06,0.06,0.1,0.02,0.18c-0.2,0.38-0.33,0.78-0.32,1.21c0,0.06,0.01,0.14,0.04,0.17c0.11,0.11,0.26,0.14,0.41,0.15
					c0.01-0.12,0.02-0.22,0.04-0.32c0.02-0.11,0.06-0.21,0.1-0.31c0.11-0.3,0.24-0.6,0.35-0.91c0.06-0.16,0.16-0.27,0.31-0.34
					c0.58-0.25,1.16-0.49,1.74-0.74C13.69,18.86,13.73,18.83,13.78,18.8z"/>
				<path class="st2" d="M14.98,17.96c-0.01,0.04,0,0.09,0.02,0.12c0.02,0.02,0.08,0.02,0.11,0c0.16-0.1,0.32-0.19,0.47-0.31
					c0.17-0.13,0.3-0.29,0.37-0.49c0.03-0.07,0.03-0.15,0.04-0.24c-0.06-0.08-0.11-0.17-0.18-0.23c-0.11-0.09-0.24-0.04-0.28,0.1
					c-0.08,0.34-0.26,0.64-0.49,0.9C15.03,17.86,15,17.91,14.98,17.96z"/>
				<path class="st2" d="M19.04,16.92c0.01-0.01,0.05-0.02,0.08-0.04c0.15-0.1,0.25-0.25,0.32-0.42c0.04-0.1,0.02-0.15-0.06-0.22
					c-0.07-0.06-0.15-0.05-0.21,0.01c-0.09,0.09-0.18,0.18-0.24,0.28c-0.05,0.08-0.07,0.19-0.07,0.29
					C18.84,16.91,18.93,16.96,19.04,16.92z"/>
			</g>
		</g>
	</g>
</g>
</svg>
