<?xml version="1.0" encoding="utf-8"?>
<!-- Generator: Adobe Illustrator 27.5.0, SVG Export Plug-In . SVG Version: 6.00 Build 0)  -->
<svg version="1.1" id="Capa_1" xmlns="http://www.w3.org/2000/svg" xmlns:xlink="http://www.w3.org/1999/xlink" x="0px" y="0px"
	 viewBox="0 0 46 30" style="enable-background:new 0 0 46 30;" xml:space="preserve">
<style type="text/css">
	.st0{fill-rule:evenodd;clip-rule:evenodd;fill:#0000FF;}
</style>
<g>
	<path class="st0" d="M5.87,0.1h26.67c0.52,0,0.95,0.47,0.95,1v3.51h6.12c0.33,0,0.57,0.14,0.76,0.38l5.12,6.17
		c0.19,0.14,0.24,0.38,0.24,0.62l0,0V22.4c0,0.57-0.43,1-0.95,1h-0.09H32.54H5.96H5.87c-0.52,0-1-0.43-1-1v-6.74h6.88
		c0.52,0,0.95-0.47,0.95-1c0-0.52-0.43-0.95-0.95-0.95c-2.09,0-6.12,0-8.21,0c-0.52,0-0.95-0.47-0.95-1c0-0.38,0.24-0.76,0.57-0.9
		h4.32c0.57,0,1-0.43,1-0.95c0-0.57-0.43-1-1-1H1.08C0.6,9.78,0.27,9.4,0.27,8.93c0-0.52,0.43-1,1-1c2.7,0,5.46,0,8.16,0
		c0.57,0,1-0.43,1-1c0-0.52-0.43-0.95-1-0.95c-1.95,0-3.94,0-5.93,0c-0.52,0-0.95-0.43-0.95-1c0-0.52,0.43-0.95,0.95-0.95h1.76H4.87
		V1.1C4.87,0.57,5.35,0.1,5.87,0.1L5.87,0.1z M21.86,16.99c-0.52,0-1-0.43-1-0.95c0-0.57,0.47-1,1-1h5.31c0.57,0,1,0.43,1,1
		c0,0.52-0.43,0.95-1,0.95H21.86z M18.3,15.05c0.52,0,1,0.43,1,1c0,0.52-0.47,0.95-1,0.95h-1.76c-0.57,0-1-0.43-1-0.95
		c0-0.57,0.43-1,1-1H18.3z M12.75,5.98c-0.57,0-1-0.43-1-1c0-0.52,0.43-0.95,1-0.95h4.51c0.57,0,1,0.43,1,0.95c0,0.57-0.43,1-1,1
		H12.75z M7.06,19.84c-0.57,0-1-0.43-1-1c0-0.52,0.43-0.95,1-0.95h24.3c0.52,0,0.95,0.43,0.95,0.95c0,0.57-0.43,1-0.95,1H7.06z
		 M14.74,23.68c1.71,0,3.13,1.38,3.13,3.08c0,1.71-1.42,3.13-3.13,3.13s-3.13-1.42-3.13-3.13C11.61,25.06,13.03,23.68,14.74,23.68
		L14.74,23.68z M37.85,23.68c1.71,0,3.08,1.38,3.08,3.08c0,1.71-1.38,3.13-3.08,3.13c-1.71,0-3.13-1.42-3.13-3.13
		C34.72,25.06,36.14,23.68,37.85,23.68L37.85,23.68z M34.39,13.53V9.21c0-0.52,0.43-0.95,0.95-0.95h3.37c0.28,0,0.57,0.09,0.76,0.33
		l3.65,4.32c0.14,0.14,0.24,0.38,0.24,0.62c0,0.52-0.47,1-1,1h-7.02C34.82,14.53,34.39,14.1,34.39,13.53L34.39,13.53z"/>
</g>
</svg>
