<?xml version="1.0" encoding="utf-8"?>
<!-- Generator: Adobe Illustrator 27.5.0, SVG Export Plug-In . SVG Version: 6.00 Build 0)  -->
<svg version="1.1" id="Capa_1" xmlns="http://www.w3.org/2000/svg" xmlns:xlink="http://www.w3.org/1999/xlink" x="0px" y="0px"
	 viewBox="0 0 19 19" style="enable-background:new 0 0 19 19;" xml:space="preserve">
<style type="text/css">
	.st0{fill-rule:evenodd;clip-rule:evenodd;fill:#FF5900;}
</style>
<g>
	<path class="st0" d="M9.91,0.73l2.71,5.37l5.98,0.93c0.23,0.05,0.4,0.26,0.37,0.51c-0.02,0.09-0.07,0.19-0.14,0.26l-4.27,4.25
		L15.51,18c0.05,0.23-0.12,0.47-0.37,0.51c-0.09,0.02-0.19,0-0.28-0.05l-5.35-2.75l-5.37,2.75c-0.23,0.12-0.49,0.02-0.61-0.19
		C3.49,18.19,3.46,18.1,3.49,18l0.96-5.95L0.17,7.8c-0.19-0.19-0.19-0.47,0-0.65c0.07-0.07,0.16-0.12,0.26-0.12L6.38,6.1l2.73-5.37
		c0.09-0.23,0.37-0.3,0.58-0.21C9.79,0.56,9.86,0.63,9.91,0.73L9.91,0.73z"/>
</g>
</svg>
