<?xml version="1.0" encoding="utf-8"?>
<!-- Generator: Adobe Illustrator 27.5.0, SVG Export Plug-In . SVG Version: 6.00 Build 0)  -->
<svg version="1.1" id="Capa_1" xmlns="http://www.w3.org/2000/svg" xmlns:xlink="http://www.w3.org/1999/xlink" x="0px" y="0px"
	 viewBox="0 0 42 35" style="enable-background:new 0 0 42 35;" xml:space="preserve">
<style type="text/css">
	.st0{fill:#3333FF;}
</style>
<g>
	<path class="st0" d="M21,6.47c1.03-1.75,2.06-3.09,3.35-4.12c1.75-1.39,3.81-2.11,6.49-2.11c3.04,0,5.77,1.24,7.73,3.2
		c2.01,2.01,3.2,4.74,3.2,7.73c0,5.26-1.49,9.18-4.9,12.78c-3.3,3.56-8.3,6.75-15.36,10.67c-0.36,0.21-0.77,0.21-1.13,0
		c-6.29-3.87-11.29-7.06-14.69-10.57c-3.61-3.66-5.46-7.63-5.46-12.89c0-2.99,1.19-5.72,3.2-7.73c1.96-1.96,4.69-3.2,7.73-3.2
		C15.95,0.23,18.63,2.29,21,6.47L21,6.47z"/>
</g>
</svg>
