<?xml version="1.0" encoding="utf-8"?>
<!-- Generator: Adobe Illustrator 27.7.0, SVG Export Plug-In . SVG Version: 6.00 Build 0)  -->
<svg version="1.1" id="Capa_1" xmlns="http://www.w3.org/2000/svg" xmlns:xlink="http://www.w3.org/1999/xlink" x="0px" y="0px"
	 viewBox="0 0 174.2 26" style="enable-background:new 0 0 174.2 26;" xml:space="preserve">
<style type="text/css">
	.st0{fill:#1D1D1D;}
	.st1{fill:#4E4E4E;}
	.st2{fill:#818181;}
	.st3{fill:#A7A7A7;}
	.st4{fill:#232323;}
	.st5{fill:#767676;}
	.st6{fill:#FFFFFF;}
	.st7{fill:#666666;}
	.st8{fill-rule:evenodd;clip-rule:evenodd;fill:#FFFFFF;}
	.st9{fill-rule:evenodd;clip-rule:evenodd;fill:#CFCFCF;}
	.st10{fill-rule:evenodd;clip-rule:evenodd;fill:#626262;}
	.st11{fill:#515151;}
	.st12{fill:#4D4D4D;}
</style>
<g>
	<g>
		<path class="st0" d="M68.6,21.4c-0.1-0.1-0.2-0.1-0.3-0.2c-0.1,0-0.2-0.1-0.4-0.1c-0.1,0-0.1,0-0.2,0s-0.1,0-0.2,0.1
			c-0.1,0-0.1,0.1-0.2,0.1s-0.1,0.1-0.2,0.2c-0.1-0.1-0.2-0.2-0.3-0.3c-0.1-0.1-0.3-0.1-0.4-0.1c-0.1,0-0.1,0-0.2,0
			c-0.1,0-0.1,0-0.2,0.1c-0.1,0-0.1,0.1-0.2,0.1c-0.1,0-0.1,0.1-0.1,0.2v-0.3h-0.5v2.2h0.5v-1.2c0-0.1,0-0.2,0-0.3
			c0-0.1,0.1-0.1,0.1-0.2c0.1-0.1,0.1-0.1,0.2-0.1c0.1,0,0.1,0,0.2,0c0.2,0,0.3,0.1,0.4,0.2c0.1,0.1,0.1,0.2,0.1,0.4v1.2h0.5v-1.2
			c0-0.1,0-0.2,0-0.3c0-0.1,0.1-0.1,0.1-0.2c0.1-0.1,0.1-0.1,0.2-0.1c0.1,0,0.1,0,0.2,0c0.2,0,0.3,0.1,0.4,0.2
			c0.1,0.1,0.1,0.2,0.1,0.4v1.2h0.5V22c0-0.1,0-0.3-0.1-0.4C68.8,21.6,68.7,21.5,68.6,21.4z"/>
		<path class="st0" d="M71.1,21.5c-0.1-0.1-0.2-0.2-0.3-0.2c-0.1-0.1-0.3-0.1-0.4-0.1s-0.3,0-0.4,0.1c-0.1,0.1-0.3,0.1-0.4,0.2
			c-0.1,0.1-0.2,0.2-0.3,0.4c-0.1,0.1-0.1,0.3-0.1,0.5c0,0.2,0,0.3,0.1,0.5c0.1,0.1,0.1,0.3,0.2,0.4c0.1,0.1,0.2,0.2,0.4,0.2
			c0.1,0.1,0.3,0.1,0.4,0.1c0.2,0,0.3,0,0.4-0.1c0.1-0.1,0.2-0.1,0.3-0.2v0.3h0.5v-2.2h-0.5V21.5z M71.1,22.6c0,0.1-0.1,0.2-0.1,0.2
			c-0.1,0.1-0.1,0.1-0.2,0.2c-0.1,0-0.2,0.1-0.3,0.1c-0.1,0-0.2,0-0.3-0.1c-0.1,0-0.2-0.1-0.2-0.2c-0.1-0.1-0.1-0.1-0.1-0.2
			s-0.1-0.2-0.1-0.3c0-0.1,0-0.2,0.1-0.3s0.1-0.2,0.1-0.2c0.1-0.1,0.1-0.1,0.2-0.2c0.1,0,0.2-0.1,0.3-0.1c0.1,0,0.2,0,0.3,0.1
			c0.1,0,0.2,0.1,0.2,0.2c0.1,0.1,0.1,0.1,0.1,0.2c0,0.1,0.1,0.2,0.1,0.3C71.1,22.4,71.1,22.5,71.1,22.6z"/>
		<path class="st0" d="M73.8,22.3c-0.1-0.1-0.3-0.2-0.6-0.2l-0.2,0c-0.1,0-0.1,0-0.1,0c0,0-0.1,0-0.1,0s-0.1,0-0.1-0.1
			c0,0,0-0.1,0-0.1c0-0.1,0-0.1,0.1-0.2c0.1-0.1,0.2-0.1,0.3-0.1c0.1,0,0.1,0,0.2,0s0.1,0,0.2,0.1c0.1,0,0.1,0,0.2,0.1
			c0.1,0,0.1,0,0.1,0.1l0.2-0.4c-0.1-0.1-0.3-0.1-0.4-0.2s-0.3-0.1-0.5-0.1c-0.1,0-0.3,0-0.4,0.1c-0.1,0-0.2,0.1-0.3,0.1
			c-0.1,0.1-0.1,0.1-0.2,0.2c0,0.1-0.1,0.2-0.1,0.3c0,0.2,0.1,0.3,0.2,0.4c0.1,0.1,0.3,0.2,0.6,0.2l0.2,0c0.1,0,0.2,0.1,0.3,0.1
			c0.1,0,0.1,0.1,0.1,0.2c0,0.1,0,0.2-0.1,0.2s-0.2,0.1-0.4,0.1c-0.1,0-0.2,0-0.2,0c-0.1,0-0.1,0-0.2-0.1c-0.1,0-0.1,0-0.2-0.1
			c-0.1,0-0.1-0.1-0.1-0.1L72,23.2c0.1,0.1,0.2,0.1,0.3,0.2c0.1,0,0.2,0.1,0.3,0.1c0.1,0,0.2,0,0.2,0c0.1,0,0.1,0,0.2,0
			c0.2,0,0.3,0,0.4-0.1c0.1,0,0.2-0.1,0.3-0.2c0.1-0.1,0.2-0.1,0.2-0.2c0-0.1,0.1-0.2,0.1-0.3C74,22.6,73.9,22.4,73.8,22.3z"/>
		<path class="st0" d="M78.3,21.5c-0.1-0.1-0.2-0.2-0.3-0.2c-0.1-0.1-0.3-0.1-0.4-0.1c-0.2,0-0.3,0-0.5,0.1
			c-0.1,0.1-0.3,0.1-0.4,0.2c-0.1,0.1-0.2,0.2-0.2,0.4c-0.1,0.1-0.1,0.3-0.1,0.5s0,0.3,0.1,0.5c0.1,0.1,0.1,0.3,0.2,0.4
			c0.1,0.1,0.2,0.2,0.4,0.2c0.1,0.1,0.3,0.1,0.5,0.1c0.2,0,0.3,0,0.5-0.1c0.2-0.1,0.3-0.1,0.4-0.2l-0.2-0.3C78.2,22.9,78.1,23,78,23
			c-0.1,0-0.2,0.1-0.3,0.1c-0.1,0-0.2,0-0.2,0c-0.1,0-0.1-0.1-0.2-0.1c-0.1,0-0.1-0.1-0.2-0.2c0-0.1-0.1-0.2-0.1-0.3h1.6
			c0,0,0-0.1,0-0.1c0,0,0-0.1,0-0.1c0-0.2,0-0.3-0.1-0.5C78.5,21.7,78.4,21.6,78.3,21.5z M77,22.1c0-0.1,0-0.2,0.1-0.2
			c0-0.1,0.1-0.1,0.1-0.2s0.1-0.1,0.2-0.1s0.1,0,0.2,0c0.2,0,0.3,0.1,0.4,0.1c0.1,0.1,0.2,0.2,0.2,0.4L77,22.1L77,22.1z"/>
		<path class="st0" d="M84.8,21.5c-0.1-0.1-0.2-0.2-0.3-0.2c-0.1-0.1-0.3-0.1-0.4-0.1s-0.3,0-0.4,0.1c-0.1,0.1-0.3,0.1-0.4,0.2
			c-0.1,0.1-0.2,0.2-0.2,0.4C83,22,83,22.1,83,22.3c0,0.2,0,0.3,0.1,0.5c0.1,0.1,0.1,0.3,0.2,0.4c0.1,0.1,0.2,0.2,0.4,0.2
			c0.1,0.1,0.3,0.1,0.4,0.1c0.2,0,0.3,0,0.4-0.1c0.1-0.1,0.2-0.1,0.3-0.2v0.3h0.5v-2.2h-0.5V21.5z M84.8,22.6c0,0.1-0.1,0.2-0.1,0.2
			c-0.1,0.1-0.1,0.1-0.2,0.2c-0.1,0-0.2,0.1-0.3,0.1c-0.1,0-0.2,0-0.3-0.1c-0.1,0-0.2-0.1-0.2-0.2c-0.1-0.1-0.1-0.1-0.1-0.2
			s-0.1-0.2-0.1-0.3c0-0.1,0-0.2,0.1-0.3c0-0.1,0.1-0.2,0.1-0.2c0.1-0.1,0.1-0.1,0.2-0.2c0.1,0,0.2-0.1,0.3-0.1c0.1,0,0.2,0,0.3,0.1
			c0.1,0,0.2,0.1,0.2,0.2c0.1,0.1,0.1,0.1,0.1,0.2c0,0.1,0.1,0.2,0.1,0.3C84.8,22.4,84.8,22.5,84.8,22.6z"/>
		<path class="st0" d="M75.9,23c-0.1,0-0.2,0-0.2,0c-0.1,0-0.1,0-0.1,0c0,0-0.1,0-0.1-0.1c0,0-0.1-0.1-0.1-0.1c0-0.1,0-0.1,0-0.2v-1
			h0.8v-0.4h-0.8v-0.7h-0.5v0.7h-0.4v0.4h0.4v1c0,0.3,0.1,0.5,0.2,0.7c0.1,0.1,0.3,0.2,0.6,0.2c0.1,0,0.3,0,0.4-0.1
			c0.1,0,0.1-0.1,0.2-0.1L76,22.9C76,22.9,75.9,23,75.9,23z"/>
		<path class="st0" d="M80.3,21.1c-0.1,0-0.3,0-0.4,0.1c-0.1,0.1-0.2,0.2-0.3,0.3v-0.3h-0.4v2.2h0.4v-1.2c0-0.1,0-0.2,0-0.3
			c0-0.1,0.1-0.1,0.1-0.2c0.1-0.1,0.1-0.1,0.2-0.1s0.1,0,0.2,0c0.1,0,0.1,0,0.2,0c0,0,0.1,0,0.1,0l0.1-0.5c0,0-0.1,0-0.1,0
			C80.4,21.1,80.3,21.1,80.3,21.1z"/>
		<path class="st0" d="M87,21.1c-0.1,0-0.3,0-0.4,0.1c-0.1,0.1-0.2,0.2-0.3,0.3v-0.3h-0.4v2.2h0.4v-1.2c0-0.1,0-0.2,0-0.3
			c0-0.1,0.1-0.1,0.1-0.2c0.1-0.1,0.1-0.1,0.2-0.1c0.1,0,0.1,0,0.2,0c0.1,0,0.1,0,0.2,0c0,0,0.1,0,0.1,0l0.1-0.5c0,0-0.1,0-0.1,0
			C87.1,21.1,87.1,21.1,87,21.1z"/>
		<path class="st0" d="M89.3,20.3v1.2c-0.1-0.1-0.2-0.2-0.3-0.2c-0.1-0.1-0.3-0.1-0.4-0.1s-0.3,0-0.4,0.1c-0.1,0.1-0.3,0.1-0.4,0.2
			s-0.2,0.2-0.2,0.4c-0.1,0.1-0.1,0.3-0.1,0.5c0,0.2,0,0.3,0.1,0.5c0.1,0.1,0.1,0.3,0.2,0.4c0.1,0.1,0.2,0.2,0.4,0.2
			c0.1,0.1,0.3,0.1,0.4,0.1c0.2,0,0.3,0,0.4-0.1c0.1-0.1,0.2-0.1,0.3-0.2v0.3h0.5v-3.1L89.3,20.3L89.3,20.3z M89.2,22.6
			c0,0.1-0.1,0.2-0.1,0.2C89,22.9,89,22.9,88.9,23c-0.1,0-0.2,0.1-0.3,0.1c-0.1,0-0.2,0-0.3-0.1c-0.1,0-0.2-0.1-0.2-0.2
			c-0.1-0.1-0.1-0.1-0.1-0.2c0-0.1-0.1-0.2-0.1-0.3c0-0.1,0-0.2,0.1-0.3s0.1-0.2,0.1-0.2c0.1-0.1,0.1-0.1,0.2-0.2
			c0.1,0,0.2-0.1,0.3-0.1c0.1,0,0.2,0,0.3,0.1c0.1,0,0.2,0.1,0.2,0.2c0.1,0.1,0.1,0.1,0.1,0.2c0,0.1,0.1,0.2,0.1,0.3
			C89.3,22.4,89.3,22.5,89.2,22.6z"/>
		<path class="st0" d="M81.4,21.8c0.1-0.1,0.1-0.1,0.2-0.2c0.1,0,0.2-0.1,0.3-0.1l0,0c0.1,0,0.2,0,0.3,0.1c0.1,0,0.2,0.1,0.2,0.1
			l0.2-0.4c-0.1-0.1-0.2-0.1-0.3-0.2c-0.2-0.1-0.3-0.1-0.5-0.1c-0.2,0-0.3,0-0.5,0.1c-0.2,0.1-0.3,0.1-0.4,0.2
			c-0.1,0.1-0.2,0.2-0.3,0.4c-0.1,0.1-0.1,0.3-0.1,0.5c0,0.2,0,0.3,0.1,0.5c0.1,0.1,0.1,0.3,0.3,0.4c0.1,0.1,0.2,0.2,0.4,0.2
			c0.2,0.1,0.3,0.1,0.5,0.1c0.2,0,0.3,0,0.5-0.1c0.1,0,0.2-0.1,0.3-0.2l-0.2-0.4c-0.1,0.1-0.1,0.1-0.2,0.1C82.1,23,82,23,81.9,23
			l0,0c-0.1,0-0.2,0-0.3-0.1c-0.1,0-0.2-0.1-0.2-0.2c-0.1-0.1-0.1-0.1-0.2-0.2c0-0.1-0.1-0.2-0.1-0.3c0-0.1,0-0.2,0.1-0.3
			C81.3,21.9,81.4,21.9,81.4,21.8z"/>
	</g>
	<g>
		<path class="st0" d="M90.8,23.1C90.8,23.1,90.8,23.1,90.8,23.1c0.1,0,0.1,0,0.2,0.1c0,0,0,0,0.1,0.1c0,0,0,0.1,0,0.1
			c0,0,0,0.1,0,0.1c0,0,0,0.1-0.1,0.1c0,0,0,0-0.1,0.1c0,0-0.1,0-0.1,0c0,0-0.1,0-0.1,0c0,0-0.1,0-0.1-0.1c0,0,0,0-0.1-0.1
			c0,0,0-0.1,0-0.1c0,0,0-0.1,0-0.1c0,0,0-0.1,0.1-0.1C90.6,23.1,90.6,23.1,90.8,23.1C90.7,23.1,90.7,23.1,90.8,23.1z M90.8,23.5
			C90.8,23.5,90.8,23.5,90.8,23.5c0.1,0,0.1,0,0.1-0.1c0,0,0,0,0-0.1s0,0,0-0.1c0,0,0,0,0-0.1c0,0,0,0,0-0.1s0,0-0.1,0
			c0,0,0,0-0.1,0c0,0,0,0-0.1,0c0,0,0,0-0.1,0c0,0,0,0,0,0.1c0,0,0,0,0,0.1c0,0,0,0,0,0.1c0,0,0,0,0,0.1
			C90.7,23.4,90.7,23.5,90.8,23.5C90.7,23.5,90.7,23.5,90.8,23.5z M90.8,23.2C90.8,23.2,90.8,23.2,90.8,23.2
			C90.9,23.2,90.9,23.3,90.8,23.2c0.1,0.1,0.1,0.1,0.1,0.1c0,0,0,0,0,0l0.1,0.1h-0.1l-0.1-0.1h0v0.1h-0.1v-0.2L90.8,23.2L90.8,23.2z
			 M90.7,23.3L90.7,23.3L90.7,23.3C90.8,23.3,90.8,23.3,90.7,23.3C90.8,23.3,90.8,23.3,90.7,23.3C90.8,23.3,90.8,23.3,90.7,23.3
			C90.8,23.3,90.8,23.3,90.7,23.3L90.7,23.3L90.7,23.3z"/>
	</g>
	<g>
		<path class="st1" d="M74.3,10.8c0-2.7,1.2-5,3.2-6.6c-1.4-1.1-3.2-1.8-5.2-1.8c-4.6,0-8.4,3.7-8.4,8.4s3.7,8.4,8.4,8.4
			c2,0,3.8-0.7,5.2-1.8C75.6,15.8,74.3,13.5,74.3,10.8z"/>
		<path class="st2" d="M74.3,10.8c0,2.7,1.2,5,3.2,6.6c1.9-1.5,3.2-3.9,3.2-6.6s-1.2-5-3.2-6.6C75.6,5.8,74.3,8.2,74.3,10.8z"/>
		<path class="st3" d="M82.7,2.4c-2,0-3.8,0.7-5.2,1.8c1.9,1.5,3.2,3.9,3.2,6.6s-1.2,5-3.2,6.6c1.4,1.1,3.2,1.8,5.2,1.8
			c4.6,0,8.4-3.7,8.4-8.4S87.3,2.4,82.7,2.4z"/>
	</g>
</g>
<g>
	<g>
		<path class="st4" d="M20.9,12.7c0-3.4-4.2-6.1-9.3-6.1s-9.3,2.7-9.3,6.1c0,0.1,0,0.3,0,0.4c0,3.6,3.6,6.4,9.3,6.4
			c5.7,0,9.3-2.9,9.3-6.4C20.9,12.9,20.9,12.8,20.9,12.7z"/>
		<path class="st5" d="M20.5,12.7c0,3.2-4,5.7-9,5.7s-9-2.6-9-5.7s4-5.7,9-5.7C16.5,6.9,20.5,9.5,20.5,12.7z"/>
		<g>
			<path class="st6" d="M8.6,10.9c0,0-0.1,0.1,0,0.2c0.1,0.2,0.6,0.3,1,0.2c0.3-0.1,0.6-0.3,0.9-0.6c0.4-0.3,0.7-0.6,1.1-0.7
				c0.4-0.1,0.6-0.1,0.8,0c0.2,0.1,0.4,0.2,0.7,0.4c0.6,0.5,3.1,2.6,3.5,3c0.3-0.2,1.9-0.8,3.9-1.3c-0.2-1.1-0.9-2.1-1.9-2.9
				c-1.4,0.6-3.2,0.9-4.9,0.1c0,0-0.9-0.4-1.8-0.4c-1.3,0-1.9,0.6-2.5,1.2L8.6,10.9z"/>
			<path class="st6" d="M16.5,13.6c0,0-2.9-2.5-3.6-3c-0.4-0.3-0.6-0.4-0.8-0.4c-0.1,0-0.3,0-0.4,0c-0.3,0.1-0.7,0.3-1,0.6
				c-0.4,0.3-0.7,0.6-1,0.6c-0.4,0.1-0.9,0-1.1-0.2c-0.1-0.1-0.2-0.1-0.2-0.2c-0.1-0.2,0.1-0.3,0.1-0.4l0.8-0.9
				c0.1-0.1,0.2-0.2,0.3-0.3C9.3,9.6,9,9.7,8.8,9.7C8.5,9.8,8.2,9.9,7.9,9.9c-0.1,0-0.7-0.1-0.9-0.1C6.4,9.6,5.7,9.4,4.8,8.9
				c-1.1,0.8-1.9,1.9-2.1,3c0.2,0,0.4,0.1,0.5,0.1c2.5,0.6,3.3,1.1,3.5,1.3c0.2-0.2,0.4-0.3,0.6-0.3c0.3,0,0.5,0.1,0.7,0.4
				c0.1-0.1,0.3-0.2,0.6-0.2c0.1,0,0.2,0,0.4,0.1c0.3,0.1,0.4,0.3,0.5,0.5c0.1,0,0.2-0.1,0.4-0.1s0.3,0,0.4,0.1
				c0.5,0.2,0.5,0.7,0.5,1c0,0,0.1,0,0.1,0c0.6,0,1,0.5,1,1c0,0.2,0,0.3-0.1,0.5c0.2,0.1,0.5,0.3,0.9,0.2c0.3,0,0.4-0.1,0.4-0.2
				c0,0,0.1-0.1,0-0.1l-0.7-0.8c0,0-0.1-0.1-0.1-0.2c0,0,0.1,0,0.2,0.1c0.4,0.3,0.8,0.8,0.8,0.8c0,0,0,0.1,0.2,0.1
				c0.1,0,0.4,0,0.6-0.1c0,0,0.1-0.1,0.1-0.1l0,0c0.2-0.2,0-0.5,0-0.5l-0.8-0.9c0,0-0.1-0.1-0.1-0.2c0,0,0.1,0,0.2,0.1
				c0.3,0.2,0.6,0.6,1,0.9c0.1,0.1,0.4,0.2,0.8,0c0.3-0.2,0.3-0.4,0.3-0.5c0-0.2-0.2-0.3-0.2-0.3l-1.1-1.2c0,0-0.1-0.1-0.1-0.2
				c0,0,0.1,0,0.2,0.1c0.4,0.3,1.4,1.2,1.4,1.2c0,0,0.4,0.3,0.8,0c0.2-0.1,0.2-0.2,0.3-0.4C16.7,13.8,16.5,13.6,16.5,13.6z"/>
			<path class="st6" d="M10.9,15c-0.2,0-0.4,0.1-0.4,0.1c0,0,0-0.1,0-0.1c0,0,0.3-0.7-0.3-1c-0.4-0.2-0.7,0-0.8,0.1c0,0,0,0,0,0
				c0-0.1-0.1-0.5-0.4-0.6c-0.5-0.2-0.9,0.2-1,0.3c0-0.3-0.3-0.5-0.6-0.5c-0.3,0-0.6,0.3-0.6,0.6c0,0.3,0.3,0.6,0.6,0.6
				c0.2,0,0.3-0.1,0.4-0.2c0,0,0,0,0,0c0,0.2-0.1,0.7,0.5,0.9c0.2,0.1,0.4,0,0.6-0.1c0,0,0.1,0,0.1,0c0,0.1,0,0.5,0.4,0.6
				c0.3,0.1,0.5,0,0.7-0.1c0.1-0.1,0.1,0,0.1,0c0,0.4,0.4,0.7,0.8,0.7c0.4,0,0.8-0.4,0.8-0.8C11.7,15.4,11.3,15,10.9,15z"/>
		</g>
		<path class="st4" d="M16.6,13.3c-0.9-0.8-2.9-2.5-3.5-3c-0.3-0.2-0.5-0.4-0.7-0.4c-0.1,0-0.2-0.1-0.4-0.1c-0.1,0-0.3,0-0.4,0.1
			c-0.4,0.1-0.7,0.4-1.1,0.7l0,0c-0.3,0.3-0.7,0.5-0.9,0.6c-0.1,0-0.2,0-0.3,0c-0.3,0-0.5-0.1-0.6-0.2c0,0,0-0.1,0-0.1l0,0l0.8-0.8
			c0.6-0.6,1.2-1.2,2.5-1.2c0,0,0,0,0.1,0c0.8,0,1.6,0.4,1.7,0.4c0.8,0.4,1.6,0.6,2.4,0.6c0.8,0,1.7-0.2,2.6-0.6
			C18.6,9.1,18.5,9,18.4,9c-0.8,0.3-1.6,0.5-2.3,0.5c-0.7,0-1.5-0.2-2.2-0.5c0,0-0.9-0.4-1.9-0.4c0,0,0,0-0.1,0
			c-1.1,0-1.7,0.4-2.2,0.8C9.4,9.3,9,9.4,8.7,9.5C8.4,9.5,8.2,9.6,8,9.6c-0.1,0-0.3,0-0.3,0C7.4,9.6,6,9.3,4.9,8.8
			C4.8,8.9,4.7,9,4.6,9.1c1.1,0.5,2.5,0.8,3,0.9c0.1,0,0.3,0,0.4,0c0.3,0,0.6-0.1,0.9-0.2c0.2,0,0.3-0.1,0.5-0.1
			C9.3,9.7,9.2,9.8,9.2,9.8l-0.8,0.8c-0.1,0.1-0.2,0.2-0.1,0.4c0,0.1,0.1,0.2,0.2,0.2c0.2,0.1,0.5,0.2,0.8,0.2c0.1,0,0.2,0,0.3,0
			c0.3-0.1,0.7-0.4,1-0.6c0.3-0.2,0.7-0.5,1-0.6c0.1,0,0.2,0,0.3,0c0,0,0.1,0,0.1,0c0.2,0,0.4,0.1,0.8,0.4c0.6,0.5,3.5,3,3.5,3
			c0,0,0.2,0.2,0.2,0.4c0,0.1-0.1,0.3-0.2,0.4c-0.1,0.1-0.2,0.1-0.4,0.1c-0.2,0-0.3-0.1-0.3-0.1c0,0-1-0.9-1.4-1.2
			c-0.1,0-0.1-0.1-0.2-0.1c0,0-0.1,0-0.1,0c-0.1,0.1,0,0.2,0.1,0.2l1.1,1.2c0,0,0.1,0.1,0.2,0.3c0,0.2-0.1,0.4-0.3,0.5
			c-0.1,0.1-0.3,0.1-0.4,0.1c-0.2,0-0.3-0.1-0.3-0.1l-0.2-0.2c-0.3-0.3-0.6-0.6-0.8-0.8c-0.1,0-0.1-0.1-0.2-0.1c0,0-0.1,0-0.1,0
			c0,0,0,0.1,0,0.2c0,0,0.1,0.1,0.1,0.1l0.8,0.9c0,0,0.2,0.2,0,0.4l0,0c0,0-0.1,0.1-0.1,0.1c-0.1,0.1-0.3,0.1-0.4,0.1
			c0,0-0.1,0-0.1,0c-0.1,0-0.1,0-0.2-0.1l0,0c0,0-0.5-0.5-0.8-0.8c0,0-0.1-0.1-0.2-0.1c0,0-0.1,0-0.1,0c-0.1,0.1,0,0.2,0.1,0.2
			l0.7,0.8c0,0,0,0,0,0c0,0-0.1,0.1-0.4,0.2c0,0-0.1,0-0.1,0c-0.3,0-0.6-0.1-0.7-0.2c0.1-0.1,0.1-0.3,0.1-0.5c0-0.6-0.5-1.1-1.1-1.1
			c0,0,0,0,0,0c0-0.3,0-0.8-0.5-1c-0.1-0.1-0.3-0.1-0.4-0.1c-0.1,0-0.2,0-0.3,0.1c-0.1-0.2-0.3-0.4-0.5-0.4c-0.1,0-0.3-0.1-0.4-0.1
			c-0.2,0-0.4,0.1-0.6,0.2c-0.2-0.2-0.4-0.3-0.7-0.3c-0.2,0-0.5,0.1-0.6,0.3c-0.2-0.2-1.1-0.7-3.5-1.3c-0.1,0-0.4-0.1-0.5-0.2
			c0,0.1,0,0.3-0.1,0.4c0,0,0.4,0.1,0.5,0.1c2.4,0.5,3.2,1.1,3.3,1.2c0,0.1-0.1,0.2-0.1,0.3c0,0.5,0.4,0.9,0.9,0.9
			c0.1,0,0.1,0,0.2,0c0.1,0.4,0.3,0.6,0.7,0.8c0.1,0,0.2,0.1,0.3,0.1c0.1,0,0.1,0,0.2,0c0.1,0.2,0.2,0.4,0.6,0.5
			c0.1,0,0.2,0.1,0.4,0.1c0.1,0,0.2,0,0.3,0c0.2,0.4,0.6,0.7,1,0.7c0.3,0,0.6-0.1,0.8-0.3c0.2,0.1,0.5,0.3,0.9,0.3c0,0,0.1,0,0.1,0
			c0.4,0,0.5-0.2,0.6-0.3c0,0,0,0,0-0.1c0.1,0,0.2,0,0.3,0c0.2,0,0.4-0.1,0.6-0.2c0.2-0.1,0.3-0.3,0.3-0.5v0c0.1,0,0.1,0,0.2,0
			c0.2,0,0.4-0.1,0.6-0.2c0.4-0.2,0.4-0.6,0.4-0.8c0.1,0,0.1,0,0.2,0c0.2,0,0.4-0.1,0.6-0.2c0.2-0.1,0.4-0.4,0.4-0.6
			c0-0.2,0-0.4-0.1-0.5c0.6-0.3,2-0.8,3.7-1.2c0-0.1,0-0.3-0.1-0.4C18.5,12.5,17,13.1,16.6,13.3z M10.9,16.5c-0.4,0-0.7-0.3-0.7-0.7
			c0,0,0-0.1-0.1-0.1c0,0-0.1,0-0.1,0c-0.1,0.1-0.2,0.2-0.4,0.2c-0.1,0-0.2,0-0.2-0.1C9,15.7,9,15.4,9,15.3c0,0,0-0.1,0-0.1l0,0h0
			c0,0,0,0-0.1,0c-0.1,0.1-0.2,0.1-0.4,0.1c-0.1,0-0.1,0-0.2,0c-0.5-0.2-0.5-0.7-0.5-0.9c0,0,0-0.1,0-0.1l0,0l0,0
			c-0.1,0.1-0.2,0.2-0.4,0.2c-0.3,0-0.6-0.3-0.6-0.6s0.3-0.6,0.6-0.6c0.3,0,0.5,0.2,0.6,0.5l0,0.2L8,13.9c0,0,0.2-0.4,0.7-0.4
			c0.1,0,0.2,0,0.2,0c0.3,0.1,0.4,0.4,0.4,0.5c0,0.1,0.1,0.1,0.1,0.1c0,0,0.1,0,0.1,0C9.5,14.1,9.7,14,9.9,14c0.1,0,0.2,0,0.3,0.1
			c0.5,0.2,0.3,0.9,0.3,0.9c0,0.1,0,0.2,0,0.2l0,0h0c0,0,0.1,0,0.1,0c0.1,0,0.2-0.1,0.3-0.1l0,0c0.4,0,0.7,0.3,0.7,0.7
			C11.6,16.2,11.3,16.5,10.9,16.5z"/>
	</g>
	<g>
		<path class="st4" d="M52.6,8.8c-0.3-0.4-0.8-0.6-1.5-0.6c-0.7,0-1.2,0.2-1.5,0.6c-0.3,0.4-0.5,0.9-0.5,1.5c0,0.6,0.2,1.1,0.5,1.5
			c0.3,0.4,0.8,0.6,1.5,0.6c0.7,0,1.2-0.2,1.5-0.6c0.3-0.4,0.5-0.9,0.5-1.5C53.1,9.7,53,9.2,52.6,8.8z M51.8,11.2
			c-0.2,0.2-0.4,0.3-0.7,0.3s-0.5-0.1-0.7-0.3s-0.2-0.5-0.2-0.9c0-0.4,0.1-0.7,0.2-0.9S50.8,9,51.1,9c0.3,0,0.5,0.1,0.7,0.3
			C52,9.6,52,9.9,52,10.3C52,10.7,52,11,51.8,11.2z"/>
		<path class="st4" d="M44,8.4c-0.3-0.2-0.7-0.3-1.2-0.3c-0.7,0-1.1,0.2-1.4,0.5c-0.2,0.2-0.3,0.5-0.3,0.9h1c0-0.2,0.1-0.3,0.1-0.4
			C42.4,9.1,42.6,9,42.8,9c0.2,0,0.4,0,0.5,0.1c0.1,0.1,0.2,0.2,0.2,0.3c0,0.1-0.1,0.2-0.2,0.3c-0.1,0-0.2,0.1-0.4,0.1l-0.4,0
			c-0.4,0.1-0.7,0.1-0.9,0.3c-0.4,0.2-0.6,0.6-0.6,1.1c0,0.4,0.1,0.7,0.4,0.9c0.2,0.2,0.5,0.3,0.9,0.3c2.3,0.1,2.3-1.2,2.3-1.5V9.4
			C44.6,8.9,44.4,8.6,44,8.4z M43.5,10.7c0,0.3-0.1,0.6-0.3,0.7c-0.2,0.1-0.4,0.2-0.6,0.2c-0.1,0-0.3,0-0.4-0.1
			c-0.1-0.1-0.2-0.2-0.2-0.4c0-0.2,0.1-0.3,0.2-0.4c0.1-0.1,0.3-0.1,0.5-0.1l0.2,0c0.1,0,0.2,0,0.3-0.1c0.1,0,0.1-0.1,0.2-0.1
			L43.5,10.7L43.5,10.7z"/>
		<path class="st4" d="M38.8,9.1c0.3,0,0.5,0.1,0.6,0.2c0.1,0.1,0.1,0.3,0.2,0.4h1.1c-0.1-0.6-0.3-1-0.6-1.2
			c-0.3-0.2-0.8-0.3-1.3-0.3c-0.6,0-1.1,0.2-1.5,0.6c-0.4,0.4-0.5,0.9-0.5,1.6c0,0.6,0.2,1.1,0.5,1.5c0.3,0.4,0.8,0.6,1.5,0.6
			s1.2-0.2,1.5-0.7c0.2-0.3,0.3-0.6,0.4-0.9h-1.1c0,0.2-0.1,0.4-0.2,0.5c-0.1,0.1-0.3,0.2-0.5,0.2c-0.4,0-0.6-0.2-0.7-0.5
			C38,10.8,38,10.6,38,10.3c0-0.3,0-0.6,0.1-0.7C38.2,9.3,38.5,9.1,38.8,9.1z"/>
		<path class="st4" d="M36.5,8.2c-2.3,0-2.2,2-2.2,2v2.1h1v-2c0-0.3,0-0.6,0.1-0.7c0.1-0.3,0.4-0.4,0.8-0.4c0,0,0.1,0,0.1,0
			c0.1,0,0.1,0,0.2,0V8.2C36.6,8.2,36.6,8.2,36.5,8.2C36.6,8.2,36.6,8.2,36.5,8.2z"/>
		<path class="st4" d="M32.7,11.2c0,0.1-0.1,0.1-0.1,0.2c-0.1,0.1-0.3,0.2-0.6,0.2c-0.2,0-0.4,0-0.6-0.1C31.1,11.3,31,11,31,10.6
			h2.9c0-0.3,0-0.6,0-0.8c0-0.3-0.2-0.6-0.3-0.8c-0.2-0.3-0.4-0.5-0.7-0.6c-0.3-0.1-0.6-0.2-0.9-0.2c-0.6,0-1.1,0.2-1.4,0.6
			c-0.4,0.4-0.5,0.9-0.5,1.6c0,0.7,0.2,1.3,0.6,1.6c0.4,0.3,0.9,0.5,1.4,0.5c0.6,0,1.1-0.2,1.5-0.6c0.2-0.2,0.3-0.4,0.4-0.6
			L32.7,11.2L32.7,11.2z M31.3,9.3c0.1-0.2,0.4-0.2,0.6-0.2c0.2,0,0.5,0.1,0.6,0.2c0.2,0.1,0.3,0.4,0.3,0.6H31
			C31,9.6,31.1,9.4,31.3,9.3z"/>
		<g>
			<path class="st4" d="M29.5,12.3h-1V9.9c0-0.2-0.1-0.7-0.7-0.7c-0.4,0-0.7,0.3-0.7,0.7v2.4h-1V9.9c0-0.2-0.1-0.7-0.7-0.7
				c-0.4,0-0.7,0.3-0.7,0.7v2.4h-1V9.9c0-1,0.7-1.7,1.7-1.7c0.5,0,0.9,0.2,1.2,0.6c0.3-0.3,0.7-0.6,1.2-0.6c1,0,1.7,0.7,1.7,1.7
				L29.5,12.3L29.5,12.3z"/>
		</g>
		<path class="st4" d="M48.8,6.9c0,0-1.1-0.1-1.1,0.7v1.1c-0.1-0.2-0.3-0.3-0.5-0.4s-0.4-0.2-0.6-0.2c-0.5,0-0.9,0.2-1.3,0.6
			c-0.3,0.4-0.5,0.9-0.5,1.6c0,0.6,0.2,1.1,0.5,1.4c0.3,0.4,0.9,0.5,1.5,0.5c1.9,0,1.9-1.7,1.9-1.7L48.8,6.9z M47.5,11.2
			c-0.2,0.2-0.4,0.3-0.7,0.3c-0.3,0-0.5-0.1-0.7-0.3C46,11,46,10.7,46,10.3c0-0.3,0.1-0.6,0.2-0.9c0.1-0.2,0.4-0.3,0.7-0.3
			c0.2,0,0.4,0.1,0.5,0.2c0.2,0.2,0.4,0.6,0.4,1.1C47.7,10.7,47.7,11,47.5,11.2z"/>
	</g>
	<g>
		<g>
			<path class="st5" d="M31.4,19c0,0.1-0.1,0.3-0.2,0.4s-0.2,0.2-0.4,0.2h-0.5v-3.6c0-0.7,0.2-1.2,0.6-1.5c0.3-0.2,0.6-0.4,1.4-0.4
				c0.5,0,1.1,0.2,1.4,0.6c0.3,0.4,0.5,0.9,0.5,1.5c0,0.6-0.2,1.2-0.5,1.5c-0.3,0.4-0.7,0.6-1.2,0.6c-0.3,0-0.5,0-0.7-0.1
				c-0.2-0.1-0.4-0.3-0.5-0.5C31.4,17.6,31.4,19,31.4,19z M33.2,16.1c0-0.4-0.1-0.7-0.2-0.9c-0.2-0.2-0.4-0.3-0.7-0.3
				c-0.3,0-0.5,0.1-0.6,0.3c-0.1,0.2-0.2,0.5-0.2,0.9c0,0.4,0.1,0.7,0.2,0.9c0.2,0.2,0.4,0.3,0.7,0.3c0.3,0,0.5-0.1,0.6-0.3
				C33.1,16.8,33.2,16.5,33.2,16.1"/>
			<path class="st5" d="M41.2,17.9v-0.3c-0.2,0.3-0.4,0.5-0.7,0.5c-0.3,0.1-0.6,0-0.9-0.1s-0.6-0.3-0.8-0.7
				c-0.2-0.3-0.3-0.8-0.3-1.3c0-0.6,0.1-1.1,0.4-1.5c0.3-0.4,0.7-0.6,1.4-0.6c0.6,0,1,0.1,1.3,0.4c0.4,0.3,0.6,0.7,0.6,1.5V18
				c0,0.7-0.5,1.9-2,1.8c-0.9-0.1-1.4-0.4-1.7-1.3h1.1c0.1,0.1,0.2,0.3,0.4,0.3c0.2,0.1,0.3,0.1,0.5,0.1c0.2,0,0.3-0.1,0.5-0.3
				C41.1,18.5,41.2,18.2,41.2,17.9 M39.5,16.1c0,0.7,0.2,1.1,0.6,1.2c0.4,0.1,0.7,0,0.9-0.3c0.1-0.1,0.2-0.3,0.2-0.5
				c0-0.2,0-0.5,0-0.7c0-0.2-0.1-0.4-0.2-0.6c-0.1-0.2-0.3-0.3-0.6-0.3c-0.3,0-0.6,0.1-0.7,0.4C39.5,15.5,39.5,15.8,39.5,16.1"/>
			<path class="st5" d="M37.5,14.3c-0.3-0.2-0.7-0.3-1.2-0.3c-0.7,0-1.1,0.2-1.4,0.5c-0.2,0.2-0.3,0.5-0.3,0.9h1
				c0-0.2,0.1-0.3,0.1-0.4c0.1-0.1,0.3-0.2,0.5-0.2c0.2,0,0.4,0,0.5,0.1C37,15,37,15.1,37,15.3c0,0.1-0.1,0.2-0.2,0.3
				c-0.1,0-0.2,0.1-0.4,0.1l-0.4,0c-0.4,0.1-0.7,0.1-0.9,0.3c-0.4,0.2-0.6,0.6-0.6,1.1c0,0.4,0.1,0.7,0.4,0.9
				c0.2,0.2,0.5,0.3,0.9,0.3c2.3,0.1,2.3-1.2,2.3-1.5v-1.5C38.1,14.8,37.9,14.5,37.5,14.3 M37,16.6c0,0.3-0.1,0.6-0.3,0.7
				c-0.2,0.1-0.4,0.2-0.6,0.2c-0.1,0-0.3,0-0.4-0.1c-0.1-0.1-0.2-0.2-0.2-0.4c0-0.2,0.1-0.3,0.2-0.4c0.1-0.1,0.3-0.1,0.5-0.1l0.2,0
				c0.1,0,0.2,0,0.3-0.1c0.1,0,0.1-0.1,0.2-0.1L37,16.6L37,16.6z"/>
			<path class="st5" d="M46.2,14.6c-0.3-0.4-0.8-0.6-1.5-0.6s-1.2,0.2-1.5,0.6s-0.5,0.9-0.5,1.5c0,0.6,0.2,1.1,0.5,1.5
				c0.3,0.4,0.8,0.6,1.5,0.6c0.7,0,1.2-0.2,1.5-0.6c0.3-0.4,0.5-0.9,0.5-1.5C46.7,15.5,46.5,15,46.2,14.6 M45.4,17
				c-0.2,0.2-0.4,0.3-0.7,0.3S44.1,17.2,44,17c-0.2-0.2-0.2-0.5-0.2-0.9s0.1-0.7,0.2-0.9c0.2-0.2,0.4-0.3,0.7-0.3
				c0.3,0,0.5,0.1,0.7,0.3c0.2,0.2,0.2,0.5,0.2,0.9C45.6,16.5,45.5,16.8,45.4,17"/>
		</g>
	</g>
</g>
<g>
	<path class="st7" d="M135.7,17c-0.6-2.8-1.2-5.6-1.8-8.4c-0.1-0.3-0.1-0.7-0.2-1c-0.8,0-1.5,0-2.2,0c-0.7,0-1.1,0.3-1.3,0.9
		c-1.2,2.9-2.4,5.7-3.6,8.6c-0.2,0.4-0.3,0.8-0.5,1.2c1,0,1.9,0,2.8,0c0,0,0.1-0.1,0.1-0.1c0.2-0.4,0.3-0.8,0.5-1.3
		c0-0.1,0.1-0.2,0.3-0.2c1,0,2.1,0,3.1,0c0.2,0,0.3,0.1,0.3,0.3c0.1,0.4,0.2,0.9,0.3,1.3c0.9,0,1.7,0,2.6,0c0,0,0,0,0-0.1
		C135.9,17.8,135.8,17.4,135.7,17z M130.3,14.4c0.5-1.3,0.9-2.6,1.4-3.9c0,0,0,0,0,0c0.3,1.3,0.5,2.6,0.8,3.9
		C131.8,14.4,131.1,14.4,130.3,14.4z"/>
	<path class="st7" d="M126.2,14.3c-0.1-0.8-0.6-1.4-1.2-1.8c-0.5-0.4-1.1-0.7-1.7-1c-0.2-0.1-0.5-0.3-0.7-0.5
		c-0.3-0.3-0.3-0.7,0-0.9c0.2-0.2,0.4-0.3,0.7-0.3c0.6-0.2,1.2-0.1,1.7,0c0.4,0.1,0.8,0.2,1.3,0.4c0.2-0.7,0.3-1.5,0.5-2.2
		c-0.3-0.1-0.6-0.2-0.9-0.3c-0.3-0.1-0.7-0.1-1-0.2c-0.4,0-0.9,0-1.3,0c-0.1,0-0.1,0-0.2,0c-1,0.1-1.9,0.4-2.6,1
		c-0.9,0.7-1.3,1.7-1.2,2.8c0.1,0.8,0.5,1.3,1.1,1.8c0.5,0.3,1,0.6,1.5,0.9c0.3,0.2,0.7,0.4,0.9,0.6c0.4,0.4,0.4,0.9-0.1,1.3
		c-0.2,0.1-0.5,0.3-0.7,0.3c-1,0.2-1.9,0-2.8-0.4c-0.2-0.1-0.4-0.2-0.6-0.2c-0.2,0.8-0.3,1.6-0.5,2.3c0,0,0.1,0,0.1,0
		c0.1,0,0.2,0.1,0.2,0.1c1.2,0.4,2.3,0.5,3.6,0.4c0.9-0.1,1.7-0.3,2.4-0.8C125.8,16.8,126.3,15.7,126.2,14.3z"/>
	<path class="st7" d="M114.8,7.6c-0.1,0-0.1,0-0.2,0c-0.8,0-1.7,0-2.5,0c-0.1,0-0.2,0-0.2,0.2c-0.9,2.3-1.8,4.6-2.7,6.9
		c0,0,0,0.1-0.1,0.2c0-0.1,0-0.2-0.1-0.3c-0.4-1.9-0.7-3.9-1.1-5.8c-0.1-0.7-0.6-1.1-1.3-1.1c-1.5,0-2.9,0-4.4,0
		c-0.3,0-0.3,0-0.3,0.3c0,0,0.1,0,0.1,0c0.8,0.2,1.6,0.4,2.4,0.8c0.5,0.2,0.7,0.6,0.9,1.1c0.7,2.8,1.4,5.5,2.1,8.3
		c0,0.2,0.1,0.2,0.3,0.2c0.8,0,1.7,0,2.5,0c0.2,0,0.2,0,0.3-0.2c1.3-3.1,2.6-6.3,4-9.4C114.5,8.3,114.7,7.9,114.8,7.6z"/>
	<path class="st7" d="M118.7,7.6c-0.9,0-1.8,0-2.8,0c-0.8,3.5-1.5,7.1-2.3,10.6c0.1,0,0.2,0,0.2,0c0.8,0,1.5,0,2.3,0
		c0.2,0,0.3-0.1,0.3-0.3c0.6-2.9,1.2-5.9,1.9-8.8C118.5,8.6,118.6,8.1,118.7,7.6z"/>
</g>
<g>
	<circle class="st8" cx="158.3" cy="12.8" r="11.5"/>
	<g>
		<circle class="st9" cx="158.3" cy="12.8" r="10.9"/>
		<g>
			<path class="st6" d="M167.6,11c0,0-0.1,0-0.1,0c0,0-0.1,0-0.1,0l-3.5,0.9l-1.7-6.2c0-0.2-0.2-0.3-0.3-0.3c0,0-0.1,0-0.1,0
				l-10,2.6c-0.2,0-0.3,0.2-0.2,0.4l1.5,6.1l-3.4,0.9c-0.1,0-0.2,0.2-0.3,0.3c0,0,0,0,0,0.1c0,0.1,0.1,0.2,0.2,0.3l10.7,4.7
				c0,0,0.1,0,0.1,0c0.1,0,0.2,0,0.3-0.1l7-9.2c0-0.1,0.1-0.1,0.1-0.2C167.9,11.2,167.8,11,167.6,11z"/>
			<g>
				<polygon class="st10" points="167.5,11.3 167.5,11.3 163.7,12.3 161.9,5.8 151.9,8.4 153.5,14.9 149.8,15.9 149.8,15.9 
					149.8,15.9 160.5,20.5 167.5,11.3 				"/>
			</g>
			<path class="st6" d="M167.3,8.9L167.3,8.9l0-0.2c0,0,0,0,0-0.1l-0.1-0.2c-0.1-0.1-0.1-0.3-0.2-0.4c-0.1-0.1-0.2-0.2-0.3-0.3
				c0,0,0,0,0,0c-0.2-0.2-0.5-0.3-0.7-0.4c-0.5-0.2-1.2-0.2-2,0c-0.6,0.1-1.1,0.4-1.4,0.7c-0.4,0.3-0.7,0.7-0.8,1c0,0,0,0,0,0.1
				c-0.1-0.1-0.3-0.2-0.4-0.3c-0.3-0.2-0.6-0.3-1-0.3c-0.2,0-0.4,0-0.6,0c-0.2,0-0.4,0.1-0.6,0.1c-0.4,0.1-0.8,0.3-1.1,0.5
				c0,0-0.1,0-0.1,0.1c-0.1,0-0.1,0.1-0.1,0.1c-0.2,0.2-0.4,0.3-0.5,0.5c-0.2,0.3-0.4,0.7-0.4,1.1l-0.9-1c-0.1-0.1-0.3-0.2-0.4-0.1
				l-1.6,0.4c-0.1,0-0.3,0.2-0.3,0.3l-0.1,0.6c-0.1-0.1-0.2-0.1-0.3-0.2c-0.2-0.1-0.5-0.2-0.9-0.2c-0.3,0-0.7,0-1.1,0.2l-2.2,0.6
				c-0.2,0.1-0.3,0.3-0.3,0.5l0.8,3.4c0,0.1,0.1,0.2,0.2,0.2c0.1,0,0.1,0.1,0.2,0.1c0,0,0.1,0,0.1,0l4.8-1.2c0.2,0,0.3-0.2,0.3-0.3
				l0-0.2l1-0.3l0.1,0.2c0.1,0.1,0.3,0.2,0.4,0.2l1.5-0.4c0.1,0,0.2-0.1,0.3-0.3c0,0,0,0,0,0c0.5,0.1,1,0.1,1.5-0.1
				c0.4-0.1,0.8-0.3,1.1-0.5l0,0c0.1,0.1,0.2,0.1,0.3,0.1l1-0.3c0.2-0.1,0.3-0.3,0.3-0.5c0,0,0.2-0.2,0.4-0.1c0.5,0.2,1.2,0.2,2,0
				c0.6-0.1,1-0.4,1.4-0.7c0.4-0.3,0.7-0.7,0.8-1.1C167.4,9.7,167.4,9.3,167.3,8.9z"/>
			<g>
				<path class="st11" d="M167.1,9l0-0.1l-0.1-0.2c-0.1-0.1-0.1-0.2-0.2-0.3c-0.1-0.1-0.1-0.2-0.2-0.2c-0.2-0.1-0.4-0.3-0.6-0.3
					c-0.5-0.2-1.1-0.2-1.8,0c-0.5,0.1-1,0.3-1.3,0.6c-0.4,0.3-0.6,0.6-0.7,0.9c-0.1,0.3-0.1,0.6-0.1,1l0.1,0.3l0,0.1v0
					c0.2,0.4,0.5,0.7,1,0.8c0.2,0.1,0.5,0.1,0.8,0.1c0.3,0,0.6,0,1-0.1c0.5-0.1,1-0.3,1.3-0.6c0.4-0.3,0.6-0.6,0.7-0.9
					C167.1,9.6,167.1,9.3,167.1,9z M164.3,8.7c0.2-0.1,0.4-0.1,0.6,0s0.3,0.2,0.4,0.4c0.1,0.3,0.2,0.6,0.1,0.9
					c-0.1,0.3-0.3,0.5-0.6,0.6c-0.4,0.1-0.8,0-1-0.4c-0.2-0.4-0.2-0.8,0-1C163.9,8.9,164.1,8.8,164.3,8.7L164.3,8.7z"/>
				<path class="st11" d="M159.7,10.7l0.2,0.8l0.7-0.2c0,0.1-0.1,0.3-0.2,0.4c-0.1,0.1-0.3,0.2-0.4,0.2c-0.5,0.1-0.8,0-1-0.3
					c-0.2-0.5-0.2-0.8-0.1-1.1c0.1-0.2,0.3-0.3,0.6-0.4c0.4-0.1,0.7,0,0.8,0.2l0,0l1.6-0.4l0-0.1c-0.1-0.3-0.3-0.5-0.6-0.6
					c-0.3-0.1-0.6-0.2-0.9-0.2c-0.2,0-0.4,0-0.5,0c-0.2,0-0.4,0.1-0.6,0.1c-0.4,0.1-0.7,0.2-1,0.4s-0.5,0.4-0.7,0.6
					c-0.3,0.5-0.5,1-0.3,1.5l0,0.2l0.1,0.2c0,0,0,0.1,0.1,0.1l-1.7-2.1l-1.6,0.4l-0.3,1.4c0-0.1-0.1-0.2-0.1-0.2
					c-0.1-0.2-0.3-0.4-0.5-0.5c-0.2-0.1-0.5-0.1-0.8-0.1c-0.3,0-0.6,0-1,0.2l-2.3,0.6l0.8,3.6l1.7-0.4l-0.3-1.1l0.7-0.2
					c0.7-0.2,1.2-0.4,1.5-0.8l-0.4,1.6l1.6-0.4l0.1-0.5l1.4-0.4l0.3,0.4l1.7-0.4l-0.6-0.7c0.2,0.2,0.4,0.3,0.7,0.4
					c0.5,0.2,1,0.1,1.6,0c0.6-0.1,1-0.4,1.3-0.7l0.1,0.3l1.1-0.3l-0.5-2L159.7,10.7z M155.8,12.5l-1,0.3l0.2-1.4L155.8,12.5z
					 M151,12.9l-0.2-0.7c0,0,0.3-0.1,0.6-0.1c0.3-0.1,0.5-0.1,0.6,0.1c0.1,0.1,0.1,0.3,0,0.4c-0.1,0.1-0.2,0.2-0.4,0.2
					C151.5,12.8,151,12.9,151,12.9z"/>
			</g>
			<g>
				<path class="st12" d="M162.5,15.2c0.1-0.1,0.1-0.2,0.2-0.3c0.4-0.4,0.7-0.9,1-1.4c0.1-0.2,0.2-0.4,0.3-0.6c0-0.1,0-0.1,0-0.1
					c-0.1-0.1-0.2-0.1-0.3,0c-0.7,0.6-1.2,1.4-1.5,2.2c0,0,0,0.1-0.1,0.1c-0.3,0.3-0.5,0.6-0.8,0.9c0,0-0.1,0-0.1,0.1
					c0,0-0.1,0-0.1,0c0,0,0-0.1,0-0.1c0,0,0,0,0,0c0-0.2,0.1-0.4,0.1-0.5c0.1-0.2,0.1-0.3,0.2-0.5c0,0,0-0.1,0-0.1
					c-0.2,0-0.3,0-0.4,0.2c0,0.1-0.1,0.2-0.1,0.2c-0.3,0.3-0.5,0.6-0.8,0.9c-0.2,0.2-0.4,0.3-0.6,0.4c-0.1,0-0.1,0-0.1-0.1
					c0-0.1,0-0.1,0-0.2c0.1-0.3,0.2-0.6,0.4-0.8c0.1-0.1,0.2-0.2,0.3-0.2c0,0,0,0.1,0,0.1c-0.1,0.1-0.1,0.2-0.2,0.3c0,0,0,0.1,0,0.1
					c0,0,0.1,0,0.1,0c0.1,0,0.2-0.1,0.2-0.1c0.2-0.1,0.3-0.2,0.3-0.4c0-0.1-0.1-0.2-0.2-0.2c0,0,0,0-0.1,0c-0.3,0.1-0.6,0.3-0.8,0.5
					c-0.1,0-0.1,0.1-0.1,0.2c-0.3,0.3-0.5,0.6-0.8,1c0,0-0.1,0.1-0.1,0.1c0,0,0,0,0,0c0-0.1,0.1-0.2,0.1-0.3
					c0.1-0.2,0.2-0.4,0.3-0.7c0,0,0-0.1,0-0.1c-0.1-0.1-0.2-0.1-0.2,0c-0.1-0.1-0.2-0.1-0.3,0c-0.1,0.1-0.2,0.1-0.2,0.2
					c-0.4,0.3-0.6,0.7-0.8,1.2c0,0.1-0.1,0.2-0.1,0.4c0,0.2,0.2,0.3,0.4,0.2c0.1,0,0.1-0.1,0.1-0.1c0.1-0.2,0.2-0.3,0.4-0.5
					c0,0,0-0.1,0-0.1c0,0,0,0,0,0c0,0,0,0.1,0,0.1c0,0.1,0,0.2,0.1,0.3c0.1,0.1,0.2,0.2,0.3,0.1c0.1-0.1,0.2-0.3,0.3-0.4
					c0.1-0.1,0.2-0.2,0.3-0.4c0,0.1,0,0.1,0,0.2c0.1,0.3,0.2,0.5,0.6,0.3c0.1-0.1,0.2-0.1,0.3-0.2c0.3-0.2,0.5-0.5,0.8-0.8
					c0-0.1,0.1-0.1,0.1-0.2c0,0.1,0,0.1,0,0.2c0,0.1,0,0.2,0,0.3c0.1,0.2,0.2,0.2,0.3,0.2c0.1,0,0.3-0.1,0.3-0.2
					c0.2-0.2,0.3-0.4,0.5-0.6c0-0.1,0.1-0.1,0.1-0.2c0,0.1,0,0.2,0.1,0.3c0.1,0.3,0.3,0.3,0.5,0.2c0.1,0,0.2-0.1,0.3-0.2
					c0.4-0.5,0.7-1,1.1-1.5c0-0.1,0-0.1,0-0.1c0,0,0,0,0,0.1c-0.2,0.3-0.5,0.6-0.7,0.9c-0.2,0.2-0.3,0.4-0.5,0.5
					c-0.1,0.1-0.2,0-0.2-0.1C162.4,15.5,162.4,15.3,162.5,15.2z M163.5,13.2c0,0.2-0.7,1.4-0.9,1.5
					C162.9,14.1,163.1,13.7,163.5,13.2z M157.6,17C157.6,17,157.5,17,157.6,17c0,0,0-0.1,0-0.1c0.1-0.4,0.3-0.7,0.7-1
					c0,0,0.1-0.1,0.2-0.1c0,0,0,0,0,0C158.1,16.3,157.9,16.7,157.6,17z"/>
				<path class="st12" d="M157.5,15.9c0,0-0.1-0.1-0.1-0.1c0,0-0.1,0-0.1,0c-0.1,0-0.1,0-0.2,0c-0.2,0-0.5,0.1-0.7,0.2
					c-0.1,0-0.1,0-0.2,0.1c0,0,0,0,0-0.1c0.1-0.2,0.3-0.5,0.4-0.7c0.1-0.1,0.1-0.1,0-0.2c0.1,0,0.1-0.1,0.2-0.1
					c0.5-0.1,0.9-0.3,1.4-0.4c0.1,0,0.2-0.1,0.3-0.1c0,0,0,0,0,0c0,0,0,0,0,0c-0.2-0.1-0.3-0.2-0.5-0.2c-0.3,0-0.5,0-0.8,0.1
					c-0.5,0.1-1,0.3-1.5,0.5c-0.1,0-0.2,0.1-0.3,0.1c0,0,0-0.1,0-0.1c-0.1,0-0.1,0-0.1,0c-0.1,0.1-0.3,0.1-0.4,0.2
					c-0.1,0.1-0.2,0.1-0.3,0.2c-0.1,0.1-0.1,0.1,0,0.2c0.1,0.1,0.1,0.1,0.2,0.1c0.2,0,0.3-0.1,0.5-0.1c0.3-0.1,0.6-0.2,0.8-0.3
					c0,0,0.1,0,0.1,0c0,0,0,0,0,0c0,0.1-0.1,0.1-0.1,0.2c-0.2,0.3-0.4,0.5-0.6,0.8c0,0.1-0.1,0.1-0.2,0.1c-0.1,0-0.2,0.1-0.3,0.2
					c-0.1,0-0.1,0.1,0,0.2c0,0,0.1,0.1,0.1,0.1c0,0,0,0.1,0,0.1c-0.2,0.3-0.3,0.6-0.2,0.9c0,0,0,0.1,0,0.1c0.1,0.1,0.2,0.1,0.3,0.1
					c0-0.1,0-0.2,0-0.2c0-0.1,0-0.2,0.1-0.2c0.1-0.2,0.2-0.5,0.3-0.7c0-0.1,0.1-0.2,0.2-0.3c0.4-0.2,0.9-0.4,1.3-0.6
					C157.4,15.9,157.4,15.9,157.5,15.9z"/>
				<path class="st12" d="M158.4,15.2C158.4,15.2,158.4,15.3,158.4,15.2C158.4,15.3,158.5,15.3,158.4,15.2c0.2,0,0.3-0.1,0.5-0.1
					c0.1-0.1,0.2-0.2,0.3-0.4c0-0.1,0-0.1,0-0.2c0-0.1-0.1-0.1-0.1-0.2c-0.1-0.1-0.2,0-0.2,0.1c-0.1,0.3-0.2,0.5-0.4,0.7
					C158.4,15.1,158.4,15.2,158.4,15.2z"/>
				<path class="st12" d="M161.5,14.4C161.5,14.4,161.5,14.4,161.5,14.4c0.2-0.1,0.3-0.2,0.3-0.4c0-0.1,0-0.1,0-0.2
					c-0.1,0-0.1,0-0.2,0c-0.1,0.1-0.1,0.1-0.2,0.2c0,0.1-0.1,0.1-0.1,0.2C161.3,14.4,161.4,14.4,161.5,14.4z"/>
			</g>
			<g>
				<path class="st6" d="M162.3,15.1c0.1-0.1,0.1-0.2,0.2-0.3c0.4-0.4,0.7-0.9,1-1.4c0.1-0.2,0.2-0.4,0.3-0.6c0-0.1,0-0.1,0-0.1
					c-0.1-0.1-0.2-0.1-0.3,0c-0.7,0.6-1.2,1.4-1.5,2.2c0,0,0,0.1-0.1,0.1c-0.3,0.3-0.5,0.6-0.8,0.9c0,0-0.1,0-0.1,0.1
					c0,0-0.1,0-0.1,0c0,0,0-0.1,0-0.1c0,0,0,0,0,0c0-0.2,0.1-0.4,0.1-0.5c0.1-0.2,0.1-0.3,0.2-0.5c0,0,0-0.1,0-0.1
					c-0.2,0-0.3,0-0.4,0.2c0,0.1-0.1,0.2-0.1,0.2c-0.3,0.3-0.5,0.6-0.8,0.9c-0.2,0.2-0.4,0.3-0.6,0.4c-0.1,0-0.1,0-0.1-0.1
					c0-0.1,0-0.1,0-0.2c0.1-0.3,0.2-0.6,0.4-0.8c0.1-0.1,0.2-0.2,0.3-0.2c0,0,0,0.1,0,0.1c-0.1,0.1-0.1,0.2-0.2,0.3c0,0,0,0.1,0,0.1
					c0,0,0.1,0,0.1,0c0.1,0,0.2-0.1,0.2-0.1c0.2-0.1,0.3-0.2,0.3-0.4c0-0.1-0.1-0.2-0.2-0.2c0,0,0,0-0.1,0c-0.3,0.1-0.6,0.3-0.8,0.5
					c-0.1,0-0.1,0.1-0.1,0.2c-0.3,0.3-0.5,0.6-0.8,1c0,0-0.1,0.1-0.1,0.1c0,0,0,0,0,0c0-0.1,0.1-0.2,0.1-0.3
					c0.1-0.2,0.2-0.4,0.3-0.7c0,0,0-0.1,0-0.1c-0.1-0.1-0.2-0.1-0.2,0c-0.1-0.1-0.2-0.1-0.3,0c-0.1,0.1-0.2,0.1-0.2,0.2
					c-0.4,0.3-0.6,0.7-0.8,1.2c0,0.1-0.1,0.2-0.1,0.4c0,0.2,0.2,0.3,0.4,0.2c0.1,0,0.1-0.1,0.1-0.1c0.1-0.2,0.2-0.3,0.4-0.5
					c0,0,0-0.1,0-0.1c0,0,0,0,0,0c0,0,0,0.1,0,0.1c0,0.1,0,0.2,0.1,0.3c0.1,0.1,0.2,0.2,0.3,0.1c0.1-0.1,0.2-0.3,0.3-0.4
					c0.1-0.1,0.2-0.2,0.3-0.4c0,0.1,0,0.1,0,0.2c0.1,0.3,0.2,0.5,0.6,0.3c0.1-0.1,0.2-0.1,0.3-0.2c0.3-0.2,0.5-0.5,0.8-0.8
					c0-0.1,0.1-0.1,0.1-0.2c0,0.1,0,0.1,0,0.2c0,0.1,0,0.2,0,0.3c0.1,0.2,0.2,0.2,0.3,0.2c0.1,0,0.3-0.1,0.3-0.2
					c0.2-0.2,0.3-0.4,0.5-0.6c0-0.1,0.1-0.1,0.1-0.2c0,0.1,0,0.2,0.1,0.3c0.1,0.3,0.3,0.3,0.5,0.2c0.1,0,0.2-0.1,0.3-0.2
					c0.4-0.5,0.7-1,1.1-1.5c0-0.1,0-0.1,0-0.1c0,0,0,0,0,0.1c-0.2,0.3-0.5,0.6-0.7,0.9c-0.2,0.2-0.3,0.4-0.5,0.5
					c-0.1,0.1-0.2,0-0.2-0.1C162.2,15.3,162.3,15.2,162.3,15.1z M163.4,13.1c0,0.2-0.7,1.4-0.9,1.5C162.7,14,163,13.5,163.4,13.1z
					 M157.4,16.9C157.4,16.9,157.4,16.9,157.4,16.9c0,0,0-0.1,0-0.1c0.1-0.4,0.3-0.7,0.7-1c0,0,0.1-0.1,0.2-0.1c0,0,0,0,0,0
					C158,16.1,157.7,16.6,157.4,16.9z"/>
				<path class="st6" d="M157.3,15.7c0,0-0.1-0.1-0.1-0.1c0,0-0.1,0-0.1,0c-0.1,0-0.1,0-0.2,0c-0.2,0-0.5,0.1-0.7,0.2
					c-0.1,0-0.1,0-0.2,0.1c0,0,0,0,0-0.1c0.1-0.2,0.3-0.5,0.4-0.7c0.1-0.1,0.1-0.1,0-0.2c0.1,0,0.1-0.1,0.2-0.1
					c0.5-0.1,0.9-0.3,1.4-0.4c0.1,0,0.2-0.1,0.3-0.1c0,0,0,0,0,0c0,0,0,0,0,0c-0.2-0.1-0.3-0.2-0.5-0.2c-0.3,0-0.5,0-0.8,0.1
					c-0.5,0.1-1,0.3-1.5,0.5c-0.1,0-0.2,0.1-0.3,0.1c0,0,0-0.1,0-0.1c-0.1,0-0.1,0-0.1,0c-0.1,0.1-0.3,0.1-0.4,0.2
					c-0.1,0.1-0.2,0.1-0.3,0.2c-0.1,0.1-0.1,0.1,0,0.2c0.1,0.1,0.1,0.1,0.2,0.1c0.2,0,0.3-0.1,0.5-0.1c0.3-0.1,0.6-0.2,0.8-0.3
					c0,0,0.1,0,0.1,0c0,0,0,0,0,0c0,0.1-0.1,0.1-0.1,0.2c-0.2,0.3-0.4,0.5-0.6,0.8c0,0.1-0.1,0.1-0.2,0.1c-0.1,0-0.2,0.1-0.3,0.2
					c-0.1,0-0.1,0.1,0,0.2c0,0,0.1,0.1,0.1,0.1c0,0,0,0.1,0,0.1c-0.2,0.3-0.3,0.6-0.2,0.9c0,0,0,0.1,0,0.1c0.1,0.1,0.2,0.1,0.3,0.1
					c0-0.1,0-0.2,0-0.2c0-0.1,0-0.2,0.1-0.2c0.1-0.2,0.2-0.5,0.3-0.7c0-0.1,0.1-0.2,0.2-0.3c0.4-0.2,0.9-0.4,1.3-0.6
					C157.3,15.8,157.3,15.8,157.3,15.7z"/>
				<path class="st6" d="M158.2,15.1C158.2,15.1,158.2,15.2,158.2,15.1C158.3,15.2,158.3,15.2,158.2,15.1c0.2,0,0.3-0.1,0.5-0.1
					c0.1-0.1,0.2-0.2,0.3-0.4c0-0.1,0-0.1,0-0.2c0-0.1-0.1-0.1-0.1-0.2c-0.1-0.1-0.2,0-0.2,0.1c-0.1,0.3-0.2,0.5-0.4,0.7
					C158.3,15,158.3,15,158.2,15.1z"/>
				<path class="st6" d="M161.4,14.3C161.4,14.3,161.4,14.3,161.4,14.3c0.2-0.1,0.3-0.2,0.3-0.4c0-0.1,0-0.1,0-0.2
					c-0.1,0-0.1,0-0.2,0c-0.1,0.1-0.1,0.1-0.2,0.2c0,0.1-0.1,0.1-0.1,0.2C161.2,14.3,161.3,14.3,161.4,14.3z"/>
			</g>
		</g>
	</g>
</g>
</svg>
