<?xml version="1.0" encoding="utf-8"?>
<!-- Generator: Adobe Illustrator 27.5.0, SVG Export Plug-In . SVG Version: 6.00 Build 0)  -->
<svg version="1.1" id="Capa_1" xmlns="http://www.w3.org/2000/svg" xmlns:xlink="http://www.w3.org/1999/xlink" x="0px" y="0px"
	 viewBox="0 0 22 19" style="enable-background:new 0 0 22 19;" xml:space="preserve">
<style type="text/css">
	.st0{fill:#FFFFFF;}
</style>
<g>
	<path class="st0" d="M11,3.68c0.54-0.93,1.09-1.63,1.77-2.18c0.93-0.73,2.01-1.12,3.43-1.12c1.61,0,3.05,0.65,4.08,1.69
		c1.06,1.06,1.69,2.5,1.69,4.08c0,2.78-0.79,4.84-2.59,6.75c-1.74,1.88-4.38,3.57-8.11,5.63c-0.19,0.11-0.41,0.11-0.6,0
		c-3.32-2.04-5.96-3.73-7.76-5.58c-1.9-1.93-2.88-4.03-2.88-6.8c0-1.58,0.63-3.02,1.69-4.08C2.75,1.04,4.2,0.38,5.8,0.38
		C8.33,0.38,9.75,1.47,11,3.68L11,3.68z"/>
</g>
</svg>
