<?xml version="1.0" encoding="utf-8"?>
<!-- Generator: Adobe Illustrator 27.5.0, SVG Export Plug-In . SVG Version: 6.00 Build 0)  -->
<svg version="1.1" id="Capa_1" xmlns="http://www.w3.org/2000/svg" xmlns:xlink="http://www.w3.org/1999/xlink" x="0px" y="0px"
	 viewBox="0 0 40 40" style="enable-background:new 0 0 40 40;" xml:space="preserve">
<style type="text/css">
	.st0{fill-rule:evenodd;clip-rule:evenodd;fill:#3333FF;}
</style>
<g>
	<path class="st0" d="M11.45,11.45c1.82-1.82,4.18-2.71,6.58-2.71c2.37,0,4.76,0.89,6.58,2.71c1.82,1.82,2.71,4.18,2.71,6.58
		c0,1.73-0.49,3.46-1.44,4.96l4.79,4.82l0,0c0.4,0.37,0.61,0.92,0.61,1.44c0,0.52-0.2,1.04-0.61,1.41c-0.37,0.4-0.89,0.61-1.41,0.61
		c-0.52,0-1.07-0.2-1.44-0.61l0,0l-4.82-4.79c-1.5,0.95-3.23,1.44-4.96,1.44c-2.39,0-4.76-0.89-6.58-2.71
		c-1.82-1.82-2.71-4.21-2.71-6.58C8.73,15.63,9.63,13.26,11.45,11.45L11.45,11.45z M12.31,12.31c1.59-1.56,3.63-2.37,5.71-2.37
		c2.05,0,4.13,0.81,5.68,2.37c1.59,1.59,2.37,3.63,2.37,5.71c0,2.05-0.78,4.13-2.37,5.68c-1.56,1.59-3.63,2.37-5.68,2.37
		c-2.08,0-4.13-0.78-5.71-2.37c-1.56-1.56-2.37-3.64-2.37-5.68C9.95,15.95,10.75,13.9,12.31,12.31L12.31,12.31z"/>
</g>
</svg>
