<?xml version="1.0" encoding="utf-8"?>
<!-- Generator: Adobe Illustrator 27.5.0, SVG Export Plug-In . SVG Version: 6.00 Build 0)  -->
<svg version="1.1" id="Capa_1" xmlns="http://www.w3.org/2000/svg" xmlns:xlink="http://www.w3.org/1999/xlink" x="0px" y="0px"
	 viewBox="0 0 56 56" style="enable-background:new 0 0 56 56;" xml:space="preserve">
<style type="text/css">
	.st0{fill:#FFFFFF;}
</style>
<g>
	<path class="st0" d="M28,55.5c15.19,0,27.5-12.31,27.5-27.5S43.19,0.5,28,0.5S0.5,12.81,0.5,28S12.81,55.5,28,55.5z M22.48,18.25
		c-0.74-0.82-0.68-2.09,0.13-2.83c0.38-0.35,0.87-0.52,1.35-0.52c0.54,0,1.09,0.22,1.48,0.66l10.09,11.09
		c0.02,0.03,0.04,0.06,0.06,0.09c0.04,0.05,0.09,0.11,0.12,0.17c0.04,0.05,0.07,0.11,0.1,0.16c0.03,0.06,0.06,0.12,0.08,0.18
		c0.02,0.06,0.04,0.12,0.06,0.18c0.02,0.06,0.03,0.12,0.05,0.19c0.01,0.06,0.02,0.13,0.03,0.19c0.01,0.06,0.01,0.13,0.01,0.19
		c0,0.06,0,0.13-0.01,0.19c-0.01,0.06-0.02,0.13-0.03,0.19c-0.01,0.06-0.03,0.12-0.05,0.19c-0.02,0.06-0.04,0.12-0.06,0.18
		c-0.02,0.06-0.05,0.12-0.08,0.18c-0.03,0.06-0.06,0.11-0.1,0.17c-0.04,0.06-0.08,0.11-0.12,0.17c-0.02,0.03-0.04,0.06-0.06,0.09
		L25.44,40.44c-0.74,0.82-2.01,0.88-2.83,0.13c-0.82-0.74-0.88-2.01-0.13-2.83L31.34,28L22.48,18.25z"/>
</g>
</svg>
