<?xml version="1.0" encoding="utf-8"?>
<!-- Generator: Adobe Illustrator 27.5.0, SVG Export Plug-In . SVG Version: 6.00 Build 0)  -->
<svg version="1.1" id="Capa_1" xmlns="http://www.w3.org/2000/svg" xmlns:xlink="http://www.w3.org/1999/xlink" x="0px" y="0px"
	 viewBox="0 0 85.8 65.7" style="enable-background:new 0 0 85.8 65.7;" xml:space="preserve">
<style type="text/css">
	.st0{fill-rule:evenodd;clip-rule:evenodd;fill:#D0EBFC;}
	.st1{fill-rule:evenodd;clip-rule:evenodd;fill:#FFFFFF;}
</style>
<g>
	<path class="st0" d="M83,35.6L55.8,62.3c-0.5,0.5-1.2,0.8-2,0.8L6.4,63l-0.2,0c-1.5,0-2.7-1.2-2.7-2.7L3.6,6.5l0,0
		c0-1.5,1.2-2.7,2.7-2.7l47.6-0.3c0.7-0.1,1.4,0.3,1.9,0.7L83,31.7C84.1,32.8,84,34.6,83,35.6L83,35.6z"/>
</g>
<path class="st1" d="M36.5,49c-0.3,0.4-0.9,0.4-1.2,0.1c-0.3-0.3-0.4-0.7-0.3-1l4.8-12.7H35c-0.5,0-0.9-0.4-0.9-0.9
	c0-0.1,0-0.2,0-0.3L38.7,18c0.1-0.4,0.5-0.6,0.9-0.6l0,0h12.7c0.5,0,0.9,0.4,0.9,0.9c0,0.2-0.1,0.4-0.2,0.6l-7,11.6h3.9
	c0.5,0,0.9,0.4,0.9,0.9c0,0.3-0.1,0.4-0.2,0.6l-0.4,0.5"/>
</svg>
