<?xml version="1.0" encoding="utf-8"?>
<!-- Generator: Adobe Illustrator 27.5.0, SVG Export Plug-In . SVG Version: 6.00 Build 0)  -->
<svg version="1.1" id="Capa_1" xmlns="http://www.w3.org/2000/svg" xmlns:xlink="http://www.w3.org/1999/xlink" x="0px" y="0px"
	 viewBox="0 0 49 49" style="enable-background:new 0 0 49 49;" xml:space="preserve">
<style type="text/css">
	.st0{fill:#3333FF;}
</style>
<g>
	<path class="st0" d="M32.18,0.5H16.82C7.8,0.5,0.5,7.8,0.5,16.82v15.37c0,9.01,7.3,16.32,16.32,16.32h15.37
		c9.01,0,16.32-7.3,16.32-16.32V16.82C48.5,7.8,41.2,0.5,32.18,0.5z M32.15,26h-6.21h-2.88h-6.21c-0.81,0-1.46-0.68-1.46-1.49
		c0-0.87,0.65-1.52,1.46-1.52h6.21h2.88h6.21c0.81,0,1.45,0.65,1.45,1.52C33.61,25.32,32.96,26,32.15,26z"/>
</g>
</svg>
