<?xml version="1.0" encoding="utf-8"?>
<!-- Generator: Adobe Illustrator 27.5.0, SVG Export Plug-In . SVG Version: 6.00 Build 0)  -->
<svg version="1.1" id="Capa_1" xmlns="http://www.w3.org/2000/svg" xmlns:xlink="http://www.w3.org/1999/xlink" x="0px" y="0px"
	 viewBox="0 0 58 13" style="enable-background:new 0 0 58 13;" xml:space="preserve">
<style type="text/css">
	.st0{fill:#5B5B5B;}
	.st1{fill:#232323;}
</style>
<g>
	<path class="st0" d="M51.69,11.76c0.02-0.24-0.11-0.58,0.05-0.81c0.17-0.25,0.54-0.1,0.83-0.15c1.53-0.24,2.67-0.97,3.13-2.53
		c0.07-0.23,0.17-0.31,0.42-0.24c0.42,0.12,0.84,0.22,1.26,0.3c0.29,0.05,0.33,0.17,0.25,0.45c-0.64,2.18-2.37,3.66-4.63,3.94
		c-0.34,0.04-0.69,0.05-1.03,0.08c-0.2,0.02-0.28-0.07-0.27-0.27C51.7,12.3,51.69,12.06,51.69,11.76z"/>
	<g>
		<path class="st1" d="M2.69,7.53c0,0.69-0.01,1.38,0,2.06c0,0.2-0.04,0.29-0.26,0.32c-0.5,0.07-0.99,0.11-1.48-0.02
			C0.63,9.82,0.44,9.62,0.39,9.3C0.37,9.12,0.34,8.94,0.34,8.77c0-1.25,0.01-2.5-0.01-3.75c-0.01-0.64,0.27-1.1,0.82-1.4
			c0.93-0.51,1.93-0.65,2.96-0.51c0.84,0.11,1.2,0.9,0.81,1.67C4.84,4.95,4.72,4.93,4.58,4.92C4.06,4.88,3.54,4.9,3.04,5.06
			C2.78,5.14,2.67,5.25,2.68,5.54C2.7,6.2,2.69,6.87,2.69,7.53z"/>
		<path class="st1" d="M23.58,6.87c0,0.87-0.02,1.73,0.01,2.6c0.01,0.33-0.1,0.45-0.41,0.47c-0.44,0.03-0.88,0.07-1.33-0.04
			c-0.37-0.09-0.57-0.33-0.58-0.7c-0.02-0.37-0.02-0.74-0.02-1.11c0-1.48,0.01-2.95-0.01-4.43c0-0.29,0.1-0.38,0.36-0.4
			c0.36-0.03,0.71-0.05,1.07-0.02c0.62,0.06,0.9,0.33,0.91,0.96C23.59,5.09,23.58,5.98,23.58,6.87C23.58,6.87,23.58,6.87,23.58,6.87
			z"/>
		<path class="st1" d="M22.4,2.64c-0.77,0-1.28-0.47-1.28-1.19c-0.01-0.73,0.52-1.25,1.28-1.26c0.76,0,1.29,0.52,1.28,1.25
			C23.67,2.17,23.17,2.64,22.4,2.64z"/>
		<g>
			<path class="st1" d="M45.96,3.55c-0.98-0.47-2.01-0.62-3.08-0.44C41.7,3.3,40.8,3.88,40.39,5.04c-0.32,0.92-0.31,1.86,0.01,2.77
				c0.33,0.93,1,1.51,1.99,1.7c0.63,0.12,1.27,0.13,1.89-0.05c0.27-0.08,0.31,0.02,0.29,0.25c-0.03,0.51-0.27,0.79-0.84,0.94
				c-0.84,0.22-1.65,0.06-2.41-0.31c-0.29-0.14-0.41-0.05-0.54,0.17c-0.42,0.73-0.09,1.55,0.76,1.81c1.15,0.35,2.32,0.37,3.45-0.03
				c1.05-0.37,1.71-1.1,1.75-2.26c0.03-0.9,0.01-1.81,0.01-2.71c0.01,0,0.01,0,0.02,0c0-0.82-0.02-1.63,0.01-2.45
				C46.81,4.24,46.52,3.82,45.96,3.55z M44.54,5.31c-0.02,0.35-0.01,0.71-0.01,1.07c0,0.33-0.01,0.66,0,0.99
				c0.01,0.22-0.08,0.31-0.27,0.39c-0.92,0.36-1.69-0.12-1.74-1.1c-0.01-0.18-0.01-0.36,0-0.53c0.06-0.93,0.8-1.45,1.7-1.2
				C44.45,4.98,44.56,5.07,44.54,5.31z"/>
		</g>
		<g>
			<path class="st1" d="M19.98,5.64c-0.17-1.02-0.68-1.8-1.63-2.19c-1.54-0.64-3.08-0.56-4.56,0.21c-0.43,0.22-0.62,0.62-0.62,1.11
				c0.01,1.09,0,2.19,0,3.28c0,0.46,0,0.92,0,1.37c0,0.66-0.01,1.32,0.01,1.99c0.02,0.66,0.26,0.91,0.91,0.99
				c0.37,0.05,0.73,0.01,1.1-0.03c0.25-0.03,0.35-0.11,0.34-0.38c-0.02-0.57,0.01-1.15-0.01-1.72c-0.01-0.3,0.06-0.34,0.35-0.28
				c1.4,0.3,3.12-0.15,3.85-1.74C20.11,7.42,20.13,6.54,19.98,5.64z M17.6,7.15c-0.17,0.87-1,1.32-1.84,1
				C15.58,8.08,15.51,8,15.52,7.8c0.01-0.42,0-0.84,0-1.26c0-0.41,0.01-0.81,0-1.22c0-0.18,0.06-0.27,0.23-0.33
				c0.96-0.36,1.75,0.1,1.89,1.1C17.69,6.44,17.67,6.8,17.6,7.15z"/>
		</g>
		<g>
			<path class="st1" d="M31.86,5.83c-0.12-1.01-0.56-1.85-1.5-2.29c-1.58-0.75-3.18-0.67-4.73,0.12c-0.41,0.21-0.61,0.59-0.6,1.07
				c0.01,1.09,0,2.19,0,3.28c0,0.14,0,0.28,0,0.42c0,0.98-0.01,1.96,0,2.94c0.01,0.68,0.25,0.95,0.92,1.03
				c0.37,0.04,0.74,0,1.1-0.04c0.24-0.03,0.33-0.11,0.32-0.36c-0.02-0.56,0.01-1.12-0.01-1.68c-0.01-0.31,0.02-0.39,0.38-0.33
				c1.24,0.23,2.39,0.01,3.29-0.96C31.89,8.13,32,7,31.86,5.83z M29.39,7.33c-0.26,0.77-1.07,1.13-1.82,0.81
				C27.42,8.08,27.36,8,27.37,7.83c0.01-0.43,0-0.86,0-1.3c0-0.39,0.02-0.79-0.01-1.18c-0.02-0.25,0.1-0.33,0.3-0.4
				c0.95-0.3,1.68,0.15,1.81,1.13C29.54,6.51,29.53,6.92,29.39,7.33z"/>
		</g>
		<g>
			<path class="st1" d="M51.51,3.03c-2.14-0.02-3.61,1.42-3.61,3.53c0,2.15,1.39,3.53,3.58,3.54c2.21,0,3.6-1.36,3.6-3.51
				C55.08,4.45,53.68,3.05,51.51,3.03z M52.54,7.54c-0.17,0.49-0.62,0.77-1.09,0.74c-0.49-0.03-0.87-0.34-1.02-0.84
				c-0.09-0.28-0.11-0.57-0.1-0.87c-0.01-0.29,0.02-0.59,0.11-0.87c0.15-0.49,0.55-0.81,1.03-0.83c0.47-0.02,0.92,0.27,1.08,0.76
				C52.76,6.26,52.76,6.91,52.54,7.54z"/>
		</g>
		<g>
			<path class="st1" d="M39.09,6.99c0-0.51,0.01-1.02,0-1.53c-0.03-0.88-0.37-1.59-1.2-1.98c-1.35-0.63-2.75-0.57-4.13-0.11
				c-0.61,0.2-0.78,0.78-0.52,1.38c0.13,0.3,0.28,0.47,0.67,0.32c0.71-0.27,1.45-0.38,2.21-0.23C36.39,4.91,36.66,5,36.77,5.3
				c0.06,0.18,0.08,0.3-0.19,0.32c-0.67,0.06-1.35,0.12-2.01,0.23c-0.68,0.11-1.33,0.35-1.64,1.04c-0.43,0.97-0.3,2.4,1.2,2.93
				c0.73,0.26,1.49,0.32,2.26,0.27c0.8-0.06,1.59-0.18,2.26-0.69c0.29-0.22,0.44-0.51,0.44-0.88C39.08,8.01,39.09,7.5,39.09,6.99z
				 M36.21,8.37c-0.27,0.02-0.53,0.04-0.8-0.04c-0.26-0.08-0.42-0.26-0.42-0.53c-0.01-0.26,0.18-0.41,0.41-0.49
				c0.41-0.13,0.83-0.08,1.25-0.15c0.12-0.02,0.17,0.02,0.17,0.14c0,0.14,0,0.28,0,0.42C36.81,8.31,36.81,8.31,36.21,8.37z"/>
		</g>
		<g>
			<path class="st1" d="M11.79,8.42c-0.03-0.48-0.01-0.97-0.01-1.45c0-0.51,0.01-1.02,0-1.53c-0.02-0.9-0.4-1.62-1.24-1.99
				C9.2,2.86,7.81,2.91,6.45,3.38C5.8,3.61,5.65,4.25,6,4.87C6.12,5.1,6.26,5.19,6.54,5.09c0.73-0.26,1.47-0.39,2.25-0.24
				C9.07,4.9,9.34,4.99,9.46,5.28c0.07,0.18,0.1,0.35-0.2,0.35c-0.24,0-0.48,0.04-0.72,0.08C7.93,5.79,7.3,5.79,6.7,6.01
				C5.98,6.27,5.53,6.76,5.44,7.53c-0.1,0.86,0.15,1.59,0.92,2.06c0.55,0.33,1.16,0.46,1.78,0.49c1.05,0.06,2.09,0,3.03-0.56
				C11.59,9.27,11.82,8.93,11.79,8.42z M8.9,8.37C8.66,8.39,8.42,8.4,8.18,8.34C7.89,8.27,7.69,8.1,7.69,7.79
				c0-0.29,0.21-0.42,0.45-0.49c0.4-0.11,0.81-0.07,1.21-0.14c0.12-0.02,0.16,0.04,0.16,0.15c0,0.13,0,0.25,0,0.38
				C9.52,8.31,9.52,8.31,8.9,8.37z"/>
		</g>
	</g>
</g>
</svg>
