<?xml version="1.0" encoding="utf-8"?>
<!-- Generator: Adobe Illustrator 27.5.0, SVG Export Plug-In . SVG Version: 6.00 Build 0)  -->
<svg version="1.1" id="Capa_1" xmlns="http://www.w3.org/2000/svg" xmlns:xlink="http://www.w3.org/1999/xlink" x="0px" y="0px"
	 viewBox="0 0 67 18" style="enable-background:new 0 0 67 18;" xml:space="preserve">
<style type="text/css">
	.st0{fill:#232323;}
	.st1{fill:#767676;}
	.st2{fill:#FFFFFF;}
</style>
<g>
	<g>
		<path class="st0" d="M24.66,8.31c0-4.36-5.41-7.91-12.09-7.91C5.89,0.4,0.48,3.95,0.48,8.31c0,0.11,0,0.42,0,0.46
			c0,4.62,4.73,8.37,12.09,8.37c7.41,0,12.09-3.74,12.09-8.37C24.66,8.61,24.66,8.51,24.66,8.31z"/>
		<path class="st1" d="M24.2,8.3c0,4.11-5.21,7.44-11.63,7.44c-6.42,0-11.63-3.33-11.63-7.44c0-4.11,5.21-7.44,11.63-7.44
			C18.99,0.86,24.2,4.19,24.2,8.3z"/>
		<g>
			<path class="st2" d="M8.71,5.95C8.71,5.97,8.59,6.09,8.66,6.18c0.18,0.23,0.75,0.37,1.32,0.24c0.34-0.08,0.78-0.42,1.2-0.76
				c0.46-0.36,0.91-0.73,1.37-0.88c0.48-0.15,0.8-0.09,1-0.03c0.23,0.07,0.49,0.22,0.91,0.53c0.8,0.6,3.99,3.39,4.55,3.87
				c0.45-0.2,2.42-1.05,5.11-1.65c-0.23-1.43-1.11-2.74-2.43-3.82c-1.84,0.77-4.1,1.18-6.3,0.1c-0.01,0-1.2-0.57-2.38-0.54
				c-1.75,0.04-2.5,0.8-3.31,1.6L8.71,5.95z"/>
			<path class="st2" d="M18.89,9.47c-0.04-0.03-3.76-3.29-4.61-3.93c-0.49-0.37-0.76-0.46-1.04-0.5c-0.15-0.02-0.35,0.01-0.5,0.05
				c-0.39,0.11-0.91,0.45-1.36,0.81c-0.47,0.38-0.92,0.73-1.33,0.82C9.53,6.85,8.89,6.71,8.59,6.51c-0.12-0.08-0.2-0.17-0.24-0.27
				C8.24,5.99,8.44,5.79,8.47,5.76L9.5,4.64c0.12-0.12,0.24-0.24,0.36-0.36C9.53,4.33,9.23,4.42,8.93,4.5C8.55,4.6,8.2,4.7,7.83,4.7
				c-0.15,0-0.96-0.13-1.12-0.17c-0.93-0.25-1.75-0.5-2.97-1.07C2.29,4.54,1.31,5.9,1.03,7.4c0.21,0.06,0.55,0.16,0.69,0.19
				c3.31,0.74,4.34,1.49,4.52,1.65c0.2-0.23,0.49-0.37,0.82-0.37c0.37,0,0.7,0.18,0.9,0.47c0.19-0.15,0.45-0.28,0.79-0.28
				c0.15,0,0.31,0.03,0.47,0.08c0.37,0.13,0.57,0.38,0.67,0.6c0.13-0.06,0.28-0.1,0.46-0.1c0.18,0,0.36,0.04,0.55,0.12
				c0.61,0.26,0.7,0.86,0.65,1.31c0.04-0.01,0.09-0.01,0.13-0.01c0.72,0,1.31,0.59,1.31,1.31c0,0.22-0.06,0.43-0.16,0.62
				c0.2,0.11,0.7,0.36,1.14,0.3c0.35-0.04,0.49-0.16,0.53-0.23c0.03-0.05,0.07-0.1,0.04-0.14l-0.93-1.04c0,0-0.15-0.15-0.1-0.2
				c0.05-0.06,0.15,0.03,0.21,0.08c0.47,0.4,1.05,0.99,1.05,0.99c0.01,0.01,0.05,0.08,0.26,0.12c0.18,0.03,0.51,0.01,0.74-0.17
				c0.06-0.05,0.11-0.11,0.16-0.17c0,0-0.01,0.01-0.01,0.01c0.24-0.31-0.03-0.61-0.03-0.61l-1.09-1.22c0,0-0.16-0.14-0.1-0.2
				c0.05-0.05,0.15,0.03,0.22,0.08c0.34,0.29,0.83,0.78,1.3,1.23c0.09,0.07,0.5,0.32,1.05-0.04c0.33-0.22,0.4-0.48,0.39-0.68
				c-0.02-0.27-0.23-0.45-0.23-0.45l-1.49-1.5c0,0-0.16-0.13-0.1-0.2c0.05-0.06,0.15,0.03,0.21,0.08c0.47,0.4,1.76,1.57,1.76,1.57
				c0.02,0.01,0.46,0.33,1.01-0.02c0.2-0.13,0.32-0.31,0.33-0.53C19.16,9.7,18.89,9.47,18.89,9.47z"/>
			<path class="st2" d="M11.68,11.37c-0.23,0-0.48,0.13-0.52,0.11c-0.02-0.01,0.01-0.1,0.04-0.16c0.02-0.05,0.33-0.97-0.41-1.28
				c-0.57-0.24-0.91,0.03-1.03,0.15c-0.03,0.03-0.05,0.03-0.05-0.01c-0.01-0.16-0.09-0.61-0.57-0.76C8.43,9.21,7.98,9.7,7.87,9.87
				c-0.05-0.4-0.39-0.71-0.8-0.71c-0.45,0-0.81,0.36-0.81,0.81c0,0.45,0.36,0.81,0.81,0.81c0.22,0,0.42-0.09,0.56-0.23
				c0,0,0.01,0.01,0,0.03c-0.03,0.2-0.1,0.93,0.67,1.23c0.31,0.12,0.57,0.03,0.78-0.12c0.06-0.05,0.07-0.03,0.07,0.03
				c-0.03,0.19,0.01,0.59,0.57,0.82c0.43,0.17,0.68,0,0.85-0.16c0.07-0.07,0.09-0.06,0.1,0.05c0.02,0.54,0.47,0.97,1.02,0.97
				c0.56,0,1.02-0.46,1.02-1.02C12.7,11.82,12.24,11.37,11.68,11.37z"/>
		</g>
		<path class="st0" d="M19.04,9.08c-1.15-1-3.8-3.31-4.52-3.85c-0.41-0.31-0.69-0.47-0.94-0.54c-0.11-0.03-0.26-0.07-0.46-0.07
			c-0.18,0-0.38,0.03-0.58,0.1c-0.46,0.15-0.93,0.51-1.37,0.87l-0.02,0.02c-0.42,0.33-0.85,0.67-1.17,0.75
			C9.83,6.38,9.68,6.4,9.54,6.4c-0.36,0-0.69-0.11-0.82-0.26C8.7,6.11,8.72,6.07,8.76,6.01L8.77,6l1.01-1.09
			c0.79-0.79,1.54-1.54,3.26-1.58c0.03,0,0.06,0,0.09,0c1.07,0,2.14,0.48,2.26,0.54c1,0.49,2.04,0.74,3.08,0.74
			c1.08,0,2.2-0.27,3.38-0.81c-0.13-0.11-0.27-0.22-0.41-0.32c-1.03,0.45-2.02,0.67-2.97,0.67c-0.97,0-1.94-0.23-2.88-0.69
			c-0.05-0.02-1.23-0.58-2.46-0.58c-0.03,0-0.06,0-0.1,0c-1.44,0.03-2.26,0.55-2.8,1c-0.53,0.01-0.99,0.14-1.4,0.26
			c-0.36,0.1-0.68,0.19-0.99,0.19c-0.13,0-0.35-0.01-0.37-0.01C7.11,4.29,5.33,3.86,3.92,3.32C3.77,3.42,3.63,3.53,3.5,3.64
			c1.48,0.61,3.27,1.07,3.84,1.11C7.5,4.76,7.67,4.78,7.84,4.78c0.38,0,0.75-0.11,1.11-0.21C9.16,4.51,9.4,4.44,9.65,4.4
			c-0.07,0.07-0.13,0.13-0.2,0.2L8.42,5.7C8.34,5.79,8.17,6,8.28,6.27c0.05,0.11,0.14,0.21,0.27,0.3C8.8,6.73,9.23,6.85,9.64,6.85
			c0.15,0,0.3-0.02,0.43-0.05c0.43-0.1,0.88-0.46,1.36-0.84c0.38-0.3,0.92-0.69,1.34-0.8c0.12-0.03,0.26-0.05,0.37-0.05
			c0.03,0,0.07,0,0.1,0.01c0.27,0.03,0.54,0.13,1.01,0.48c0.84,0.63,4.57,3.89,4.6,3.92c0,0,0.24,0.21,0.22,0.55
			c-0.01,0.19-0.11,0.36-0.3,0.48c-0.16,0.1-0.32,0.15-0.49,0.15c-0.25,0-0.42-0.12-0.43-0.13c-0.01-0.01-1.29-1.18-1.76-1.57
			c-0.07-0.06-0.15-0.12-0.22-0.12c-0.04,0-0.07,0.02-0.1,0.05c-0.07,0.09,0.01,0.22,0.11,0.3l1.49,1.5c0,0,0.19,0.17,0.21,0.4
			c0.01,0.25-0.11,0.46-0.35,0.62c-0.18,0.12-0.35,0.17-0.53,0.17c-0.23,0-0.39-0.1-0.43-0.13l-0.21-0.21
			c-0.39-0.38-0.79-0.78-1.09-1.03c-0.07-0.06-0.15-0.12-0.22-0.12c-0.04,0-0.07,0.01-0.09,0.04c-0.03,0.04-0.06,0.1,0.03,0.22
			c0.03,0.05,0.08,0.08,0.08,0.08L15.84,12c0.01,0.01,0.22,0.27,0.02,0.52l-0.04,0.05c-0.03,0.04-0.07,0.07-0.1,0.1
			c-0.19,0.15-0.43,0.17-0.53,0.17c-0.05,0-0.1,0-0.15-0.01c-0.11-0.02-0.18-0.05-0.21-0.09l-0.01-0.01c-0.06-0.06-0.61-0.62-1.06-1
			c-0.06-0.05-0.13-0.11-0.21-0.11c-0.04,0-0.07,0.01-0.1,0.04c-0.09,0.1,0.04,0.25,0.1,0.3l0.93,1.02c0,0.01-0.01,0.03-0.04,0.06
			c-0.03,0.05-0.15,0.16-0.48,0.2c-0.04,0.01-0.08,0.01-0.12,0.01c-0.35,0-0.72-0.17-0.91-0.27c0.09-0.18,0.13-0.39,0.13-0.59
			c0-0.76-0.62-1.38-1.38-1.39c-0.02,0-0.03,0-0.05,0c0.03-0.35-0.02-1.01-0.7-1.3c-0.19-0.08-0.39-0.13-0.58-0.13
			c-0.15,0-0.29,0.03-0.42,0.08C9.78,9.38,9.55,9.18,9.25,9.08c-0.17-0.06-0.34-0.09-0.5-0.09c-0.28,0-0.54,0.08-0.77,0.25
			C7.76,8.96,7.42,8.8,7.07,8.8c-0.31,0-0.61,0.12-0.83,0.34C5.95,8.92,4.81,8.19,1.74,7.5C1.59,7.46,1.25,7.37,1.04,7.3
			c-0.03,0.17-0.06,0.33-0.08,0.5c0,0,0.57,0.14,0.68,0.16c3.13,0.7,4.17,1.42,4.34,1.56c-0.06,0.14-0.09,0.3-0.09,0.45
			c0,0.65,0.53,1.17,1.17,1.17c0.07,0,0.14-0.01,0.22-0.02c0.1,0.48,0.41,0.84,0.89,1.02c0.14,0.05,0.28,0.08,0.42,0.08
			c0.09,0,0.18-0.01,0.27-0.03c0.09,0.22,0.29,0.5,0.73,0.68c0.16,0.06,0.31,0.1,0.46,0.1c0.12,0,0.24-0.02,0.36-0.06
			c0.21,0.52,0.72,0.86,1.28,0.86c0.37,0,0.73-0.15,0.99-0.42c0.22,0.12,0.7,0.35,1.17,0.35c0.06,0,0.12,0,0.18-0.01
			c0.47-0.06,0.69-0.24,0.79-0.39c0.02-0.03,0.03-0.05,0.05-0.08c0.11,0.03,0.23,0.06,0.38,0.06c0.26,0,0.51-0.09,0.76-0.27
			c0.25-0.18,0.42-0.43,0.45-0.65c0,0,0-0.01,0-0.01c0.08,0.02,0.17,0.03,0.25,0.03c0.27,0,0.53-0.08,0.78-0.25
			c0.48-0.32,0.57-0.73,0.56-1c0.08,0.02,0.17,0.03,0.26,0.03c0.25,0,0.5-0.08,0.73-0.22c0.3-0.19,0.48-0.48,0.51-0.82
			c0.02-0.23-0.04-0.47-0.16-0.67c0.81-0.35,2.66-1.02,4.83-1.51c-0.01-0.17-0.04-0.34-0.07-0.5C21.49,8.01,19.53,8.86,19.04,9.08z
			 M11.68,13.33c-0.51,0-0.93-0.4-0.95-0.9c0-0.04-0.01-0.16-0.1-0.16c-0.04,0-0.08,0.02-0.12,0.06c-0.11,0.1-0.26,0.21-0.46,0.21
			c-0.09,0-0.2-0.02-0.31-0.07c-0.54-0.22-0.55-0.59-0.53-0.74c0.01-0.04,0.01-0.08-0.02-0.11l-0.03-0.03H9.13
			c-0.03,0-0.06,0.01-0.09,0.04c-0.16,0.11-0.31,0.16-0.46,0.16c-0.08,0-0.17-0.02-0.26-0.05C7.61,11.47,7.67,10.8,7.7,10.6
			c0.01-0.04,0-0.07-0.03-0.09l-0.05-0.04l-0.05,0.04c-0.14,0.13-0.32,0.21-0.51,0.21c-0.41,0-0.74-0.33-0.74-0.74
			c0-0.41,0.33-0.74,0.74-0.74c0.37,0,0.68,0.28,0.73,0.64l0.03,0.2l0.11-0.17c0.01-0.02,0.31-0.47,0.86-0.47
			c0.1,0,0.21,0.02,0.32,0.05c0.44,0.13,0.51,0.53,0.52,0.69c0.01,0.1,0.08,0.1,0.09,0.1c0.04,0,0.07-0.02,0.09-0.04
			c0.08-0.09,0.26-0.23,0.54-0.23c0.13,0,0.27,0.03,0.41,0.09c0.69,0.3,0.38,1.18,0.38,1.19c-0.06,0.15-0.06,0.21-0.01,0.25
			l0.03,0.01h0.02c0.03,0,0.07-0.01,0.13-0.04c0.09-0.03,0.24-0.08,0.37-0.08h0c0.52,0.01,0.95,0.43,0.95,0.95
			C12.63,12.91,12.2,13.33,11.68,13.33z"/>
	</g>
	<g>
		<path class="st0" d="M65.87,3.27c-0.44-0.55-1.1-0.82-1.99-0.82c-0.89,0-1.55,0.27-1.99,0.82c-0.44,0.55-0.66,1.19-0.66,1.94
			c0,0.76,0.22,1.41,0.66,1.95c0.44,0.54,1.1,0.81,1.99,0.81c0.89,0,1.55-0.27,1.99-0.81c0.44-0.54,0.65-1.19,0.65-1.95
			C66.52,4.46,66.31,3.81,65.87,3.27z M64.79,6.4c-0.21,0.28-0.51,0.42-0.91,0.42c-0.4,0-0.7-0.14-0.91-0.42
			c-0.21-0.28-0.32-0.68-0.32-1.2c0-0.52,0.11-0.92,0.32-1.2c0.21-0.28,0.52-0.42,0.91-0.42c0.4,0,0.7,0.14,0.91,0.42
			C65,4.29,65.1,4.69,65.1,5.2C65.1,5.72,65,6.12,64.79,6.4z"/>
		<path class="st0" d="M54.71,2.81c-0.44-0.22-0.95-0.34-1.52-0.34c-0.88,0-1.49,0.23-1.85,0.69c-0.23,0.29-0.35,0.67-0.38,1.12
			h1.31c0.03-0.2,0.1-0.36,0.19-0.48c0.14-0.16,0.36-0.24,0.69-0.24c0.29,0,0.51,0.04,0.66,0.12c0.15,0.08,0.22,0.23,0.22,0.44
			c0,0.17-0.1,0.3-0.29,0.39c-0.11,0.05-0.29,0.09-0.54,0.12l-0.46,0.06c-0.53,0.07-0.93,0.18-1.2,0.33
			c-0.5,0.29-0.74,0.75-0.74,1.38c0,0.49,0.15,0.87,0.46,1.14c0.31,0.27,0.7,0.38,1.17,0.4c2.96,0.13,2.93-1.56,2.95-1.91V4.08
			C55.38,3.46,55.16,3.03,54.71,2.81z M54.03,5.76c-0.01,0.45-0.14,0.77-0.39,0.94c-0.25,0.17-0.52,0.26-0.82,0.26
			c-0.19,0-0.35-0.05-0.48-0.15c-0.13-0.1-0.2-0.27-0.2-0.5c0-0.26,0.11-0.45,0.32-0.58c0.13-0.07,0.33-0.14,0.62-0.18l0.31-0.06
			c0.15-0.03,0.27-0.06,0.36-0.09c0.09-0.03,0.18-0.08,0.26-0.13V5.76z"/>
		<path class="st0" d="M47.96,3.63c0.34,0,0.59,0.1,0.75,0.31c0.11,0.15,0.18,0.33,0.21,0.52h1.46c-0.08-0.74-0.34-1.25-0.77-1.54
			c-0.44-0.29-1-0.44-1.68-0.44c-0.8,0-1.44,0.25-1.89,0.74c-0.46,0.49-0.69,1.18-0.69,2.07c0,0.79,0.21,1.43,0.62,1.92
			c0.41,0.49,1.06,0.74,1.94,0.74c0.88,0,1.54-0.3,1.99-0.89c0.28-0.37,0.44-0.76,0.47-1.17H48.9c-0.03,0.27-0.11,0.49-0.26,0.66
			c-0.14,0.17-0.38,0.26-0.71,0.26c-0.47,0-0.79-0.21-0.96-0.65c-0.09-0.23-0.14-0.53-0.14-0.91c0-0.4,0.05-0.72,0.14-0.96
			C47.15,3.86,47.48,3.63,47.96,3.63z"/>
		<path class="st0" d="M44.95,2.49c-3,0-2.82,2.66-2.82,2.66v2.7h1.36V5.31c0-0.41,0.05-0.72,0.16-0.92
			c0.19-0.35,0.55-0.53,1.1-0.53c0.04,0,0.09,0,0.16,0.01c0.07,0,0.14,0.01,0.23,0.02V2.5c-0.06,0-0.1-0.01-0.12-0.01
			C45,2.49,44.98,2.49,44.95,2.49z"/>
		<path class="st0" d="M39.95,6.43c-0.06,0.08-0.12,0.15-0.19,0.21C39.57,6.8,39.31,6.85,39,6.85c-0.29,0-0.52-0.04-0.72-0.17
			c-0.34-0.21-0.53-0.56-0.55-1.08h3.77c0.01-0.45-0.01-0.79-0.05-1.03c-0.06-0.41-0.2-0.76-0.41-1.07
			c-0.23-0.35-0.53-0.6-0.89-0.77c-0.36-0.16-0.77-0.24-1.22-0.24c-0.76,0-1.37,0.24-1.85,0.72c-0.47,0.48-0.71,1.16-0.71,2.06
			c0,0.96,0.26,1.65,0.79,2.07c0.53,0.42,1.13,0.64,1.82,0.64c0.83,0,1.48-0.25,1.95-0.75c0.25-0.26,0.41-0.53,0.47-0.78H39.95z
			 M38.12,3.9c0.19-0.2,0.46-0.3,0.81-0.3c0.32,0,0.59,0.09,0.8,0.28c0.21,0.19,0.34,0.46,0.36,0.82h-2.33
			C37.81,4.36,37.93,4.09,38.12,3.9z"/>
		<g>
			<path class="st0" d="M35.82,7.84h-1.24V4.71c0-0.29-0.09-0.97-0.91-0.97c-0.55,0-0.94,0.39-0.94,0.97v3.13h-1.24V4.71
				c0-0.29-0.08-0.97-0.9-0.97c-0.56,0-0.94,0.39-0.94,0.97v3.13h-1.24v-3.1c0-1.29,0.86-2.27,2.19-2.27c0.66,0,1.2,0.28,1.55,0.72
				c0.37-0.44,0.91-0.72,1.55-0.72c1.36,0,2.16,0.94,2.16,2.27V7.84z"/>
		</g>
		<path class="st0" d="M60.83,0.85c0,0-1.37-0.15-1.37,0.96l0,1.46c-0.15-0.24-0.35-0.43-0.59-0.57c-0.24-0.14-0.52-0.21-0.84-0.21
			c-0.68,0-1.22,0.25-1.63,0.76C56,3.75,55.79,4.48,55.79,5.37c0,0.77,0.21,1.39,0.62,1.88c0.41,0.49,1.22,0.7,1.94,0.7
			c2.51,0,2.48-2.15,2.48-2.15L60.83,0.85z M59.2,6.41C59,6.7,58.71,6.84,58.33,6.84c-0.38,0-0.67-0.14-0.86-0.43
			c-0.19-0.29-0.28-0.7-0.28-1.18c0-0.44,0.09-0.81,0.28-1.11c0.18-0.3,0.47-0.45,0.87-0.45c0.26,0,0.49,0.08,0.68,0.25
			c0.32,0.27,0.48,0.76,0.48,1.39C59.5,5.76,59.4,6.13,59.2,6.41z"/>
	</g>
	<g>
		<g>
			<path class="st1" d="M38.32,16.48c0,0.18-0.07,0.34-0.2,0.47c-0.13,0.13-0.29,0.2-0.48,0.2h-0.68v-4.73
				c0-0.92,0.31-1.5,0.82-1.89c0.34-0.26,0.84-0.5,1.78-0.5c0.64,0,1.38,0.25,1.78,0.74c0.45,0.55,0.64,1.17,0.64,1.97
				c0,0.83-0.2,1.5-0.6,2.01c-0.4,0.5-0.91,0.75-1.54,0.75c-0.33,0-0.63-0.06-0.88-0.18c-0.27-0.13-0.48-0.34-0.64-0.61V16.48z
				 M40.6,12.8c0-0.51-0.1-0.91-0.3-1.18c-0.2-0.28-0.49-0.41-0.86-0.41c-0.36,0-0.64,0.14-0.84,0.41
				c-0.19,0.25-0.28,0.65-0.28,1.18c0,0.5,0.1,0.88,0.3,1.13c0.2,0.28,0.49,0.41,0.86,0.41c0.35,0,0.62-0.14,0.82-0.41
				C40.5,13.65,40.6,13.27,40.6,12.8"/>
			<path class="st1" d="M51.01,15.07v-0.33c-0.24,0.37-0.55,0.6-0.95,0.69c-0.4,0.09-0.8,0.06-1.19-0.1
				c-0.39-0.16-0.73-0.45-1.01-0.88c-0.28-0.43-0.42-0.99-0.42-1.69c0-0.81,0.19-1.48,0.56-1.98c0.37-0.51,0.97-0.74,1.8-0.76
				c0.81-0.02,1.29,0.16,1.75,0.51c0.51,0.38,0.81,0.97,0.81,1.89v2.78c0,0.89-0.62,2.53-2.56,2.39c-1.2-0.09-1.87-0.58-2.24-1.7
				h1.43c0.1,0.18,0.27,0.33,0.48,0.42c0.22,0.1,0.43,0.13,0.65,0.08c0.22-0.05,0.41-0.17,0.59-0.38
				C50.88,15.81,50.98,15.49,51.01,15.07 M48.76,12.8c0,0.91,0.26,1.41,0.79,1.51c0.52,0.1,0.91-0.02,1.16-0.37
				c0.12-0.14,0.2-0.37,0.26-0.68c0.05-0.31,0.06-0.61,0.01-0.92c-0.05-0.3-0.15-0.57-0.32-0.81c-0.17-0.24-0.42-0.36-0.75-0.36
				c-0.45,0-0.75,0.17-0.9,0.49C48.84,12,48.76,12.38,48.76,12.8"/>
			<path class="st1" d="M46.26,10.39c-0.44-0.22-0.95-0.34-1.52-0.34c-0.88,0-1.49,0.23-1.86,0.68c-0.23,0.29-0.35,0.66-0.38,1.12
				h1.31c0.03-0.2,0.1-0.36,0.19-0.48c0.14-0.16,0.36-0.24,0.69-0.24c0.29,0,0.51,0.04,0.66,0.12c0.15,0.08,0.22,0.23,0.22,0.44
				c0,0.17-0.1,0.3-0.29,0.39c-0.11,0.05-0.29,0.09-0.54,0.12l-0.46,0.06c-0.53,0.07-0.93,0.18-1.2,0.33
				c-0.5,0.29-0.74,0.75-0.74,1.38c0,0.49,0.15,0.87,0.46,1.14c0.31,0.27,0.7,0.38,1.17,0.4c2.96,0.13,2.93-1.56,2.95-1.91v-1.95
				C46.93,11.04,46.71,10.62,46.26,10.39 M45.58,13.35c-0.01,0.45-0.14,0.77-0.39,0.94c-0.25,0.17-0.52,0.26-0.82,0.26
				c-0.19,0-0.35-0.05-0.48-0.15c-0.13-0.1-0.2-0.27-0.2-0.5c0-0.26,0.11-0.45,0.32-0.58c0.13-0.07,0.33-0.14,0.62-0.18l0.31-0.06
				c0.15-0.03,0.28-0.06,0.36-0.09c0.09-0.03,0.18-0.08,0.26-0.13V13.35z"/>
			<path class="st1" d="M57.49,10.82C57.05,10.27,56.39,10,55.5,10c-0.89,0-1.55,0.27-1.99,0.82c-0.44,0.55-0.66,1.19-0.66,1.94
				c0,0.76,0.22,1.41,0.66,1.95c0.44,0.54,1.1,0.81,1.99,0.81c0.89,0,1.55-0.27,1.99-0.81c0.44-0.54,0.65-1.19,0.65-1.95
				C58.15,12.01,57.93,11.37,57.49,10.82 M56.41,13.96c-0.21,0.28-0.51,0.42-0.91,0.42c-0.4,0-0.7-0.14-0.91-0.42
				c-0.21-0.28-0.32-0.68-0.32-1.2c0-0.52,0.11-0.92,0.32-1.2c0.21-0.28,0.52-0.42,0.91-0.42c0.4,0,0.7,0.14,0.91,0.42
				c0.21,0.28,0.32,0.68,0.32,1.2C56.73,13.28,56.62,13.68,56.41,13.96"/>
		</g>
	</g>
</g>
</svg>
