<?xml version="1.0" encoding="utf-8"?>
<!-- Generator: Adobe Illustrator 27.5.0, SVG Export Plug-In . SVG Version: 6.00 Build 0)  -->
<svg version="1.1" id="Capa_1" xmlns="http://www.w3.org/2000/svg" xmlns:xlink="http://www.w3.org/1999/xlink" x="0px" y="0px"
	 viewBox="0 0 43 14" style="enable-background:new 0 0 43 14;" xml:space="preserve">
<style type="text/css">
	.st0{fill:#666666;}
</style>
<g>
	<path class="st0" d="M42.4,12.19c-0.73-3.51-1.46-7.02-2.2-10.52c-0.09-0.43-0.18-0.85-0.28-1.29c-0.95,0-1.88,0-2.8,0
		c-0.83,0-1.31,0.32-1.64,1.09c-1.49,3.55-2.98,7.1-4.46,10.65c-0.21,0.5-0.41,0.99-0.63,1.51c1.19,0,2.34,0,3.5-0.01
		c0.06,0,0.15-0.1,0.18-0.17c0.2-0.52,0.39-1.04,0.57-1.57c0.06-0.18,0.14-0.24,0.33-0.24c1.28,0.01,2.56,0.01,3.84,0
		c0.26,0,0.33,0.09,0.37,0.32c0.1,0.55,0.22,1.1,0.34,1.66c1.07,0,2.13,0,3.19,0c0-0.03,0-0.06,0-0.09
		C42.6,13.09,42.49,12.64,42.4,12.19z M35.71,8.92c0.59-1.63,1.18-3.24,1.76-4.86c0.01,0,0.03,0.01,0.04,0.01
		c0.34,1.61,0.67,3.22,1.01,4.85C37.58,8.92,36.67,8.92,35.71,8.92z"/>
	<path class="st0" d="M30.53,8.75c-0.12-0.98-0.71-1.71-1.51-2.24c-0.68-0.45-1.41-0.81-2.11-1.23c-0.31-0.18-0.61-0.39-0.87-0.63
		c-0.38-0.35-0.37-0.84,0.02-1.18c0.23-0.2,0.52-0.35,0.82-0.43c0.72-0.2,1.45-0.14,2.17,0.02c0.52,0.12,1.03,0.3,1.57,0.45
		c0.19-0.91,0.39-1.84,0.6-2.79c-0.4-0.12-0.78-0.24-1.16-0.33c-0.42-0.1-0.84-0.16-1.26-0.24c-0.53,0-1.07,0-1.6,0
		c-0.07,0.02-0.13,0.04-0.2,0.05c-1.21,0.15-2.34,0.49-3.29,1.28c-1.1,0.9-1.62,2.06-1.47,3.49c0.1,0.95,0.64,1.67,1.39,2.21
		c0.58,0.42,1.24,0.74,1.85,1.11c0.39,0.24,0.81,0.46,1.16,0.76c0.53,0.45,0.47,1.18-0.11,1.57c-0.27,0.18-0.59,0.32-0.9,0.38
		c-1.21,0.23-2.37,0.02-3.5-0.44c-0.24-0.1-0.47-0.2-0.71-0.31c-0.21,0.98-0.41,1.94-0.62,2.89c0.04,0.03,0.07,0.05,0.1,0.06
		c0.09,0.04,0.19,0.08,0.29,0.11c1.44,0.47,2.92,0.64,4.44,0.5c1.08-0.1,2.12-0.37,3.04-0.98C30.11,11.85,30.75,10.49,30.53,8.75z"
		/>
	<path class="st0" d="M16.38,0.39c-0.1,0-0.16-0.01-0.23-0.01c-1.05,0-2.11,0-3.16,0c-0.17,0-0.24,0.05-0.3,0.21
		c-1.12,2.85-2.25,5.7-3.38,8.56c-0.02,0.05-0.05,0.1-0.1,0.19C9.18,9.19,9.16,9.08,9.14,8.98C8.68,6.56,8.23,4.15,7.77,1.74
		C7.61,0.88,6.98,0.38,6.12,0.38c-1.81,0-3.63,0-5.44,0c-0.38,0-0.38,0-0.38,0.4C0.34,0.79,0.38,0.8,0.43,0.81
		C1.44,1.06,2.44,1.35,3.4,1.78C4,2.04,4.32,2.47,4.48,3.1c0.87,3.43,1.76,6.85,2.64,10.28c0.05,0.2,0.12,0.27,0.34,0.27
		c1.04-0.01,2.07-0.01,3.11,0c0.19,0,0.28-0.05,0.36-0.23c1.64-3.92,3.28-7.84,4.92-11.76C16.03,1.24,16.2,0.83,16.38,0.39z"/>
	<path class="st0" d="M21.28,0.4c-1.16,0-2.29,0-3.44,0c-0.94,4.41-1.89,8.81-2.83,13.24c0.11,0,0.2,0,0.28,0
		c0.94,0,1.89-0.01,2.83,0.01c0.26,0.01,0.35-0.08,0.41-0.33c0.77-3.64,1.55-7.29,2.33-10.93C21,1.73,21.14,1.07,21.28,0.4z"/>
</g>
</svg>
