<?xml version="1.0" encoding="utf-8"?>
<!-- Generator: Adobe Illustrator 27.5.0, SVG Export Plug-In . SVG Version: 6.00 Build 0)  -->
<svg version="1.1" id="Capa_1" xmlns="http://www.w3.org/2000/svg" xmlns:xlink="http://www.w3.org/1999/xlink" x="0px" y="0px"
	 viewBox="0 0 364 60" style="enable-background:new 0 0 364 60;" xml:space="preserve">
<style type="text/css">
	.st0{fill:#3333FF;}
</style>
<g>
	<path class="st0" d="M30.95,13.48c1.05,0,1.91-0.85,1.91-1.91V9.34c0-3.02,2.47-5.48,5.5-5.48c3.03,0,5.5,2.46,5.5,5.48v2.23
		c0,1.05,0.85,1.91,1.91,1.91s1.91-0.85,1.91-1.91V9.34c0-5.12-4.18-9.29-9.31-9.29c-5.13,0-9.31,4.17-9.31,9.29v2.23
		C29.04,12.62,29.9,13.48,30.95,13.48z"/>
	<path class="st0" d="M56.83,16.75H19.88c-1.05,0-1.91,0.85-1.91,1.91c0,0.02,0,0.03,0,0.05c0,0.02,0,0.03,0,0.05v22.11
		c-1.9-1.62-4.36-2.61-7.05-2.61c-5.99,0-10.86,4.86-10.86,10.84c0,5.98,4.87,10.84,10.86,10.84c5.99,0,10.86-4.86,10.86-10.84
		c0-0.01,0-0.02,0-0.03c0,0,0-0.01,0-0.01V20.57h33.13v20.31c-1.9-1.62-4.36-2.61-7.05-2.61C41.88,38.26,37,43.13,37,49.11
		c0,5.98,4.87,10.84,10.86,10.84c5.99,0,10.86-4.86,10.86-10.84c0-0.01,0-0.03,0-0.04c0-0.01,0-0.01,0-0.02V18.66
		C58.73,17.61,57.88,16.75,56.83,16.75z M10.92,56.12c-3.89,0-7.05-3.15-7.05-7.03c0-3.88,3.16-7.03,7.05-7.03
		c3.89,0,7.05,3.15,7.05,7.03C17.97,52.97,14.81,56.12,10.92,56.12z M47.87,56.14c-3.89,0-7.05-3.15-7.05-7.03
		c0-3.88,3.16-7.03,7.05-7.03c3.89,0,7.05,3.15,7.05,7.03C54.92,52.98,51.76,56.14,47.87,56.14z"/>
	<path class="st0" d="M91.73,18.59H75.4c-2.02,0-3.67,1.65-3.67,3.67c0,1.98,1.65,3.62,3.67,3.62h4.89v22.48
		c0,1.79,1.46,3.25,3.25,3.25c1.83,0,3.25-1.46,3.25-3.25V25.88h4.94c2.02,0,3.62-1.65,3.62-3.62
		C95.35,20.24,93.75,18.59,91.73,18.59z"/>
	<path class="st0" d="M102.64,26.07h-4.99c-1.88,0-3.34,1.55-3.34,3.58c0,2.02,1.6,3.62,3.48,3.62h0.42v15.1
		c0,1.79,1.46,3.25,3.25,3.25c1.83,0,3.25-1.46,3.25-3.25V28.23C104.71,27.01,103.77,26.07,102.64,26.07z"/>
	<path class="st0" d="M101.09,16.1c-2.63,0-4.05,1.6-4.05,3.9c0,2.21,1.41,3.81,4.05,3.81c2.59,0,4.05-1.6,4.05-3.81
		C105.13,17.74,103.67,16.1,101.09,16.1z"/>
	<path class="st0" d="M133.07,36.09c0-5.88-4-10.54-12.14-10.54c-7.39,0-12.51,4.99-12.51,13.17c0,8.33,5.17,12.89,12.7,12.89
		c5.03,0,11.05-2.21,11.05-6.44c0-1.93-1.46-2.96-2.82-2.96c-1.03,0-1.83,0.42-2.73,0.94c-1.32,0.75-2.73,1.65-5.08,1.65
		c-2.82,0-5.88-1.27-6.49-4.19h12.84C131.42,40.6,133.07,39.33,133.07,36.09z M115.01,36.18c0.42-3.01,2.96-4.47,5.97-4.47
		c3.58,0,5.65,2.16,5.65,4.23L115.01,36.18z"/>
	<path class="st0" d="M151.18,25.41c-3.67,0-7.29,1.93-8.14,6.73h-0.38l-0.19-3.76c-0.09-1.6-1.46-2.82-3.06-2.82
		c-1.74,0-3.1,1.46-3.01,3.2l0.33,5.55v14.06c0,1.79,1.46,3.25,3.25,3.25s3.25-1.46,3.25-3.25V36.32c0-2.12,2.59-4,5.55-4
		c2.78,0,3.95,1.51,3.95,3.9v12.14c0,1.79,1.46,3.25,3.25,3.25s3.25-1.46,3.25-3.25V34.3C159.22,28.33,156.07,25.41,151.18,25.41z"
		/>
	<path class="st0" d="M187.4,21.32c0-1.83-1.41-3.29-3.25-3.29s-3.25,1.46-3.25,3.29v4.8v6.82h-0.56c-0.52-5.08-3.43-7.43-7.48-7.43
		c-5.08,0-10.16,3.81-10.16,13.12c0,9.22,3.95,12.84,8.8,12.98c4.56,0,7.95-2.31,9.13-7.62H181l0.33,4.52
		c0.14,1.74,1.51,3.1,3.25,3.1c1.84,0,3.43-1.55,3.25-3.39l-0.42-4.19V21.32z M174.89,44.41c-3.53,0-5.83-1.32-5.83-5.69
		c0-4.19,2.26-5.69,5.79-5.69c4.37,0,6.21,2.07,6.21,5.65C181.05,42.67,179.36,44.41,174.89,44.41z"/>
	<path class="st0" d="M214.3,44.55v-8.8c0-7.62-4.47-10.16-11.15-10.16c-5.08,0-11.1,2.16-11.1,6.91c0,1.83,1.08,3.2,3.15,3.2
		c1.79,0,2.49-0.99,3.2-1.79c0.71-0.85,1.69-1.55,4.14-1.55c2.87,0,5.17,1.22,5.17,4v3.76h-0.14c-0.85-1.65-2.73-3.86-7.34-3.86
		c-5.79,0-8.98,2.87-8.98,7.48c0,5.27,3.43,7.76,8.04,7.76c4.8,0,7.39-2.16,8.42-5.55h0.24l0.38,2.78c0.24,1.65,1.55,2.87,3.2,2.87
		c1.93,0,3.43-1.69,3.2-3.62L214.3,44.55z M202.73,45.54c-2.92,0-5.13-0.52-5.13-2.07c0-1.55,2.21-2.07,5.13-2.07
		c2.49,0,5.22,0.52,5.22,2.07C207.95,44.98,205.23,45.54,202.73,45.54z"/>
	<path class="st0" d="M240.55,31.67c-3.34-0.28-5.83-0.85-5.83-3.34c0-2.16,2.59-3.34,6.16-3.34c4,0,5.32,1.46,6.54,2.59
		c0.8,0.75,1.55,1.32,2.87,1.32c1.69,0,3.43-1.36,3.43-3.53c0-4.56-5.88-7.34-12.79-7.34c-7.43,0-12.79,3.57-12.79,10.3
		c0,8.51,7.76,8.7,13.5,9.27c3.29,0.33,5.93,0.75,5.93,3.01c0,2.82-2.82,4.09-6.63,4.09c-4.33,0-5.83-1.51-6.91-2.87
		c-0.89-1.08-1.51-2.07-3.15-2.07c-1.88,0-3.62,1.36-3.62,3.58c0,4.19,4.89,8.28,13.55,8.28c7.01,0,13.45-3.06,13.45-11.01
		C254.24,32.18,246.34,32.23,240.55,31.67z"/>
	<path class="st0" d="M269.24,25.41c-8.33,0-12.51,5.36-12.51,13.03c0,7.67,4.19,13.17,12.51,13.17c8.37,0,12.56-5.5,12.56-13.17
		C281.8,30.77,277.62,25.41,269.24,25.41z M269.24,44.79c-4.09,0-6.35-1.98-6.35-6.4c0-4.28,2.26-6.16,6.4-6.16
		c4.09,0,6.35,1.88,6.35,6.16C275.64,42.81,273.38,44.79,269.24,44.79z"/>
	<path class="st0" d="M307.58,28.8c0-1.79-1.46-3.25-3.25-3.25c-1.79,0-3.25,1.46-3.25,3.25v11.85c0,2.12-2.59,4-5.55,4
		c-2.78,0-3.95-1.51-3.95-3.9V28.8c0-1.79-1.46-3.25-3.25-3.25s-3.25,1.46-3.25,3.25v13.88c0,5.97,3.15,8.94,8.04,8.94
		c3.67,0,7.29-1.98,8.14-6.77h0.38l0.28,4c0.09,1.6,1.41,2.78,3.01,2.78c1.74,0,3.2-1.41,3.06-3.15l-0.42-5.03V28.8z"/>
	<path class="st0" d="M327.29,25.41c-3.67,0-7.29,1.93-8.14,6.73h-0.38l-0.19-3.76c-0.09-1.6-1.46-2.82-3.06-2.82
		c-1.74,0-3.1,1.46-3.01,3.2l0.33,5.55v14.06c0,1.79,1.46,3.25,3.25,3.25s3.25-1.46,3.25-3.25V36.32c0-2.12,2.59-4,5.55-4
		c2.78,0,3.95,1.51,3.95,3.9v12.14c0,1.79,1.46,3.25,3.25,3.25c1.79,0,3.25-1.46,3.25-3.25V34.3
		C335.33,28.33,332.18,25.41,327.29,25.41z"/>
	<path class="st0" d="M363.5,44.04V21.32c0-1.83-1.41-3.29-3.25-3.29c-1.84,0-3.25,1.46-3.25,3.29v4.8v6.82h-0.56
		c-0.52-5.08-3.43-7.43-7.48-7.43c-5.08,0-10.16,3.81-10.16,13.12c0,9.22,3.95,12.84,8.8,12.98c4.56,0,7.95-2.31,9.13-7.62h0.38
		l0.33,4.52c0.14,1.74,1.51,3.1,3.25,3.1c1.83,0,3.43-1.55,3.25-3.39L363.5,44.04z M350.99,44.41c-3.53,0-5.83-1.32-5.83-5.69
		c0-4.19,2.26-5.69,5.79-5.69c4.37,0,6.21,2.07,6.21,5.65C357.15,42.67,355.46,44.41,350.99,44.41z"/>
</g>
</svg>
