<?xml version="1.0" encoding="utf-8"?>
<!-- Generator: Adobe Illustrator 27.5.0, SVG Export Plug-In . SVG Version: 6.00 Build 0)  -->
<svg version="1.1" id="Capa_1" xmlns="http://www.w3.org/2000/svg" xmlns:xlink="http://www.w3.org/1999/xlink" x="0px" y="0px"
	 viewBox="0 0 34 34" style="enable-background:new 0 0 34 34;" xml:space="preserve">
<style type="text/css">
	.st0{fill:#3333FF;}
</style>
<path class="st0" d="M33.33,13.79h-1.32h-5.14h-9.54v6.42h9.68c-0.63,2.22-1.95,4.12-3.71,5.43c-1.61,1.19-3.58,1.9-5.75,1.9
	c-4.48,0-8.41-2.99-9.78-7.12c-0.33-1.01-0.52-2.08-0.52-3.2c0-1.22,0.22-2.39,0.61-3.48c1.45-3.99,5.3-6.84,9.68-6.84
	c2.43,0,4.62,0.88,6.32,2.35l4.62-4.69c-2.89-2.81-6.78-4.54-11.15-4.54c-6.51,0-12.32,3.83-15.15,9.39
	C1.04,11.71,0.38,14.28,0.38,17c0,2.8,0.7,5.45,1.92,7.78c2.86,5.46,8.61,9.19,15.04,9.19c4.27,0,8.09-1.65,10.96-4.35
	c3.29-3.11,5.32-7.61,5.32-12.62C33.62,15.9,33.52,14.83,33.33,13.79z"/>
<g>
	<path class="st0" d="M33.33,763.86h-1.32h-5.14h-9.54v6.42h9.68c-0.63,2.22-1.95,4.12-3.71,5.43c-1.61,1.19-3.58,1.9-5.75,1.9
		c-4.48,0-8.41-2.99-9.78-7.12c-0.33-1.01-0.52-2.08-0.52-3.2c0-1.22,0.22-2.39,0.61-3.48c1.45-3.99,5.3-6.84,9.68-6.84
		c2.43,0,4.62,0.88,6.32,2.35l4.62-4.69c-2.89-2.81-6.78-4.54-11.15-4.54c-6.51,0-12.32,3.83-15.15,9.39
		c-1.16,2.28-1.82,4.85-1.82,7.57c0,2.8,0.7,5.45,1.92,7.78c2.86,5.46,8.61,9.19,15.04,9.19c4.27,0,8.09-1.65,10.96-4.35
		c3.29-3.11,5.32-7.61,5.32-12.62C33.62,765.97,33.52,764.9,33.33,763.86z"/>
</g>
</svg>
