<?xml version="1.0" encoding="utf-8"?>
<!-- Generator: Adobe Illustrator 27.5.0, SVG Export Plug-In . SVG Version: 6.00 Build 0)  -->
<svg version="1.1" id="Capa_1" xmlns="http://www.w3.org/2000/svg" xmlns:xlink="http://www.w3.org/1999/xlink" x="0px" y="0px"
	 viewBox="0 0 20 37" style="enable-background:new 0 0 20 37;" xml:space="preserve">
<style type="text/css">
	.st0{fill:#FFFFFF;}
</style>
<g>
	<path class="st0" d="M6.08,36.86c0-0.09,0.01-0.18,0.01-0.27c0-5.42,0-10.85,0-16.27c0-0.06,0-0.13,0-0.21c-0.09,0-0.16,0-0.23,0
		c-1.73,0-3.46,0-5.19,0c-0.24,0-0.24,0-0.24-0.23c0-2.03,0-4.06,0-6.09c0-0.19,0.06-0.23,0.24-0.23c1.73,0.01,3.46,0,5.19,0
		c0.07,0,0.14,0,0.24,0c0-0.07,0-0.13,0-0.2c0-1.69-0.01-3.38,0.01-5.06c0.02-1.36,0.28-2.67,0.87-3.9c0.8-1.67,2.07-2.87,3.78-3.58
		c1.15-0.48,2.35-0.7,3.58-0.68c1.42,0.02,2.83,0.08,4.25,0.14c0.26,0.01,0.53,0.05,0.79,0.07c0.15,0.01,0.2,0.06,0.2,0.21
		c-0.01,0.84,0,1.68,0,2.52c0,0.99,0,1.98,0,2.97c0,0.17-0.05,0.23-0.22,0.22c-1.08-0.01-2.15-0.02-3.23,0
		c-0.49,0.01-0.98,0.06-1.46,0.17c-0.92,0.2-1.46,0.81-1.65,1.72c-0.07,0.37-0.12,0.75-0.12,1.12c-0.01,1.38-0.01,2.75-0.01,4.13
		c0,0.04,0.01,0.08,0.01,0.14c0.08,0,0.16,0,0.23,0c1.98,0,3.96,0,5.95,0c0.26,0,0.26,0,0.23,0.25c-0.14,1.08-0.29,2.16-0.42,3.24
		c-0.12,0.9-0.23,1.81-0.34,2.71c-0.04,0.35-0.03,0.35-0.38,0.35c-1.68,0-3.36,0-5.05,0c-0.07,0-0.14,0-0.24,0c0,0.1,0,0.18,0,0.26
		c0,5.36,0,10.73,0,16.09c0,0.13,0,0.26,0,0.4C10.62,36.86,8.35,36.86,6.08,36.86z"/>
</g>
</svg>
