<svg id="Capa_1" data-name="Capa 1" xmlns="http://www.w3.org/2000/svg" viewBox="0 0 78.93 80"><defs><style>.cls-1{fill:#33f;}</style></defs><path class="cls-1" d="M72.09,8.6a3.41,3.41,0,0,0-3-5.91,3.47,3.47,0,0,0-2.54,4.23l0,.1-6.48,4.39a1.36,1.36,0,0,0-.47,1.66,2.25,2.25,0,0,1,.17,1.78,2.88,2.88,0,0,1-1.41,1.33,1.31,1.31,0,0,0-.48.32L39.08,36.41a1.31,1.31,0,0,0-.07-1,1.33,1.33,0,0,0-1.2-.74,1.2,1.2,0,0,0-.59.14L5.3,50.46a1.33,1.33,0,0,0-.73,1.43l0,.12a1.31,1.31,0,0,0,1.14,1L26.93,55.3l3.25,21.44a1.34,1.34,0,0,0,1.15,1.13h.16a1.33,1.33,0,0,0,1.23-.82L46.87,43.59a1.34,1.34,0,0,0,0-1,1.37,1.37,0,0,0-.73-.73,1.26,1.26,0,0,0-.51-.11,1.33,1.33,0,0,0-1.23.82L32.1,71.66,29.41,53.89a1.33,1.33,0,0,0-1.17-1.12L10.62,50.83,38.24,37.31l-3,3.18a1.34,1.34,0,0,0-.32,1.27,1.38,1.38,0,0,0,.38.62,1.31,1.31,0,0,0,.92.37,1.37,1.37,0,0,0,1-.42L58.37,19.92l1.68,1.41L38.75,43.79a1.32,1.32,0,0,0-.31,1.27,1.28,1.28,0,0,0,.37.62,1.3,1.3,0,0,0,.92.36,1.33,1.33,0,0,0,1-.42L62.55,22.56l3-.82a.2.2,0,0,0,.08,0,1.2,1.2,0,0,0,.33.13,1.06,1.06,0,0,0,.31,0h0a1.34,1.34,0,0,0,1.3-1c0-.08,2-8.34,4.38-11.95A1.92,1.92,0,0,0,72.09,8.6ZM69.72,7.41l-.08.12a1.32,1.32,0,0,0-.33-1,.51.51,0,0,1-.18-.58.79.79,0,0,1,.57-.61.74.74,0,0,1,.89.55.76.76,0,0,1-.3.79,1.35,1.35,0,0,0-.5.7ZM65.2,19.12a1.47,1.47,0,0,0-.36,0l-2.42.66-2.06-1.7a5.2,5.2,0,0,0,1.92-2.27,4.48,4.48,0,0,0,.17-2.79l5.68-3.85a1.35,1.35,0,0,0,.44-.51,1.22,1.22,0,0,0,.52-.23,54.26,54.26,0,0,0-3.85,10.65Z"/><path class="cls-1" d="M69.72,18.44l-.25,0a1.35,1.35,0,0,0-1.32,1.09l-.08.46a1.36,1.36,0,0,0,0,.6,1.3,1.3,0,0,0,1,1l.25,0h0a1.34,1.34,0,0,0,1.31-1.08l.09-.46A1.33,1.33,0,0,0,69.72,18.44Z"/><path class="cls-1" d="M71.09,15.32a1.45,1.45,0,0,0-.41-.06,1.31,1.31,0,0,0-1.27.92l-.15.45a1.31,1.31,0,0,0,0,.76,1.33,1.33,0,0,0,.88.92,1.4,1.4,0,0,0,.41.06h0a1.33,1.33,0,0,0,1.27-.92L72,17A1.34,1.34,0,0,0,71.09,15.32Z"/><path class="cls-1" d="M72.3,12.29a1.4,1.4,0,0,0-.41-.06,1.33,1.33,0,0,0-1.27.92l-.15.45a1.4,1.4,0,0,0,0,.76,1.35,1.35,0,0,0,.88.92,1.4,1.4,0,0,0,.41.06A1.33,1.33,0,0,0,73,14.42l.15-.45A1.33,1.33,0,0,0,72.3,12.29Z"/><path class="cls-1" d="M74.23,9.66A1.31,1.31,0,0,0,73.45,9,1.41,1.41,0,0,0,73,8.93a1.33,1.33,0,0,0-1.27.93l-.14.44a1.31,1.31,0,0,0,0,.76,1.33,1.33,0,0,0,.88.92,1.41,1.41,0,0,0,.41.07,1.33,1.33,0,0,0,1.27-.93l.14-.44A1.29,1.29,0,0,0,74.23,9.66Z"/><path class="cls-1" d="M38,48.74a1.36,1.36,0,0,0,1-.41,1.31,1.31,0,0,0,.36-1,1.33,1.33,0,0,0-.41-.93l-4.34-4.09a1.33,1.33,0,0,0-.92-.37,1.37,1.37,0,0,0-1,.42,1.3,1.3,0,0,0-.32,1.27,1.36,1.36,0,0,0,.37.62l4.34,4.09A1.3,1.3,0,0,0,38,48.74Z"/><path class="cls-1" d="M35.64,51.23a1.33,1.33,0,0,0,.92-2.3l-4.34-4.09a1.33,1.33,0,0,0-.92-.37,1.37,1.37,0,0,0-1,.42A1.29,1.29,0,0,0,30,46.16a1.36,1.36,0,0,0,.37.62l4.34,4.09A1.36,1.36,0,0,0,35.64,51.23Z"/><path class="cls-1" d="M29,46.86a1.33,1.33,0,0,0-1.29,1.68,1.44,1.44,0,0,0,.37.63l4.34,4.09a1.34,1.34,0,0,0,.91.36h0a1.35,1.35,0,0,0,1-.42,1.33,1.33,0,0,0-.06-1.88L30,47.23A1.31,1.31,0,0,0,29,46.86Z"/></svg>