<svg id="Capa_1" data-name="Capa 1" xmlns="http://www.w3.org/2000/svg" viewBox="0 0 78.93 80"><defs><style>.cls-1{fill:#33f;}</style></defs><path class="cls-1" d="M55.38,61.17l-2.13-.94s-.08.07-.09.1c-.63,2.59-1.93,3.61-4.59,3.6l-36.49-.11c-2.88,0-4.46-1.61-4.45-4.51L7.78,9.09c0-2.89,1.6-4.47,4.5-4.46l36.57.11c2.89,0,4.47,1.6,4.46,4.49q0,9.47-.05,18.93v.72a35.27,35.27,0,0,1,3.41-1.09,11.32,11.32,0,0,1,13.62,10.8c.06,4,0,7.92,0,11.88A11.3,11.3,0,0,1,62.84,61a.75.75,0,0,0-.59.85c0,2.21,0,4.41,0,6.72h.92l5.62,0c.92,0,1.22.24,1.45,1.13.34,1.35.68,2.71,1,4.07.26,1.08-.21,1.64-1.38,1.63q-10.29,0-20.56-.06H47.58a1.16,1.16,0,0,1-1.22-1.55c.35-1.43.72-2.85,1.08-4.27a1.2,1.2,0,0,1,1.33-1l6.59,0ZM10,34.14q0,12.7-.07,25.4a1.75,1.75,0,0,0,1.94,2l37.07.12c.81,0,1.54-.24,1.77-1A2.56,2.56,0,0,0,50.48,58a11.31,11.31,0,0,1-3-7.78q0-5.65,0-11.31a11.13,11.13,0,0,1,3-7.63A1.57,1.57,0,0,0,51,30.06Q51,19.68,51,9.29C51,7.58,50.48,7,48.8,7L12.37,6.9c-1.76,0-2.31.54-2.31,2.27Q10,21.67,10,34.14ZM49.82,50.27a8.83,8.83,0,0,0,4.69,8,8.68,8.68,0,0,0,9.6-.54A8.85,8.85,0,0,0,68,50.33l-5.56,0a1.14,1.14,0,1,1,0-2.27c1.54,0,3.08,0,4.62,0H68V45.77H62.68c-1,0-1.49-.4-1.5-1.13s.53-1.15,1.54-1.15H68V41.22h-.54c-1.69,0-3.37,0-5.05,0A1.12,1.12,0,0,1,61.19,40a1.15,1.15,0,0,1,1.17-1.1H68a8.94,8.94,0,0,0-4.23-7.68,8.68,8.68,0,0,0-9.62-.11,8.94,8.94,0,0,0-4.4,7.74h5.1c1.21,0,1.77.39,1.74,1.18s-.56,1.1-1.74,1.1h-5v2.27l5.37,0c.89,0,1.42.44,1.41,1.15s-.54,1.12-1.44,1.12H49.83V48h5.29a2.73,2.73,0,0,1,.7.07,1.07,1.07,0,0,1,.78,1.21,1.1,1.1,0,0,1-1.19,1C53.56,50.29,51.71,50.28,49.82,50.27ZM48.91,73l19.81.06-.55-2.2-18.71-.06Zm8.81-4.53h2.19l0-6.74H57.74Z"/><path class="cls-1" d="M30.54,9.23l11,0c1.21,0,1.56.36,1.56,1.57s0,2.6,0,3.91c0,.93-.43,1.35-1.36,1.34q-11.16,0-22.33-.06A1.18,1.18,0,0,1,18,14.68c0-1.36,0-2.71,0-4.06,0-1,.4-1.42,1.43-1.42ZM20.32,13.71l20.4.06V11.58l-20.4-.06Z"/><path class="cls-1" d="M17.93,42.8c0-1.61,0-3.23,0-4.84a.93.93,0,0,0-.41-.68,3.36,3.36,0,0,1-1.82-3.08,3.2,3.2,0,0,1,1.85-3,.72.72,0,0,0,.43-.78c0-3.11,0-6.21,0-9.32,0-.21,0-.43,0-.64a1.11,1.11,0,0,1,1.15-1,1.08,1.08,0,0,1,1.1,1,3.43,3.43,0,0,1,0,.64q0,4.62,0,9.25a.89.89,0,0,0,.51.94,3.37,3.37,0,0,1,0,5.92.86.86,0,0,0-.52.93q0,4.59,0,9.18c0,.19,0,.38,0,.57A1.15,1.15,0,0,1,19.06,49a1.12,1.12,0,0,1-1.14-1.19C17.9,46.16,17.92,44.48,17.93,42.8Zm1.12-7.42a1.14,1.14,0,0,0,.11-2.27,1.14,1.14,0,1,0-.11,2.27Z"/><path class="cls-1" d="M31.62,30.23c0,3.11,0,6.21,0,9.32a.84.84,0,0,0,.51.87,3.37,3.37,0,0,1,0,5.92.82.82,0,0,0-.52.94,3.41,3.41,0,0,1,0,.78,1.08,1.08,0,0,1-1.1,1,1,1,0,0,1-1.13-1,2.15,2.15,0,0,0-1.06-2.1,3.29,3.29,0,0,1,.52-5.49.94.94,0,0,0,.54-1q0-9.09.05-18.2c0-.21,0-.43,0-.64a1.15,1.15,0,0,1,1.15-1.12,1.12,1.12,0,0,1,1.11,1.15c0,.48,0,.95,0,1.42Zm-1.18,12a1.14,1.14,0,0,0,0,2.27,1.14,1.14,0,1,0,0-2.27Z"/><path class="cls-1" d="M40.7,39.5c0-2.73,0-5.45,0-8.18a.82.82,0,0,0-.5-.88,3.37,3.37,0,0,1,.06-6,.77.77,0,0,0,.46-.83c0-.94,0-1.89,0-2.84,0-.79.44-1.29,1.11-1.3S43,20,43,20.84s0,1.94,0,2.91a1,1,0,0,0,.41.69,3.39,3.39,0,0,1,1.83,3.08,3.19,3.19,0,0,1-1.85,3c-.43.21-.43.49-.43.85q0,8,0,16c0,.21,0,.43,0,.64A1.14,1.14,0,0,1,41.8,49.1,1.12,1.12,0,0,1,40.68,48c0-.8,0-1.61,0-2.42C40.69,43.53,40.69,41.51,40.7,39.5Zm1.2-10.89a1.13,1.13,0,1,0-1.16-1.09A1.15,1.15,0,0,0,41.9,28.61Z"/><path class="cls-1" d="M24.71,55.94c0,.69,0,1.38,0,2.07a1.15,1.15,0,0,1-1.27,1.28c-1.42,0-2.85,0-4.27,0A1.14,1.14,0,0,1,17.88,58c0-1.43,0-2.85,0-4.27a1.14,1.14,0,0,1,1.26-1.29c1.42,0,2.85,0,4.27,0,.87,0,1.28.44,1.29,1.34C24.73,54.52,24.72,55.23,24.71,55.94ZM22.43,54.8H20.21V57h2.21Z"/><path class="cls-1" d="M30.48,52.49c.71,0,1.42,0,2.13,0a1.13,1.13,0,0,1,1.21,1.2c0,1.47,0,2.94,0,4.41a1.12,1.12,0,0,1-1.2,1.21c-1.47,0-2.94,0-4.41,0A1.12,1.12,0,0,1,27,58.11c0-1.47,0-2.94,0-4.41a1.12,1.12,0,0,1,1.27-1.21C29,52.47,29.75,52.49,30.48,52.49Zm-1.16,2.3V57H31.5V54.8Z"/><path class="cls-1" d="M42.93,56c0,.71,0,1.42,0,2.14a1.14,1.14,0,0,1-1.24,1.24c-1.45,0-2.9,0-4.34,0A1.13,1.13,0,0,1,36.1,58.1c0-1.45,0-2.9,0-4.34a1.12,1.12,0,0,1,1.24-1.24c1.44,0,2.89,0,4.34,0a1.13,1.13,0,0,1,1.24,1.24C43,54.5,42.93,55.24,42.93,56Zm-2.3-1.14H38.42V57h2.21Z"/></svg>