<svg id="Capa_1" data-name="Capa 1" xmlns="http://www.w3.org/2000/svg" viewBox="0 0 78.93 80"><defs><style>.cls-1{fill:#33f;}</style></defs><path class="cls-1" d="M76.3,19.24A1.77,1.77,0,0,0,74.62,18a1.84,1.84,0,0,0-.57.09l-.23.08L61.34,22.47c-3.36-2.9-8.42-5.22-14.43-6.55L65,6.05a1.77,1.77,0,0,0-.85-3.32,1.71,1.71,0,0,0-.85.22h0c-1.84,1-13.2,7.18-22.23,12.12a1.68,1.68,0,0,0-.6-.18,59.77,59.77,0,0,0-6-.3c-16.62,0-29.85,6.46-31.34,15a1.74,1.74,0,0,0-.35,1c0,1,0,21.79-.13,29.22a1.63,1.63,0,0,0-.08.45,1.88,1.88,0,0,0,.06.53c0,.24,0,.47,0,.66A1.78,1.78,0,0,0,3,62.66c.83,3.92,4.08,7.45,9.33,10.09A40.6,40.6,0,0,0,21.9,76L22,76a59.64,59.64,0,0,0,12.38,1.25,58.65,58.65,0,0,0,12.13-1.22,1.58,1.58,0,0,0,.72-.16c10.24-2.33,17.49-7.41,18.59-13.66a1.61,1.61,0,0,0,.15-.72L66,31.21h0a9.62,9.62,0,0,0-.74-3.67,1.76,1.76,0,0,0-1.64-1.1,1.9,1.9,0,0,0-.67.13,1.77,1.77,0,0,0-1,2.31,6,6,0,0,1,.48,2.33c0,7.09-12.8,13.06-27.95,13.06s-28-6-28-13.05,12.8-13.07,28-13.07l1,0-4.84,2.66a1.77,1.77,0,0,0-.89,1.8,1.78,1.78,0,0,0-.9-.26,1.75,1.75,0,0,0-1.25.52,1.77,1.77,0,1,0,3,1.25,2.29,2.29,0,0,0,0-.25,1.78,1.78,0,0,0,.91.25,1.83,1.83,0,0,0,.86-.22c2-1.13,7-3.86,12.49-6.85a1.22,1.22,0,0,0-.07.17A1.73,1.73,0,0,0,45,18.57a1.78,1.78,0,0,0,1.11.78,33.39,33.39,0,0,1,11.26,4.49L37.42,30.66a1.79,1.79,0,0,0-1.18,1.47,1.77,1.77,0,1,0,.07,2.56,1.73,1.73,0,0,0,.5-1.07A1.76,1.76,0,0,0,38,34.1a1.65,1.65,0,0,0,.58-.1C46.4,31.3,75,21.56,75.21,21.48A1.77,1.77,0,0,0,76.3,19.24ZM6.27,48A23.3,23.3,0,0,0,13,52.58a40.49,40.49,0,0,0,7.61,2.67V72c-8.52-2.25-14.28-6.5-14.28-11.37A1.91,1.91,0,0,0,6.18,60C6.22,57.23,6.25,52.68,6.27,48Zm17.85,8a58.82,58.82,0,0,0,10.16.88A59.88,59.88,0,0,0,44.77,56V72.83a58.26,58.26,0,0,1-10.35.92,58,58,0,0,1-10.31-.92V56Zm24.2,16V55.2c6-1.51,11-4,14.13-7l0,12.8a.9.9,0,0,0,0,.16C62,65.84,56.43,69.86,48.32,72ZM62.43,39v3.15a1.35,1.35,0,0,0-.16.29c-1.63,4.3-7.87,7.87-16.05,9.67h0A55.94,55.94,0,0,1,34.3,53.33a54.68,54.68,0,0,1-11.22-1.14,1.71,1.71,0,0,0-.71-.15c-9-2-15.54-6.32-16-11.25a2,2,0,0,0-.07-.35V38.76c5.13,5.42,15.69,9.07,28.16,9.07C46.78,47.83,57.23,44.27,62.43,39Z"/></svg>