<svg id="Capa_1" data-name="Capa 1" xmlns="http://www.w3.org/2000/svg" viewBox="0 0 78.93 80"><defs><style>.cls-1{fill:#33f;}.cls-2{fill:#fff;}</style></defs><path class="cls-1" d="M39.69,56A13.48,13.48,0,0,0,53.16,42.58V17.46a13.47,13.47,0,0,0-26.94,0V42.58A13.48,13.48,0,0,0,39.69,56Zm-4-15.53H29.85V38.16h5.81a1.81,1.81,0,0,0,0-3.62H29.85V32.21h5.81a1.82,1.82,0,0,0,0-3.63H29.85V26h5.81a1.82,1.82,0,0,0,0-3.63H29.85V19.25h5.81a1.81,1.81,0,0,0,0-3.62H30a9.81,9.81,0,0,1,19.13-.53H44.64a1.82,1.82,0,0,0,0,3.63h4.89v2.84H44.64a1.82,1.82,0,0,0,0,3.63h4.89v2.33H44.64a1.81,1.81,0,0,0,0,3.62h4.89v2.6H44.64a1.81,1.81,0,0,0,0,3.62h4.89V40H44.64a1.81,1.81,0,0,0,0,3.62h4.75A9.81,9.81,0,0,1,30,44.11h5.7a1.81,1.81,0,1,0,0-3.62Z"/><path class="cls-2" d="M39.69,56.39A13.84,13.84,0,0,1,25.85,42.58V17.46a13.85,13.85,0,0,1,27.69,0V42.58A13.84,13.84,0,0,1,39.69,56.39Zm0-52A13.1,13.1,0,0,0,26.6,17.46V42.58a13.1,13.1,0,0,0,26.19,0V17.46A13.11,13.11,0,0,0,39.69,4.39Zm-.06,48.3a10.18,10.18,0,0,1-10-8.52l-.07-.44h6.14a1.43,1.43,0,1,0,0-2.86H29.47V37.79h6.19a1.44,1.44,0,0,0,0-2.88H29.47V31.83h6.19a1.44,1.44,0,0,0,0-2.87H29.47V25.61h6.19a1.44,1.44,0,0,0,0-2.87H29.47V18.88h6.19a1.44,1.44,0,0,0,0-2.88H29.57l.08-.44A10.19,10.19,0,0,1,49.51,15l.11.47h-5a1.44,1.44,0,1,0,0,2.87H49.9V22H44.64a1.44,1.44,0,1,0,0,2.87H49.9V27.9H44.64a1.44,1.44,0,1,0,0,2.88H49.9v3.34H44.64a1.44,1.44,0,0,0,0,2.88H49.9v3.34H44.64a1.44,1.44,0,0,0,0,2.88h5.17l-.05.41A10.12,10.12,0,0,1,39.63,52.69Zm-9.21-8.21A9.43,9.43,0,0,0,49,44H44.64a2.19,2.19,0,0,1,0-4.38h4.51V37.75H44.64a2.19,2.19,0,0,1,0-4.38h4.51V31.53H44.64a2.19,2.19,0,1,1,0-4.38h4.51V25.57H44.64a2.19,2.19,0,1,1,0-4.37h4.51V19.1H44.64a2.19,2.19,0,1,1,0-4.37h4a9.44,9.44,0,0,0-18.17.52h5.17a2.19,2.19,0,0,1,0,4.38H30.22V22h5.44a2.19,2.19,0,0,1,0,4.37H30.22v1.85h5.44a2.19,2.19,0,0,1,0,4.37H30.22v1.58h5.44a2.19,2.19,0,0,1,0,4.38H30.22v1.58h5.44a2.18,2.18,0,1,1,0,4.36Z"/><path class="cls-1" d="M56.34,52.78a1.86,1.86,0,0,0-1.05-.32,1.83,1.83,0,0,0-1.49.72c-2.86,4-7.67,6.22-13.51,6.22h-.08c-5.6,0-10.42-1.78-13.59-5a15.55,15.55,0,0,1-4.21-11.52c.12-5.38,0-10.65-.05-13.51h.89a1.81,1.81,0,0,0,0-3.62H20.5a1.84,1.84,0,0,0-1.31.55,1.81,1.81,0,0,0-.5,1.33c0,.31.25,7.74.1,15.2A19.12,19.12,0,0,0,24,56.92C27.89,60.86,33.63,63,40.21,63h.11c7,0,12.88-2.72,16.46-7.74A1.82,1.82,0,0,0,56.34,52.78Z"/><path class="cls-2" d="M40.32,63.41h-.11c-6.68,0-12.52-2.21-16.44-6.23A19.49,19.49,0,0,1,18.42,42.8c.13-6.95-.07-13.84-.11-15.16a2.19,2.19,0,0,1,2.19-2.29h2.75a2.19,2.19,0,1,1,0,4.38h-.51c.12,4.82.13,9.24,0,13.14a15.27,15.27,0,0,0,4.11,11.25C30,57.28,34.72,59,40.21,59,46,59,50.72,56.87,53.5,53a2.15,2.15,0,0,1,1.79-.88,2.25,2.25,0,0,1,1.26.38h0a2.17,2.17,0,0,1,.54,3C53.45,60.61,47.5,63.41,40.32,63.41ZM20.5,26.1a1.44,1.44,0,0,0-1.44,1.49c0,1.34.24,8.25.11,15.23a18.71,18.71,0,0,0,5.14,13.83c3.77,3.88,9.42,6,15.9,6h.11c6.93,0,12.67-2.69,16.15-7.58a1.43,1.43,0,0,0-.34-2,1.53,1.53,0,0,0-2,.31c-2.92,4.11-7.83,6.38-13.82,6.38-5.78,0-10.7-1.83-13.94-5.14A16,16,0,0,1,22,42.85c.09-4,.08-8.52,0-13.49V29h1.27a1.44,1.44,0,1,0,0-2.88Z"/><path class="cls-1" d="M58,48.86a2,2,0,0,0-.57-.16h-.21a1.87,1.87,0,0,0-1.71,1.11,1.84,1.84,0,0,0-.07,1.38,1.88,1.88,0,0,0,.94,1l.06,0a2,2,0,0,0,.64.18h.17A1.87,1.87,0,0,0,58,48.86Z"/><path class="cls-2" d="M57.27,52.82a.93.93,0,0,1-.23,0,2.37,2.37,0,0,1-.75-.21l-.06,0a2.22,2.22,0,0,1-1.12-1.24,2.16,2.16,0,0,1,.08-1.67,2.25,2.25,0,0,1,2.05-1.33l.26,0a2.27,2.27,0,0,1,.67.19,2.25,2.25,0,0,1-.9,4.3Zm-.65-.91a1.54,1.54,0,0,0,.51.15h.14a1.47,1.47,0,0,0,1.39-1,1.45,1.45,0,0,0-.79-1.89h0a1.72,1.72,0,0,0-.45-.13h-.17a1.48,1.48,0,0,0-1.37.9,1.41,1.41,0,0,0-.06,1.1,1.47,1.47,0,0,0,.75.82Z"/><path class="cls-1" d="M60.18,27.54a1.81,1.81,0,0,0-1.81-1.81H55.81a1.81,1.81,0,1,0,0,3.62h.74c0,3.11,0,9.26.07,14.48a18.81,18.81,0,0,1-.15,2.49,1.74,1.74,0,0,0,.36,1.35,1.79,1.79,0,0,0,1.2.69l.24,0a1.8,1.8,0,0,0,1.79-1.57,20.11,20.11,0,0,0,.19-3C60.19,36.92,60.18,28.49,60.18,27.54Z"/><path class="cls-2" d="M58.27,48.75l-.29,0a2.2,2.2,0,0,1-1.89-2.46,17.22,17.22,0,0,0,.16-2.44c0-4.36-.06-9.36-.07-12.71V29.73h-.37a2.19,2.19,0,0,1,0-4.38h2.56a2.19,2.19,0,0,1,2.18,2.19c0,1.35,0,9.62.07,16.25a20.41,20.41,0,0,1-.19,3.07A2.18,2.18,0,0,1,58.27,48.75ZM55.81,26.1a1.44,1.44,0,0,0,0,2.88h1.12v2.14c0,3.34,0,8.35.07,12.7a18.87,18.87,0,0,1-.16,2.55,1.38,1.38,0,0,0,.28,1.07,1.44,1.44,0,0,0,2.57-.68,20.29,20.29,0,0,0,.18-3c0-6.63-.07-14.91-.07-16.26a1.44,1.44,0,0,0-1.43-1.44Z"/><polygon class="cls-1" points="41.5 64.85 37.88 64.85 37.88 72.36 25.96 72.36 25.96 75.98 53.16 75.98 53.16 72.36 41.5 72.36 41.5 64.85"/><path class="cls-2" d="M53.54,76.36h-28V72H37.5v-7.5h4.38V72H53.54Zm-27.21-.75H52.79V72.73H41.13v-7.5H38.25v7.5H26.33Z"/></svg>