<?xml version="1.0" encoding="utf-8"?>
<!-- Generator: Adobe Illustrator 27.6.1, SVG Export Plug-In . SVG Version: 6.00 Build 0)  -->
<svg version="1.1" id="Capa_1" xmlns="http://www.w3.org/2000/svg" xmlns:xlink="http://www.w3.org/1999/xlink" x="0px" y="0px"
	 viewBox="0 0 220 118" style="enable-background:new 0 0 220 118;" xml:space="preserve">
<style type="text/css">
	.st0{fill:none;stroke:#FFFFFF;stroke-width:0.4453;stroke-miterlimit:10;}
	.st1{fill-rule:evenodd;clip-rule:evenodd;fill:url(#SVGID_1_);}
	.st2{fill-rule:evenodd;clip-rule:evenodd;fill:#3333FF;}
	.st3{enable-background:new    ;}
	.st4{fill:#FFFFFF;}
	.st5{fill:#ABEDFF;}
</style>
<g>
	<path class="st0" d="M0.5,95.6"/>
	
		<linearGradient id="SVGID_1_" gradientUnits="userSpaceOnUse" x1="-71.4199" y1="-69.9231" x2="100.493" y2="22.0557" gradientTransform="matrix(1 0 0 1 0 60)">
		<stop  offset="0" style="stop-color:#FFFFFF"/>
		<stop  offset="1.018853e-02" style="stop-color:#00C7FF"/>
		<stop  offset="0.2965" style="stop-color:#46D6FF"/>
		<stop  offset="0.9601" style="stop-color:#F4FDFF"/>
		<stop  offset="1" style="stop-color:#FFFFFF"/>
	</linearGradient>
	<path class="st1" d="M3.2,79.4L92.8,117c2,0.8,4.1-0.7,4.1-2.8V32.5c0-1.6-1.3-3-3-3H4.3c-1.6,0-3,1.3-3,3v44.2
		C1.3,77.9,2.1,79,3.2,79.4z"/>
	<path class="st2" d="M218.5,43.4L182.4,79c-0.6,0.6-1.6,1.1-2.6,1.1L5.2,79.9H5c-2,0-3.6-1.6-3.6-3.6V4.7l0,0c0-2,1.6-3.6,3.6-3.6
		l174.7-0.4c0.9-0.1,1.9,0.4,2.5,1l36.2,36.5C220,39.7,219.8,42.1,218.5,43.4L218.5,43.4z"/>
	<g class="st3">
		<path class="st4" d="M18.8,45.5V30.6c0-0.6,0.5-1.1,1-1.1h4.7c3.8,0,6,2,6,5.4c0,4.3-2.8,5.7-6,5.7h-3.7v4.9c0,0.6-0.4,1.1-1,1.1
			C19.3,46.6,18.8,46.1,18.8,45.5z M20.8,38.3h3.7c2.8,0,3.9-1.1,3.9-3.3c0-2-1.4-3.1-3.8-3.1h-3.8V38.3z"/>
		<path class="st4" d="M32.1,42.4c0-2.2,1.5-3.8,4.9-3.8c1.7,0,3.2,0.7,3.9,1.7H41v-2.2c0-1.9-1.5-2.8-3.5-2.8
			c-1.9,0-2.5,0.6-2.9,1.3c-0.3,0.5-0.4,1.1-1.1,1.1c-0.6,0-1-0.4-1-1c0-1.9,2.1-3.5,5-3.5c3.3,0,5.4,1.4,5.4,4.9v5.6l0.2,1.7
			c0.1,0.6-0.4,1.1-1,1.1c-0.5,0-0.9-0.4-1-0.9L41.1,44H41c-0.7,1.6-2.3,2.5-4.4,2.5C34,46.5,32.1,45.2,32.1,42.4z M41.1,42.3
			c0-1.2-1.7-1.9-3.6-1.9c-1.9,0-3.4,0.5-3.4,2c0,1.6,1.5,2,3.4,2C39.4,44.4,41.1,43.6,41.1,42.3z"/>
		<path class="st4" d="M46.4,45.5v-9.2l-0.1-2.1c0-0.6,0.4-1,1-1c0.5,0,0.9,0.4,0.9,0.9l0.1,2.5h0.1c0.6-2.1,1.9-3.4,3.3-3.4
			c0.7,0,1.1,0.6,1.1,1.3c0,0.7-0.5,1.4-1.2,1.4c-1.8,0.1-3.2,1.4-3.2,2.8v6.8c0,0.6-0.5,1-1,1C46.9,46.6,46.4,46.1,46.4,45.5z"/>
		<path class="st4" d="M53.9,42.4c0-2.2,1.5-3.8,4.9-3.8c1.7,0,3.2,0.7,3.9,1.7h0.1v-2.2c0-1.9-1.5-2.8-3.5-2.8
			c-1.9,0-2.5,0.6-2.9,1.3c-0.3,0.5-0.4,1.1-1.1,1.1c-0.6,0-1-0.4-1-1c0-1.9,2.1-3.5,5-3.5c3.3,0,5.4,1.4,5.4,4.9v5.6l0.2,1.7
			c0.1,0.6-0.4,1.1-1,1.1c-0.5,0-0.9-0.4-1-0.9L62.8,44h-0.1c-0.7,1.6-2.3,2.5-4.4,2.5C55.7,46.5,53.9,45.2,53.9,42.4z M62.9,42.3
			c0-1.2-1.7-1.9-3.6-1.9c-1.9,0-3.4,0.5-3.4,2c0,1.6,1.5,2,3.4,2C61.1,44.4,62.9,43.6,62.9,42.3z"/>
	</g>
	<g class="st3">
		<path class="st5" d="M76,43.4l-3.5-10.9c-0.6-1.7,0.4-3.3,2-3.3c1.2,0,2,0.7,2.3,1.9l2.9,10.4h0.1l2.9-10.4c0.3-1.2,1-1.9,2.3-1.9
			c1.6,0,2.6,1.6,2,3.3l-3.6,10.9c-0.8,2.2-1.8,3.1-3.6,3.1C77.8,46.5,76.7,45.6,76,43.4z"/>
		<path class="st5" d="M90.9,46.3c-1.2,0-2-0.9-2-2.2V31.7c0-1.3,0.9-2.2,2-2.2h7.5c1.1,0,2.1,0.9,2.1,2.2s-1,2.2-2.1,2.2h-5.3v2.3
			l3.1-0.2c0.6-0.1,1-0.1,1.3-0.1c1,0,1.7,0.7,1.7,1.7s-0.7,1.7-1.8,1.7c-0.3,0-0.7,0-1.3-0.1l-3-0.2v2.8h5.6c1.1,0,2.2,0.9,2.2,2.2
			c0,1.3-1,2.2-2.2,2.2H90.9z"/>
		<path class="st5" d="M102.9,44.4V31.6c0-1.3,0.8-2.4,2.4-2.4c1.1,0,1.8,0.7,2.4,1.4l5.6,8.5v-7.7c0-1.3,0.9-2.2,2.1-2.2
			s2.1,0.9,2.1,2.2v12.3c0,1.5-0.8,2.8-2.3,2.8c-1.1,0-1.9-0.6-2.4-1.4l-5.7-8.3v7.5c0,1.3-0.9,2.2-2.1,2.2
			C103.8,46.6,102.9,45.6,102.9,44.4z"/>
		<path class="st5" d="M122.5,46.3c-1.2,0-2-0.9-2-2.2V31.7c0-1.3,0.9-2.2,2-2.2h4.4c5.7,0,8.2,3.9,8.2,8.3c0,4.6-2.5,8.5-8.2,8.5
			H122.5z M124.7,41.9h2c2.5,0,4.2-1,4.2-4c0-2.9-1.7-4-4.2-4h-2.1V41.9z"/>
		<path class="st5" d="M139.6,46.3c-1.2,0-2-0.9-2-2.2V31.7c0-1.3,0.9-2.2,2-2.2h7.5c1.1,0,2.1,0.9,2.1,2.2s-1,2.2-2.1,2.2h-5.3v2.3
			l3.1-0.2c0.6-0.1,1-0.1,1.3-0.1c1,0,1.7,0.7,1.7,1.7s-0.7,1.7-1.8,1.7c-0.3,0-0.7,0-1.3-0.1l-3-0.2v2.8h5.6c1.1,0,2.2,0.9,2.2,2.2
			c0,1.3-1,2.2-2.2,2.2H139.6z"/>
		<path class="st5" d="M151.6,44.4V31.7c0-1.4,0.9-2.2,2-2.2h5.1c3.9,0,6.1,1.8,6.1,5c0,2-1,3.8-3.2,4.5c1.3,0.4,1.8,1.2,2.2,2.3
			l0.8,2.1c0.7,1.7-0.4,3.2-2,3.2c-1,0-1.7-0.6-2-1.6l-1-3c-0.3-1-0.8-1.4-1.8-1.6l-1.9-0.2v4.2c0,1.4-1,2.2-2.1,2.2
			C152.5,46.6,151.6,45.8,151.6,44.4z M155.8,37h2.4c1.4,0,2.4-0.6,2.4-1.7c0-1.1-1.1-1.6-2.4-1.6h-2.3V37z"/>
	</g>
</g>
</svg>
