<?xml version="1.0" encoding="utf-8"?>
<!-- Generator: Adobe Illustrator 27.5.0, SVG Export Plug-In . SVG Version: 6.00 Build 0)  -->
<svg version="1.1" id="Capa_1" xmlns="http://www.w3.org/2000/svg" xmlns:xlink="http://www.w3.org/1999/xlink" x="0px" y="0px"
	 viewBox="0 0 220 118" style="enable-background:new 0 0 220 118;" xml:space="preserve">
<style type="text/css">
	.st0{fill:none;stroke:#FFFFFF;stroke-width:0.4453;stroke-miterlimit:10;}
	.st1{fill-rule:evenodd;clip-rule:evenodd;fill:url(#SVGID_1_);}
	.st2{fill-rule:evenodd;clip-rule:evenodd;fill:#3333FF;}
	.st3{fill:#FFFFFF;}
	.st4{font-family:'HossRound-Regular';}
	.st5{font-size:24.2733px;}
	.st6{fill:#ABEDFF;}
	.st7{font-family:'HossRound-Black';}
</style>
<g>
	<path class="st0" d="M0.5,95.6"/>
	
		<linearGradient id="SVGID_1_" gradientUnits="userSpaceOnUse" x1="-71.4199" y1="108.9231" x2="100.493" y2="16.9443" gradientTransform="matrix(1 0 0 -1 0 99)">
		<stop  offset="0" style="stop-color:#FFFFFF"/>
		<stop  offset="1.018853e-02" style="stop-color:#00C7FF"/>
		<stop  offset="0.2965" style="stop-color:#46D6FF"/>
		<stop  offset="0.9601" style="stop-color:#F4FDFF"/>
		<stop  offset="1" style="stop-color:#FFFFFF"/>
	</linearGradient>
	<path class="st1" d="M3.2,79.4L92.8,117c2,0.8,4.1-0.7,4.1-2.8V32.5c0-1.6-1.3-3-3-3H4.3c-1.6,0-3,1.3-3,3v44.2
		C1.3,77.9,2.1,79,3.2,79.4z"/>
	<path class="st2" d="M218.5,43.4L182.4,79c-0.6,0.6-1.6,1.1-2.6,1.1L5.2,79.9H5c-2,0-3.6-1.6-3.6-3.6V4.7l0,0c0-2,1.6-3.6,3.6-3.6
		l174.7-0.4c0.9-0.1,1.9,0.4,2.5,1l36.2,36.5C220,39.7,219.8,42.1,218.5,43.4L218.5,43.4z"/>
	<text transform="matrix(1 0 0 1 16.8403 46.2679)" class="st3 st4 st5">Para </text>
	<text transform="matrix(1 0 0 1 71.7403 46.2679)" class="st6 st7 st5">VENDER</text>
</g>
</svg>
