<?xml version="1.0" encoding="utf-8"?>
<!-- Generator: Adobe Illustrator 27.5.0, SVG Export Plug-In . SVG Version: 6.00 Build 0)  -->
<svg version="1.1" id="Capa_1" xmlns="http://www.w3.org/2000/svg" xmlns:xlink="http://www.w3.org/1999/xlink" x="0px" y="0px"
	 viewBox="0 0 140 140" style="enable-background:new 0 0 140 140;" xml:space="preserve">
<style type="text/css">
	.st0{fill-rule:evenodd;clip-rule:evenodd;fill:#BEEAFA;}
	.st1{fill-rule:evenodd;clip-rule:evenodd;fill:#3333FF;}
</style>
<g>
	<circle class="st0" cx="70" cy="70" r="69.3"/>
	<g>
		<path class="st1" d="M38,49.3h59.6c0.9,0,1.6,0.7,1.6,1.7v8.8H81.4c-1,0-1.7,0.3-2.3,1c-0.6,0.6-1,1.4-1,2.3V77
			c0,0.9,0.3,1.7,1,2.3l0,0c0.6,0.6,1.3,1,2.3,1h17.9V89c0,0.9-0.7,1.7-1.6,1.7H38c-0.9,0-1.6-0.8-1.6-1.7V51
			C36.5,50,37.2,49.3,38,49.3L38,49.3z M81.4,61.4H102c0.9,0,1.6,0.8,1.6,1.7V77c0,0.9-0.7,1.6-1.6,1.6H81.4c-1,0-1.7-0.7-1.7-1.6
			V63C79.7,62.2,80.4,61.4,81.4,61.4L81.4,61.4z M89.2,65.5c1.3,0,2.4,0.6,3.2,1.3l0,0c0.8,0.8,1.3,1.9,1.3,3.2
			c0,1.2-0.6,2.3-1.3,3.2l0,0c-0.8,0.8-1.9,1.3-3.2,1.3c-1.2,0-2.3-0.5-3.2-1.3l0,0c-0.8-0.9-1.3-2-1.3-3.2c0-1.3,0.5-2.4,1.3-3.2
			C86.9,66,88,65.5,89.2,65.5L89.2,65.5z M44.1,57.1c-1,0-1.7-0.7-1.7-1.6c0-1,0.7-1.7,1.7-1.7h46.3c0.9,0,1.6,0.7,1.6,1.7
			c0,0.9-0.7,1.6-1.6,1.6H44.1z"/>
	</g>
</g>
</svg>
