<?xml version="1.0" encoding="utf-8"?>
<!-- Generator: Adobe Illustrator 27.5.0, SVG Export Plug-In . SVG Version: 6.00 Build 0)  -->
<svg version="1.1" id="Capa_1" xmlns="http://www.w3.org/2000/svg" xmlns:xlink="http://www.w3.org/1999/xlink" x="0px" y="0px"
	 viewBox="0 0 140 140" style="enable-background:new 0 0 140 140;" xml:space="preserve">
<style type="text/css">
	.st0{fill-rule:evenodd;clip-rule:evenodd;fill:#BEEAFA;}
	.st1{fill-rule:evenodd;clip-rule:evenodd;fill:#3333FF;}
</style>
<g>
	<circle class="st0" cx="70" cy="70" r="69.3"/>
	<path class="st1" d="M37.7,41.9H88c1,0,1.8,0.9,1.8,1.9v6.6h11.5c0.6,0,1.1,0.3,1.4,0.7l9.7,11.6c0.4,0.3,0.4,0.7,0.4,1.2l0,0V84
		c0,1.1-0.8,1.9-1.8,1.9h-0.2H88H37.9h-0.2c-1,0-1.9-0.8-1.9-1.9V71.3h13c1,0,1.8-0.9,1.8-1.9s-0.8-1.8-1.8-1.8
		c-3.9,0-11.5,0-15.5,0c-1,0-1.8-0.9-1.8-1.9c0-0.7,0.4-1.4,1.1-1.7h8.1c1.1,0,1.9-0.8,1.9-1.8c0-1.1-0.8-1.9-1.9-1.9H28.6
		c-0.9-0.2-1.5-0.9-1.5-1.8c0-1,0.8-1.9,1.9-1.9c5.1,0,10.3,0,15.4,0c1.1,0,1.9-0.8,1.9-1.9c0-1-0.8-1.8-1.9-1.8
		c-3.7,0-7.4,0-11.2,0c-1,0-1.8-0.8-1.8-1.9c0-1,0.8-1.8,1.8-1.8h3.3h-0.7v-5.6C35.8,42.8,36.7,41.9,37.7,41.9L37.7,41.9z
		 M67.9,73.8c-1,0-1.9-0.8-1.9-1.8c0-1.1,0.9-1.9,1.9-1.9h10c1.1,0,1.9,0.8,1.9,1.9c0,1-0.8,1.8-1.9,1.8H67.9z M61.1,70.1
		c1,0,1.9,0.8,1.9,1.9c0,1-0.9,1.8-1.9,1.8h-3.3c-1.1,0-1.9-0.8-1.9-1.8c0-1.1,0.8-1.9,1.9-1.9H61.1z M50.7,53
		c-1.1,0-1.9-0.8-1.9-1.9c0-1,0.8-1.8,1.9-1.8h8.5c1.1,0,1.9,0.8,1.9,1.8c0,1.1-0.8,1.9-1.9,1.9H50.7z M39.9,79.1
		c-1.1,0-1.9-0.8-1.9-1.9c0-1,0.8-1.8,1.9-1.8h45.8c1,0,1.8,0.8,1.8,1.8c0,1.1-0.8,1.9-1.8,1.9H39.9z M54.4,86.4
		c3.2,0,5.9,2.6,5.9,5.8c0,3.2-2.7,5.9-5.9,5.9s-5.9-2.7-5.9-5.9S51.2,86.4,54.4,86.4L54.4,86.4z M98,86.4c3.2,0,5.8,2.6,5.8,5.8
		c0,3.2-2.6,5.9-5.8,5.9c-3.2,0-5.9-2.7-5.9-5.9S94.8,86.4,98,86.4L98,86.4z M91.5,67.2v-8.1c0-1,0.8-1.8,1.8-1.8h6.4
		c0.5,0,1.1,0.2,1.4,0.6L108,66c0.3,0.3,0.4,0.7,0.4,1.2c0,1-0.9,1.9-1.9,1.9H93.3C92.3,69.1,91.5,68.3,91.5,67.2L91.5,67.2z"/>
</g>
</svg>
