<?xml version="1.0" encoding="utf-8"?>
<!-- Generator: Adobe Illustrator 27.5.0, SVG Export Plug-In . SVG Version: 6.00 Build 0)  -->
<svg version="1.1" id="Capa_1" xmlns="http://www.w3.org/2000/svg" xmlns:xlink="http://www.w3.org/1999/xlink" x="0px" y="0px"
	 viewBox="0 0 140 140" style="enable-background:new 0 0 140 140;" xml:space="preserve">
<style type="text/css">
	.st0{fill-rule:evenodd;clip-rule:evenodd;fill:#BEEAFA;}
	.st1{fill-rule:evenodd;clip-rule:evenodd;fill:#3333FF;}
</style>
<g>
	<circle class="st0" cx="70" cy="70" r="69.3"/>
	<path class="st1" d="M69.8,38.4c7.5,0,14.3,3.1,19.2,8c3.2,3.2,5.5,7,6.9,11.4c0.2-0.7,0.8-1.2,1.6-1.2c0.9,0,1.6,0.7,1.6,1.6v1.7
		c0.2-0.1,0.3-0.1,0.5-0.1c0.9,0,1.7,0.7,1.7,1.7v7.7c0,0.9-0.8,1.6-1.7,1.6c-0.2,0-0.3,0-0.5-0.1v2.5c0,1-0.7,1.7-1.6,1.7
		c-0.8,0-1.4-0.5-1.6-1.2C94.5,78,92.2,81.9,89,85c-4.9,4.9-11.7,8.1-19.2,8.1S55.5,90,50.5,85c-3.1-3.1-5.5-7-6.8-11.4
		c-0.2,0.2-0.4,0.6-0.7,0.7c0.5,6.1,3.5,11.7,8.2,15.9c4.1,3.5,9.3,6.1,15.3,6.9c0.4-1.5,1.8-2.6,3.4-2.6c2,0,3.7,1.6,3.7,3.6
		c0,2.1-1.7,3.7-3.7,3.7c-1.9,0-3.4-1.4-3.6-3.3c-6.2-0.9-11.7-3.5-16-7.3c-4.9-4.3-8.1-10.2-8.6-16.7c-0.7-0.2-1.2-0.9-1.2-1.6
		v-1.7c0,0-0.1,0-0.2,0c-0.9,0-1.6-0.7-1.6-1.6v-7.7c0-0.9,0.7-1.7,1.6-1.7c0.1,0,0.2,0,0.2,0v-2.3c0-0.9,0.7-1.6,1.7-1.6
		c0.8,0,1.4,0.5,1.6,1.3c1.4-4.3,3.7-8.1,6.7-11.2C55.5,41.5,62.3,38.4,69.8,38.4L69.8,38.4z M57,71c0-0.9,0.8-1.6,1.7-1.6
		s1.7,0.7,1.7,1.6c0,2.1,1,4,2.6,5.3c1.8,1.4,4.1,2.4,6.8,2.4c2.6,0,5-1,6.8-2.4c1.7-1.4,2.6-3.3,2.6-5.3c0-0.9,0.8-1.6,1.7-1.6
		c0.9,0,1.6,0.7,1.6,1.6c0,3.1-1.4,5.9-3.8,7.9c-2.2,1.9-5.4,3.1-8.8,3.1s-6.6-1.2-8.8-3.1C58.6,76.9,57,74.1,57,71L57,71z
		 M60.1,54.1c2.8,0,5,2.2,5,5c0,2.7-2.2,4.9-5,4.9c-2.7,0-4.9-2.2-4.9-4.9C55.1,56.3,57.4,54.1,60.1,54.1L60.1,54.1z M79.8,54.3
		c2.7,0,4.9,2.2,4.9,5c0,2.7-2.2,4.9-4.9,4.9c-2.8,0-5-2.2-5-4.9C74.8,56.5,77.1,54.3,79.8,54.3L79.8,54.3z"/>
</g>
</svg>
