<?xml version="1.0" encoding="utf-8"?>
<!-- Generator: Adobe Illustrator 27.5.0, SVG Export Plug-In . SVG Version: 6.00 Build 0)  -->
<svg version="1.1" id="Capa_1" xmlns="http://www.w3.org/2000/svg" xmlns:xlink="http://www.w3.org/1999/xlink" x="0px" y="0px"
	 viewBox="0 0 140 140" style="enable-background:new 0 0 140 140;" xml:space="preserve">
<style type="text/css">
	.st0{fill-rule:evenodd;clip-rule:evenodd;fill:#BEEAFA;}
	.st1{fill-rule:evenodd;clip-rule:evenodd;fill:#3333FF;}
</style>
<g>
	<circle class="st0" cx="70" cy="70" r="69.3"/>
	<g>
		<g>
			<path class="st1" d="M53.5,65.9L53.5,65.9v28.3l0,0v0.9c0,1.1-0.8,1.9-1.8,1.9H37.2c-1,0-1.9-0.8-1.9-1.9v-29
				c0-1,0.9-1.9,1.9-1.9h14.5C52.6,64.2,53.4,65,53.5,65.9L53.5,65.9z M54.3,65.2l15-13.4l2.9-8.3c0.4-1.3-0.1-3.3,1.1-3.9
				c1-0.6,1.1-0.9,2.2-0.8c1.2,0.1,2.3,0.4,3.4,1.2c1.3,0.9,2.3,2.2,2.9,4.1c1.3,4.6-0.2,8.7-0.9,12.3c-0.5,2.3-1.4,4.6-2.4,6.5H99
				c1.6,0,3,0.6,4.1,1.7l0,0c1,1,1.7,2.5,1.7,4v0.9c0,1.5-0.7,3-1.7,4c0.8,1,1.3,2.3,1.3,3.8v0.9c0,1.6-1,3-2.3,4.1l-0.3,0.1
				c0.8,1,1.3,2.2,1.3,3.6v0.9c0,3.6-2.1,5-4.4,5.5c0.3,0.7,0.4,1.4,0.4,2.2v0.9c0,1.6-0.6,3-1.6,4.1c-1.1,1-2.5,1.6-4.1,1.6H69.5
				c-0.4,0-0.6,0-0.9-0.2l-14.4-6.5L54.3,65.2z"/>
		</g>
	</g>
</g>
</svg>
