<?xml version="1.0" encoding="utf-8"?>
<!-- Generator: Adobe Illustrator 27.5.0, SVG Export Plug-In . SVG Version: 6.00 Build 0)  -->
<svg version="1.1" id="Capa_1" xmlns="http://www.w3.org/2000/svg" xmlns:xlink="http://www.w3.org/1999/xlink" x="0px" y="0px"
	 viewBox="0 0 140 140" style="enable-background:new 0 0 140 140;" xml:space="preserve">
<style type="text/css">
	.st0{fill-rule:evenodd;clip-rule:evenodd;fill:#BEEAFA;}
	.st1{fill-rule:evenodd;clip-rule:evenodd;fill:#3333FF;}
</style>
<g>
	<circle class="st0" cx="70" cy="70" r="69.3"/>
	<path class="st1" d="M73.6,66.6l24-7.4c0.2,0,0.3-0.1,0.4-0.1l0.1-0.1l0,0l0,0l0,0h0.1l0,0l0,0l0,0l0,0l0,0l0,0l0,0l0,0h0.1l0,0
		l0,0l0,0l0,0l0,0l0,0l0,0l0,0l0.1-0.1l0,0l0,0l0,0l0,0l0,0l0,0l0,0l0,0l0.1-0.1l0,0l0,0l0,0l0,0l0,0l0,0l0,0l0,0l0,0h0.1v-0.1l0,0
		l0,0l0,0l0,0l0,0l0,0l0,0l0,0v-0.1h0.1l0,0l0,0l0,0l0,0l0,0l0,0v-0.1h0.1l0,0l0,0l0,0v-0.1l0,0l0,0l0,0l0,0l0,0l0,0l0,0v-0.1h0.1
		l0,0l0,0l0,0l0,0l0,0v-0.1l0,0l0,0l0,0l0,0v-0.1l0,0l0,0l0,0H99l0,0l0,0V58l0,0l0,0l0,0l0,0l0,0l0,0l0,0v0l0,0l0,0l0,0
		c0.3-1-0.4-2.1-1.4-2.3l-0.1-0.1l0,0l-26.7-6.9l0,0h-0.1l0,0l0,0l0,0l0,0l0,0l0,0l0,0l0,0l0,0l0,0l0,0h-0.1l0,0l0,0l0,0l0,0l0,0
		l0,0l0,0v-0.1l0,0h-0.1l0,0l0,0l0,0l0,0l0,0l0,0l0,0l0,0l0,0l0,0l0,0h-0.1l0,0l0,0l0,0l0,0l0,0l0,0l0,0l0,0l0,0l0,0h-0.1l0,0l0,0
		l0,0l0,0l0,0l0,0l0,0l0,0h-0.1l0,0l0,0l0,0l0,0l0,0l0,0l0,0l0,0l0,0H70l0,0l0,0l0,0l0,0l0,0l0,0l0,0l0,0l0,0h-0.1l0,0l0,0l0,0l0,0
		l0,0l0,0l0,0l0,0l0,0l0,0h-0.1l0,0l0,0l0,0l0,0l0,0l0,0l0,0h-0.1l0,0l0,0l0,0l0,0l0,0l0,0l0,0l0,0l0,0l0,0h-0.1l0,0l0,0l0,0l0,0
		l0,0l0,0l0,0l0,0l0,0l0,0l0,0h-0.1l0,0l0,0l0,0l0,0l0,0l0,0v0.1l0,0l0,0h-0.1l0,0l0,0l0,0l0,0l0,0l0,0l0,0l0,0l0,0l0,0l0,0h-0.1
		l0,0l0,0l0,0l0,0l0,0l0,0l-26.8,6.9l0,0l-0.1,0.1C41.4,56,40.8,57,41,58l0,0l0,0l0,0l0,0h0.1v0.1l0,0l0,0l0,0l0,0l0,0l0,0l0,0l0,0
		l0,0v0.1l0,0l0,0l0,0l0,0l0,0l0,0l0,0l0,0l0,0v0.1l0,0l0,0l0,0l0,0l0,0h0.1l0,0l0,0l0,0v0.1l0,0l0,0l0,0l0,0l0,0l0,0l0,0l0,0l0,0
		v0.1l0,0l0,0l0,0l0,0h0.1l0,0l0,0l0,0v0.1l0,0l0,0l0,0l0,0l0,0l0,0l0,0l0,0l0,0l0.1,0.1l0,0l0,0l0,0l0,0l0,0l0,0l0,0l0,0l0,0l0,0
		v0.1l0,0l0,0l0,0l0,0h0.1l0,0l0,0l0,0l0,0l0,0v0.1c0.3,0.2,0.6,0.4,0.8,0.5L69,67.5v-0.1c0.1,0.1,0.3,0.2,0.4,0.2h0.1l0,0l0,0l0,0
		v0.1l0,0l0,0h0.1l0,0l0,0l0,0l0,0l0,0l0,0h0.1l0,0l0,0l0,0l0,0l0,0h0.1l0,0l0,0l0,0l0,0l0,0l0,0l0,0h0.1l0,0l0,0l0,0H70l0,0l0,0
		l0,0l0,0l0,0l0,0l0,0h0l0,0l0,0l0,0l0,0l0,0l0,0l0,0h0.1l0,0l0,0l0,0l0,0l0,0h0.1l0,0l0,0l0,0l0,0l0,0l0,0h0.1l0,0l0,0l0,0l0,0l0,0
		l0,0h0.1l0,0l0,0l0,0l0,0l0,0l0,0h0.1l0,0l0,0l0,0l0,0l0,0l0.1-0.1l0,0l0,0l0,0l0,0c0.2,0,0.3-0.1,0.5-0.2L71,67.5L73.6,66.6z
		 M68.1,51L43,57.5l25.1,7.6V51z M71.9,51L97,57.5l-25.1,7.6V51z M40.5,57.7L32,48.5c-0.7-0.8-0.7-2.1,0.1-2.7
		c0.3-0.3,0.6-0.4,0.8-0.5L60,38.4c0.7-0.3,1.5,0.1,2,0.7l8.1,8.7l8-8.7c0.5-0.6,1.3-0.9,2.1-0.7l27.1,6.9c0.3,0.1,0.6,0.2,0.8,0.5
		c0.7,0.7,0.7,1.9,0.1,2.7l-8.6,9.2l7.6,11.4c0.1,0.2,0.2,0.4,0.3,0.6c0.3,0.9-0.3,2.1-1.3,2.3l-25.9,8.4c-0.8,0.3-1.8,0.1-2.3-0.7
		l-8-10.9l-7.9,10.9c-0.5,0.7-1.4,0.9-2.2,0.7l-26-8.4c-1-0.3-1.6-1.4-1.2-2.3c0.1-0.2,0.1-0.4,0.2-0.6L40.5,57.7z M69.4,101.6
		l-26.9-9.1c-0.7-0.3-1.3-0.9-1.3-1.8l-0.1-14.4l18.1,5.8c0.7,0.4,1.6,0.4,2.4,0.1l0,0c0.8-0.2,1.5-0.7,2.1-1.4l4.4-6.1l1.6-2.1
		v29.1h-0.1l0,0l0,0l0,0L69.4,101.6L69.4,101.6L69.4,101.6L69.4,101.6L69.4,101.6L69.4,101.6L69.4,101.6z M70.4,72.6l1.5,2.1
		l4.5,6.1c0.5,0.7,1.2,1.2,2,1.4h0.1c0.7,0.3,1.6,0.3,2.4-0.1l18-5.8v14.4c0,0.8-0.6,1.5-1.3,1.8l-26.9,9.1h-0.1l0,0l0,0v0.1h-0.1
		l0,0l0,0l0,0h-0.1l0,0l0,0V72.6z"/>
</g>
</svg>
