<?xml version="1.0" encoding="utf-8"?>
<!-- Generator: Adobe Illustrator 27.5.0, SVG Export Plug-In . SVG Version: 6.00 Build 0)  -->
<svg version="1.1" id="Capa_1" xmlns="http://www.w3.org/2000/svg" xmlns:xlink="http://www.w3.org/1999/xlink" x="0px" y="0px"
	 viewBox="0 0 39 39" style="enable-background:new 0 0 39 39;" xml:space="preserve">
<style type="text/css">
	.st0{fill:#3333FF;}
	.st1{fill:#FFFFFF;}
</style>
<g>
	<path class="st0" d="M25.8,38.8H13.2c-7.2,0-13-5.8-13-13V13.2c0-7.2,5.8-13,13-13h12.5c7.2,0,13,5.8,13,13v12.5
		C38.8,32.9,32.9,38.8,25.8,38.8z"/>
	<g>
		<path class="st1" d="M26,18.2c0.7,0,1.2,0.6,1.2,1.3c0,0.7-0.6,1.3-1.2,1.3h-5.3h-2.5H13c-0.7,0-1.2-0.6-1.2-1.3
			c0-0.7,0.6-1.3,1.2-1.3h5.3h2.5H26z"/>
	</g>
</g>
<g>
	<path class="st0" d="M1039.6,374.2h-14.5c-7.2,0-13-5.8-13-13v-14.5c0-7.2,5.8-13,13-13h14.5c7.2,0,13,5.8,13,13v14.5
		C1052.6,368.4,1046.8,374.2,1039.6,374.2z"/>
	<g>
		<path class="st1" d="M1039.2,352.6c0.7,0,1.3,0.6,1.3,1.4c0,0.7-0.6,1.3-1.3,1.3h-5.6h-2.6h-5.6c-0.7,0-1.3-0.6-1.3-1.3
			c0-0.8,0.6-1.4,1.3-1.4h5.6h2.6H1039.2z"/>
	</g>
</g>
</svg>
