<?xml version="1.0" encoding="utf-8"?>
<!-- Generator: Adobe Illustrator 27.6.1, SVG Export Plug-In . SVG Version: 6.00 Build 0)  -->
<svg version="1.1" id="Capa_1" xmlns="http://www.w3.org/2000/svg" xmlns:xlink="http://www.w3.org/1999/xlink" x="0px" y="0px"
	 viewBox="0 0 95 40" style="enable-background:new 0 0 95 40;" xml:space="preserve">
<style type="text/css">
	.st0{fill-rule:evenodd;clip-rule:evenodd;fill:#3333FF;}
	.st1{enable-background:new    ;}
	.st2{fill:#FFFFFF;}
</style>
<g>
	<path class="st0" d="M0.1,0.6l75.2-0.2c0.4-0.1,0.9,0.2,1.2,0.5l17.9,18c0.7,0.7,0.7,1.9,0,2.6l0,0L76.6,39
		c-0.3,0.3-0.8,0.5-1.3,0.5L0.2,39.5H0.1L0.1,0.6z"/>
	<g class="st1">
		<path class="st2" d="M12.5,27.3c-0.8,0-1.5-0.7-1.5-1.6V14.4c0-0.9,0.7-1.6,1.5-1.6h6.9c0.9,0,1.6,0.7,1.6,1.6s-0.7,1.6-1.6,1.6
			H14v2.4l3.4-0.2c0.5,0,0.9,0,1.2,0c0.8,0,1.4,0.7,1.4,1.4c0,0.8-0.6,1.5-1.4,1.5c-0.3,0-0.6,0-1.2,0L14,21v3.1h5.7
			c0.8,0,1.6,0.7,1.6,1.6c0,0.9-0.7,1.6-1.6,1.6H12.5z"/>
		<path class="st2" d="M23.3,26V14.3c0-1,0.7-1.7,1.9-1.7c0.7,0,1.4,0.4,1.8,1l5.7,8.7v-8.2c0-0.9,0.6-1.6,1.4-1.6
			c0.8,0,1.5,0.7,1.5,1.6v11.2c0,1.2-0.8,2.2-1.8,2.2c-0.8,0-1.5-0.4-1.9-1l-5.6-8.3V26c0,0.9-0.6,1.6-1.4,1.6S23.3,26.9,23.3,26z"
			/>
		<path class="st2" d="M40.7,25.2l-3.4-10.4c-0.4-1,0.2-2.2,1.4-2.2c0.8,0,1.4,0.5,1.6,1.2l3,10h0.2l3-10c0.2-0.7,0.8-1.2,1.6-1.2
			c1.2,0,1.8,1.2,1.4,2.2l-3.4,10.4c-0.5,1.4-1,2.4-2.6,2.4C41.9,27.6,41.2,26.6,40.7,25.2z"/>
		<path class="st2" d="M52,11.9c-1,0.4-1.6-0.8-0.8-1.5l2.6-2.1c1.6-1.3,3.1,1.6,1.3,2.3L52,11.9z M51.3,26V14.2
			c0-1,0.7-1.6,1.4-1.6c0.7,0,1.4,0.5,1.4,1.6V26c0,1-0.7,1.6-1.4,1.6C52,27.6,51.3,27,51.3,26z"/>
		<path class="st2" d="M56.5,20.1c0-4.7,2.9-7.5,7.2-7.5s7.2,2.8,7.2,7.5s-2.9,7.5-7.2,7.5S56.5,24.8,56.5,20.1z M67.9,20.1
			c0-2.8-1.4-4.3-4.2-4.3s-4.2,1.6-4.2,4.3s1.4,4.3,4.2,4.3S67.9,22.8,67.9,20.1z"/>
	</g>
</g>
</svg>
