<?xml version="1.0" encoding="utf-8"?>
<!-- Generator: Adobe Illustrator 27.5.0, SVG Export Plug-In . SVG Version: 6.00 Build 0)  -->
<svg version="1.1" id="Capa_1" xmlns="http://www.w3.org/2000/svg" xmlns:xlink="http://www.w3.org/1999/xlink" x="0px" y="0px"
	 viewBox="0 0 19 23" style="enable-background:new 0 0 19 23;" xml:space="preserve">
<style type="text/css">
	.st0{fill-rule:evenodd;clip-rule:evenodd;fill:#FFFFFF;}
</style>
<g>
	<path class="st0" d="M9.5,0.12c1.55,0,2.96,0.63,3.97,1.64c1.02,1.02,1.64,2.42,1.64,3.97c0,1.52-0.63,2.93-1.64,3.94
		c-0.48,0.48-1.02,0.84-1.61,1.14c1.61,0.42,3.02,1.25,4.15,2.39c1.67,1.67,2.72,3.97,2.72,6.51v1.11c0,0.57-0.24,1.08-0.6,1.46
		c-0.36,0.36-0.87,0.6-1.43,0.6H2.3c-0.57,0-1.08-0.24-1.43-0.6c-0.36-0.39-0.6-0.9-0.6-1.46v-1.11c0-2.54,1.05-4.84,2.72-6.51
		c1.14-1.14,2.54-1.97,4.15-2.39c-0.6-0.3-1.13-0.66-1.61-1.14C4.51,8.66,3.88,7.26,3.88,5.74c0-1.55,0.63-2.96,1.64-3.97
		C6.54,0.75,7.95,0.12,9.5,0.12L9.5,0.12z"/>
</g>
</svg>
