<?xml version="1.0" encoding="utf-8"?>
<!-- Generator: Adobe Illustrator 27.5.0, SVG Export Plug-In . SVG Version: 6.00 Build 0)  -->
<svg version="1.1" id="Capa_1" xmlns="http://www.w3.org/2000/svg" xmlns:xlink="http://www.w3.org/1999/xlink" x="0px" y="0px"
	 viewBox="0 0 27 24" style="enable-background:new 0 0 27 24;" xml:space="preserve">
<style type="text/css">
	.st0{fill:#FFFFFF;}
</style>
<g>
	<path class="st0" d="M24.89,5.11l-1.57,5.75c-0.12,0.45-0.5,0.77-0.96,0.83L7.31,13.58L5.3,5.11L5.27,3.8l0.39-1.98
		c0.02-0.09,0.02-0.18,0-0.26C5.51,0.83,4.85,0.29,4.09,0.29H0.77c-0.36,0-0.65,0.29-0.65,0.65S0.41,1.6,0.77,1.6h3.32
		c0.11,0,0.2,0.06,0.26,0.14L3.84,4.33c0,0,0,0.01,0,0.01C3.83,4.38,3.83,4.42,3.83,4.47c0,0,0,0,0,0.01c0,0.04,0.01,0.09,0.02,0.13
		l2.28,9.64l-0.57,1.67C5.55,15.94,5.54,15.97,5.53,16c-0.09,0.42,0.02,0.86,0.3,1.2c0.28,0.34,0.68,0.53,1.12,0.53h16
		c0.36,0,0.65-0.29,0.65-0.65c0-0.36-0.29-0.65-0.65-0.65h-16c-0.06,0-0.09-0.03-0.11-0.05c-0.02-0.02-0.03-0.05-0.03-0.09
		l0.47-1.38l15.25-1.92c0.99-0.12,1.79-0.82,2.06-1.78l2.27-8.35c0.09-0.35-0.11-0.71-0.46-0.8c-0.35-0.09-0.71,0.11-0.8,0.46
		l-0.35,1.3L24.89,5.11z"/>
	<path class="st0" d="M5.53,21.36c0,1.29,1.06,2.34,2.35,2.34c1.3,0,2.35-1.05,2.35-2.34c0-1.29-1.05-2.34-2.35-2.34
		C6.59,19.02,5.53,20.07,5.53,21.36z M8.93,21.36c0,0.57-0.47,1.04-1.04,1.04c-0.58,0-1.05-0.47-1.05-1.04
		c0-0.57,0.47-1.04,1.05-1.04C8.46,20.32,8.93,20.79,8.93,21.36z"/>
	<path class="st0" d="M21.25,19.02c-1.3,0-2.35,1.05-2.35,2.34c0,1.29,1.05,2.34,2.35,2.34c1.3,0,2.35-1.05,2.35-2.34
		C23.6,20.07,22.55,19.02,21.25,19.02z M21.25,22.4c-0.58,0-1.05-0.47-1.05-1.04c0-0.57,0.47-1.04,1.05-1.04
		c0.58,0,1.05,0.47,1.05,1.04C22.29,21.93,21.83,22.4,21.25,22.4z"/>
</g>
</svg>
