<?xml version="1.0" encoding="utf-8"?>
<!-- Generator: Adobe Illustrator 27.5.0, SVG Export Plug-In . SVG Version: 6.00 Build 0)  -->
<svg version="1.1" id="Capa_1" xmlns="http://www.w3.org/2000/svg" xmlns:xlink="http://www.w3.org/1999/xlink" x="0px" y="0px"
	 viewBox="0 0 95 40" style="enable-background:new 0 0 95 40;" xml:space="preserve">
<style type="text/css">
	.st0{fill-rule:evenodd;clip-rule:evenodd;fill:#3333FF;}
	.st1{fill:#ABEDFF;}
	.st2{font-family:'HossRound-Heavy';}
	.st3{font-size:16px;}
	.st4{fill-rule:evenodd;clip-rule:evenodd;fill:#FFFFFF;}
</style>
<g>
	<path class="st0" d="M0.06,0.59l75.2-0.18c0.43-0.06,0.92,0.18,1.22,0.49L94.37,18.9c0.73,0.73,0.67,1.9,0,2.57l0,0L76.55,39.05
		c-0.31,0.31-0.8,0.55-1.29,0.55L0.12,39.48l-0.12,0L0.06,0.59z"/>
	<text transform="matrix(1 0 0 1 22.9405 24.9196)" class="st1 st2 st3">NUEVO</text>
	<path class="st4" d="M12.18,13.29L14,16.9l4.02,0.63c0.16,0.03,0.27,0.17,0.25,0.35c-0.02,0.06-0.05,0.13-0.09,0.17l-2.88,2.86
		l0.64,4.01c0.03,0.16-0.08,0.31-0.25,0.35c-0.06,0.02-0.13,0-0.19-0.03l-3.6-1.85l-3.62,1.85c-0.16,0.08-0.33,0.02-0.41-0.13
		c-0.03-0.06-0.05-0.13-0.03-0.19l0.64-4.01l-2.88-2.86c-0.13-0.13-0.13-0.31,0-0.44c0.05-0.05,0.11-0.08,0.17-0.08L9.8,16.9
		l1.84-3.62c0.06-0.16,0.25-0.2,0.39-0.14C12.1,13.18,12.15,13.22,12.18,13.29L12.18,13.29z"/>
</g>
</svg>
