<?xml version="1.0" encoding="utf-8"?>
<!-- Generator: Adobe Illustrator 27.6.1, SVG Export Plug-In . SVG Version: 6.00 Build 0)  -->
<svg version="1.1" id="Capa_1" xmlns="http://www.w3.org/2000/svg" xmlns:xlink="http://www.w3.org/1999/xlink" x="0px" y="0px"
	 viewBox="0 0 95 40" style="enable-background:new 0 0 95 40;" xml:space="preserve">
<style type="text/css">
	.st0{fill-rule:evenodd;clip-rule:evenodd;fill:#3333FF;}
	.st1{enable-background:new    ;}
	.st2{fill:#ABEDFF;}
	.st3{fill-rule:evenodd;clip-rule:evenodd;fill:#FFFFFF;}
</style>
<g>
	<path class="st0" d="M0.1,0.6l75.2-0.2c0.4-0.1,0.9,0.2,1.2,0.5l17.9,18c0.7,0.7,0.7,1.9,0,2.6l0,0L76.6,39
		c-0.3,0.3-0.8,0.5-1.3,0.5L0.1,39.5H0L0.1,0.6z"/>
	<g class="st1">
		<path class="st2" d="M23.8,23.4v-7.9c0-1,0.6-1.9,1.8-1.9c0.9,0,1.4,0.5,1.8,1.1l3.1,4.4v-3.8c0-1,0.7-1.7,1.7-1.7
			c1,0,1.7,0.7,1.7,1.7v7.7c0,1-0.5,2-1.7,2c-0.8,0-1.4-0.5-1.7-1l-3.2-4.5v3.8c0,1-0.7,1.7-1.7,1.7C24.5,25.1,23.8,24.4,23.8,23.4z
			"/>
		<path class="st2" d="M35.4,20.6v-5.2c0-1.1,0.8-1.7,1.7-1.7s1.7,0.6,1.7,1.7v4.7c0,1.1,0.6,1.6,1.5,1.6s1.5-0.5,1.5-1.6v-4.7
			c0-1.1,0.8-1.7,1.7-1.7c0.9,0,1.7,0.6,1.7,1.7v5.2c0,3-1.7,4.5-4.9,4.5S35.4,23.6,35.4,20.6z"/>
		<path class="st2" d="M48.5,24.9c-0.9,0-1.6-0.7-1.6-1.7v-7.6c0-1,0.7-1.7,1.6-1.7h4.7c0.8,0,1.7,0.6,1.7,1.7
			c0,1.1-0.8,1.7-1.7,1.7h-2.8v1.1l1.4-0.2c0.4-0.1,0.6-0.1,0.9-0.1c0.7,0,1.2,0.4,1.2,1.1c0,0.8-0.5,1.2-1.2,1.2
			c-0.2,0-0.5,0-0.9-0.1l-1.4-0.1v1.3h3.1c0.8,0,1.7,0.6,1.7,1.7c0,1.1-0.8,1.7-1.7,1.7H48.5z"/>
		<path class="st2" d="M65.6,16.4l-2.1,6.3c-0.6,1.9-1.6,2.4-2.8,2.4c-1.3,0-2.2-0.4-2.9-2.4l-2.1-6.3c-0.5-1.5,0.4-2.7,1.6-2.7
			c1,0,1.6,0.5,1.8,1.6l1.5,5.9l1.5-5.9c0.2-1,0.8-1.6,1.8-1.6C65.1,13.7,66.1,14.8,65.6,16.4z"/>
		<path class="st2" d="M66.1,19.4c0-3.6,2.3-5.7,5.5-5.7c3.2,0,5.5,2.1,5.5,5.7c0,3.6-2.3,5.7-5.5,5.7C68.4,25.1,66.1,23,66.1,19.4z
			 M73.7,19.4c0-1.4-0.7-2.2-2.1-2.2s-2.1,0.8-2.1,2.2c0,1.4,0.7,2.1,2.1,2.1S73.7,20.8,73.7,19.4z"/>
	</g>
	<path class="st3" d="M12.2,13.3l1.8,3.6l4,0.6c0.2,0,0.3,0.2,0.2,0.4c0,0.1,0,0.1-0.1,0.2l-2.9,2.9l0.6,4c0,0.2-0.1,0.3-0.2,0.4
		c-0.1,0-0.1,0-0.2,0l-3.6-1.9l-3.6,1.9c-0.2,0.1-0.3,0-0.4-0.1c0-0.1-0.1-0.1,0-0.2l0.6-4L5.6,18c-0.1-0.1-0.1-0.3,0-0.4
		c0.1,0,0.1-0.1,0.2-0.1l4-0.6l1.8-3.6c0.1-0.2,0.2-0.2,0.4-0.1C12.1,13.2,12.1,13.2,12.2,13.3L12.2,13.3z"/>
</g>
</svg>
