<?xml version="1.0" encoding="utf-8"?>
<!-- Generator: Adobe Illustrator 27.6.1, SVG Export Plug-In . SVG Version: 6.00 Build 0)  -->
<svg version="1.1" id="Capa_1" xmlns="http://www.w3.org/2000/svg" xmlns:xlink="http://www.w3.org/1999/xlink" x="0px" y="0px"
	 viewBox="0 0 95 40" style="enable-background:new 0 0 95 40;" xml:space="preserve">
<style type="text/css">
	.st0{fill-rule:evenodd;clip-rule:evenodd;fill:#3333FF;}
	.st1{enable-background:new    ;}
	.st2{fill:#ABEDFF;}
	.st3{fill-rule:evenodd;clip-rule:evenodd;fill:#FFFFFF;}
</style>
<g>
	<path class="st0" d="M0.1,0.6l75.2-0.2c0.4-0.1,0.9,0.2,1.2,0.5l17.9,18c0.7,0.7,0.7,1.9,0,2.6l0,0L76.6,39.1
		c-0.3,0.3-0.8,0.5-1.3,0.5L0.1,39.5H0L0.1,0.6z"/>
	<g class="st1">
		<path class="st2" d="M23.7,21v-5.2c0-1.1,0.8-1.7,1.7-1.7s1.7,0.6,1.7,1.7v4.7c0,1.1,0.6,1.6,1.5,1.6s1.5-0.5,1.5-1.6v-4.7
			c0-1.1,0.8-1.7,1.7-1.7c0.9,0,1.7,0.6,1.7,1.7V21c0,3-1.7,4.5-4.9,4.5S23.7,24,23.7,21z"/>
		<path class="st2" d="M34.7,22.8c0-0.8,0.6-1.5,1.5-1.5c0.6,0,0.9,0.2,1.2,0.5c0.4,0.3,0.8,0.6,1.9,0.6c1,0,1.6-0.3,1.6-0.8
			c0-0.5-0.8-0.6-1.8-0.7c-1.6-0.2-4.1-0.4-4.1-3.2c0-2,1.4-3.6,4.6-3.6c2.6,0,4.6,0.9,4.6,2.7c0,0.8-0.7,1.5-1.5,1.5
			c-0.4,0-0.7-0.1-1-0.4c-0.5-0.4-1.1-0.7-2-0.7c-0.7,0-1.2,0.2-1.2,0.7c0,0.6,0.9,0.7,1.9,0.8c1.6,0.1,4,0.4,4,3.1
			c0,2.2-1.7,3.9-4.8,3.9C36.8,25.5,34.7,24.4,34.7,22.8z"/>
		<path class="st2" d="M54.9,22.8c0.4,1.4-0.1,2.7-1.6,2.7c-0.8,0-1.5-0.4-1.8-1.7l-0.1-0.6h-2.9l-0.1,0.7c-0.2,1.2-0.9,1.6-1.8,1.6
			c-1.4,0-2-1.2-1.5-2.7l2-6.4c0.5-1.6,1.6-2.2,2.9-2.2c1.3,0,2.3,0.6,2.9,2.2L54.9,22.8z M50.1,17.9h-0.4l-0.7,2.7h1.7L50.1,17.9z"
			/>
		<path class="st2" d="M57.6,25.3c-0.9,0-1.6-0.7-1.6-1.7V16c0-1,0.7-1.7,1.6-1.7h2.8c3.8,0,5.4,2.6,5.4,5.4c0,3.1-1.6,5.6-5.4,5.6
			H57.6z M59.5,22h0.8c1.4,0,2.3-0.5,2.3-2.2c0-1.6-0.9-2.2-2.3-2.2h-0.8V22z"/>
		<path class="st2" d="M66.9,19.8c0-3.6,2.3-5.7,5.5-5.7c3.2,0,5.5,2.1,5.5,5.7c0,3.6-2.3,5.7-5.5,5.7
			C69.1,25.5,66.9,23.4,66.9,19.8z M74.4,19.8c0-1.4-0.7-2.2-2.1-2.2s-2.1,0.8-2.1,2.2c0,1.4,0.7,2.1,2.1,2.1S74.4,21.2,74.4,19.8z"
			/>
	</g>
	<path class="st3" d="M12.2,13.3l1.8,3.6l4,0.6c0.2,0,0.3,0.2,0.2,0.4c0,0.1,0,0.1-0.1,0.2l-2.9,2.9l0.6,4c0,0.2-0.1,0.3-0.2,0.4
		c-0.1,0-0.1,0-0.2,0l-3.6-1.9l-3.6,1.9c-0.2,0.1-0.3,0-0.4-0.1c0-0.1-0.1-0.1,0-0.2l0.6-4l-2.9-2.9c-0.1-0.1-0.1-0.3,0-0.4
		c0.1,0,0.1-0.1,0.2-0.1l4-0.6l1.8-3.6c0.1-0.2,0.2-0.2,0.4-0.1C12.1,13.2,12.1,13.2,12.2,13.3L12.2,13.3z"/>
</g>
</svg>
