<?xml version="1.0" encoding="utf-8"?>
<!-- Generator: Adobe Illustrator 27.5.0, SVG Export Plug-In . SVG Version: 6.00 Build 0)  -->
<svg version="1.1" id="Capa_1" xmlns="http://www.w3.org/2000/svg" xmlns:xlink="http://www.w3.org/1999/xlink" x="0px" y="0px"
	 viewBox="0 0 264 44" style="enable-background:new 0 0 264 44;" xml:space="preserve">
<style type="text/css">
	.st0{fill:#ABEDFF;}
	.st1{fill:#FFFFFF;}
</style>
<g>
	<g>
		<path class="st0" d="M42.7,13.78c0-0.76-0.62-1.38-1.38-1.38H14.55c-0.76,0-1.38,0.62-1.38,1.38c0,0.01,0,0.02,0,0.03
			c0,0.01,0,0.02,0,0.03v16.02c-1.38-1.18-3.16-1.89-5.11-1.89c-4.34,0-7.87,3.52-7.87,7.86c0,4.33,3.53,7.86,7.87,7.86
			c4.34,0,7.87-3.52,7.87-7.86c0-0.01,0-0.01,0-0.02c0,0,0-0.01,0-0.01V15.16h24v14.71c-1.38-1.18-3.16-1.89-5.11-1.89
			c-4.34,0-7.87,3.52-7.87,7.86c0,4.33,3.53,7.86,7.87,7.86c4.34,0,7.87-3.52,7.87-7.86c0-0.01,0-0.02,0-0.03c0,0,0-0.01,0-0.01
			V13.78z M8.06,40.92c-2.82,0-5.11-2.28-5.11-5.09c0-2.81,2.29-5.09,5.11-5.09c2.82,0,5.11,2.28,5.11,5.09
			C13.17,38.64,10.88,40.92,8.06,40.92z M34.83,40.94c-2.82,0-5.11-2.28-5.11-5.09c0-2.81,2.29-5.09,5.11-5.09
			c2.82,0,5.11,2.28,5.11,5.09C39.94,38.65,37.64,40.94,34.83,40.94z"/>
		<path class="st0" d="M22.57,10.03c0.76,0,1.38-0.62,1.38-1.38V7.03c0-2.19,1.79-3.97,3.98-3.97s3.98,1.78,3.98,3.97v1.62
			c0,0.76,0.62,1.38,1.38,1.38s1.38-0.62,1.38-1.38V7.03c0-3.71-3.03-6.73-6.74-6.73c-3.72,0-6.74,3.02-6.74,6.73v1.62
			C21.19,9.41,21.81,10.03,22.57,10.03z"/>
	</g>
	<g>
		<g>
			<g>
				<g>
					<path class="st1" d="M58.32,35.3V19.02h-3.54c-1.47,0-2.66-1.19-2.66-2.62c0-1.47,1.19-2.66,2.66-2.66H66.6
						c1.47,0,2.62,1.19,2.62,2.66c0,1.43-1.16,2.62-2.62,2.62h-3.58V35.3c0,1.3-1.02,2.35-2.35,2.35
						C59.38,37.66,58.32,36.6,58.32,35.3z"/>
					<path class="st1" d="M71.3,35.3V24.37H71c-1.36,0-2.52-1.16-2.52-2.62c0-1.47,1.06-2.59,2.42-2.59h3.61
						c0.82,0,1.5,0.68,1.5,1.57V35.3c0,1.3-1.02,2.35-2.35,2.35C72.36,37.66,71.3,36.6,71.3,35.3z M70.45,14.76
						c0-1.67,1.02-2.83,2.93-2.83c1.87,0,2.93,1.19,2.93,2.83c0,1.6-1.06,2.76-2.93,2.76C71.47,17.52,70.45,16.36,70.45,14.76z"/>
					<path class="st1" d="M95.91,32.99c0,3.07-4.36,4.67-8.01,4.67c-5.45,0-9.2-3.31-9.2-9.34c0-5.93,3.71-9.54,9.06-9.54
						c5.9,0,8.79,3.37,8.79,7.63c0,2.35-1.19,3.27-3.75,3.27h-9.3c0.44,2.11,2.66,3.03,4.7,3.03c1.7,0,2.73-0.65,3.68-1.19
						c0.65-0.38,1.23-0.68,1.98-0.68C94.85,30.84,95.91,31.59,95.91,32.99z M83.47,26.48l8.42-0.17c0-1.5-1.5-3.07-4.09-3.07
						C85.61,23.24,83.77,24.3,83.47,26.48z"/>
					<path class="st1" d="M99.21,35.3V25.12l-0.24-4.02c-0.07-1.26,0.92-2.32,2.18-2.32c1.16,0,2.15,0.89,2.21,2.04l0.14,2.73h0.27
						c0.61-3.48,3.24-4.87,5.9-4.87c3.54,0,5.83,2.11,5.83,6.44V35.3c0,1.3-1.06,2.35-2.35,2.35c-1.3,0-2.35-1.06-2.35-2.35v-8.79
						c0-1.74-0.85-2.83-2.86-2.83c-2.15,0-4.02,1.36-4.02,2.9v8.72c0,1.3-1.06,2.35-2.35,2.35C100.27,37.66,99.21,36.6,99.21,35.3z"
						/>
					<path class="st1" d="M118.02,28.25c0-6.75,3.68-9.51,7.36-9.51c2.93,0,5.04,1.7,5.42,5.38h0.41v-4.94v-3.48
						c0-1.33,1.02-2.38,2.35-2.38s2.35,1.06,2.35,2.38v16.46l0.31,3.03c0.14,1.33-1.02,2.45-2.35,2.45c-1.26,0-2.25-0.99-2.35-2.25
						l-0.24-3.27H131c-0.85,3.85-3.31,5.52-6.61,5.52C120.88,37.55,118.02,34.93,118.02,28.25z M131.31,28.28
						c0-2.59-1.33-4.09-4.5-4.09c-2.56,0-4.19,1.09-4.19,4.12c0,3.17,1.67,4.12,4.23,4.12C130.08,32.44,131.31,31.18,131.31,28.28z"
						/>
					<path class="st1" d="M138.7,31.97c0-3.34,2.32-5.42,6.51-5.42c3.34,0,4.7,1.6,5.32,2.79h0.1v-2.73c0-2.01-1.67-2.9-3.75-2.9
						c-1.77,0-2.49,0.51-3,1.12c-0.51,0.58-1.02,1.3-2.32,1.3c-1.5,0-2.28-0.99-2.28-2.32c0-3.44,4.36-5.01,8.04-5.01
						c4.84,0,8.08,1.84,8.08,7.36v6.37l0.31,2.49c0.17,1.4-0.92,2.62-2.32,2.62c-1.19,0-2.15-0.89-2.32-2.08l-0.27-2.01h-0.17
						c-0.75,2.45-2.62,4.02-6.1,4.02C141.19,37.59,138.7,35.78,138.7,31.97z M150.8,31.76c0-1.12-1.98-1.5-3.78-1.5
						c-2.11,0-3.71,0.37-3.71,1.5c0,1.12,1.6,1.5,3.71,1.5C148.83,33.26,150.8,32.85,150.8,31.76z"/>
					<path class="st1" d="M164.77,31.66c0-1.6,1.26-2.59,2.62-2.59c1.19,0,1.64,0.72,2.28,1.5c0.78,0.99,1.87,2.08,5.01,2.08
						c2.76,0,4.8-0.92,4.8-2.96c0-1.64-1.91-1.94-4.29-2.18c-4.16-0.41-9.78-0.55-9.78-6.71c0-4.87,3.88-7.46,9.27-7.46
						c5.01,0,9.27,2.01,9.27,5.32c0,1.57-1.26,2.56-2.49,2.56c-0.95,0-1.5-0.41-2.08-0.95c-0.89-0.82-1.84-1.87-4.74-1.87
						c-2.59,0-4.46,0.85-4.46,2.42c0,1.81,1.81,2.21,4.23,2.42c4.19,0.41,9.92,0.38,9.92,6.48c0,5.76-4.67,7.97-9.75,7.97
						C168.32,37.66,164.77,34.69,164.77,31.66z"/>
					<path class="st1" d="M186.14,28.11c0-5.55,3.03-9.44,9.06-9.44c6.07,0,9.1,3.88,9.1,9.44s-3.03,9.54-9.1,9.54
						C189.17,37.66,186.14,33.67,186.14,28.11z M199.84,28.08c0-3.1-1.64-4.46-4.6-4.46c-3,0-4.63,1.36-4.63,4.46
						c0,3.2,1.64,4.63,4.6,4.63C198.2,32.71,199.84,31.28,199.84,28.08z"/>
					<path class="st1" d="M206.69,31.18V21.13c0-1.3,1.06-2.35,2.35-2.35c1.3,0,2.35,1.06,2.35,2.35v8.66
						c0,1.74,0.85,2.83,2.86,2.83c2.15,0,4.02-1.36,4.02-2.9v-8.59c0-1.3,1.06-2.35,2.35-2.35s2.35,1.06,2.35,2.35v10.6l0.31,3.65
						c0.1,1.26-0.95,2.28-2.21,2.28c-1.16,0-2.11-0.85-2.18-2.01l-0.2-2.9h-0.27c-0.61,3.48-3.24,4.91-5.9,4.91
						C208.97,37.66,206.69,35.51,206.69,31.18z"/>
					<path class="st1" d="M226.79,35.3V25.12l-0.24-4.02c-0.07-1.26,0.92-2.32,2.18-2.32c1.16,0,2.15,0.89,2.21,2.04l0.14,2.73h0.27
						c0.61-3.48,3.24-4.87,5.9-4.87c3.54,0,5.83,2.11,5.83,6.44V35.3c0,1.3-1.06,2.35-2.35,2.35c-1.3,0-2.35-1.06-2.35-2.35v-8.79
						c0-1.74-0.85-2.83-2.86-2.83c-2.15,0-4.02,1.36-4.02,2.9v8.72c0,1.3-1.06,2.35-2.35,2.35C227.85,37.66,226.79,36.6,226.79,35.3
						z"/>
					<path class="st1" d="M245.6,28.25c0-6.75,3.68-9.51,7.36-9.51c2.93,0,5.04,1.7,5.42,5.38h0.41v-4.94v-3.48
						c0-1.33,1.02-2.38,2.35-2.38c1.33,0,2.35,1.06,2.35,2.38v16.46l0.31,3.03c0.14,1.33-1.02,2.45-2.35,2.45
						c-1.26,0-2.25-0.99-2.35-2.25l-0.24-3.27h-0.27c-0.85,3.85-3.31,5.52-6.61,5.52C248.46,37.55,245.6,34.93,245.6,28.25z
						 M258.89,28.28c0-2.59-1.33-4.09-4.5-4.09c-2.56,0-4.19,1.09-4.19,4.12c0,3.17,1.67,4.12,4.23,4.12
						C257.66,32.44,258.89,31.18,258.89,28.28z"/>
				</g>
			</g>
		</g>
	</g>
</g>
</svg>
