<?xml version="1.0" encoding="utf-8"?>
<!-- Generator: Adobe Illustrator 27.7.0, SVG Export Plug-In . SVG Version: 6.00 Build 0)  -->
<svg version="1.1" id="Capa_1" xmlns="http://www.w3.org/2000/svg" xmlns:xlink="http://www.w3.org/1999/xlink" x="0px" y="0px"
	 viewBox="0 0 264 44" style="enable-background:new 0 0 264 44;" xml:space="preserve">
<style type="text/css">
	.st0{fill:#FFFFFF;}
</style>
<g>
	<path class="st0" d="M41.3,12.4H14.5c-0.8,0-1.4,0.6-1.4,1.4c0,0,0,0,0,0s0,0,0,0v16C11.8,28.7,10,28,8.1,28
		c-4.3,0-7.9,3.5-7.9,7.9c0,4.3,3.5,7.9,7.9,7.9s7.9-3.5,7.9-7.9c0,0,0,0,0,0v0V15.2h24v14.7c-1.4-1.2-3.2-1.9-5.1-1.9
		c-4.3,0-7.9,3.5-7.9,7.9c0,4.3,3.5,7.9,7.9,7.9c4.3,0,7.9-3.5,7.9-7.9c0,0,0,0,0,0v0v-22h0C42.7,13,42.1,12.4,41.3,12.4z M8.1,40.9
		c-2.8,0-5.1-2.3-5.1-5.1s2.3-5.1,5.1-5.1s5.1,2.3,5.1,5.1S10.9,40.9,8.1,40.9z M34.8,40.9c-2.8,0-5.1-2.3-5.1-5.1s2.3-5.1,5.1-5.1
		s5.1,2.3,5.1,5.1C39.9,38.7,37.6,40.9,34.8,40.9z"/>
	<path class="st0" d="M22.6,10c0.8,0,1.4-0.6,1.4-1.4V7c0-2.2,1.8-4,4-4s4,1.8,4,4v1.6c0,0.8,0.6,1.4,1.4,1.4c0.8,0,1.4-0.6,1.4-1.4
		V7c0-3.7-3-6.7-6.7-6.7c-3.7,0-6.7,3-6.7,6.7v1.6C21.2,9.4,21.8,10,22.6,10z"/>
	<path class="st0" d="M66.6,13.7H54.8c-1.5,0-2.7,1.2-2.7,2.7c0,1.4,1.2,2.6,2.7,2.6h3.5v16.3c0,1.3,1.1,2.4,2.3,2.4
		c1.3,0,2.4-1.1,2.4-2.4V19h3.6c1.5,0,2.6-1.2,2.6-2.6C69.2,14.9,68.1,13.7,66.6,13.7z"/>
	<path class="st0" d="M74.5,19.2h-3.6c-1.4,0-2.4,1.1-2.4,2.6c0,1.5,1.2,2.6,2.5,2.6h0.3v10.9c0,1.3,1.1,2.4,2.4,2.4
		c1.3,0,2.3-1.1,2.3-2.4V20.7C76,19.8,75.3,19.2,74.5,19.2z"/>
	<path class="st0" d="M73.4,11.9c-1.9,0-2.9,1.2-2.9,2.8c0,1.6,1,2.8,2.9,2.8c1.9,0,2.9-1.2,2.9-2.8C76.3,13.1,75.2,11.9,73.4,11.9z
		"/>
	<path class="st0" d="M96.5,26.4c0-4.3-2.9-7.6-8.8-7.6c-5.3,0-9.1,3.6-9.1,9.5c0,6,3.8,9.3,9.2,9.3c3.6,0,8-1.6,8-4.7
		c0-1.4-1.1-2.1-2.1-2.1c-0.8,0-1.3,0.3-2,0.7c-1,0.5-2,1.2-3.7,1.2c-2,0-4.3-0.9-4.7-3h9.3C95.4,29.7,96.5,28.8,96.5,26.4z
		 M83.5,26.5c0.3-2.2,2.1-3.2,4.3-3.2c2.6,0,4.1,1.6,4.1,3.1L83.5,26.5z"/>
	<path class="st0" d="M109.7,18.7c-2.7,0-5.3,1.4-5.9,4.9h-0.3l-0.1-2.7c-0.1-1.2-1-2-2.2-2c-1.3,0-2.2,1.1-2.2,2.3l0.2,4v10.2
		c0,1.3,1.1,2.4,2.4,2.4c1.3,0,2.3-1.1,2.3-2.4v-8.7c0-1.5,1.9-2.9,4-2.9c2,0,2.9,1.1,2.9,2.8v8.8c0,1.3,1,2.4,2.4,2.4
		c1.3,0,2.3-1.1,2.3-2.4V25.1C115.5,20.8,113.2,18.7,109.7,18.7z"/>
	<path class="st0" d="M135.9,15.7c0-1.3-1-2.4-2.4-2.4c-1.3,0-2.3,1-2.3,2.4v3.5v4.9h-0.4c-0.4-3.7-2.5-5.4-5.4-5.4
		c-3.7,0-7.4,2.8-7.4,9.5c0,6.7,2.9,9.3,6.4,9.4c3.3,0,5.8-1.7,6.6-5.5h0.3l0.2,3.3c0.1,1.3,1.1,2.2,2.3,2.2c1.3,0,2.5-1.1,2.4-2.5
		l-0.3-3V15.7z M126.8,32.4c-2.6,0-4.2-1-4.2-4.1c0-3,1.6-4.1,4.2-4.1c3.2,0,4.5,1.5,4.5,4.1C131.3,31.2,130.1,32.4,126.8,32.4z"/>
	<path class="st0" d="M155.4,32.5v-6.4c0-5.5-3.2-7.4-8.1-7.4c-3.7,0-8,1.6-8,5c0,1.3,0.8,2.3,2.3,2.3c1.3,0,1.8-0.7,2.3-1.3
		c0.5-0.6,1.2-1.1,3-1.1c2.1,0,3.8,0.9,3.8,2.9v2.7h-0.1c-0.6-1.2-2-2.8-5.3-2.8c-4.2,0-6.5,2.1-6.5,5.4c0,3.8,2.5,5.6,5.8,5.6
		c3.5,0,5.4-1.6,6.1-4h0.2l0.3,2c0.2,1.2,1.1,2.1,2.3,2.1c1.4,0,2.5-1.2,2.3-2.6L155.4,32.5z M147,33.3c-2.1,0-3.7-0.4-3.7-1.5
		c0-1.1,1.6-1.5,3.7-1.5c1.8,0,3.8,0.4,3.8,1.5C150.8,32.8,148.8,33.3,147,33.3z"/>
	<path class="st0" d="M174.4,23.2c-2.4-0.2-4.2-0.6-4.2-2.4c0-1.6,1.9-2.4,4.5-2.4c2.9,0,3.8,1,4.7,1.9c0.6,0.5,1.1,1,2.1,1
		c1.2,0,2.5-1,2.5-2.6c0-3.3-4.3-5.3-9.3-5.3c-5.4,0-9.3,2.6-9.3,7.5c0,6.2,5.6,6.3,9.8,6.7c2.4,0.2,4.3,0.5,4.3,2.2c0,2-2,3-4.8,3
		c-3.1,0-4.2-1.1-5-2.1c-0.6-0.8-1.1-1.5-2.3-1.5c-1.4,0-2.6,1-2.6,2.6c0,3,3.5,6,9.8,6c5.1,0,9.8-2.2,9.8-8
		C184.3,23.6,178.6,23.7,174.4,23.2z"/>
	<path class="st0" d="M195.2,18.7c-6,0-9.1,3.9-9.1,9.4c0,5.6,3,9.5,9.1,9.5c6.1,0,9.1-4,9.1-9.5S201.3,18.7,195.2,18.7z
		 M195.2,32.7c-3,0-4.6-1.4-4.6-4.6c0-3.1,1.6-4.5,4.6-4.5c3,0,4.6,1.4,4.6,4.5C199.8,31.3,198.2,32.7,195.2,32.7z"/>
	<path class="st0" d="M223,21.1c0-1.3-1.1-2.4-2.3-2.4c-1.3,0-2.4,1.1-2.4,2.4v8.6c0,1.5-1.9,2.9-4,2.9c-2,0-2.9-1.1-2.9-2.8v-8.7
		c0-1.3-1-2.4-2.3-2.4c-1.3,0-2.4,1.1-2.4,2.4v10c0,4.3,2.3,6.5,5.8,6.5c2.7,0,5.3-1.4,5.9-4.9h0.3l0.2,2.9c0.1,1.2,1,2,2.2,2
		c1.3,0,2.3-1,2.2-2.3l-0.3-3.7V21.1z"/>
	<path class="st0" d="M237.2,18.7c-2.7,0-5.3,1.4-5.9,4.9h-0.3l-0.1-2.7c-0.1-1.2-1-2-2.2-2c-1.3,0-2.2,1.1-2.2,2.3l0.2,4v10.2
		c0,1.3,1.1,2.4,2.4,2.4c1.3,0,2.4-1.1,2.4-2.4v-8.7c0-1.5,1.9-2.9,4-2.9c2,0,2.9,1.1,2.9,2.8v8.8c0,1.3,1,2.4,2.3,2.4
		c1.3,0,2.4-1.1,2.4-2.4V25.1C243.1,20.8,240.8,18.7,237.2,18.7z"/>
	<path class="st0" d="M263.5,32.2V15.7c0-1.3-1-2.4-2.4-2.4s-2.3,1-2.3,2.4v3.5v4.9h-0.4c-0.4-3.7-2.5-5.4-5.4-5.4
		c-3.7,0-7.4,2.8-7.4,9.5c0,6.7,2.9,9.3,6.4,9.4c3.3,0,5.8-1.7,6.6-5.5h0.3l0.2,3.3c0.1,1.3,1.1,2.2,2.3,2.2c1.3,0,2.5-1.1,2.4-2.5
		L263.5,32.2z M254.4,32.4c-2.6,0-4.2-1-4.2-4.1c0-3,1.6-4.1,4.2-4.1c3.2,0,4.5,1.5,4.5,4.1C258.9,31.2,257.7,32.4,254.4,32.4z"/>
</g>
</svg>
