<?xml version="1.0" encoding="utf-8"?>
<!-- Generator: Adobe Illustrator 27.5.0, SVG Export Plug-In . SVG Version: 6.00 Build 0)  -->
<svg version="1.1" id="Capa_1" xmlns="http://www.w3.org/2000/svg" xmlns:xlink="http://www.w3.org/1999/xlink" x="0px" y="0px"
	 viewBox="0 0 140 140" style="enable-background:new 0 0 140 140;" xml:space="preserve">
<style type="text/css">
	.st0{fill-rule:evenodd;clip-rule:evenodd;fill:#BEEAFA;}
	.st1{fill-rule:evenodd;clip-rule:evenodd;fill:#3333FF;}
</style>
<g>
	<circle class="st0" cx="70" cy="70" r="69.3"/>
	<path class="st1" d="M63.2,47.4c0,3.6,1.4,6.9,3.8,9.2c2.4,2.4,5.6,3.8,9.2,3.8s6.9-1.4,9.2-3.8c2.3-2.4,3.8-5.6,3.8-9.2
		c0-3.6-1.5-6.9-3.8-9.2c-2.4-2.4-5.6-3.8-9.2-3.8s-6.9,1.4-9.2,3.8C64.7,40.5,63.2,43.8,63.2,47.4L63.2,47.4z M69.7,49.2
		c-1,0-1.8-0.8-1.8-1.8c0-1.1,0.8-1.8,1.8-1.8h4.7V41c0-1.1,0.8-1.8,1.8-1.8S78,40,78,41v4.6h4.7c1,0,1.8,0.8,1.8,1.8
		s-0.9,1.8-1.8,1.8H78v4.7c0,1.1-0.8,1.8-1.8,1.8c-1.1,0-1.8-0.8-1.8-1.8v-4.7C74.4,49.2,69.7,49.2,69.7,49.2z M51.2,54.3h11.9
		c0.7,1.3,1.7,2.5,2.6,3.5l0,0c1.4,1.4,3,2.5,4.8,3.3c1.8,0.7,3.7,1.1,5.7,1.1c1.9,0,3.9-0.4,5.6-1.1l0,0c1.8-0.8,3.4-1.8,4.8-3.3
		l0,0c1.1-1.1,1.9-2.2,2.6-3.5c4.7,0,9.5,0,14.2,0c0.2,0,0.4,0,0.5,0.1c1,0.3,1.6,1.2,1.3,2.2l-9.5,36.2c-0.2,0.8-0.9,1.5-1.8,1.5
		h-33l0.5,2.5c2.8,0.1,5.1,2,5.8,4.6h16.6c0.8-2.6,3.3-4.6,6.2-4.6c3.5,0,6.4,2.8,6.4,6.3s-2.9,6.4-6.4,6.4c-2.9,0-5.3-1.9-6.1-4.5
		l-16.7-0.1c-0.8,2.6-3.2,4.6-6.1,4.6c-3.5,0-6.4-2.9-6.4-6.4c0-2.4,1.3-4.4,3.2-5.5c-3.9-16.3-8-32.3-12-48.6H36
		c-1,0-1.8-0.8-1.8-1.8s0.8-1.8,1.8-1.8h11.3c0.9,0,1.7,0.6,1.8,1.5L51.2,54.3z"/>
</g>
</svg>
