<?xml version="1.0" encoding="utf-8"?>
<!-- Generator: Adobe Illustrator 27.5.0, SVG Export Plug-In . SVG Version: 6.00 Build 0)  -->
<svg version="1.1" id="Capa_1" xmlns="http://www.w3.org/2000/svg" xmlns:xlink="http://www.w3.org/1999/xlink" x="0px" y="0px"
	 viewBox="0 0 140 140" style="enable-background:new 0 0 140 140;" xml:space="preserve">
<style type="text/css">
	.st0{fill-rule:evenodd;clip-rule:evenodd;fill:#BEEAFA;}
	.st1{fill-rule:evenodd;clip-rule:evenodd;fill:#3333FF;}
</style>
<g>
	<circle class="st0" cx="70" cy="70" r="69.3"/>
	<path class="st1" d="M33.2,62.1h11.6c1,0,1.8,0.8,1.8,1.8v2.7H63c0.4,0,0.8,0.2,1.1,0.4l8.3,6h11c1.6,0,3.2,0.7,4.3,1.8
		c1.1,1.1,1.8,2.6,1.8,4.3v2.4c0,1-0.8,1.8-1.7,1.8l0,0l0,0H73.5v1.9h15l7.5-8c0.6-0.7,1.3-1.1,2-1.4s1.5-0.5,2.4-0.5l6.4-0.1
		c0.9,0,1.8,0.8,1.8,1.8c0,0.4-0.2,0.8-0.5,1.2L88.5,98.3c-0.3,0.3-0.8,0.6-1.4,0.5L67,99.1c-0.3,0-0.5-0.1-0.8-0.3l0,0L46.5,88.4
		v1.8c0,0.9-0.8,1.8-1.8,1.8H33.2c-0.9,0-1.8-0.8-1.8-1.8V63.8C31.4,62.9,32.3,62.1,33.2,62.1L33.2,62.1z M87.5,40.9
		c4.3,0,8.2,1.8,11,4.6s4.5,6.7,4.5,10.9c0,4.3-1.7,8.2-4.5,11s-6.7,4.6-11,4.6c-4.2,0-8.1-1.8-10.9-4.6c-2.9-2.8-4.6-6.7-4.6-11
		c0-4.2,1.7-8.1,4.6-10.9C79.4,42.7,83.3,40.9,87.5,40.9L87.5,40.9z M94.4,59.8c0-1.4-0.5-2.4-1.3-3.3c-0.8-0.8-2.3-1.4-4.2-1.9
		v-4.8c1.3,0.3,2.4,0.8,3.5,1.6l1.4-2.4c-0.7-0.5-1.4-0.9-2.2-1.3c-0.8-0.3-1.6-0.6-2.5-0.7v-1.5h-2.2V47c-0.8,0.1-1.5,0.3-2.2,0.5
		c-0.7,0.3-1.3,0.6-1.7,1c-0.5,0.4-0.8,0.9-1.1,1.5c-0.3,0.6-0.4,1.2-0.4,1.9s0.2,1.3,0.3,1.9c0.3,0.6,0.6,1.1,1,1.4
		c0.5,0.4,1,0.8,1.7,1.1s1.5,0.6,2.4,0.8v5c-0.8-0.2-1.6-0.4-2.4-0.8c-0.7-0.3-1.4-0.8-2.1-1.4l-1.6,2.3c0.8,0.7,1.8,1.3,2.8,1.7
		s2,0.7,3.2,0.8v2.5H89v-2.5c0.8-0.1,1.5-0.3,2.2-0.5c0.7-0.3,1.2-0.6,1.7-1c0.4-0.4,0.8-0.9,1.1-1.5C94.2,61.1,94.4,60.5,94.4,59.8
		L94.4,59.8z M86.9,54.1c-1-0.3-1.7-0.7-1.9-1c-0.3-0.3-0.5-0.8-0.5-1.4c0-0.6,0.2-1,0.6-1.4s1-0.7,1.9-0.7L86.9,54.1L86.9,54.1z
		 M91.3,60c0,0.6-0.2,1.1-0.7,1.5c-0.4,0.3-1,0.6-1.9,0.7v-4.6c0.5,0.1,0.9,0.3,1.3,0.4c0.3,0.2,0.6,0.3,0.8,0.5
		c0.2,0.3,0.3,0.4,0.4,0.7C91.3,59.5,91.3,59.7,91.3,60L91.3,60z"/>
</g>
</svg>
