<?xml version="1.0" encoding="utf-8"?>
<!-- Generator: Adobe Illustrator 27.5.0, SVG Export Plug-In . SVG Version: 6.00 Build 0)  -->
<svg version="1.1" id="Capa_1" xmlns="http://www.w3.org/2000/svg" xmlns:xlink="http://www.w3.org/1999/xlink" x="0px" y="0px"
	 viewBox="0 0 140 140" style="enable-background:new 0 0 140 140;" xml:space="preserve">
<style type="text/css">
	.st0{fill-rule:evenodd;clip-rule:evenodd;fill:#BEEAFA;}
	.st1{fill-rule:evenodd;clip-rule:evenodd;fill:#3333FF;}
</style>
<g>
	<g>
		<circle class="st0" cx="70" cy="70" r="69.3"/>
	</g>
	<path class="st1" d="M51.8,29.3h36.3c1.7,0,3.2,0.7,4.3,1.8l0.1,0.2c1.1,1.1,1.7,2.6,1.7,4.1v69.3c0,1.7-0.7,3.1-1.8,4.2l-0.1,0.1
		c-1.1,1.1-2.6,1.7-4.2,1.7H51.8c-1.7,0-3.1-0.7-4.2-1.8l0,0c-1.2-1.1-1.9-2.7-1.9-4.2V35.4c0-1.7,0.7-3.1,1.9-4.3
		C48.7,30,50.2,29.3,51.8,29.3L51.8,29.3z M54,35.4h32c1.2,0,2.1,0.9,2.1,2v57.8c0,1.2-0.9,2.1-2.1,2.1H54c-1.1,0-2-0.9-2-2.1V37.4
		C52,36.3,52.9,35.4,54,35.4L54,35.4z M70,98.5c1.9,0,3.3,1.5,3.3,3.2c0,1.9-1.5,3.2-3.3,3.2c-1.9,0-3.4-1.4-3.4-3.2
		C66.6,100,68.2,98.5,70,98.5L70,98.5z"/>
</g>
</svg>
