<?xml version="1.0" encoding="utf-8"?>
<!-- Generator: Adobe Illustrator 27.5.0, SVG Export Plug-In . SVG Version: 6.00 Build 0)  -->
<svg version="1.1" id="Capa_1" xmlns="http://www.w3.org/2000/svg" xmlns:xlink="http://www.w3.org/1999/xlink" x="0px" y="0px"
	 viewBox="0 0 140 140" style="enable-background:new 0 0 140 140;" xml:space="preserve">
<style type="text/css">
	.st0{fill-rule:evenodd;clip-rule:evenodd;fill:#BEEAFA;}
	.st1{fill-rule:evenodd;clip-rule:evenodd;fill:#3333FF;}
</style>
<g>
	<circle class="st0" cx="70" cy="70" r="69.3"/>
	<path class="st1" d="M70.8,36.8l28.3,14c0.6,0.3,1,1,0.9,1.7c-0.8,12.6-4,22.7-9,31c-5.1,8.3-11.9,14.6-20.1,19.5
		c-0.6,0.3-1.3,0.3-1.8,0c-8.1-4.9-15-11.1-20-19.5c-5-8.3-8.3-18.4-9.1-31c0-0.8,0.4-1.4,1-1.7l28.3-14
		C69.8,36.6,70.3,36.7,70.8,36.8L70.8,36.8z M55.9,68.4c-0.7-0.8-0.6-1.9,0.2-2.5c0.8-0.7,1.9-0.6,2.5,0.2l7.4,8.7L84.4,58
		c0.8-0.7,1.9-0.6,2.5,0.1c0.7,0.7,0.6,1.8-0.1,2.5L67,78.6c-0.8,0.6-1.9,0.5-2.5-0.3L55.9,68.4z"/>
</g>
</svg>
