<?xml version="1.0" encoding="utf-8"?>
<!-- Generator: Adobe Illustrator 27.5.0, SVG Export Plug-In . SVG Version: 6.00 Build 0)  -->
<svg version="1.1" id="Capa_1" xmlns="http://www.w3.org/2000/svg" xmlns:xlink="http://www.w3.org/1999/xlink" x="0px" y="0px"
	 viewBox="0 0 139 139" style="enable-background:new 0 0 139 139;" xml:space="preserve">
<style type="text/css">
	.st0{fill-rule:evenodd;clip-rule:evenodd;fill:#ABEDFF;}
	.st1{fill-rule:evenodd;clip-rule:evenodd;fill:#3333FF;}
</style>
<g>
	<circle class="st0" cx="69.5" cy="69.5" r="69.27"/>
	<path class="st1" d="M62.75,46.86c0,3.6,1.41,6.86,3.78,9.23c2.37,2.37,5.62,3.78,9.23,3.78c3.6,0,6.85-1.41,9.23-3.78
		c2.29-2.37,3.78-5.62,3.78-9.23c0-3.6-1.49-6.86-3.78-9.23c-2.37-2.37-5.62-3.78-9.23-3.78c-3.6,0-6.86,1.41-9.23,3.78
		C64.15,40.01,62.75,43.26,62.75,46.86L62.75,46.86z M69.25,48.71c-0.97,0-1.76-0.79-1.76-1.76c0-1.05,0.79-1.85,1.76-1.85h4.66
		v-4.57c0-1.05,0.79-1.85,1.85-1.85c0.97,0,1.76,0.79,1.76,1.85v4.57h4.66c0.97,0,1.85,0.79,1.85,1.85c0,0.97-0.88,1.76-1.85,1.76
		h-4.66v4.66c0,1.05-0.79,1.85-1.76,1.85c-1.05,0-1.85-0.79-1.85-1.85v-4.66H69.25z M50.71,53.8h11.86c0.7,1.32,1.67,2.46,2.64,3.52
		l0,0c1.41,1.41,2.99,2.46,4.83,3.25c1.76,0.7,3.69,1.14,5.71,1.14c1.93,0,3.87-0.44,5.62-1.14l0,0c1.85-0.79,3.43-1.85,4.83-3.25
		l0,0c1.05-1.05,1.93-2.2,2.64-3.52c4.75,0,9.49,0,14.24,0c0.18,0,0.35,0,0.53,0.09c0.97,0.26,1.58,1.23,1.32,2.2L95.44,92.3
		c-0.18,0.79-0.88,1.49-1.85,1.49H60.64l0.53,2.46c2.81,0.09,5.1,2.02,5.8,4.57h16.61c0.79-2.64,3.25-4.57,6.15-4.57
		c3.52,0,6.42,2.81,6.42,6.33c0,3.52-2.9,6.42-6.42,6.42c-2.9,0-5.27-1.93-6.06-4.48l-16.7-0.09c-0.79,2.64-3.16,4.57-6.06,4.57
		c-3.52,0-6.42-2.9-6.42-6.42c0-2.37,1.32-4.39,3.16-5.54c-3.87-16.26-8-32.34-11.95-48.6h-9.93c-0.97,0-1.76-0.79-1.76-1.85
		c0-0.97,0.79-1.76,1.76-1.76H47.1c0.88,0,1.67,0.62,1.76,1.49L50.71,53.8z"/>
</g>
</svg>
