<?xml version="1.0" encoding="utf-8"?>
<!-- Generator: Adobe Illustrator 27.5.0, SVG Export Plug-In . SVG Version: 6.00 Build 0)  -->
<svg version="1.1" id="Capa_1" xmlns="http://www.w3.org/2000/svg" xmlns:xlink="http://www.w3.org/1999/xlink" x="0px" y="0px"
	 viewBox="0 0 139 139" style="enable-background:new 0 0 139 139;" xml:space="preserve">
<style type="text/css">
	.st0{fill-rule:evenodd;clip-rule:evenodd;fill:#ABEDFF;}
	.st1{fill-rule:evenodd;clip-rule:evenodd;fill:#3333FF;}
</style>
<g>
	<circle class="st0" cx="69.5" cy="69.5" r="69.27"/>
	<g>
		<g>
			<path class="st1" d="M52.96,65.44L52.96,65.44V93.7l0,0v0.89c0,1.07-0.8,1.88-1.79,1.88H36.68c-0.98,0-1.88-0.8-1.88-1.88V65.62
				c0-0.98,0.89-1.88,1.88-1.88h14.49C52.06,63.74,52.87,64.46,52.96,65.44L52.96,65.44z M53.76,64.72l15.02-13.41l2.86-8.32
				c0.45-1.34-0.09-3.31,1.07-3.93c0.98-0.63,1.07-0.89,2.24-0.8c1.16,0.09,2.33,0.45,3.4,1.16c1.25,0.89,2.32,2.24,2.86,4.11
				c1.34,4.56-0.18,8.67-0.89,12.34c-0.54,2.33-1.43,4.56-2.41,6.53h20.48c1.61,0,3.04,0.63,4.11,1.7l0,0
				c0.98,0.98,1.7,2.5,1.7,4.02v0.89c0,1.52-0.72,2.95-1.7,4.02c0.8,0.98,1.25,2.33,1.25,3.76v0.89c0,1.61-0.98,3.04-2.32,4.11
				l-0.27,0.09c0.8,0.98,1.25,2.24,1.25,3.58v0.89c0,3.58-2.06,5.01-4.38,5.54c0.27,0.72,0.45,1.43,0.45,2.24v0.89
				c0,1.61-0.63,3.04-1.61,4.11c-1.07,0.98-2.5,1.61-4.11,1.61H68.96c-0.36,0-0.63,0-0.89-0.18l-14.4-6.53L53.76,64.72z"/>
		</g>
	</g>
</g>
</svg>
