<?xml version="1.0" encoding="utf-8"?>
<!-- Generator: Adobe Illustrator 27.5.0, SVG Export Plug-In . SVG Version: 6.00 Build 0)  -->
<svg version="1.1" id="Capa_1" xmlns="http://www.w3.org/2000/svg" xmlns:xlink="http://www.w3.org/1999/xlink" x="0px" y="0px"
	 viewBox="0 0 139 139" style="enable-background:new 0 0 139 139;" xml:space="preserve">
<style type="text/css">
	.st0{fill-rule:evenodd;clip-rule:evenodd;fill:#ABEDFF;}
	.st1{fill-rule:evenodd;clip-rule:evenodd;fill:#3333FF;}
</style>
<g>
	<circle class="st0" cx="69.5" cy="69.5" r="69.27"/>
	<path class="st1" d="M37.18,41.39h50.31c0.98,0,1.79,0.9,1.79,1.88v6.62h11.55c0.63,0,1.07,0.27,1.43,0.72l9.67,11.64
		c0.36,0.27,0.45,0.72,0.45,1.16l0,0v20.05c0,1.07-0.81,1.88-1.79,1.88h-0.18H87.49H37.36h-0.18c-0.98,0-1.88-0.81-1.88-1.88V70.75
		h12.98c0.98,0,1.79-0.9,1.79-1.88c0-0.99-0.81-1.79-1.79-1.79c-3.94,0-11.55,0-15.49,0c-0.98,0-1.79-0.9-1.79-1.88
		c0-0.72,0.45-1.43,1.07-1.7h8.15c1.07,0,1.88-0.81,1.88-1.79c0-1.07-0.81-1.88-1.88-1.88H28.14c-0.9-0.18-1.52-0.9-1.52-1.79
		c0-0.99,0.81-1.88,1.88-1.88c5.1,0,10.3,0,15.4,0c1.07,0,1.88-0.81,1.88-1.88c0-0.99-0.81-1.79-1.88-1.79c-3.67,0-7.43,0-11.19,0
		c-0.98,0-1.79-0.81-1.79-1.88c0-0.99,0.81-1.79,1.79-1.79h3.31H35.3v-5.55C35.3,42.28,36.2,41.39,37.18,41.39L37.18,41.39z
		 M67.35,73.26c-0.98,0-1.88-0.81-1.88-1.79c0-1.07,0.9-1.88,1.88-1.88h10.03c1.07,0,1.88,0.81,1.88,1.88
		c0,0.98-0.81,1.79-1.88,1.79H67.35z M60.64,69.59c0.98,0,1.88,0.81,1.88,1.88c0,0.98-0.9,1.79-1.88,1.79h-3.31
		c-1.07,0-1.88-0.81-1.88-1.79c0-1.07,0.81-1.88,1.88-1.88H60.64z M50.16,52.49c-1.07,0-1.88-0.81-1.88-1.88
		c0-0.99,0.81-1.79,1.88-1.79h8.5c1.07,0,1.88,0.81,1.88,1.79c0,1.07-0.81,1.88-1.88,1.88H50.16z M39.42,78.63
		c-1.07,0-1.88-0.81-1.88-1.88c0-0.98,0.81-1.79,1.88-1.79h45.84c0.98,0,1.79,0.81,1.79,1.79c0,1.07-0.81,1.88-1.79,1.88H39.42z
		 M53.92,85.88c3.22,0,5.91,2.6,5.91,5.82c0,3.22-2.69,5.91-5.91,5.91c-3.22,0-5.91-2.69-5.91-5.91
		C48.01,88.48,50.7,85.88,53.92,85.88L53.92,85.88z M97.52,85.88c3.22,0,5.82,2.6,5.82,5.82c0,3.22-2.6,5.91-5.82,5.91
		c-3.22,0-5.91-2.69-5.91-5.91C91.61,88.48,94.3,85.88,97.52,85.88L97.52,85.88z M90.99,66.72v-8.15c0-0.99,0.81-1.79,1.79-1.79
		h6.36c0.54,0,1.07,0.18,1.43,0.63l6.89,8.15c0.27,0.27,0.45,0.72,0.45,1.16c0,0.99-0.9,1.88-1.88,1.88H92.78
		C91.79,68.6,90.99,67.8,90.99,66.72L90.99,66.72z"/>
</g>
</svg>
