<?xml version="1.0" encoding="utf-8"?>
<!-- Generator: Adobe Illustrator 27.5.0, SVG Export Plug-In . SVG Version: 6.00 Build 0)  -->
<svg version="1.1" id="Capa_1" xmlns="http://www.w3.org/2000/svg" xmlns:xlink="http://www.w3.org/1999/xlink" x="0px" y="0px"
	 viewBox="0 0 630 257" style="enable-background:new 0 0 630 257;" xml:space="preserve">
<style type="text/css">
	.st0{fill-rule:evenodd;clip-rule:evenodd;fill:url(#SVGID_1_);}
	
		.st1{fill:url(#SVGID_00000053532686229794621800000017680592265692026017_);stroke:#FFFFFF;stroke-width:1.9361;stroke-miterlimit:10;}
	.st2{fill-rule:evenodd;clip-rule:evenodd;fill:#ABEDFF;}
	.st3{fill:#E93882;}
	.st4{fill:#FFFFFF;}
	.st5{fill-rule:evenodd;clip-rule:evenodd;fill:#FFFFFF;}
	.st6{fill-rule:evenodd;clip-rule:evenodd;fill:url(#SVGID_00000127045584605901479480000000013794522158829997_);}
	
		.st7{fill:url(#SVGID_00000142174874711231120510000012435909041346294662_);stroke:#FFFFFF;stroke-width:1.9361;stroke-miterlimit:10;}
	.st8{font-family:'HossRound-Regular';}
	.st9{font-size:31.5732px;}
	.st10{fill:#00C7FF;}
	.st11{font-family:'HossRound-Ultra';}
	.st12{font-size:94.6116px;}
	.st13{letter-spacing:-1;}
	.st14{font-size:22.1012px;}
	.st15{font-family:'MyriadPro-Regular';}
	.st16{font-family:'HossRound-Black';}
</style>
<g>
	
		<linearGradient id="SVGID_1_" gradientUnits="userSpaceOnUse" x1="215.2514" y1="2014.8562" x2="266.4808" y2="2014.8562" gradientTransform="matrix(1 0 0 1 72.1262 0)">
		<stop  offset="0" style="stop-color:#FFFFFF"/>
		<stop  offset="6.340295e-03" style="stop-color:#00FFFF"/>
		<stop  offset="1" style="stop-color:#0000FF"/>
	</linearGradient>
	<polygon class="st0" points="287.38,2026.44 338.61,2054.44 338.61,1975.27 287.38,1975.27 	"/>
	
		<radialGradient id="SVGID_00000116220909924451994340000006210007318951943869_" cx="594.4313" cy="2207.0276" r="347.8271" gradientTransform="matrix(1.0151 0 0 1.0034 0.5194 -5.5506)" gradientUnits="userSpaceOnUse">
		<stop  offset="0" style="stop-color:#FFFFFF"/>
		<stop  offset="6.340295e-03" style="stop-color:#00FFFF"/>
		<stop  offset="0.9116" style="stop-color:#0000FF"/>
	</radialGradient>
	
		<path style="fill:url(#SVGID_00000116220909924451994340000006210007318951943869_);stroke:#FFFFFF;stroke-width:1.9361;stroke-miterlimit:10;" d="
		M856.13,2115.45h-480c-33.14,0-60-26.86-60-60v-135c0-33.14,26.86-60,60-60h480c33.14,0,60,26.86,60,60v135
		C916.13,2088.58,889.27,2115.45,856.13,2115.45z"/>
	<path class="st2" d="M393.17,1991.93l-36.12,35.63c-0.62,0.62-1.61,1.12-2.61,1.12l-63.22-0.25l-0.25,0c-1.99,0-3.6-1.61-3.6-3.6
		l0.12-71.63l0,0c0-1.99,1.61-3.6,3.6-3.6l63.34-0.37c0.87-0.12,1.86,0.37,2.48,0.99l36.25,36.5
		C394.66,1988.21,394.54,1990.57,393.17,1991.93L393.17,1991.93z"/>
	<g>
		<text transform="matrix(1 0 0 1 411.5723 1939.0095)"><tspan x="0" y="0" class="st4 st8 st9">Los mejores Intrumentos</tspan><tspan x="0" y="85.86" class="st10 st11 st12 st13">USADOS</tspan></text>
	</g>
	<g>
		<text transform="matrix(1 0 0 1 417.1499 2059.6189)"><tspan x="0" y="0" class="st4 st8 st14">s칩lo est</tspan><tspan x="82.83" y="0" class="st4 st15 st14">치n</tspan><tspan x="105.75" y="0" class="st4 st8 st14"> en </tspan><tspan x="142.13" y="0" class="st4 st16 st14">Tienda Sound</tspan></text>
	</g>
	<g>
		<circle class="st3" cx="852.58" cy="1987.95" r="27.3"/>
		<g>
			<path class="st4" d="M860.61,1985.11c1.45,0,2.63,1.26,2.63,2.86c0,1.56-1.19,2.82-2.63,2.82h-5.38v5.04
				c0,1.56-1.15,2.82-2.63,2.82s-2.63-1.26-2.63-2.82v-5.04h-5.42c-1.45,0-2.63-1.26-2.63-2.82c0-1.59,1.19-2.86,2.63-2.86h5.42
				v-5.04c0-1.56,1.15-2.82,2.63-2.82s2.63,1.26,2.63,2.82v5.04H860.61z"/>
		</g>
	</g>
	<path class="st5" d="M331.29,2009.72c-0.4,0.52-1.15,0.57-1.66,0.17c-0.4-0.34-0.52-0.92-0.34-1.38l6.42-16.86h-6.42
		c-0.63,0-1.15-0.52-1.15-1.2c0-0.11,0-0.23,0.06-0.34l6.08-21.62c0.17-0.52,0.63-0.86,1.15-0.86l0,0h16.86
		c0.69,0,1.2,0.52,1.2,1.15c0,0.29-0.11,0.52-0.23,0.75l-9.35,15.43h5.22c0.63,0,1.15,0.52,1.15,1.15c0,0.34-0.11,0.57-0.29,0.8
		l-0.52,0.69"/>
</g>
<g>
	
		<linearGradient id="SVGID_00000021099032811321862070000011133119263236183432_" gradientUnits="userSpaceOnUse" x1="-71.5014" y1="155.4099" x2="-20.2719" y2="155.4099" gradientTransform="matrix(1 0 0 1 72.1262 0)">
		<stop  offset="0" style="stop-color:#FFFFFF"/>
		<stop  offset="6.340295e-03" style="stop-color:#00FFFF"/>
		<stop  offset="1" style="stop-color:#0000FF"/>
	</linearGradient>
	
		<polygon style="fill-rule:evenodd;clip-rule:evenodd;fill:url(#SVGID_00000021099032811321862070000011133119263236183432_);" points="
		0.62,166.99 51.85,194.99 51.85,115.83 0.62,115.83 	"/>
	
		<radialGradient id="SVGID_00000030469606106725496120000009321051564833815937_" cx="311.947" cy="353.9026" r="347.8271" gradientTransform="matrix(1.0151 0 0 1.0034 0.5194 -5.5506)" gradientUnits="userSpaceOnUse">
		<stop  offset="0" style="stop-color:#FFFFFF"/>
		<stop  offset="6.340295e-03" style="stop-color:#00FFFF"/>
		<stop  offset="0.9116" style="stop-color:#0000FF"/>
	</radialGradient>
	
		<path style="fill:url(#SVGID_00000030469606106725496120000009321051564833815937_);stroke:#FFFFFF;stroke-width:1.9361;stroke-miterlimit:10;" d="
		M569.38,256h-480c-33.14,0-60-26.86-60-60V61c0-33.14,26.86-60,60-60h480c33.14,0,60,26.86,60,60v135
		C629.38,229.14,602.51,256,569.38,256z"/>
	<path class="st2" d="M106.42,132.49L70.3,168.12c-0.62,0.62-1.61,1.12-2.61,1.12l-63.22-0.25l-0.25,0c-1.99,0-3.6-1.61-3.6-3.6
		l0.12-71.63l0,0c0-1.99,1.61-3.6,3.6-3.6l63.34-0.37c0.87-0.12,1.86,0.37,2.48,0.99l36.25,36.5
		C107.91,128.76,107.79,131.12,106.42,132.49L106.42,132.49z"/>
	<g>
		<text transform="matrix(1 0 0 1 124.8195 79.5632)"><tspan x="0" y="0" class="st4 st8 st9">Los mejores Intrumentos</tspan><tspan x="0" y="85.86" class="st10 st11 st12 st13">USADOS</tspan></text>
	</g>
	<g>
		<text transform="matrix(1 0 0 1 130.3972 200.1726)"><tspan x="0" y="0" class="st4 st8 st14">s칩lo est</tspan><tspan x="82.83" y="0" class="st4 st15 st14">치n</tspan><tspan x="105.75" y="0" class="st4 st8 st14"> en </tspan><tspan x="142.13" y="0" class="st4 st16 st14">Tienda Sound</tspan></text>
	</g>
	<g>
		<circle class="st3" cx="565.83" cy="128.5" r="27.3"/>
		<g>
			<path class="st4" d="M573.86,125.66c1.45,0,2.63,1.26,2.63,2.86c0,1.56-1.19,2.82-2.63,2.82h-5.38v5.04
				c0,1.56-1.15,2.82-2.63,2.82s-2.63-1.26-2.63-2.82v-5.04h-5.42c-1.45,0-2.63-1.26-2.63-2.82c0-1.59,1.19-2.86,2.63-2.86h5.42
				v-5.04c0-1.56,1.15-2.82,2.63-2.82s2.63,1.26,2.63,2.82v5.04H573.86z"/>
		</g>
	</g>
	<path class="st5" d="M44.54,150.27c-0.4,0.52-1.15,0.57-1.66,0.17c-0.4-0.34-0.52-0.92-0.34-1.38l6.42-16.86h-6.42
		c-0.63,0-1.15-0.52-1.15-1.2c0-0.11,0-0.23,0.06-0.34l6.08-21.62c0.17-0.52,0.63-0.86,1.15-0.86l0,0h16.86
		c0.69,0,1.2,0.52,1.2,1.15c0,0.29-0.11,0.52-0.23,0.75l-9.35,15.43h5.22c0.63,0,1.15,0.52,1.15,1.15c0,0.34-0.11,0.57-0.29,0.8
		l-0.52,0.69"/>
</g>
</svg>
