<?xml version="1.0" encoding="utf-8"?>
<!-- Generator: Adobe Illustrator 27.5.0, SVG Export Plug-In . SVG Version: 6.00 Build 0)  -->
<svg version="1.1" id="Capa_1" xmlns="http://www.w3.org/2000/svg" xmlns:xlink="http://www.w3.org/1999/xlink" x="0px" y="0px"
	 viewBox="0 0 19 36" style="enable-background:new 0 0 19 36;" xml:space="preserve">
<style type="text/css">
	.st0{fill:#3333FF;}
</style>
<g>
	<path class="st0" d="M5.33,18L18.07,3.99c0.78-0.86,0.72-2.2-0.14-2.98c-0.86-0.78-2.2-0.72-2.98,0.14L0.92,16.58
		c-0.03,0.03-0.04,0.06-0.07,0.09c-0.05,0.06-0.09,0.11-0.13,0.18c-0.04,0.06-0.07,0.12-0.1,0.18c-0.03,0.06-0.06,0.12-0.09,0.19
		c-0.03,0.06-0.05,0.13-0.07,0.19c-0.02,0.06-0.04,0.13-0.05,0.19c-0.01,0.07-0.02,0.13-0.03,0.2c-0.01,0.07-0.01,0.13-0.01,0.2
		c0,0.07,0,0.13,0.01,0.2c0.01,0.07,0.02,0.13,0.03,0.2c0.01,0.07,0.03,0.13,0.05,0.19c0.02,0.07,0.04,0.13,0.07,0.19
		c0.03,0.06,0.06,0.13,0.09,0.19c0.03,0.06,0.07,0.12,0.1,0.18c0.04,0.06,0.08,0.12,0.13,0.18c0.02,0.03,0.04,0.06,0.07,0.09
		l14.03,15.43c0.42,0.46,0.99,0.69,1.56,0.69c0.51,0,1.01-0.18,1.42-0.55c0.86-0.78,0.93-2.12,0.14-2.98L5.33,18z"/>
</g>
</svg>
