<?xml version="1.0" encoding="utf-8"?>
<!-- Generator: Adobe Illustrator 27.5.0, SVG Export Plug-In . SVG Version: 6.00 Build 0)  -->
<svg version="1.1" id="Capa_1" xmlns="http://www.w3.org/2000/svg" xmlns:xlink="http://www.w3.org/1999/xlink" x="0px" y="0px"
	 viewBox="0 0 43 74" style="enable-background:new 0 0 43 74;" xml:space="preserve">
<style type="text/css">
	.st0{fill:#3333FF;}
</style>
<g>
	<path class="st0" d="M21.73,53.43c7.6,0,13.82-6.19,13.82-13.79V13.87c0-7.6-6.22-13.79-13.82-13.79c-7.6,0-13.82,6.19-13.82,13.79
		v25.77C7.91,47.24,14.12,53.43,21.73,53.43z M17.59,37.5h-5.96v-2.39h5.96c1.03,0,1.86-0.83,1.86-1.86c0-1.03-0.83-1.86-1.86-1.86
		h-5.96V29h5.96c1.03,0,1.86-0.83,1.86-1.86c0-1.03-0.83-1.86-1.86-1.86h-5.96v-2.66h5.96c1.03,0,1.86-0.83,1.86-1.86
		s-0.83-1.86-1.86-1.86h-5.96v-3.19h5.96c1.03,0,1.86-0.83,1.86-1.86c0-1.03-0.83-1.86-1.86-1.86h-5.78c0.94-4.78,5-8.1,9.86-8.1
		c4.7,0,8.66,3.05,9.76,7.56h-4.62c-1.03,0-1.86,0.83-1.86,1.86c0,1.03,0.83,1.86,1.86,1.86h5.01v2.92h-5.01
		c-1.03,0-1.86,0.83-1.86,1.86s0.83,1.86,1.86,1.86h5.01v2.39h-5.01c-1.03,0-1.86,0.83-1.86,1.86s0.83,1.86,1.86,1.86h5.01v2.66
		h-5.01c-1.03,0-1.86,0.83-1.86,1.86s0.83,1.86,1.86,1.86h5.01v2.66h-5.01c-1.03,0-1.86,0.83-1.86,1.86s0.83,1.86,1.86,1.86h4.87
		c-0.53,5.05-4.82,8.95-10.01,8.95c-4.97,0-9.11-3.63-9.92-8.42h5.84c1.03,0,1.86-0.83,1.86-1.86S18.62,37.5,17.59,37.5z"/>
	<path class="st0" d="M38.81,50.11c-0.32-0.22-0.69-0.33-1.08-0.33c-0.6,0-1.17,0.25-1.52,0.74c-2.94,4.14-7.87,6.38-13.87,6.38
		h-0.08c-5.74,0-10.69-1.83-13.94-5.15c-2.92-3-4.42-7.07-4.32-11.82C4.12,34.41,4.02,29,3.95,26.07h0.91
		c1.03,0,1.86-0.83,1.86-1.86s-0.83-1.86-1.86-1.86H2.04c-0.5,0-0.99,0.21-1.34,0.57c-0.35,0.36-0.54,0.86-0.52,1.36
		c0.01,0.32,0.26,7.94,0.11,15.6c-0.12,5.77,1.75,10.74,5.38,14.47c3.95,4.05,9.84,6.28,16.59,6.28h0.12
		c7.22,0,13.21-2.79,16.88-7.94C39.84,51.84,39.65,50.7,38.81,50.11z"/>
	<path class="st0" d="M40.53,46.09c-0.19-0.09-0.39-0.15-0.58-0.17c-0.07-0.01-0.14-0.01-0.22-0.01c-0.76,0-1.41,0.43-1.75,1.14
		c-0.21,0.45-0.24,0.95-0.07,1.42c0.17,0.47,0.51,0.84,0.96,1.06c0.02,0.01,0.05,0.02,0.06,0.03c0.21,0.1,0.43,0.17,0.66,0.19
		c0.06,0.01,0.12,0.01,0.18,0.01c0.3,0,1.31-0.09,1.78-1.23C41.93,47.58,41.48,46.48,40.53,46.09z"/>
	<path class="st0" d="M42.75,24.21c0-1.03-0.84-1.86-1.86-1.86h-2.62c-1.03,0-1.86,0.83-1.86,1.86s0.83,1.86,1.86,1.86h0.76
		c0.01,3.19,0.02,9.5,0.07,14.85c0.01,0.86-0.05,1.72-0.16,2.56c-0.07,0.49,0.06,0.98,0.37,1.38c0.3,0.39,0.74,0.65,1.23,0.71
		c0.08,0.01,0.17,0.02,0.25,0.02c0.93,0,1.72-0.69,1.84-1.61c0.14-1.01,0.2-2.05,0.19-3.09C42.76,33.83,42.75,25.19,42.75,24.21z"/>
	<polygon class="st0" points="23.59,62.49 19.87,62.49 19.87,70.19 7.64,70.19 7.64,73.91 35.55,73.91 35.55,70.19 23.59,70.19 	"/>
</g>
</svg>
