<?xml version="1.0" encoding="utf-8"?>
<!-- Generator: Adobe Illustrator 27.5.0, SVG Export Plug-In . SVG Version: 6.00 Build 0)  -->
<svg version="1.1" id="Capa_1" xmlns="http://www.w3.org/2000/svg" xmlns:xlink="http://www.w3.org/1999/xlink" x="0px" y="0px"
	 viewBox="0 0 123 65" style="enable-background:new 0 0 123 65;" xml:space="preserve">
<style type="text/css">
	.st0{fill:#3333FF;}
</style>
<g>
	<path class="st0" d="M117.02,11.28H96.23c-3.1,0-5.62,2.52-5.62,5.62v39.92c0,3.1,2.52,5.62,5.62,5.62h0.2v0.41
		c0,1.15,0.93,2.09,2.09,2.09c1.15,0,2.09-0.93,2.09-2.09v-0.41h11.63v0.41c0,1.15,0.93,2.09,2.09,2.09c1.15,0,2.09-0.93,2.09-2.09
		v-0.41h0.61c3.1,0,5.62-2.52,5.62-5.62V16.91C122.64,13.8,120.12,11.28,117.02,11.28z M118.47,56.83c0,0.8-0.65,1.45-1.45,1.45
		H96.23c-0.8,0-1.45-0.65-1.45-1.45V16.91c0-0.8,0.65-1.45,1.45-1.45h20.79c0.8,0,1.45,0.65,1.45,1.45V56.83z"/>
	<path class="st0" d="M106.42,33.63c4.02,0,7.57-2.85,8.44-6.77c0.25-1.13-0.46-2.24-1.59-2.49c-1.12-0.25-2.24,0.46-2.49,1.59
		c-0.45,2.03-2.28,3.5-4.36,3.5c-2.46,0-4.46-2-4.46-4.46c0-2.46,2-4.46,4.46-4.46c0.85,0,1.67,0.24,2.38,0.69
		c0.97,0.62,2.26,0.33,2.88-0.65c0.62-0.97,0.33-2.26-0.65-2.88c-1.38-0.87-2.98-1.34-4.62-1.34c-4.76,0-8.64,3.87-8.64,8.64
		S101.66,33.63,106.42,33.63z"/>
	<path class="st0" d="M115.51,44.02c-0.01,0-0.03,0-0.04,0c-1.13,0-2.06,0.91-2.09,2.04c-0.08,3.75-3.2,6.81-6.96,6.81
		c-3.84,0-6.96-3.12-6.96-6.96c0-3.84,3.12-6.96,6.96-6.96c1.7,0,3.34,0.62,4.61,1.74c0.86,0.76,2.18,0.68,2.95-0.18
		c0.76-0.86,0.68-2.18-0.18-2.95c-2.03-1.8-4.65-2.79-7.37-2.79c-6.14,0-11.13,4.99-11.13,11.13c0,6.14,4.99,11.13,11.13,11.13
		c6.01,0,11.01-4.89,11.13-10.9C117.58,45,116.66,44.04,115.51,44.02z"/>
	<path class="st0" d="M106.61,22.53c-1.37,0-2.49,1.12-2.49,2.49c0,1.37,1.12,2.49,2.49,2.49c1.37,0,2.49-1.12,2.49-2.49
		C109.09,23.64,107.98,22.53,106.61,22.53z"/>
	<path class="st0" d="M102.36,45.62c0,2.26,1.84,4.1,4.1,4.1c2.26,0,4.1-1.84,4.1-4.1c0-2.26-1.84-4.1-4.1-4.1
		C104.2,41.52,102.36,43.36,102.36,45.62z M106.38,45.62c0-0.04,0.03-0.08,0.08-0.08c0.04,0,0.08,0.03,0.08,0.08
		C106.53,45.7,106.38,45.7,106.38,45.62z"/>
	<path class="st0" d="M26.77,11.28H5.98c-3.1,0-5.62,2.52-5.62,5.62v39.92c0,3.1,2.52,5.62,5.62,5.62h0.2v0.41
		c0,1.15,0.93,2.09,2.09,2.09c1.15,0,2.09-0.93,2.09-2.09v-0.41h11.63v0.41c0,1.15,0.93,2.09,2.09,2.09s2.09-0.93,2.09-2.09v-0.41
		h0.61c3.1,0,5.62-2.52,5.62-5.62V16.91C32.4,13.8,29.87,11.28,26.77,11.28z M28.22,56.83c0,0.8-0.65,1.45-1.45,1.45H5.98
		c-0.8,0-1.45-0.65-1.45-1.45V16.91c0-0.8,0.65-1.45,1.45-1.45h20.79c0.8,0,1.45,0.65,1.45,1.45V56.83z"/>
	<path class="st0" d="M16.18,33.63c3.95,0,7.4-2.67,8.37-6.5c0.28-1.12-0.39-2.25-1.51-2.54c-1.12-0.28-2.25,0.39-2.54,1.51
		c-0.5,1.98-2.28,3.36-4.32,3.36c-2.46,0-4.46-2-4.46-4.46c0-2.46,2-4.46,4.46-4.46c1.05,0,2.04,0.36,2.85,1.03
		c0.89,0.74,2.2,0.62,2.94-0.27c0.74-0.89,0.62-2.2-0.27-2.94c-1.55-1.29-3.51-1.99-5.52-1.99c-4.76,0-8.64,3.87-8.64,8.64
		S11.41,33.63,16.18,33.63z"/>
	<path class="st0" d="M25.46,45.7c-1.13-0.23-2.23,0.49-2.47,1.62c-0.66,3.21-3.53,5.54-6.81,5.54c-3.84,0-6.96-3.12-6.96-6.96
		c0-3.84,3.12-6.96,6.96-6.96c1.98,0,3.87,0.85,5.2,2.33c0.77,0.86,2.09,0.94,2.95,0.17c0.86-0.77,0.94-2.09,0.17-2.95
		c-2.11-2.37-5.14-3.73-8.31-3.73c-6.14,0-11.13,4.99-11.13,11.13c0,6.14,4.99,11.13,11.13,11.13c5.26,0,9.84-3.73,10.9-8.88
		C27.31,47.04,26.59,45.94,25.46,45.7z"/>
	<path class="st0" d="M13.87,24.6c0,1.37,1.12,2.49,2.49,2.49c1.37,0,2.49-1.12,2.49-2.49c0-1.37-1.12-2.49-2.49-2.49
		C14.99,22.11,13.87,23.23,13.87,24.6z"/>
	<path class="st0" d="M12.11,46.03c0,2.26,1.84,4.1,4.1,4.1c2.26,0,4.1-1.84,4.1-4.1c0-2.26-1.84-4.1-4.1-4.1
		C13.95,41.93,12.11,43.77,12.11,46.03z M16.13,46.03c0-0.04,0.03-0.08,0.08-0.08c0.04,0,0.08,0.03,0.08,0.08
		C16.29,46.12,16.13,46.12,16.13,46.03z"/>
	<path class="st0" d="M80.84,0.05H42.16c-3.1,0-5.62,2.52-5.62,5.62v53.65c0,3.1,2.52,5.62,5.62,5.62h38.67
		c3.1,0,5.62-2.52,5.62-5.62V27.09c0-1.15-0.94-2.09-2.09-2.09c-1.15,0-2.09,0.93-2.09,2.09v32.23c0,0.8-0.65,1.45-1.45,1.45H42.16
		c-0.8,0-1.45-0.65-1.45-1.45V5.68c0-0.8,0.65-1.45,1.45-1.45h38.67c0.8,0,1.45,0.65,1.45,1.45v9.36c0,1.15,0.94,2.09,2.09,2.09
		c1.15,0,2.09-0.93,2.09-2.09V5.68C86.46,2.58,83.94,0.05,80.84,0.05z"/>
	<path class="st0" d="M82.9,19.38c-0.39,0.39-0.61,0.93-0.61,1.48c0,0.55,0.22,1.09,0.61,1.47c0.39,0.39,0.93,0.61,1.48,0.61
		c0.55,0,1.09-0.22,1.48-0.61c0.39-0.39,0.61-0.93,0.61-1.47c0-0.55-0.22-1.09-0.61-1.48c-0.39-0.39-0.93-0.61-1.48-0.61
		C83.82,18.77,83.28,18.99,82.9,19.38z"/>
	<path class="st0" d="M63.59,42.03c0-5.55-4.52-10.07-10.07-10.07c-5.55,0-10.07,4.52-10.07,10.07c0,5.55,4.52,10.07,10.07,10.07
		C59.07,52.1,63.59,47.58,63.59,42.03z M53.52,47.92c-3.25,0-5.9-2.65-5.9-5.9c0-3.25,2.65-5.9,5.9-5.9c3.25,0,5.9,2.64,5.9,5.9
		C59.41,45.28,56.77,47.92,53.52,47.92z"/>
	<path class="st0" d="M44.86,53.29c-1.15,0-2.09,0.94-2.09,2.09c0,1.15,0.93,2.09,2.09,2.09h2.08c1.15,0,2.09-0.93,2.09-2.09
		c0-1.15-0.93-2.09-2.09-2.09H44.86z"/>
	<path class="st0" d="M53.18,53.29c-1.15,0-2.09,0.94-2.09,2.09c0,1.15,0.94,2.09,2.09,2.09h2.08c1.15,0,2.09-0.93,2.09-2.09
		c0-1.15-0.93-2.09-2.09-2.09H53.18z"/>
	<path class="st0" d="M61.08,57.46h2.08c1.15,0,2.09-0.93,2.09-2.09c0-1.15-0.93-2.09-2.09-2.09h-2.08c-1.15,0-2.09,0.94-2.09,2.09
		C59,56.53,59.93,57.46,61.08,57.46z"/>
	<path class="st0" d="M65.69,38.68C65.69,38.68,65.69,38.68,65.69,38.68l0.04,0.04c0,0,0,0,0,0c0,0,0,0,0,0c0,0,0,0,0,0c0,0,0,0,0,0
		c0,0,0,0,0,0c0,0,0,0,0.01,0.01l0,0c0,0,0,0,0,0c0,0,0,0,0,0c0,0,0,0,0,0s0,0,0,0s0,0,0,0c0,0,0,0,0,0c0,0,0,0,0,0c0,0,0,0,0,0
		c0,0,0,0,0,0l0,0c0,0,0,0,0,0c0,0,0,0,0,0c0,0,0,0,0,0c0,0,0,0,0,0c0,0,0,0,0,0h0c0,0,0,0,0,0l0,0c0,0,0,0,0,0c0,0,0,0,0,0h0
		c0,0,0,0,0,0h0c0,0,0,0,0,0c0,0,0,0,0,0c0,0,0,0,0,0c0,0,0,0,0,0h0c0,0,0,0,0,0c0,0,0,0,0,0c0,0,0,0,0,0c0,0,0,0,0,0c0,0,0,0,0,0
		c0,0,0,0,0,0s0,0,0,0c0,0,0,0,0,0s0,0,0,0c0,0,0,0,0,0c0,0,0,0,0,0c0,0,0,0,0,0s0,0,0,0l0,0c0,0,0,0,0,0
		c0.38,0.3,0.83,0.45,1.28,0.45c0,0,0.01,0,0.01,0c1.15,0,2.09-0.93,2.09-2.09c0-0.69-0.33-1.3-0.85-1.68
		c-0.23-0.18-0.67-0.46-1.3-0.46c-0.87,0-1.64,0.53-1.95,1.34c-0.31,0.8-0.07,1.73,0.56,2.3L65.69,38.68z"/>
	<path class="st0" d="M74.19,35.48c-0.23-0.18-0.67-0.46-1.3-0.46c-0.87,0-1.64,0.53-1.95,1.34c-0.31,0.8-0.07,1.73,0.56,2.3
		l0.01,0.01c0,0,0,0,0,0l0.04,0.04c0,0,0,0,0,0c0,0,0,0,0,0c0,0,0,0,0,0c0,0,0,0,0,0c0,0,0,0,0,0c0,0,0,0,0.01,0.01l0,0c0,0,0,0,0,0
		c0,0,0,0,0,0c0,0,0,0,0,0s0,0,0,0c0,0,0,0,0,0c0,0,0,0,0,0c0,0,0,0,0,0c0,0,0,0,0,0c0,0,0,0,0,0l0,0c0,0,0,0,0,0c0,0,0,0,0,0
		c0,0,0,0,0,0c0,0,0,0,0,0c0,0,0,0,0,0h0c0,0,0,0,0,0l0,0c0,0,0,0,0,0c0,0,0,0,0,0h0c0,0,0,0,0,0h0c0,0,0,0,0,0c0,0,0,0,0,0
		c0,0,0,0,0,0c0,0,0,0,0,0h0c0,0,0,0,0,0c0,0,0,0,0,0c0,0,0,0,0,0c0,0,0,0,0,0c0,0,0,0,0,0s0,0,0,0s0,0,0,0c0,0,0,0,0,0c0,0,0,0,0,0
		c0,0,0,0,0,0c0,0,0,0,0,0c0,0,0,0,0,0s0,0,0,0l0,0c0,0,0,0,0,0c0.38,0.3,0.83,0.45,1.28,0.45c0,0,0.01,0,0.01,0
		c1.15,0,2.09-0.93,2.09-2.09C75.04,36.47,74.7,35.86,74.19,35.48z"/>
	<path class="st0" d="M74.15,40.58c-0.36-0.27-0.81-0.43-1.26-0.43c-0.87,0-1.64,0.54-1.95,1.34c-0.31,0.81-0.07,1.74,0.58,2.31
		l0.03,0.03c0,0,0,0,0,0l0,0c0.33,0.3,0.73,0.47,1.14,0.51c0.08,0.01,0.17,0.02,0.25,0.02c1.15,0,2.09-0.93,2.09-2.09
		C75.04,41.58,74.69,40.96,74.15,40.58z"/>
	<path class="st0" d="M74.18,45.73c-0.37-0.28-0.83-0.45-1.29-0.45c-0.87,0-1.64,0.54-1.95,1.34c-0.31,0.81-0.06,1.74,0.58,2.31
		l0.03,0.03c0.34,0.31,0.79,0.5,1.28,0.53c0.04,0,0.08,0,0.12,0c1.15,0,2.09-0.93,2.09-2.09C75.04,46.73,74.7,46.11,74.18,45.73z"/>
	<path class="st0" d="M72.89,50.41c-0.87,0-1.64,0.54-1.95,1.34c-0.31,0.8-0.07,1.73,0.56,2.3l0.01,0.01c0,0,0,0,0,0l0.04,0.04
		c0,0,0,0,0,0c0,0,0,0,0,0c0,0,0,0,0,0c0,0,0,0,0,0c0,0,0,0,0,0c0,0,0,0,0.01,0.01l0,0c0,0,0,0,0,0c0,0,0,0,0,0c0,0,0,0,0,0
		c0,0,0,0,0,0c0,0,0,0,0,0c0,0,0,0,0,0c0,0,0,0,0,0c0,0,0,0,0,0c0,0,0,0,0,0l0,0c0,0,0,0,0,0c0,0,0,0,0,0c0,0,0,0,0,0c0,0,0,0,0,0
		c0,0,0,0,0,0l0,0c0,0,0,0,0,0l0,0c0,0,0,0,0,0c0,0,0,0,0,0h0c0,0,0,0,0,0l0,0c0,0,0,0,0,0c0,0,0,0,0,0c0,0,0,0,0,0c0,0,0,0,0,0
		c0,0,0,0,0,0c0,0,0,0,0,0c0,0,0,0,0,0c0,0,0,0,0,0c0,0,0,0,0,0c0,0,0,0,0,0s0,0,0,0c0,0,0,0,0,0c0,0,0,0,0,0c0,0,0,0,0,0
		c0,0,0,0,0,0c0,0,0,0,0,0c0,0,0,0,0,0s0,0,0,0h0c0,0,0,0,0,0c0.38,0.3,0.83,0.45,1.28,0.45c0,0,0.01,0,0.01,0
		c1.15,0,2.09-0.93,2.09-2.09c0-0.69-0.33-1.3-0.85-1.68C73.96,50.68,73.52,50.41,72.89,50.41z"/>
	<path class="st0" d="M80.01,35.48c-0.23-0.18-0.67-0.46-1.3-0.46c-0.87,0-1.64,0.53-1.95,1.34c-0.31,0.8-0.07,1.73,0.56,2.3
		l0.01,0.01c0,0,0,0,0,0l0.04,0.04c0,0,0,0,0,0c0,0,0,0,0,0c0,0,0,0,0,0c0,0,0,0,0,0c0,0,0,0,0,0c0,0,0,0,0.01,0.01l0,0c0,0,0,0,0,0
		c0,0,0,0,0,0c0,0,0,0,0,0s0,0,0,0c0,0,0,0,0,0c0,0,0,0,0,0c0,0,0,0,0,0c0,0,0,0,0,0c0,0,0,0,0,0l0,0c0,0,0,0,0,0c0,0,0,0,0,0
		c0,0,0,0,0,0c0,0,0,0,0,0c0,0,0,0,0,0h0c0,0,0,0,0,0l0,0c0,0,0,0,0,0c0,0,0,0,0,0h0c0,0,0,0,0,0h0c0,0,0,0,0,0c0,0,0,0,0,0
		c0,0,0,0,0,0c0,0,0,0,0,0h0c0,0,0,0,0,0c0,0,0,0,0,0c0,0,0,0,0,0c0,0,0,0,0,0s0,0,0,0c0,0,0,0,0,0s0,0,0,0c0,0,0,0,0,0c0,0,0,0,0,0
		c0,0,0,0,0,0c0,0,0,0,0,0c0,0,0,0,0,0s0,0,0,0l0,0c0,0,0,0,0,0c0.38,0.3,0.83,0.45,1.28,0.45c0,0,0.01,0,0.01,0
		c1.15,0,2.09-0.93,2.09-2.09C80.86,36.47,80.53,35.86,80.01,35.48z"/>
	<path class="st0" d="M79.98,40.58c-0.36-0.27-0.81-0.43-1.26-0.43c-0.87,0-1.64,0.54-1.95,1.34c-0.31,0.81-0.07,1.74,0.58,2.31
		l0.04,0.03c0,0,0,0,0,0v0c0.33,0.3,0.73,0.47,1.14,0.51c0.08,0.01,0.17,0.02,0.25,0.02c1.15,0,2.09-0.93,2.09-2.09
		C80.86,41.58,80.51,40.96,79.98,40.58z"/>
	<path class="st0" d="M80.01,45.73c-0.37-0.28-0.83-0.45-1.29-0.45c-0.87,0-1.64,0.54-1.95,1.34c-0.31,0.81-0.06,1.74,0.58,2.31
		l0.03,0.03c0.34,0.31,0.79,0.5,1.28,0.53c0.04,0,0.08,0,0.12,0c1.15,0,2.09-0.93,2.09-2.09C80.86,46.73,80.52,46.11,80.01,45.73z"
		/>
	<path class="st0" d="M78.71,50.41c-0.87,0-1.64,0.54-1.95,1.34c-0.31,0.8-0.07,1.73,0.56,2.3l0.01,0.01c0,0,0,0,0,0l0.04,0.04
		c0,0,0,0,0,0c0,0,0,0,0,0c0,0,0,0,0,0c0,0,0,0,0,0c0,0,0,0,0,0c0,0,0,0,0.01,0.01l0,0c0,0,0,0,0,0c0,0,0,0,0,0c0,0,0,0,0,0
		c0,0,0,0,0,0c0,0,0,0,0,0c0,0,0,0,0,0c0,0,0,0,0,0c0,0,0,0,0,0c0,0,0,0,0,0l0,0c0,0,0,0,0,0c0,0,0,0,0,0c0,0,0,0,0,0c0,0,0,0,0,0
		c0,0,0,0,0,0l0,0c0,0,0,0,0,0l0,0c0,0,0,0,0,0c0,0,0,0,0,0h0c0,0,0,0,0,0l0,0c0,0,0,0,0,0c0,0,0,0,0,0c0,0,0,0,0,0c0,0,0,0,0,0
		c0,0,0,0,0,0c0,0,0,0,0,0c0,0,0,0,0,0c0,0,0,0,0,0c0,0,0,0,0,0c0,0,0,0,0,0c0,0,0,0,0,0c0,0,0,0,0,0c0,0,0,0,0,0c0,0,0,0,0,0
		c0,0,0,0,0,0c0,0,0,0,0,0c0,0,0,0,0,0s0,0,0,0h0c0,0,0,0,0,0c0.38,0.3,0.83,0.45,1.28,0.45c0,0,0.01,0,0.01,0
		c1.15,0,2.09-0.93,2.09-2.09c0-0.69-0.33-1.3-0.85-1.68C79.78,50.68,79.34,50.41,78.71,50.41z"/>
	<path class="st0" d="M65.67,44.07l0.01,0.01c0,0,0,0,0,0l0.04,0.04c0,0,0,0,0,0h0c0,0,0,0,0,0c0,0,0,0,0,0c0,0,0,0,0,0
		c0,0,0,0,0.01,0.01v0c0,0,0,0,0,0c0,0,0,0,0,0c0,0,0,0,0,0c0,0,0,0,0,0c0,0,0,0,0,0c0,0,0,0,0,0c0,0,0,0,0,0c0,0,0,0,0,0
		c0,0,0,0,0,0h0c0,0,0,0,0,0c0,0,0,0,0,0c0,0,0,0,0,0c0,0,0,0,0,0c0,0,0,0,0,0c0,0,0,0,0,0c0,0,0,0,0,0l0,0c0,0,0,0,0,0c0,0,0,0,0,0
		h0c0,0,0,0,0,0l0,0c0,0,0,0,0,0c0,0,0,0,0,0c0,0,0,0,0,0c0,0,0,0,0,0h0c0,0,0,0,0,0c0,0,0,0,0,0c0,0,0,0,0,0c0,0,0,0,0,0
		c0,0,0,0,0,0c0,0,0,0,0,0s0,0,0,0c0,0,0,0,0,0c0,0,0,0,0,0c0,0,0,0,0,0c0,0,0,0,0,0c0,0,0,0,0,0s0,0,0,0l0,0c0,0,0,0,0,0
		c0.38,0.3,0.83,0.45,1.28,0.45c0,0,0.01,0,0.01,0c1.15,0,2.09-0.93,2.09-2.09c0-0.69-0.33-1.3-0.85-1.68
		c-0.23-0.18-0.67-0.46-1.3-0.46c-0.87,0-1.64,0.54-1.95,1.34C64.81,42.58,65.04,43.5,65.67,44.07z"/>
	<path class="st0" d="M65.83,49.08C65.83,49.08,65.83,49.08,65.83,49.08l0.04,0.04l0,0c0.37,0.33,0.83,0.5,1.3,0.52
		c0.03,0,0.06,0,0.1,0c1.15,0,2.09-0.93,2.09-2.09c0-0.69-0.34-1.31-0.86-1.69c-0.24-0.18-0.67-0.45-1.3-0.45
		c-0.87,0-1.64,0.54-1.95,1.35c-0.3,0.8-0.07,1.73,0.57,2.3L65.83,49.08z"/>
	<path class="st0" d="M53.6,36.65c-0.55,0-1.09,0.22-1.47,0.61c-0.39,0.39-0.61,0.93-0.61,1.48s0.23,1.09,0.61,1.47
		c0.39,0.39,0.93,0.61,1.47,0.61c0.55,0,1.09-0.23,1.48-0.61c0.39-0.39,0.61-0.93,0.61-1.47s-0.22-1.09-0.61-1.48
		C54.69,36.87,54.15,36.65,53.6,36.65z"/>
	<path class="st0" d="M46.94,11.3h2.5c1.15,0,2.09-0.93,2.09-2.09c0-1.15-0.93-2.09-2.09-2.09h-2.5c-1.15,0-2.09,0.93-2.09,2.09
		C44.86,10.36,45.79,11.3,46.94,11.3z"/>
	<path class="st0" d="M46.94,17.54h2.5c1.15,0,2.09-0.93,2.09-2.09c0-1.15-0.93-2.09-2.09-2.09h-2.5c-1.15,0-2.09,0.93-2.09,2.09
		C44.86,16.6,45.79,17.54,46.94,17.54z"/>
	<path class="st0" d="M46.94,23.78h2.5c1.15,0,2.09-0.93,2.09-2.09c0-1.15-0.93-2.09-2.09-2.09h-2.5c-1.15,0-2.09,0.93-2.09,2.09
		C44.86,22.84,45.79,23.78,46.94,23.78z"/>
	<path class="st0" d="M46.94,30.01h2.5c1.15,0,2.09-0.94,2.09-2.09c0-1.15-0.93-2.09-2.09-2.09h-2.5c-1.15,0-2.09,0.93-2.09,2.09
		C44.86,29.08,45.79,30.01,46.94,30.01z"/>
	<path class="st0" d="M56.09,17.54h2.5c1.15,0,2.09-0.93,2.09-2.09c0-1.15-0.94-2.09-2.09-2.09h-2.5c-1.15,0-2.09,0.93-2.09,2.09
		C54.01,16.6,54.94,17.54,56.09,17.54z"/>
	<path class="st0" d="M56.09,23.77h2.5c1.15,0,2.09-0.93,2.09-2.09s-0.94-2.09-2.09-2.09h-2.5c-1.15,0-2.09,0.93-2.09,2.09
		S54.94,23.77,56.09,23.77z"/>
	<path class="st0" d="M56.09,30.01h2.5c1.15,0,2.09-0.94,2.09-2.09c0-1.15-0.94-2.09-2.09-2.09h-2.5c-1.15,0-2.09,0.93-2.09,2.09
		C54.01,29.08,54.94,30.01,56.09,30.01z"/>
	<path class="st0" d="M67.74,25.84h-2.49c-1.15,0-2.09,0.93-2.09,2.09c0,1.15,0.93,2.09,2.09,2.09h2.49c1.15,0,2.09-0.94,2.09-2.09
		C69.83,26.77,68.89,25.84,67.74,25.84z"/>
	<path class="st0" d="M67.74,19.18h-2.49c-1.15,0-2.09,0.93-2.09,2.09c0,1.15,0.93,2.09,2.09,2.09h2.49c1.15,0,2.09-0.93,2.09-2.09
		C69.83,20.12,68.89,19.18,67.74,19.18z"/>
	<path class="st0" d="M78.56,27.93c0-1.15-0.93-2.09-2.09-2.09h-2.5c-1.15,0-2.09,0.93-2.09,2.09c0,1.15,0.93,2.09,2.09,2.09h2.5
		C77.62,30.01,78.56,29.08,78.56,27.93z"/>
</g>
</svg>
