<?xml version="1.0" encoding="utf-8"?>
<!-- Generator: Adobe Illustrator 27.5.0, SVG Export Plug-In . SVG Version: 6.00 Build 0)  -->
<svg version="1.1" id="Capa_1" xmlns="http://www.w3.org/2000/svg" xmlns:xlink="http://www.w3.org/1999/xlink" x="0px" y="0px"
	 viewBox="0 0 89 94" style="enable-background:new 0 0 89 94;" xml:space="preserve">
<style type="text/css">
	.st0{fill:#3333FF;}
</style>
<g>
	<path class="st0" d="M85.41,23.71L60.06,2.56c-1.66-1.38-3.7-2.13-5.73-2.1c-2.14,0.03-4.02,0.89-5.31,2.43
		c0,0-12.74,15.28-25.51,30.59c-0.61,0.73-0.51,1.82,0.22,2.43c0.32,0.27,0.72,0.4,1.11,0.4c0.49,0,0.99-0.21,1.33-0.62
		C38.95,20.38,51.68,5.1,51.68,5.1c0.63-0.75,1.59-1.18,2.7-1.19c1.22-0.02,2.45,0.45,3.47,1.3L83.2,26.36
		c1.69,1.41,2.34,3.54,1.72,5.16L63.69,13.87c-0.35-0.29-0.81-0.43-1.26-0.39c-0.46,0.04-0.88,0.26-1.17,0.62L15.35,69.31
		c-0.61,0.73-0.51,1.82,0.22,2.43l21.21,17.64c-0.59,0.45-1.34,0.7-2.19,0.71c-1.21,0.02-2.45-0.45-3.47-1.3L5.78,67.64
		c-2.04-1.7-2.58-4.41-1.22-6.05l6.96-8.35c0.61-0.73,0.51-1.82-0.22-2.43c-0.73-0.61-1.82-0.51-2.43,0.22l-6.96,8.35
		c-2.59,3.1-1.84,8,1.66,10.92l25.35,21.14c1.63,1.36,3.62,2.1,5.63,2.1c0.03,0,0.07,0,0.1,0c1.95-0.02,3.68-0.75,4.94-2.04
		c0.16,0.05,0.32,0.08,0.48,0.08c0.5,0,0.99-0.21,1.33-0.62L87.3,35.74c0.43-0.52,0.5-1.21,0.25-1.78
		C89.57,30.83,88.71,26.45,85.41,23.71z M58.7,23.01l12.28,10.21l-1.03,1.24L57.67,24.25L58.7,23.01z M51.68,31.45l12.28,10.21
		l-1.03,1.24L50.65,32.69L51.68,31.45z M44.66,39.9l12.28,10.21l-1.21,1.46L43.45,41.35L44.66,39.9z M32.6,54.41l12.28,10.21
		l-1.03,1.24L31.57,55.65L32.6,54.41z M25.04,63.5l12.28,10.21l-1.03,1.24L24.01,64.74L25.04,63.5z M39.84,87.42L19.11,70.19
		l2.47-2.97l13.83,11.5c0.31,0.26,0.7,0.4,1.1,0.4c0.05,0,0.11,0,0.16-0.01c0.46-0.04,0.88-0.26,1.17-0.62l3.24-3.9
		c0.61-0.73,0.51-1.82-0.22-2.43l-13.83-11.5l2.11-2.54l13.83,11.5c0.32,0.27,0.71,0.4,1.1,0.4c0.5,0,0.99-0.21,1.33-0.62l3.24-3.9
		c0.29-0.35,0.43-0.81,0.39-1.26c-0.04-0.46-0.26-0.88-0.62-1.17l-13.83-11.5l1.93-2.32l20.73,17.23l-3.73,4.49l-4.08-3.39
		c-0.73-0.61-1.82-0.51-2.43,0.22c-0.61,0.73-0.51,1.82,0.22,2.43l4.08,3.39l-5.35,6.44l-3.39-2.82c-0.73-0.61-1.82-0.51-2.43,0.22
		c-0.61,0.73-0.51,1.82,0.22,2.43l3.39,2.82L39.84,87.42z M79.81,39.35l-4.04-3.53c-0.72-0.63-1.81-0.55-2.44,0.17
		c-0.63,0.72-0.55,1.81,0.17,2.44L77.6,42l-5,6.01l-4.16-3.46c-0.73-0.61-1.82-0.51-2.43,0.22c-0.61,0.73-0.51,1.82,0.22,2.43
		l4.16,3.46l-4.45,5.35l-4.18-3.48c-0.73-0.61-1.82-0.51-2.43,0.22c-0.61,0.73-0.51,1.82,0.22,2.43l4.18,3.48l-4.27,5.14
		L38.73,46.59l2.29-2.76l13.83,11.5c0.31,0.26,0.7,0.4,1.1,0.4c0.05,0,0.11,0,0.16-0.01c0.46-0.04,0.88-0.26,1.17-0.62l3.42-4.11
		c0.61-0.73,0.51-1.82-0.22-2.43l-13.83-11.5l1.57-1.89l13.83,11.5c0.32,0.27,0.71,0.4,1.1,0.4c0.5,0,0.99-0.21,1.33-0.62l3.24-3.9
		c0.29-0.35,0.43-0.81,0.39-1.26c-0.04-0.46-0.26-0.88-0.62-1.17l-13.83-11.5l1.57-1.89l13.83,11.5c0.32,0.27,0.71,0.4,1.1,0.4
		c0.5,0,0.99-0.21,1.33-0.62l3.24-3.9c0.29-0.35,0.43-0.81,0.39-1.26c-0.04-0.46-0.26-0.88-0.62-1.17L60.7,20.17l2.11-2.54
		l20.73,17.23L79.81,39.35z"/>
	<path class="st0" d="M19.9,40.7c0.27,0.18,0.61,0.28,0.95,0.28c0.48,0,0.97-0.19,1.36-0.66c0.18-0.21,0.29-0.46,0.35-0.71
		c0.48-1.32-0.6-2.06-0.65-2.09c-0.64-0.42-1.64-0.43-2.32,0.38c-0.18,0.21-0.29,0.45-0.35,0.71C18.76,39.94,19.85,40.67,19.9,40.7z
		"/>
	<path class="st0" d="M13.42,50c0.49,0,0.99-0.21,1.33-0.62l4.1-4.91c0.61-0.73,0.51-1.82-0.22-2.43c-0.73-0.61-1.82-0.51-2.43,0.22
		l-4.1,4.91c-0.61,0.73-0.51,1.82,0.22,2.43C12.64,49.86,13.03,50,13.42,50z"/>
	<path class="st0" d="M7.7,61.83c-0.62,0.73-0.53,1.82,0.2,2.44l4.71,4c0.33,0.28,0.72,0.41,1.12,0.41c0.49,0,0.98-0.21,1.32-0.61
		c0.62-0.73,0.53-1.82-0.2-2.44l-4.71-4C9.4,61.01,8.31,61.1,7.7,61.83z"/>
	<path class="st0" d="M16.69,64.44c0.49,0,0.98-0.21,1.32-0.61c0.62-0.73,0.53-1.82-0.2-2.44l-4.71-4c-0.73-0.62-1.82-0.53-2.44,0.2
		c-0.62,0.73-0.53,1.82,0.2,2.44l4.71,4C15.9,64.3,16.29,64.44,16.69,64.44z"/>
	<path class="st0" d="M20.22,60.1c0.49,0,0.98-0.21,1.32-0.61c0.62-0.73,0.53-1.82-0.2-2.44l-4.7-4c-0.73-0.62-1.82-0.53-2.44,0.2
		c-0.62,0.73-0.53,1.82,0.2,2.44l4.71,4C19.42,59.96,19.82,60.1,20.22,60.1z"/>
	<path class="st0" d="M17.95,48.59c-0.62,0.73-0.53,1.82,0.2,2.44l4.71,4c0.32,0.28,0.72,0.41,1.12,0.41c0.49,0,0.98-0.21,1.32-0.61
		c0.62-0.73,0.53-1.82-0.2-2.44l-4.71-4C19.66,47.78,18.57,47.86,17.95,48.59z"/>
	<path class="st0" d="M39.87,30c-0.54-0.03-1.05,0.19-1.41,0.59c-0.63,0.71-0.57,1.81,0.15,2.44c0.08,0.07,0.17,0.14,0.27,0.19
		c0.31,0.26,0.7,0.39,1.1,0.39c0.35,0,0.7-0.11,1.01-0.33c0.77-0.56,0.95-1.64,0.39-2.41C40.87,30.19,40.28,30.02,39.87,30z"/>
	<path class="st0" d="M43.22,25.98c-0.54-0.03-1.05,0.19-1.41,0.59c-0.63,0.71-0.57,1.8,0.14,2.44c0.08,0.08,0.17,0.14,0.27,0.2
		c0.31,0.26,0.7,0.39,1.1,0.39c0.35,0,0.7-0.11,1.01-0.33c0.77-0.56,0.95-1.64,0.39-2.41C44.22,26.17,43.63,26,43.22,25.98z"/>
	<path class="st0" d="M46.58,21.96c-0.54-0.03-1.05,0.19-1.41,0.59c-0.64,0.71-0.58,1.8,0.14,2.44c0.09,0.08,0.18,0.14,0.27,0.2
		c0.31,0.26,0.7,0.39,1.1,0.39c0.35,0,0.7-0.11,1.01-0.33c0.77-0.56,0.95-1.64,0.39-2.41C47.58,22.15,46.99,21.98,46.58,21.96z"/>
	<path class="st0" d="M49.93,17.94c-0.54-0.03-1.05,0.19-1.41,0.59c-0.63,0.71-0.57,1.8,0.14,2.44c0.08,0.08,0.17,0.14,0.27,0.2
		c0.31,0.26,0.7,0.39,1.1,0.39c0.35,0,0.7-0.11,1.01-0.33c0.77-0.56,0.95-1.64,0.39-2.41C50.93,18.13,50.34,17.96,49.93,17.94z"/>
	<path class="st0" d="M53.29,13.92c-0.54-0.03-1.05,0.19-1.41,0.59c-0.64,0.71-0.58,1.8,0.14,2.44c0.08,0.08,0.18,0.14,0.27,0.2
		c0.31,0.26,0.71,0.39,1.1,0.39c0.35,0,0.7-0.11,1.01-0.33c0.77-0.56,0.95-1.64,0.39-2.41C54.28,14.11,53.69,13.94,53.29,13.92z"/>
	<path class="st0" d="M55.64,13.13c0.31,0.26,0.71,0.39,1.1,0.39c0.35,0,0.7-0.11,1.01-0.33c0.77-0.56,0.95-1.64,0.39-2.41
		c-0.5-0.69-1.09-0.86-1.49-0.88c-0.54-0.03-1.05,0.18-1.41,0.58c-0.64,0.71-0.58,1.8,0.13,2.44C55.45,13,55.54,13.07,55.64,13.13z"
		/>
	<path class="st0" d="M24.41,45.17c-0.57,0.77-0.4,1.85,0.37,2.42l1.88,1.38c0.31,0.23,0.67,0.34,1.02,0.34
		c0.53,0,1.05-0.24,1.39-0.7c0.57-0.77,0.4-1.85-0.37-2.42l-1.88-1.38C26.05,44.24,24.97,44.41,24.41,45.17z"/>
	<path class="st0" d="M27.95,43.31c0.31,0.23,0.67,0.34,1.02,0.34c0.53,0,1.05-0.24,1.39-0.7c0.57-0.77,0.4-1.85-0.37-2.42
		l-1.88-1.38c-0.77-0.57-1.85-0.4-2.42,0.37c-0.57,0.77-0.4,1.85,0.37,2.42L27.95,43.31z"/>
	<path class="st0" d="M33.53,40.91c0.31,0.23,0.67,0.34,1.02,0.34c0.53,0,1.05-0.24,1.39-0.7c0.57-0.77,0.4-1.85-0.37-2.42
		l-1.88-1.38c-0.77-0.57-1.85-0.4-2.42,0.37c-0.57,0.77-0.4,1.85,0.37,2.42L33.53,40.91z"/>
</g>
</svg>
