<?xml version="1.0" encoding="utf-8"?>
<!-- Generator: Adobe Illustrator 27.5.0, SVG Export Plug-In . SVG Version: 6.00 Build 0)  -->
<svg version="1.1" id="Capa_1" xmlns="http://www.w3.org/2000/svg" xmlns:xlink="http://www.w3.org/1999/xlink" x="0px" y="0px"
	 viewBox="0 0 106 114" style="enable-background:new 0 0 106 114;" xml:space="preserve">
<style type="text/css">
	.st0{fill:#3333FF;}
</style>
<g>
	<path class="st0" d="M102.28,9.2c1.46-1.25,2.12-3.18,1.67-5.08c-0.32-1.34-1.13-2.48-2.3-3.21c-1.16-0.72-2.57-0.95-3.9-0.64
		c-2.02,0.47-3.6,2.17-3.92,4.22c-0.12,0.78-0.09,1.52,0.09,2.18c0.02,0.06,0.04,0.1,0.06,0.15l-9.79,6.63
		c-0.81,0.55-1.11,1.6-0.71,2.5c0.47,1.05,0.55,1.93,0.25,2.69c-0.54,1.33-2.12,2.01-2.13,2.01c-0.27,0.11-0.52,0.28-0.72,0.49
		L52.42,51.22c0.14-0.49,0.11-1-0.12-1.46c-0.34-0.7-1.04-1.13-1.81-1.13c-0.31,0-0.61,0.07-0.89,0.21L1.38,72.44
		c-0.8,0.39-1.25,1.28-1.1,2.16c0.01,0.06,0.03,0.13,0.04,0.19c0.22,0.81,0.9,1.38,1.73,1.47l32.01,3.5l4.9,32.39
		c0.13,0.89,0.85,1.59,1.74,1.7c0.08,0.01,0.17,0.02,0.25,0.02c0.81,0,1.54-0.48,1.86-1.23l21.37-50.58
		c0.21-0.5,0.21-1.05,0.01-1.54c-0.2-0.5-0.59-0.89-1.09-1.1c-0.25-0.11-0.51-0.16-0.78-0.16c-0.81,0-1.54,0.48-1.86,1.23
		l-18.59,43.99l-4.06-26.85c-0.14-0.9-0.87-1.61-1.78-1.7L9.42,73l41.72-20.42l-4.54,4.8c-0.49,0.52-0.67,1.23-0.48,1.92
		c0.1,0.36,0.29,0.68,0.56,0.94c0.38,0.36,0.87,0.55,1.39,0.55c0.55,0,1.09-0.23,1.47-0.63l32.01-33.85l2.55,2.12L51.92,62.37
		c-0.49,0.52-0.67,1.23-0.48,1.92c0.1,0.36,0.29,0.68,0.56,0.93c0.38,0.36,0.87,0.55,1.39,0.55c0.55,0,1.09-0.23,1.47-0.63
		L87.87,30.3l4.53-1.25c0.05-0.01,0.09-0.03,0.13-0.05c0.15,0.08,0.32,0.15,0.49,0.19c0.15,0.04,0.31,0.06,0.47,0.06c0,0,0,0,0,0
		c0.94,0,1.74-0.64,1.96-1.55c0.03-0.12,3.04-12.61,6.62-18.06C102.16,9.49,102.23,9.35,102.28,9.2z M98.7,7.41
		c-0.04,0.06-0.07,0.12-0.11,0.18c0.06-0.56-0.1-1.15-0.51-1.59c-0.27-0.29-0.34-0.37-0.26-0.88c0.07-0.43,0.43-0.82,0.85-0.92
		c0.29-0.07,0.59-0.02,0.85,0.14c0.26,0.16,0.44,0.41,0.5,0.7c0.11,0.45-0.07,0.91-0.45,1.18c-0.38,0.27-0.63,0.65-0.76,1.06
		C98.78,7.33,98.73,7.36,98.7,7.41z M91.87,25.09c-0.18,0-0.36,0.02-0.54,0.07l-3.65,1l-3.11-2.58c0.99-0.67,2.22-1.77,2.89-3.42
		c0.54-1.32,0.62-2.74,0.26-4.22l8.58-5.81c0.29-0.2,0.52-0.47,0.67-0.78c0.28-0.05,0.55-0.17,0.78-0.34
		c-2.74,5.03-4.93,12.72-5.81,16.09C91.92,25.09,91.9,25.09,91.87,25.09z"/>
	<path class="st0" d="M98.7,24.07c-0.13-0.02-0.26-0.04-0.38-0.04c-0.96,0-1.8,0.69-1.98,1.64l-0.13,0.69
		c-0.06,0.3-0.05,0.61,0.03,0.91c0.2,0.75,0.8,1.31,1.57,1.45c0.13,0.02,0.26,0.04,0.38,0.04h0c0.96,0,1.8-0.69,1.98-1.64l0.13-0.69
		C100.51,25.34,99.8,24.28,98.7,24.07z"/>
	<path class="st0" d="M100.77,19.36c-0.2-0.06-0.41-0.1-0.62-0.1c-0.88,0-1.65,0.56-1.92,1.4l-0.22,0.67
		c-0.12,0.37-0.13,0.77-0.03,1.15c0.18,0.66,0.68,1.18,1.33,1.39c0.2,0.06,0.41,0.1,0.62,0.1c0,0,0,0,0,0c0.88,0,1.65-0.56,1.92-1.4
		l0.22-0.67C102.41,20.84,101.83,19.7,100.77,19.36z"/>
	<path class="st0" d="M102.6,14.78c-0.2-0.06-0.41-0.1-0.62-0.1c-0.88,0-1.65,0.56-1.92,1.4l-0.22,0.67
		c-0.12,0.37-0.13,0.77-0.03,1.15c0.18,0.66,0.68,1.18,1.33,1.39c0.2,0.06,0.41,0.1,0.62,0.1c0.88,0,1.65-0.56,1.92-1.4l0.22-0.67
		C104.25,16.26,103.66,15.12,102.6,14.78z"/>
	<path class="st0" d="M105.52,10.8c-0.25-0.48-0.66-0.83-1.18-1c-0.2-0.06-0.41-0.1-0.62-0.1c-0.88,0-1.65,0.56-1.92,1.4l-0.21,0.67
		c-0.12,0.37-0.13,0.77-0.03,1.15c0.18,0.66,0.68,1.18,1.33,1.39c0.2,0.06,0.41,0.1,0.62,0.1c0.88,0,1.65-0.56,1.92-1.4l0.21-0.67
		C105.81,11.82,105.77,11.28,105.52,10.8z"/>
	<path class="st0" d="M50.76,69.85c0.55,0,1.09-0.23,1.47-0.63c0.37-0.39,0.57-0.9,0.55-1.44c-0.02-0.54-0.24-1.04-0.63-1.41
		l-6.55-6.18c-0.38-0.36-0.87-0.55-1.39-0.55c-0.55,0-1.09,0.23-1.47,0.63c-0.49,0.52-0.67,1.23-0.48,1.92
		c0.1,0.36,0.29,0.68,0.56,0.94l6.55,6.18C49.75,69.66,50.24,69.85,50.76,69.85z"/>
	<path class="st0" d="M47.21,73.61c0.55,0,1.09-0.23,1.47-0.63c0.76-0.81,0.73-2.09-0.08-2.85l-6.55-6.18
		c-0.38-0.36-0.87-0.55-1.39-0.55c-0.55,0-1.09,0.23-1.47,0.63c-0.49,0.52-0.67,1.23-0.48,1.92c0.1,0.36,0.29,0.68,0.56,0.94
		l6.55,6.18C46.2,73.41,46.7,73.61,47.21,73.61z"/>
	<path class="st0" d="M37.25,67c-0.55,0-1.09,0.23-1.47,0.63c-0.49,0.52-0.67,1.23-0.48,1.92c0.1,0.36,0.29,0.68,0.56,0.94
		l6.55,6.18c0.38,0.35,0.87,0.55,1.38,0.55c0,0,0,0,0,0c0.55,0,1.09-0.23,1.47-0.63c0.76-0.81,0.73-2.09-0.08-2.85l-6.55-6.18
		C38.26,67.2,37.77,67,37.25,67z"/>
</g>
</svg>
