<?xml version="1.0" encoding="utf-8"?>
<!-- Generator: Adobe Illustrator 27.5.0, SVG Export Plug-In . SVG Version: 6.00 Build 0)  -->
<svg version="1.1" id="Capa_1" xmlns="http://www.w3.org/2000/svg" xmlns:xlink="http://www.w3.org/1999/xlink" x="0px" y="0px"
	 viewBox="0 0 80 96" style="enable-background:new 0 0 80 96;" xml:space="preserve">
<style type="text/css">
	.st0{fill:#3333FF;}
</style>
<g>
	<path class="st0" d="M71.28,20.28c-0.48,0.01-0.94,0.23-1.26,0.59c-0.45,0.51-0.56,1.25-0.27,1.87c0.03,0.07,0.07,0.13,0.11,0.2
		c0.11,0.2,0.27,0.38,0.45,0.52c0.42,0.32,0.84,0.48,1.27,0.47c0.73-0.02,1.19-0.53,1.27-0.63c0.52-0.63,0.68-1.64-0.4-2.59
		C72.13,20.42,71.71,20.27,71.28,20.28z"/>
	<path class="st0" d="M79.45,5.16c-0.34-0.89-0.39-1.88-0.3-2.05c0.29-0.36,0.43-0.81,0.38-1.27c-0.05-0.46-0.27-0.87-0.63-1.16
		c-0.51-0.41-1.23-0.5-1.82-0.23c-0.23,0.11-0.43,0.26-0.59,0.46c-0.05,0.03-0.25,0.09-0.66,0.1c-0.39,0.01-0.83-0.03-1.17-0.11
		c-0.15-0.04-0.3-0.05-0.45-0.05c-0.78,0.02-1.45,0.56-1.64,1.33c-0.09,0.38-0.05,0.78,0.11,1.13c0.22,0.48,0.65,0.83,1.16,0.95
		c0.28,0.07,1.01,0.22,1.88,0.22c0.12,0.89,0.38,1.62,0.49,1.92c0.08,0.2,0.2,0.38,0.34,0.54c-0.08-0.02-0.17-0.04-0.25-0.05
		c-0.14-0.01-0.44-0.04-0.8-0.03c-0.59,0.01-1.44,0.12-2.11,0.52c-0.09,0.05-0.17,0.12-0.25,0.19c0.7-1.08,0.35-2.39-0.21-3.21
		c-0.33-0.49-0.88-0.77-1.48-0.76c-0.33,0.01-0.65,0.11-0.92,0.3c-0.38,0.26-0.64,0.65-0.73,1.1c-0.08,0.39-0.01,0.79,0.17,1.12
		c-0.01,0.01-0.01,0.01-0.02,0.02l-0.52,0.62c-0.09-0.08-0.19-0.17-0.3-0.26c-0.33-0.29-0.75-0.44-1.19-0.43
		C67.61,6.08,67.28,6.19,67,6.39c0.13-0.27,0.19-0.58,0.16-0.89l-0.01-0.07c-0.09-0.94-0.93-1.65-1.88-1.56
		c-0.46,0.04-0.88,0.26-1.17,0.62c-0.29,0.35-0.43,0.8-0.39,1.26l0.01,0.07c0.02,0.2,0.07,0.39,0.15,0.57
		c0.29,0.62,0.92,1.02,1.61,1c0.04,0,0.08,0,0.12-0.01c0.31-0.03,0.59-0.14,0.84-0.31c-0.21,0.46-0.22,0.99,0,1.46
		c0.1,0.22,0.24,0.41,0.42,0.56C66.98,9.2,67.09,9.3,67.2,9.4l-1.38,1.63c-0.24-0.22-0.58-0.51-1.04-0.91
		c-0.33-0.28-0.74-0.43-1.17-0.42c-0.34,0.01-0.66,0.12-0.94,0.31c0.24-0.53,0.21-1.17-0.15-1.69l-0.09-0.14
		c-0.33-0.48-0.88-0.76-1.47-0.75c-0.33,0.01-0.66,0.11-0.93,0.3c-0.7,0.48-0.95,1.38-0.59,2.15c0.04,0.09,0.09,0.17,0.14,0.25
		l0.09,0.13c0.33,0.48,0.88,0.76,1.47,0.75c0.33-0.01,0.65-0.11,0.93-0.3c-0.2,0.45-0.2,0.97,0.01,1.44
		c0.1,0.22,0.25,0.41,0.44,0.58c0.47,0.41,0.82,0.72,1.06,0.93L47.65,32.4c-2.87-1.62-5.8-2.41-8.7-2.33
		c-6.44,0.16-12.47,4.49-17.43,12.5c-0.31,0.5-0.34,1.11-0.1,1.64c0.14,0.29,0.35,0.53,0.61,0.71c0.18,0.16,0.4,0.29,0.64,0.37
		c1.31,0.4,1.51,1.02,1.57,1.22c0.44,1.34-0.64,3.97-2.8,6.86c-1.09,1.46-2.71,2.36-4.33,2.4c-0.26,0.01-0.51-0.01-0.74-0.05
		c-1-0.17-1.65-0.71-1.93-1.61c-0.23-0.74-0.92-1.23-1.69-1.22c-0.16,0-0.32,0.03-0.47,0.08c-0.01,0-0.02,0.01-0.02,0.01
		c-0.12-0.02-0.24-0.03-0.37-0.03c-0.39,0.01-0.76,0.15-1.06,0.4C1.1,61.48-2.04,72.08,2.45,81.72c0.4,0.85,0.86,1.7,1.37,2.53
		c0.82,1.33,1.99,2.66,3.42,3.92l-0.49,0.79c-0.07,0.12-0.13,0.24-0.17,0.37l-2.91,3.57c-0.42,0.51-0.51,1.23-0.23,1.82
		c0.11,0.24,0.27,0.44,0.47,0.61c0.32,0.26,0.72,0.4,1.14,0.39c0,0,0,0,0,0c0.5-0.01,0.98-0.24,1.29-0.63l3.84-4.71l0,0
		c3.8,2.42,8.64,4.11,13.73,3.98c0.4-0.01,0.81-0.03,1.21-0.07c5.69-0.48,13.51-3.57,18.41-15.58c0.36-0.88-0.06-1.89-0.95-2.25
		c-0.1-0.04-0.21-0.1-0.32-0.12c-0.18-0.05-0.37-0.1-0.57-0.1h0l-0.04-0.01c-0.89,0.02-1.56-0.32-1.99-1.09
		c-0.67-1.2-0.73-3.32,0.67-5.41c1.77-2.66,4.35-4.61,6.14-4.66c0.81-0.02,1.47,0.35,2.08,1.16c0.34,0.45,0.87,0.71,1.43,0.7
		c0.04,0,0.07-0.01,0.11-0.01c0.14,0.03,0.27,0.04,0.41,0.04c0.65-0.02,1.23-0.39,1.51-0.98c0.19-0.39,0.83-1.2,1.44-1.98
		c3.53-4.48,10.87-13.79,1.78-25.06l12.56-17.78c0.25,0.12,0.52,0.18,0.8,0.17c0.48-0.01,0.94-0.23,1.26-0.59
		c0.3-0.35,0.45-0.79,0.42-1.25c-0.03-0.43-0.21-0.82-0.51-1.12l1.23-1.74l0.56,0.49c0.33,0.29,0.75,0.44,1.18,0.43
		c0.17,0,0.34-0.04,0.5-0.09c-0.04,0.32,0,0.66,0.15,0.97c0.03,0.07,0.07,0.13,0.11,0.2c0.11,0.2,0.27,0.38,0.45,0.52
		c0.42,0.32,0.84,0.48,1.27,0.47c0.73-0.02,1.19-0.53,1.27-0.63c0.52-0.63,0.68-1.64-0.4-2.59c-0.33-0.29-0.75-0.44-1.18-0.43
		c-0.17,0-0.34,0.04-0.5,0.09c0.08-0.56-0.12-1.14-0.57-1.54l-0.83-0.72l2.41-3.41c0.01-0.01,0.01-0.02,0.02-0.02
		c0.06,0,0.12-0.01,0.19-0.01c0.14,0,0.27,0,0.37,0.01c0.96,0.09,1.8-0.62,1.89-1.55c0.05-0.46-0.09-0.91-0.38-1.26
		c-0.02-0.02-0.04-0.04-0.06-0.06c0.15,0.04,0.3,0.06,0.46,0.05c0.2-0.01,0.39-0.04,0.58-0.11C79.34,7.05,79.79,6.05,79.45,5.16z
		 M50.73,61.83c-0.27,0.34-0.51,0.65-0.74,0.94c-1.05-0.81-2.28-1.22-3.62-1.18c-3.59,0.1-7.05,3.4-8.92,6.21
		c-1.83,2.74-2.22,6.03-1.03,8.59c0.07,0.15,0.15,0.3,0.23,0.45c0.66,1.18,1.64,2.04,2.81,2.49c-3.38,7.01-8.41,10.97-14.64,11.5
		c-0.33,0.03-0.66,0.05-0.99,0.05c-3.98,0.1-7.91-1.15-11.09-3l14.73-14.23c0.35-0.34,0.55-0.82,0.53-1.32
		c-0.02-0.49-0.25-0.95-0.63-1.27l-4.77-3.89c-0.38-0.31-0.88-0.45-1.38-0.37c-0.49,0.08-0.92,0.37-1.18,0.79L9.09,85.19
		c-0.96-0.89-1.75-1.83-2.34-2.77c-0.43-0.69-0.81-1.39-1.14-2.1c-3.64-7.83-1.23-16.5,6.43-23.43c0.87,1.18,2.17,1.96,3.76,2.23
		c0.46,0.08,0.93,0.09,1.41,0.09c0,0,0,0,0,0c2.63,0,5.32-1.51,7.01-3.77c2.09-2.79,4.36-6.79,3.32-9.99
		c-0.27-0.82-0.84-1.83-2.05-2.63c3.06-4.47,7.67-9.14,13.56-9.29c2.07-0.05,4.19,0.48,6.32,1.57L33.15,49.47
		c-0.3,0.35-0.45,0.82-0.4,1.29c0.02,0.2,0.07,0.38,0.15,0.56c0.11,0.24,0.28,0.46,0.49,0.63l6.66,5.29
		c0.32,0.25,0.71,0.38,1.12,0.37c0.07,0,0.14-0.01,0.2-0.02c0.47-0.07,0.89-0.33,1.17-0.71l10.61-15.02
		C59.58,50.62,54.07,57.6,50.73,61.83z M17.09,78.88l4.85-7.79l1.74,1.42L17.09,78.88z M40.77,53.39l-3.83-3.04L72.41,8.6
		L40.77,53.39z"/>
</g>
</svg>
