<?xml version="1.0" encoding="utf-8"?>
<!-- Generator: Adobe Illustrator 27.5.0, SVG Export Plug-In . SVG Version: 6.00 Build 0)  -->
<svg version="1.1" id="Capa_1" xmlns="http://www.w3.org/2000/svg" xmlns:xlink="http://www.w3.org/1999/xlink" x="0px" y="0px"
	 viewBox="0 0 98 96" style="enable-background:new 0 0 98 96;" xml:space="preserve">
<style type="text/css">
	.st0{fill:#3333FF;}
</style>
<g>
	<path class="st0" d="M97.38,41.27L60.86,1.49c-0.04-0.09-0.09-0.18-0.13-0.27c-0.32-0.64-0.96-1.04-1.67-1.04
		c-0.29,0-0.56,0.06-0.82,0.19c-0.19,0.09-0.35,0.22-0.5,0.36c-0.02,0.02-0.04,0.03-0.06,0.05c-0.76,0.69-0.81,1.87-0.11,2.63
		l0.17,0.18c7.06,15.41-2.87,30.57-9.96,37.17c-1.98,1.84-3.96,3.68-5.94,5.51c0.24-0.3,0.38-0.67,0.39-1.07
		c0.02-0.5-0.15-0.97-0.49-1.34l-0.51-0.56c-0.35-0.38-0.85-0.6-1.37-0.6c-0.47,0-0.91,0.17-1.26,0.49
		c-0.37,0.34-0.58,0.79-0.6,1.29c-0.02,0.5,0.15,0.97,0.49,1.34l0.51,0.56c0.35,0.38,0.85,0.6,1.37,0.6c0.37,0,0.73-0.11,1.03-0.32
		c-0.91,0.85-1.82,1.69-2.73,2.54c-0.55,0.51-1.06,0.98-1.55,1.44c0.05-0.16,0.08-0.33,0.09-0.5c0.02-0.5-0.15-0.97-0.49-1.34
		l-0.68-0.74c-0.35-0.38-0.85-0.6-1.37-0.6c-0.47,0-0.91,0.17-1.26,0.49c-0.37,0.34-0.58,0.79-0.6,1.29
		c-0.02,0.5,0.15,0.97,0.49,1.34l0.68,0.74c0.35,0.38,0.85,0.6,1.37,0.6c0.16,0,0.31-0.02,0.46-0.06c-0.08,0.07-0.16,0.15-0.23,0.22
		l-0.08,0.07c-2.51,2.36-4.5,4.22-7.62,6.91c-3.54,3.05-6.14,7.46-7.14,12.11c-1.17,5.41-0.02,10.69,3.24,14.88
		c3.94,5.06,8.47,9.75,14.84,9.75c0.98,0,1.99-0.11,3.01-0.34c6.57-1.45,11.48-5.48,15.76-9.41c-0.08,0.54,0.07,1.1,0.47,1.53
		l0.51,0.56c0.35,0.38,0.85,0.6,1.37,0.6c0.47,0,0.91-0.17,1.26-0.49c0.76-0.69,0.81-1.87,0.11-2.63l-0.51-0.56
		c-0.35-0.38-0.85-0.6-1.37-0.6c-0.05,0-0.1,0-0.14,0.01c0.01-0.01,0.02-0.02,0.03-0.03l0.07-0.07c0.42-0.4,0.84-0.79,1.26-1.17
		c0.51-0.48,1.04-0.95,1.58-1.43c-0.01,0.07-0.02,0.15-0.02,0.22c-0.02,0.5,0.15,0.97,0.49,1.34l0.51,0.56
		c0.35,0.38,0.85,0.6,1.37,0.6c0.47,0,0.91-0.17,1.26-0.49c0.37-0.34,0.58-0.8,0.6-1.29c0.02-0.5-0.15-0.97-0.49-1.34l-0.51-0.56
		c-0.35-0.38-0.85-0.6-1.37-0.6c-0.02,0-0.04,0-0.07,0c0,0,0,0,0,0c1.13-0.99,2.28-2,3.4-3.03c0,0.02,0,0.03,0,0.05
		c-0.02,0.5,0.15,0.97,0.49,1.34l0.51,0.56c0.35,0.38,0.85,0.6,1.37,0.6c0.47,0,0.91-0.17,1.26-0.49c0.37-0.34,0.58-0.79,0.6-1.29
		c0.02-0.5-0.15-0.97-0.49-1.34l-0.51-0.56c-0.35-0.38-0.85-0.6-1.37-0.6c-0.01,0-0.03,0-0.04,0c2.03-2.01,3.93-4.19,5.46-6.67
		c5.95-9.62-0.02-15.79-5.79-21.76c-0.37-0.38-0.74-0.76-1.11-1.15c-0.35-0.37-0.83-0.57-1.34-0.57c-0.48,0-0.94,0.18-1.29,0.52
		c-0.36,0.34-0.56,0.81-0.57,1.3c-0.01,0.5,0.17,0.97,0.52,1.33c0.36,0.38,0.73,0.76,1.09,1.13l0.03,0.03
		c6.21,6.43,9.52,10.4,5.3,17.22c-2.52,4.07-6.3,7.38-9.96,10.59c-1.13,0.99-2.3,2.02-3.42,3.06c-0.44,0.41-0.89,0.83-1.35,1.26
		c-4.55,4.26-9.26,8.67-15.74,10.1c-0.75,0.17-1.5,0.25-2.21,0.25c-4.5,0-8.01-3.32-11.9-8.31c-6.03-7.74-1.54-17.63,3.39-21.88
		c3.17-2.74,5.28-4.71,7.73-7.01l0.08-0.08c0.93-0.87,1.93-1.81,3.07-2.87c3.04-2.82,6.08-5.63,9.11-8.46
		c1.78-1.66,7.87-7.79,11.29-16.96c2.11-5.65,2.73-11.3,1.87-16.68l25.74,28.04c-2.36-0.48-4.91-0.73-7.54-0.73
		c-1.47,0-2.96,0.08-4.43,0.23c-5.14,0.54-12.76,2.28-19.89,7.53c-5.09,3.75-12.12,9.77-22.12,18.95
		c-2.82,2.59-6.28,6.48-6.75,10.34c-0.69,5.66,5.47,11.27,10.01,12.64c0.9,0.27,1.83,0.41,2.76,0.41c4.61,0,8.64-3.33,10.63-5.31
		c0.12-0.11,0.23-0.21,0.35-0.32l0.2,0.21c0.35,0.38,0.85,0.6,1.37,0.6c0.47,0,0.91-0.17,1.26-0.49c0.37-0.34,0.58-0.79,0.6-1.29
		c0.02-0.5-0.15-0.97-0.49-1.34l-0.19-0.21c0,0,0.01-0.01,0.01-0.01l0.19-0.17c0.74-0.68,1.49-1.36,2.25-2.05l0.18,0.2
		c0.35,0.38,0.85,0.6,1.37,0.6c0.47,0,0.91-0.17,1.26-0.49c0.37-0.34,0.58-0.79,0.6-1.29c0.02-0.5-0.15-0.97-0.49-1.34l-0.18-0.2
		c0.59-0.55,1.18-1.1,1.77-1.65c0.09-0.09,0.19-0.18,0.29-0.27l0.2,0.22c0.35,0.38,0.85,0.6,1.37,0.6c0.47,0,0.91-0.17,1.26-0.49
		c0.37-0.34,0.58-0.79,0.6-1.29c0.02-0.5-0.15-0.97-0.49-1.34l-0.17-0.18c2.68-2.51,5.54-5.75,5.03-9.11
		c-0.54-3.58-3.03-6.07-5.25-8.29c-0.52-0.52-1-1-1.45-1.49c-0.35-0.38-0.85-0.6-1.37-0.6c-0.47,0-0.91,0.17-1.26,0.49
		c-0.37,0.34-0.58,0.79-0.6,1.29c-0.02,0.5,0.15,0.97,0.49,1.34c0.5,0.55,1.05,1.09,1.58,1.62c1.88,1.88,3.82,3.83,4.18,6.2
		c0.25,1.62-1.9,3.96-3.87,5.81L52.43,56.25c-0.35-0.38-0.85-0.6-1.37-0.6c-0.47,0-0.91,0.17-1.26,0.49
		c-0.37,0.34-0.58,0.79-0.6,1.29c-0.02,0.5,0.15,0.97,0.49,1.34L59.73,69.7c-0.11,0.1-0.22,0.2-0.32,0.3
		c-0.58,0.54-1.15,1.08-1.74,1.62L47.61,60.68c-0.35-0.38-0.85-0.6-1.37-0.6c-0.47,0-0.91,0.17-1.26,0.49
		c-0.76,0.69-0.81,1.87-0.11,2.63l10.05,10.95c-0.75,0.69-1.5,1.37-2.25,2.05c-0.07,0.06-0.14,0.13-0.21,0.19L42.43,65.44
		c-0.35-0.38-0.85-0.6-1.37-0.6c-0.47,0-0.91,0.17-1.26,0.49c-0.37,0.34-0.58,0.79-0.6,1.29c-0.02,0.5,0.15,0.97,0.49,1.34
		l10.04,10.93c-0.12,0.11-0.25,0.23-0.38,0.34c-0.02,0.02-0.04,0.04-0.06,0.05c-1.28,1.27-4.61,4.24-8.07,4.24
		c-0.57,0-1.12-0.08-1.64-0.24c-3.21-0.97-7.83-5.11-7.39-8.63c0.26-2.13,2.24-4.99,5.57-8.05c6.23-5.72,15.27-13.87,21.81-18.69
		c6.08-4.48,14.17-7.05,22.19-7.05c4.24,0,8.13,0.7,11.24,2.02c0.23,0.1,0.48,0.15,0.73,0.15c0.07,0,0.14-0.01,0.2-0.02l0.7,0.77
		c0.35,0.38,0.85,0.6,1.37,0.6c0.47,0,0.91-0.17,1.26-0.49C98.02,43.21,98.07,42.03,97.38,41.27z"/>
	<path class="st0" d="M31.05,52.67c-0.35-0.38-0.85-0.6-1.37-0.6c-0.47,0-0.91,0.17-1.26,0.49c-0.76,0.69-0.81,1.87-0.11,2.63
		l0.51,0.56c0.35,0.38,0.85,0.6,1.37,0.6c0.47,0,0.91-0.17,1.26-0.49c0.76-0.69,0.81-1.87,0.11-2.63L31.05,52.67z"/>
	<path class="st0" d="M25.39,54.15c0.47,0,0.91-0.17,1.26-0.49l2.78-2.55c0.6-0.55,0.75-1.41,0.44-2.12
		c0.27,0.15,0.58,0.23,0.89,0.23c0.47,0,0.91-0.17,1.26-0.49l2.59-2.38c0.37-0.34,0.58-0.79,0.6-1.29c0.01-0.29-0.04-0.57-0.16-0.83
		c0.27,0.15,0.58,0.23,0.89,0.23c0.47,0,0.91-0.17,1.26-0.49l2.59-2.38c0.37-0.34,0.58-0.79,0.6-1.29c0.02-0.5-0.15-0.97-0.49-1.34
		c-0.35-0.38-0.85-0.6-1.37-0.6c-0.47,0-0.91,0.17-1.26,0.49l-2.59,2.38c-0.37,0.34-0.58,0.79-0.6,1.29
		c-0.01,0.29,0.04,0.57,0.16,0.83c-0.27-0.15-0.58-0.23-0.89-0.23c-0.47,0-0.91,0.17-1.26,0.49l-2.59,2.38
		c-0.37,0.34-0.58,0.79-0.6,1.29c-0.01,0.29,0.04,0.57,0.16,0.83c-0.27-0.15-0.58-0.23-0.89-0.23c-0.47,0-0.91,0.17-1.26,0.49
		l-2.78,2.55c-0.76,0.69-0.81,1.87-0.11,2.63C24.37,53.93,24.87,54.15,25.39,54.15z"/>
	<path class="st0" d="M17.45,75.2c0.47,0,0.91-0.17,1.26-0.49c0.75-0.69,0.99-0.9,1.04-0.94c0.78-0.63,0.91-1.79,0.3-2.59
		c-0.36-0.46-0.89-0.72-1.47-0.72c-0.42,0-0.81,0.13-1.14,0.39c-0.05,0.04-0.2,0.16-1.25,1.12c-0.37,0.34-0.58,0.79-0.6,1.29
		c-0.02,0.5,0.15,0.97,0.49,1.34C16.43,74.98,16.93,75.2,17.45,75.2z"/>
	<path class="st0" d="M18.78,79.71c-0.48,0-0.93,0.18-1.28,0.51l-3.89,3.7c0.07-0.19,0.12-0.39,0.13-0.6
		c0.02-0.5-0.15-0.97-0.49-1.34l-1.12-1.22c0.91-0.82,2.22-2.02,3.63-3.31c0.37-0.34,0.58-0.79,0.6-1.29
		c0.02-0.5-0.15-0.97-0.49-1.34c-0.35-0.38-0.85-0.6-1.37-0.6c-0.47,0-0.91,0.17-1.26,0.49c-2.29,2.1-4.39,4.01-4.81,4.38
		c-0.03,0.03-0.06,0.06-0.09,0.09c-0.03,0.03-0.07,0.05-0.1,0.08c-0.14,0.13-0.26,0.27-0.35,0.43c-0.05,0.03-0.1,0.05-0.15,0.08
		c-0.57,0.36-1.21,0.54-1.9,0.54c-1.34,0-2.45-0.68-2.49-0.71c-0.3-0.2-0.65-0.3-1.01-0.3c-0.42,0-0.82,0.14-1.15,0.4
		c-0.16,0.08-0.32,0.18-0.46,0.31c-0.76,0.69-0.81,1.87-0.11,2.63l11.22,12.22c0.35,0.38,0.85,0.6,1.37,0.6
		c0.47,0,0.91-0.17,1.26-0.49c0.56-0.51,0.73-1.29,0.5-1.96c-0.03-0.18-0.08-0.37-0.17-0.54c-0.01-0.03-1.33-2.79-0.02-4.59
		c0.08-0.05,0.15-0.11,0.22-0.17l5.06-4.8c0.74-0.71,0.77-1.89,0.07-2.63C19.78,79.92,19.3,79.71,18.78,79.71z M12.45,85.03
		c-0.06,0.05-0.11,0.11-0.15,0.17c-0.16,0.11-0.31,0.25-0.43,0.41c-0.61,0.81-0.98,1.66-1.18,2.51L6.9,83.98
		c0.84-0.12,1.65-0.38,2.41-0.8l1.21,1.31c0.35,0.38,0.85,0.6,1.37,0.6c0.2,0,0.4-0.03,0.59-0.1L12.45,85.03z"/>
	<path class="st0" d="M63.79,39.54c0.36,0,0.71-0.1,1.02-0.3c2-1.3,5.16-2.97,8.92-3.51c1.02-0.14,1.72-1.09,1.58-2.1
		c-0.13-0.91-0.92-1.6-1.84-1.6c-0.09,0-0.18,0.01-0.26,0.02c-4.43,0.63-8.12,2.57-10.43,4.08c-0.42,0.27-0.7,0.69-0.8,1.18
		c-0.1,0.49-0.01,0.98,0.26,1.4C62.58,39.23,63.16,39.54,63.79,39.54z"/>
	<path class="st0" d="M78.67,35.77c0.14,0.02,0.28,0.04,0.42,0.04c0.99,0,1.58-0.62,1.8-1.21c0.04-0.1,0.22-0.64,0.03-1.23
		c-0.16-0.67-0.66-1.2-1.33-1.38c-0.23-0.06-0.45-0.09-0.66-0.09c-1.19,0-1.66,1-1.71,1.11c-0.07,0.15-0.27,0.7-0.06,1.32
		C77.32,35.08,77.91,35.65,78.67,35.77z"/>
</g>
</svg>
