<?xml version="1.0" encoding="utf-8"?>
<!-- Generator: Adobe Illustrator 27.5.0, SVG Export Plug-In . SVG Version: 6.00 Build 0)  -->
<svg version="1.1" id="Capa_1" xmlns="http://www.w3.org/2000/svg" xmlns:xlink="http://www.w3.org/1999/xlink" x="0px" y="0px"
	 viewBox="0 0 630 257" style="enable-background:new 0 0 630 257;" xml:space="preserve">
<style type="text/css">
	.st0{fill-rule:evenodd;clip-rule:evenodd;fill:url(#SVGID_1_);}
	
		.st1{fill:url(#SVGID_00000059305391706721505740000007732993717167086746_);stroke:#FFFFFF;stroke-width:1.9361;stroke-miterlimit:10;}
	.st2{fill-rule:evenodd;clip-rule:evenodd;fill:#ABEDFF;}
	.st3{fill:#FFFFFF;}
	.st4{font-family:'HossRound-Regular';}
	.st5{font-size:31.5732px;}
	.st6{font-family:'MyriadPro-Regular';}
	.st7{fill:#00C7FF;}
	.st8{font-family:'HossRound-Ultra';}
	.st9{font-size:94.6116px;}
	.st10{letter-spacing:-1;}
	.st11{font-size:22.1012px;}
	.st12{font-family:'HossRound-Black';}
	.st13{fill-rule:evenodd;clip-rule:evenodd;fill:#FFFFFF;}
	.st14{fill:#E93882;}
</style>
<g>
	
		<linearGradient id="SVGID_1_" gradientUnits="userSpaceOnUse" x1="-71.5014" y1="155.4099" x2="-20.2719" y2="155.4099" gradientTransform="matrix(1 0 0 1 72.1262 0)">
		<stop  offset="0" style="stop-color:#FFFFFF"/>
		<stop  offset="6.340295e-03" style="stop-color:#00FFFF"/>
		<stop  offset="1" style="stop-color:#0000FF"/>
	</linearGradient>
	<polygon class="st0" points="0.62,166.99 51.85,194.99 51.85,115.83 0.62,115.83 	"/>
	
		<radialGradient id="SVGID_00000124162305044153467500000000918498998610177976_" cx="311.947" cy="353.9026" r="347.8271" gradientTransform="matrix(1.0151 0 0 1.0034 0.5194 -5.5506)" gradientUnits="userSpaceOnUse">
		<stop  offset="0" style="stop-color:#FFFFFF"/>
		<stop  offset="6.340295e-03" style="stop-color:#00FFFF"/>
		<stop  offset="0.9116" style="stop-color:#0000FF"/>
	</radialGradient>
	
		<path style="fill:url(#SVGID_00000124162305044153467500000000918498998610177976_);stroke:#FFFFFF;stroke-width:1.9361;stroke-miterlimit:10;" d="
		M569.38,256h-480c-33.14,0-60-26.86-60-60V61c0-33.14,26.86-60,60-60h480c33.14,0,60,26.86,60,60v135
		C629.38,229.14,602.51,256,569.38,256z"/>
	<path class="st2" d="M106.42,132.49L70.3,168.12c-0.62,0.62-1.61,1.12-2.61,1.12l-63.22-0.25l-0.25,0c-1.99,0-3.6-1.61-3.6-3.6
		l0.12-71.63l0,0c0-1.99,1.61-3.6,3.6-3.6l63.34-0.37c0.87-0.12,1.86,0.37,2.48,0.99l36.25,36.5
		C107.91,128.76,107.79,131.12,106.42,132.49L106.42,132.49z"/>
	<g>
		<text transform="matrix(1 0 0 1 124.8195 79.5631)"><tspan x="0" y="0" class="st3 st4 st5">Si busc</tspan><tspan x="108.64" y="0" class="st3 st6 st5">ás</tspan><tspan x="136.36" y="0" class="st3 st4 st5"> Intrumentos</tspan><tspan x="0" y="85.86" class="st7 st8 st9 st10">NUEVOS</tspan></text>
	</g>
	<g>
		<text transform="matrix(1 0 0 1 130.3972 200.1725)"><tspan x="0" y="0" class="st3 st4 st11"> en </tspan><tspan x="36.38" y="0" class="st3 st12 st11">Tienda Sound</tspan><tspan x="182.13" y="0" class="st3 st4 st11"> tambi</tspan><tspan x="247.8" y="0" class="st3 st6 st11">én </tspan><tspan x="275.82" y="0" class="st3 st4 st11">los encontr</tspan><tspan x="392.56" y="0" class="st3 st6 st11">ás</tspan></text>
	</g>
	<path class="st13" d="M44.54,150.27c-0.4,0.52-1.15,0.57-1.66,0.17c-0.4-0.34-0.52-0.92-0.34-1.38l6.42-16.86h-6.42
		c-0.63,0-1.15-0.52-1.15-1.2c0-0.11,0-0.23,0.06-0.34l6.08-21.62c0.17-0.52,0.63-0.86,1.15-0.86l0,0h16.86
		c0.69,0,1.2,0.52,1.2,1.15c0,0.29-0.11,0.52-0.23,0.75l-9.35,15.43h5.22c0.63,0,1.15,0.52,1.15,1.15c0,0.34-0.11,0.57-0.29,0.8
		l-0.52,0.69"/>
	<g>
		<circle class="st14" cx="567.03" cy="129.5" r="27.3"/>
		<g>
			<path class="st3" d="M575.06,126.66c1.45,0,2.63,1.26,2.63,2.86c0,1.56-1.19,2.82-2.63,2.82h-5.38v5.04
				c0,1.56-1.15,2.82-2.63,2.82s-2.63-1.26-2.63-2.82v-5.04H559c-1.45,0-2.63-1.26-2.63-2.82c0-1.59,1.19-2.86,2.63-2.86h5.42v-5.04
				c0-1.56,1.15-2.82,2.63-2.82s2.63,1.26,2.63,2.82v5.04H575.06z"/>
		</g>
	</g>
</g>
</svg>
