<?xml version="1.0" encoding="utf-8"?>
<!-- Generator: Adobe Illustrator 27.5.0, SVG Export Plug-In . SVG Version: 6.00 Build 0)  -->
<svg version="1.1" id="Capa_1" xmlns="http://www.w3.org/2000/svg" xmlns:xlink="http://www.w3.org/1999/xlink" x="0px" y="0px"
	 viewBox="0 0 139 139" style="enable-background:new 0 0 139 139;" xml:space="preserve">
<style type="text/css">
	.st0{fill-rule:evenodd;clip-rule:evenodd;fill:#ABEDFF;}
	.st1{fill-rule:evenodd;clip-rule:evenodd;fill:#3333FF;}
</style>
<g>
	<circle class="st0" cx="69.5" cy="69.5" r="69.27"/>
	<path class="st1" d="M32.72,61.57h11.56c1.01,0,1.77,0.84,1.77,1.77v2.7h16.37c0.42,0,0.84,0.17,1.1,0.42l8.27,5.99h10.97
		c1.6,0,3.21,0.68,4.3,1.77c1.1,1.1,1.77,2.62,1.77,4.3v2.36c0,1.01-0.76,1.77-1.69,1.77l0,0l0,0H72.96v1.94h15.02l7.51-8.01
		c0.59-0.68,1.27-1.1,2.02-1.43s1.52-0.51,2.36-0.51l6.41-0.08c0.93,0,1.77,0.76,1.77,1.77c0,0.42-0.17,0.84-0.51,1.18L87.98,97.85
		c-0.34,0.34-0.84,0.59-1.35,0.51l-20.08,0.25c-0.25,0-0.51-0.08-0.76-0.25l0,0L46.05,87.89v1.77c0,0.93-0.76,1.77-1.77,1.77H32.72
		c-0.93,0-1.77-0.84-1.77-1.77V63.34C30.94,62.41,31.79,61.57,32.72,61.57L32.72,61.57z M87.05,40.39c4.3,0,8.18,1.77,10.97,4.56
		c2.78,2.78,4.47,6.66,4.47,10.88c0,4.3-1.69,8.18-4.47,10.97c-2.78,2.78-6.66,4.56-10.97,4.56c-4.22,0-8.1-1.77-10.88-4.56
		c-2.87-2.78-4.56-6.67-4.56-10.97c0-4.22,1.69-8.1,4.56-10.88C78.95,42.16,82.83,40.39,87.05,40.39L87.05,40.39z M93.88,59.29
		c0-1.35-0.51-2.45-1.35-3.29c-0.84-0.84-2.28-1.43-4.22-1.94v-4.81c1.27,0.25,2.36,0.76,3.46,1.6l1.43-2.36
		c-0.68-0.51-1.43-0.93-2.19-1.27c-0.76-0.34-1.6-0.59-2.53-0.67v-1.52h-2.19v1.43c-0.84,0.08-1.52,0.25-2.19,0.51
		c-0.68,0.25-1.27,0.59-1.69,1.01c-0.51,0.42-0.84,0.93-1.1,1.52c-0.25,0.59-0.42,1.18-0.42,1.86c0,0.67,0.17,1.35,0.34,1.86
		c0.25,0.59,0.59,1.1,1.01,1.43c0.51,0.42,1.01,0.84,1.69,1.1c0.68,0.34,1.52,0.59,2.45,0.84v4.98c-0.84-0.17-1.6-0.42-2.36-0.76
		c-0.67-0.34-1.43-0.84-2.11-1.43l-1.6,2.28c0.84,0.68,1.77,1.27,2.78,1.69c1.01,0.42,2.02,0.68,3.21,0.84v2.53h2.19v-2.53
		c0.76-0.08,1.52-0.25,2.19-0.51c0.68-0.25,1.18-0.59,1.69-1.01c0.42-0.42,0.84-0.93,1.1-1.52C93.71,60.64,93.88,59.97,93.88,59.29
		L93.88,59.29z M86.37,53.55c-1.01-0.34-1.69-0.67-1.94-1.01c-0.34-0.34-0.51-0.84-0.51-1.35c0-0.59,0.17-1.01,0.59-1.43
		c0.42-0.42,1.01-0.68,1.86-0.68V53.55z M90.84,59.46c0,0.59-0.17,1.1-0.68,1.52c-0.42,0.34-1.01,0.59-1.86,0.68V57.1
		c0.51,0.08,0.93,0.25,1.27,0.42c0.34,0.17,0.59,0.34,0.76,0.51c0.17,0.25,0.34,0.42,0.42,0.67C90.84,58.95,90.84,59.21,90.84,59.46
		L90.84,59.46z"/>
</g>
</svg>
