<?xml version="1.0" encoding="utf-8"?>
<!-- Generator: Adobe Illustrator 27.5.0, SVG Export Plug-In . SVG Version: 6.00 Build 0)  -->
<svg version="1.1" id="Capa_1" xmlns="http://www.w3.org/2000/svg" xmlns:xlink="http://www.w3.org/1999/xlink" x="0px" y="0px"
	 viewBox="0 0 220 120" style="enable-background:new 0 0 220 120;" xml:space="preserve">
<style type="text/css">
	.st0{fill-rule:evenodd;clip-rule:evenodd;fill:url(#SVGID_1_);}
	.st1{fill-rule:evenodd;clip-rule:evenodd;fill:#3333FF;}
	.st2{fill:#FFFFFF;}
	.st3{font-family:'HossRound-Medium';}
	.st4{font-size:24.2733px;}
	.st5{font-family:'HossRound-Ultra';}
</style>
<g>
	<linearGradient id="SVGID_1_" gradientUnits="userSpaceOnUse" x1="-73.651" y1="-10.4526" x2="102.114" y2="83.5872">
		<stop  offset="0" style="stop-color:#FFFFFF"/>
		<stop  offset="0.0102" style="stop-color:#00C7FF"/>
		<stop  offset="0.2965" style="stop-color:#46D6FF"/>
		<stop  offset="0.9601" style="stop-color:#F4FDFF"/>
		<stop  offset="1" style="stop-color:#FFFFFF"/>
	</linearGradient>
	<polygon class="st0" points="1.89,81.11 97.47,119.11 97.47,29.95 1.89,29.95 	"/>
	<path class="st1" d="M218.43,43.89l-36.25,35.87c-0.62,0.62-1.62,1.12-2.62,1.12L4.36,80.64l-0.25,0c-1.99,0-3.61-1.62-3.61-3.62
		L0.62,4.91l0,0c0-2,1.62-3.62,3.61-3.62l175.32-0.38c0.87-0.12,1.87,0.38,2.49,1l36.38,36.74
		C219.92,40.15,219.8,42.52,218.43,43.89L218.43,43.89z"/>
	<text transform="matrix(1 0 0 1 16.4133 46.6965)"><tspan x="0" y="0" class="st2 st3 st4">Para </tspan><tspan x="54.93" y="0" class="st2 st5 st4">Vender</tspan></text>
</g>
</svg>
