<?xml version="1.0" encoding="utf-8"?>
<!-- Generator: Adobe Illustrator 27.5.0, SVG Export Plug-In . SVG Version: 6.00 Build 0)  -->
<svg version="1.1" id="Capa_1" xmlns="http://www.w3.org/2000/svg" xmlns:xlink="http://www.w3.org/1999/xlink" x="0px" y="0px"
	 viewBox="0 0 139 139" style="enable-background:new 0 0 139 139;" xml:space="preserve">
<style type="text/css">
	.st0{fill-rule:evenodd;clip-rule:evenodd;fill:#ABEDFF;}
	.st1{fill-rule:evenodd;clip-rule:evenodd;fill:#3333FF;}
</style>
<g>
	<circle class="st0" cx="69.5" cy="69.5" r="69.27"/>
	<path class="st1" d="M73.06,66.14l23.97-7.37c0.19,0,0.28-0.09,0.37-0.09l0.09-0.09l0,0l0,0l0,0h0.09l0,0l0,0l0,0l0,0l0,0v-0.09
		l0,0l0,0h0.09l0,0l0,0l0,0l0,0l0,0l0,0l0,0l0,0l0.09-0.09l0,0l0,0l0,0l0,0l0,0l0,0l0,0l0,0l0.09-0.09l0,0l0,0l0,0l0,0l0,0l0,0l0,0
		l0,0l0,0h0.09v-0.09l0,0l0,0l0,0l0,0l0,0l0,0l0,0l0,0v-0.09h0.09l0,0l0,0l0,0l0,0l0,0l0,0v-0.09h0.09l0,0l0,0l0,0v-0.09l0,0l0,0
		l0,0l0,0l0,0l0,0l0,0v-0.09h0.09l0,0l0,0l0,0l0,0l0,0v-0.09l0,0l0,0l0,0l0,0v-0.09l0,0l0,0l0,0h0.09l0,0l0,0v-0.09l0,0l0,0l0,0l0,0
		l0,0l0,0l0,0v-0.09l0,0l0,0l0,0c0.28-1.03-0.37-2.05-1.4-2.33l-0.09-0.09l0,0l-26.68-6.9l0,0h-0.09l0,0l0,0l0,0l0,0l0,0l0,0l0,0
		l0,0l0,0l0,0l0,0h-0.09l0,0l0,0l0,0l0,0l0,0l0,0l0,0v-0.09l0,0h-0.09l0,0l0,0l0,0l0,0l0,0l0,0l0,0l0,0l0,0l0,0l0,0H69.8l0,0l0,0
		l0,0l0,0l0,0l0,0l0,0l0,0l0,0l0,0H69.7l0,0l0,0l0,0l0,0l0,0l0,0l0,0l0,0h-0.09l0,0l0,0l0,0l0,0l0,0l0,0l0,0l0,0l0,0h-0.09l0,0l0,0
		l0,0l0,0l0,0l0,0l0,0l0,0l0,0h-0.09l0,0l0,0l0,0l0,0l0,0l0,0l0,0l0,0l0,0l0,0h-0.09l0,0l0,0l0,0l0,0l0,0l0,0l0,0h-0.09l0,0l0,0l0,0
		l0,0l0,0l0,0l0,0l0,0l0,0l0,0h-0.09l0,0l0,0l0,0l0,0l0,0l0,0l0,0l0,0l0,0l0,0l0,0h-0.09l0,0l0,0l0,0l0,0l0,0l0,0v0.09l0,0l0,0
		h-0.09l0,0l0,0l0,0l0,0l0,0l0,0l0,0l0,0l0,0l0,0l0,0h-0.09l0,0l0,0l0,0l0,0l0,0l0,0l-26.77,6.9l0,0L42,55.14
		c-1.03,0.28-1.59,1.31-1.4,2.33l0,0l0,0l0,0l0,0h0.09v0.09l0,0l0,0l0,0l0,0l0,0l0,0l0,0l0,0l0,0v0.09l0,0l0,0l0,0l0,0l0,0l0,0l0,0
		l0,0l0,0v0.09l0,0l0,0l0,0l0,0l0,0h0.09l0,0l0,0l0,0v0.09l0,0l0,0l0,0l0,0l0,0l0,0l0,0l0,0l0,0v0.09l0,0l0,0l0,0l0,0h0.09l0,0l0,0
		l0,0v0.09l0,0l0,0l0,0l0,0l0,0l0,0l0,0l0,0l0,0l0.09,0.09l0,0l0,0l0,0l0,0l0,0l0,0l0,0l0,0l0,0l0,0v0.09l0,0l0,0l0,0l0,0h0.09l0,0
		l0,0l0,0l0,0l0,0v0.09c0.28,0.19,0.56,0.37,0.84,0.47l26.59,8.21v-0.09c0.09,0.09,0.28,0.19,0.37,0.19h0.09l0,0l0,0l0,0v0.09l0,0
		l0,0h0.09l0,0l0,0l0,0l0,0l0,0l0,0h0.09l0,0l0,0l0,0l0,0l0,0h0.09l0,0l0,0l0,0l0,0l0,0l0,0l0,0h0.09l0,0l0,0l0,0h0.09l0,0l0,0l0,0
		l0,0l0,0l0,0l0,0h0.09l0,0l0,0l0,0l0,0l0,0l0,0l0,0h0.09l0,0l0,0l0,0l0,0l0,0h0.09l0,0l0,0l0,0l0,0l0,0l0,0h0.09l0,0l0,0l0,0l0,0
		l0,0l0,0h0.09l0,0l0,0l0,0l0,0l0,0l0,0h0.09l0,0l0,0l0,0l0,0l0,0l0.09-0.09l0,0l0,0l0,0l0,0c0.19,0,0.28-0.09,0.47-0.19l-0.09,0.09
		L73.06,66.14z M67.56,50.47L42.47,57l25.09,7.65V50.47z M71.38,50.47L96.48,57l-25.09,7.65V50.47z M40.04,57.19l-8.58-9.24
		c-0.75-0.84-0.65-2.05,0.09-2.71c0.28-0.28,0.56-0.37,0.84-0.47l27.05-6.9c0.75-0.28,1.49,0.09,1.96,0.65l8.12,8.68l8.02-8.68
		c0.47-0.56,1.31-0.93,2.05-0.65l27.05,6.9c0.28,0.09,0.56,0.19,0.84,0.47c0.75,0.65,0.75,1.87,0.09,2.71l-8.58,9.24l7.65,11.38
		c0.09,0.19,0.19,0.37,0.28,0.56c0.28,0.93-0.28,2.05-1.31,2.33l-25.93,8.4c-0.84,0.28-1.77,0.09-2.33-0.65l-7.84-10.91L61.59,79.2
		c-0.47,0.75-1.4,0.93-2.24,0.65l-26.02-8.4c-1.03-0.28-1.59-1.4-1.21-2.33c0.09-0.19,0.09-0.37,0.19-0.56L40.04,57.19z
		 M68.86,101.12L42,91.98c-0.75-0.28-1.31-0.93-1.31-1.77L40.6,75.84l18.1,5.78c0.75,0.37,1.59,0.37,2.42,0.09l0,0
		c0.84-0.19,1.49-0.65,2.05-1.4l4.38-6.06l1.59-2.15v29.1h-0.09l0,0l0,0l0,0h-0.09l0,0l0,0v-0.09H68.86L68.86,101.12L68.86,101.12z
		 M69.89,72.11l1.49,2.15l4.48,6.06c0.47,0.75,1.21,1.21,1.96,1.4h0.09C78.66,82,79.5,82,80.34,81.63l18-5.78v14.37
		c0,0.84-0.56,1.49-1.31,1.77l-26.86,9.14h-0.09l0,0l0,0v0.09h-0.09l0,0l0,0l0,0h-0.09l0,0l0,0V72.11z"/>
</g>
</svg>
