<?xml version="1.0" encoding="utf-8"?>
<!-- Generator: Adobe Illustrator 27.5.0, SVG Export Plug-In . SVG Version: 6.00 Build 0)  -->
<svg version="1.1" id="Capa_1" xmlns="http://www.w3.org/2000/svg" xmlns:xlink="http://www.w3.org/1999/xlink" x="0px" y="0px"
	 viewBox="0 0 139 139" style="enable-background:new 0 0 139 139;" xml:space="preserve">
<style type="text/css">
	.st0{fill-rule:evenodd;clip-rule:evenodd;fill:#ABEDFF;}
	.st1{fill-rule:evenodd;clip-rule:evenodd;fill:#3333FF;}
</style>
<g>
	<circle class="st0" cx="69.5" cy="69.5" r="69.27"/>
	<path class="st1" d="M70.3,36.35l28.25,14.04c0.6,0.34,1.02,1.02,0.94,1.7c-0.77,12.6-4,22.72-9.02,30.98
		c-5.11,8.34-11.91,14.64-20.08,19.49c-0.6,0.34-1.28,0.34-1.79,0c-8.08-4.85-14.98-11.15-20-19.49
		c-5.02-8.26-8.25-18.38-9.11-30.98c0-0.77,0.43-1.45,1.02-1.7l28.25-14.04C69.28,36.09,69.79,36.18,70.3,36.35L70.3,36.35z
		 M55.41,67.92c-0.68-0.77-0.6-1.87,0.17-2.47c0.77-0.68,1.87-0.6,2.47,0.17l7.4,8.68l18.47-16.85c0.77-0.68,1.87-0.6,2.47,0.09
		c0.68,0.68,0.6,1.79-0.09,2.47L66.47,78.13c-0.77,0.6-1.87,0.51-2.47-0.25L55.41,67.92z"/>
</g>
</svg>
