<?xml version="1.0" encoding="utf-8"?>
<!-- Generator: Adobe Illustrator 27.5.0, SVG Export Plug-In . SVG Version: 6.00 Build 0)  -->
<svg version="1.1" id="Capa_1" xmlns="http://www.w3.org/2000/svg" xmlns:xlink="http://www.w3.org/1999/xlink" x="0px" y="0px"
	 viewBox="0 0 139 139" style="enable-background:new 0 0 139 139;" xml:space="preserve">
<style type="text/css">
	.st0{fill-rule:evenodd;clip-rule:evenodd;fill:#ABEDFF;}
	.st1{fill-rule:evenodd;clip-rule:evenodd;fill:#3333FF;}
</style>
<g>
	<circle class="st0" cx="69.5" cy="69.5" r="69.27"/>
	<path class="st1" d="M69.3,37.89c7.49,0,14.35,3.11,19.21,7.97c3.19,3.19,5.5,7.01,6.86,11.4c0.16-0.72,0.8-1.2,1.59-1.2
		c0.88,0,1.59,0.72,1.59,1.59v1.67c0.16-0.08,0.32-0.08,0.48-0.08c0.88,0,1.67,0.72,1.67,1.67v7.65c0,0.88-0.8,1.59-1.67,1.59
		c-0.16,0-0.32,0-0.48-0.08v2.47c0,0.96-0.72,1.67-1.59,1.67c-0.8,0-1.43-0.48-1.59-1.2c-1.36,4.3-3.67,8.21-6.86,11.32
		c-4.86,4.94-11.72,8.05-19.21,8.05c-7.49,0-14.35-3.11-19.29-8.05c-3.11-3.11-5.5-7.01-6.78-11.4c-0.16,0.24-0.4,0.56-0.72,0.72
		c0.48,6.14,3.51,11.72,8.21,15.86c4.07,3.51,9.33,6.06,15.31,6.94c0.4-1.51,1.83-2.63,3.43-2.63c1.99,0,3.67,1.59,3.67,3.59
		c0,2.07-1.67,3.67-3.67,3.67c-1.91,0-3.43-1.43-3.59-3.35c-6.22-0.88-11.72-3.51-16.02-7.25c-4.94-4.3-8.13-10.2-8.61-16.66
		c-0.72-0.24-1.2-0.88-1.2-1.59v-1.67c0,0-0.08,0-0.16,0c-0.88,0-1.59-0.72-1.59-1.59v-7.65c0-0.88,0.72-1.67,1.59-1.67
		c0.08,0,0.16,0,0.16,0v-2.31c0-0.88,0.72-1.59,1.67-1.59c0.8,0,1.43,0.48,1.59,1.28c1.36-4.3,3.67-8.05,6.7-11.16
		C54.95,41,61.81,37.89,69.3,37.89L69.3,37.89z M56.55,70.5c0-0.88,0.8-1.59,1.67-1.59c0.88,0,1.67,0.72,1.67,1.59
		c0,2.07,0.96,3.99,2.63,5.34c1.75,1.43,4.15,2.39,6.78,2.39c2.63,0,5.02-0.96,6.78-2.39c1.67-1.36,2.63-3.27,2.63-5.34
		c0-0.88,0.8-1.59,1.67-1.59c0.88,0,1.59,0.72,1.59,1.59c0,3.11-1.43,5.9-3.83,7.89c-2.23,1.91-5.42,3.11-8.85,3.11
		c-3.43,0-6.62-1.2-8.85-3.11C58.06,76.4,56.55,73.61,56.55,70.5L56.55,70.5z M59.58,53.6c2.79,0,5.02,2.23,5.02,5.02
		c0,2.71-2.23,4.94-5.02,4.94c-2.71,0-4.94-2.23-4.94-4.94C54.63,55.83,56.87,53.6,59.58,53.6L59.58,53.6z M79.34,53.76
		c2.71,0,4.94,2.23,4.94,5.02c0,2.71-2.23,4.94-4.94,4.94c-2.79,0-5.02-2.23-5.02-4.94C74.32,55.99,76.55,53.76,79.34,53.76
		L79.34,53.76z"/>
</g>
</svg>
