<svg id="Capa_1" data-name="Capa 1" xmlns="http://www.w3.org/2000/svg" viewBox="0 0 78.93 80"><defs><style>.cls-1{fill:#33f;}</style></defs><path class="cls-1" d="M77,34.79,48.67,3.93l-.1-.21a1.44,1.44,0,0,0-1.3-.81,1.39,1.39,0,0,0-.63.15,1.55,1.55,0,0,0-.39.28l0,0a1.44,1.44,0,0,0-.08,2l.13.14c5.48,12-2.23,23.71-7.73,28.83l-4.6,4.28a1.46,1.46,0,0,0-.08-1.87l-.4-.44a1.46,1.46,0,0,0-1.06-.46,1.42,1.42,0,0,0-1,.38,1.37,1.37,0,0,0-.46,1,1.4,1.4,0,0,0,.38,1l.39.43a1.43,1.43,0,0,0,1.06.47,1.4,1.4,0,0,0,.8-.25l-2.11,2-1.21,1.12a1.34,1.34,0,0,0,.07-.39,1.39,1.39,0,0,0-.38-1l-.52-.58a1.48,1.48,0,0,0-1.07-.46A1.45,1.45,0,0,0,26.91,41a1.43,1.43,0,0,0,.38,1l.53.57a1.43,1.43,0,0,0,1.06.47,1.49,1.49,0,0,0,.36,0l-.18.17-.06.06c-1.95,1.83-3.49,3.27-5.91,5.36A17.4,17.4,0,0,0,17.55,58a13.73,13.73,0,0,0,2.51,11.55c3.06,3.92,6.57,7.56,11.51,7.56a10.55,10.55,0,0,0,2.34-.26c5.09-1.13,8.9-4.25,12.22-7.3a1.41,1.41,0,0,0,.37,1.18l.39.44a1.48,1.48,0,0,0,1.07.46,1.41,1.41,0,0,0,1-.38,1.44,1.44,0,0,0,.09-2l-.4-.43a1.43,1.43,0,0,0-1.06-.47h-.11l0,0,.05-.06c.33-.31.65-.61,1-.9s.8-.74,1.22-1.11c0,.05,0,.11,0,.17a1.4,1.4,0,0,0,.38,1l.39.43A1.45,1.45,0,0,0,53,66.94a1.42,1.42,0,0,0-.38-1l-.4-.44A1.46,1.46,0,0,0,51.16,65h0c.87-.77,1.77-1.56,2.63-2.35v0a1.46,1.46,0,0,0,.38,1l.4.44a1.46,1.46,0,0,0,1.06.46A1.45,1.45,0,0,0,57,63.24a1.47,1.47,0,0,0-.38-1l-.4-.43a1.43,1.43,0,0,0-1.06-.47h0a28.17,28.17,0,0,0,4.23-5.17c4.62-7.46,0-12.25-4.49-16.88L54,38.36a1.43,1.43,0,0,0-2,0,1.37,1.37,0,0,0-.44,1,1.42,1.42,0,0,0,.4,1l.85.87,0,0c4.82,5,7.38,8.06,4.11,13.36-1.95,3.15-4.89,5.72-7.73,8.21-.87.77-1.78,1.57-2.65,2.38l-1.05,1C42,69.49,38.33,72.91,33.3,74a7.86,7.86,0,0,1-1.71.19c-3.49,0-6.22-2.57-9.23-6.44-4.68-6-1.2-13.68,2.63-17,2.46-2.12,4.09-3.65,6-5.44l.06-.06c.73-.67,1.5-1.4,2.39-2.23Q37,39.79,40.49,36.5a36.14,36.14,0,0,0,8.76-13.16A25.27,25.27,0,0,0,50.7,10.4l20,21.76a29,29,0,0,0-5.85-.57,32.84,32.84,0,0,0-3.43.18A31.7,31.7,0,0,0,46,37.61c-4,2.91-9.41,7.58-17.16,14.7-2.19,2-4.88,5-5.24,8-.54,4.39,4.24,8.75,7.76,9.81a7.46,7.46,0,0,0,2.15.32c3.57,0,6.7-2.59,8.24-4.12l.27-.25.16.16a1.44,1.44,0,0,0,2,.09,1.45,1.45,0,0,0,.08-2l-.14-.17h0l.15-.13L46,62.4l.14.16a1.47,1.47,0,0,0,1.06.47,1.48,1.48,0,0,0,1-.38,1.45,1.45,0,0,0,.46-1,1.4,1.4,0,0,0-.38-1l-.14-.15,1.38-1.28.22-.21.16.17A1.43,1.43,0,0,0,51,59.6a1.48,1.48,0,0,0,1-.38,1.44,1.44,0,0,0,.46-1,1.38,1.38,0,0,0-.38-1L51.89,57c2.08-1.95,4.3-4.46,3.9-7.07-.42-2.78-2.35-4.71-4.07-6.43-.4-.41-.78-.78-1.13-1.16a1.45,1.45,0,0,0-2-.08,1.4,1.4,0,0,0-.46,1,1.43,1.43,0,0,0,.38,1c.39.42.81.84,1.22,1.25,1.46,1.46,3,3,3.25,4.81.19,1.26-1.48,3.08-3,4.51l-7.81-8.5a1.44,1.44,0,0,0-2-.09,1.4,1.4,0,0,0-.46,1,1.38,1.38,0,0,0,.38,1l7.78,8.48-.24.24L46.2,58.33l-7.81-8.49a1.46,1.46,0,0,0-1.06-.46,1.44,1.44,0,0,0-1.06,2.42l7.79,8.49-1.74,1.59c-.06,0-.11.11-.17.15l-7.78-8.49a1.44,1.44,0,0,0-2.5.91,1.38,1.38,0,0,0,.38,1L40,64l-.3.27a.09.09,0,0,1-.05,0c-1,1-3.57,3.29-6.26,3.29a4.48,4.48,0,0,1-1.27-.18c-2.49-.76-6.07-4-5.73-6.7.2-1.65,1.74-3.87,4.32-6.24C35.58,50,42.6,43.68,47.67,39.94a29.53,29.53,0,0,1,17.21-5.47A22.52,22.52,0,0,1,73.6,36a1.6,1.6,0,0,0,.57.11h.16l.54.59A1.44,1.44,0,0,0,77,34.79Z"/><path class="cls-1" d="M25.54,43.63a1.44,1.44,0,1,0-2.12,2l.39.43a1.49,1.49,0,0,0,1.07.47,1.46,1.46,0,0,0,1-.38,1.44,1.44,0,0,0,.09-2Z"/><path class="cls-1" d="M21.15,44.78a1.42,1.42,0,0,0,1-.38l2.16-2a1.45,1.45,0,0,0,.34-1.64,1.5,1.5,0,0,0,.69.17,1.44,1.44,0,0,0,1-.38l2-1.84a1.44,1.44,0,0,0,.46-1,1.42,1.42,0,0,0-.12-.65,1.39,1.39,0,0,0,.69.18,1.45,1.45,0,0,0,1-.38l2-1.85a1.41,1.41,0,0,0,.47-1,1.43,1.43,0,0,0-1.44-1.5,1.42,1.42,0,0,0-1,.38l-2,1.85a1.37,1.37,0,0,0-.46,1,1.41,1.41,0,0,0,.12.64,1.39,1.39,0,0,0-.69-.18,1.42,1.42,0,0,0-1,.38l-2,1.85A1.45,1.45,0,0,0,24,40.09a1.51,1.51,0,0,0-.69-.18,1.48,1.48,0,0,0-1,.38l-2.15,2a1.44,1.44,0,0,0,1,2.51Z"/><path class="cls-1" d="M15,61.11a1.42,1.42,0,0,0,1-.38c.58-.54.77-.7.81-.73A1.47,1.47,0,0,0,17,58a1.43,1.43,0,0,0-1.14-.56,1.38,1.38,0,0,0-.88.3s-.16.13-1,.87a1.44,1.44,0,0,0-.09,2A1.43,1.43,0,0,0,15,61.11Z"/><path class="cls-1" d="M16,64.61A1.46,1.46,0,0,0,15,65l-3,2.87a1.41,1.41,0,0,0,.11-.46,1.47,1.47,0,0,0-.38-1l-.87-1c.7-.63,1.72-1.56,2.81-2.57a1.41,1.41,0,0,0,.47-1,1.49,1.49,0,0,0-.38-1,1.46,1.46,0,0,0-1.06-.46,1.42,1.42,0,0,0-1,.38L8,64.13l-.07.07-.08.06a1.4,1.4,0,0,0-.27.33.67.67,0,0,1-.12.06A2.71,2.71,0,0,1,6,65.07a3.9,3.9,0,0,1-1.93-.55,1.48,1.48,0,0,0-.79-.23,1.46,1.46,0,0,0-.89.31,1.61,1.61,0,0,0-.36.24,1.43,1.43,0,0,0-.08,2l8.7,9.48a1.43,1.43,0,0,0,1.06.47,1.47,1.47,0,0,0,1-.38,1.42,1.42,0,0,0,.39-1.52,1.28,1.28,0,0,0-.13-.42s-1-2.17,0-3.56l.17-.14L17,67.09a1.44,1.44,0,0,0-1-2.48Zm-4.92,4.13a.47.47,0,0,0-.11.13,1.12,1.12,0,0,0-.33.32,4.93,4.93,0,0,0-.92,1.94L6.81,67.92a5.29,5.29,0,0,0,1.87-.62l.94,1a1.46,1.46,0,0,0,1.06.46,1.21,1.21,0,0,0,.46-.08Z"/><path class="cls-1" d="M50.94,33.44a1.46,1.46,0,0,0,.8-.23,17.55,17.55,0,0,1,6.92-2.72,1.44,1.44,0,0,0-.21-2.87h-.2a20.42,20.42,0,0,0-8.09,3.17,1.39,1.39,0,0,0-.62.91,1.42,1.42,0,0,0,1.4,1.73Z"/><path class="cls-1" d="M62.49,30.52a1.73,1.73,0,0,0,.32,0,1.45,1.45,0,0,0,1.4-.94,1.5,1.5,0,0,0,0-.95,1.44,1.44,0,0,0-1-1.07,1.89,1.89,0,0,0-.51-.07,1.48,1.48,0,0,0-1.33.86,1.44,1.44,0,0,0,0,1A1.42,1.42,0,0,0,62.49,30.52Z"/></svg>