<svg id="Capa_1" data-name="Capa 1" xmlns="http://www.w3.org/2000/svg" viewBox="0 0 78.93 80"><defs><style>.cls-1{fill:#33f;}</style></defs><path class="cls-1" d="M72.38,21.26,52,4.25a7.1,7.1,0,0,0-4.61-1.69,5.54,5.54,0,0,0-4.27,2L22.58,29.12a1.39,1.39,0,0,0,.18,2,1.4,1.4,0,0,0,2-.18C35,18.59,45.24,6.29,45.24,6.29a2.79,2.79,0,0,1,2.17-1,4.29,4.29,0,0,1,2.8,1l20.39,17A3.83,3.83,0,0,1,72,27.55L54.9,13.35a1.43,1.43,0,0,0-1-.32,1.37,1.37,0,0,0-.94.5L16,58a1.39,1.39,0,0,0,.17,1.95L33.26,74.09a2.84,2.84,0,0,1-1.77.57,4.3,4.3,0,0,1-2.79-1L8.32,56.6c-1.64-1.36-2.08-3.54-1-4.86L12.94,45a1.39,1.39,0,0,0-2.14-1.78L5.2,50c-2.08,2.49-1.48,6.44,1.34,8.78l20.39,17a7.13,7.13,0,0,0,4.53,1.69h.08a5.57,5.57,0,0,0,4-1.64,1.26,1.26,0,0,0,.38.06,1.37,1.37,0,0,0,1.07-.5L73.9,30.94a1.39,1.39,0,0,0,.2-1.43C75.72,27,75,23.47,72.38,21.26ZM50.89,20.7l9.88,8.21-.83,1L50.06,21.7Zm-5.65,6.79,9.88,8.21-.83,1-9.88-8.21Zm-5.64,6.8,9.87,8.21-1,1.18-9.88-8.22ZM29.89,46l9.88,8.22-.83,1L29.07,47Zm-6.08,7.31,9.88,8.22-.83,1L23,54.27ZM35.72,72.52,19,58.66l2-2.39,11.12,9.25a1.39,1.39,0,0,0,.89.32h.13a1.34,1.34,0,0,0,.94-.5l2.61-3.13a1.39,1.39,0,0,0-.18-2L25.41,51l1.7-2L38.24,58.2A1.38,1.38,0,0,0,40.19,58l2.61-3.14a1.42,1.42,0,0,0,.31-1,1.34,1.34,0,0,0-.5-.94L31.49,43.68,33,41.81,49.72,55.67l-3,3.61-3.28-2.72a1.39,1.39,0,0,0-1.78,2.13l3.29,2.73L40.63,66.6l-2.72-2.27a1.39,1.39,0,1,0-1.78,2.13l2.73,2.27ZM67.87,33.85,64.62,31a1.39,1.39,0,1,0-1.82,2.1L66.09,36l-4,4.83L58.73,38A1.39,1.39,0,1,0,57,40.16l3.34,2.78-3.58,4.31-3.36-2.8a1.39,1.39,0,0,0-1.78,2.13l3.37,2.8L51.5,53.52,34.82,39.67l1.85-2.22L47.79,46.7a1.39,1.39,0,0,0,.89.32h.13a1.39,1.39,0,0,0,.94-.5l2.75-3.31a1.38,1.38,0,0,0-.18-2L41.2,32l1.26-1.52,11.13,9.25a1.34,1.34,0,0,0,.88.33,1.38,1.38,0,0,0,1.07-.5l2.61-3.14a1.42,1.42,0,0,0,.31-1,1.34,1.34,0,0,0-.5-.94L46.84,25.21l1.26-1.52L59.22,33a1.43,1.43,0,0,0,.89.32,1.38,1.38,0,0,0,1.07-.5l2.61-3.14a1.42,1.42,0,0,0,.31-1,1.34,1.34,0,0,0-.5-.94L52.5,18.42l1.7-2.05L70.87,30.23Z"/><path class="cls-1" d="M19.68,34.93a1.34,1.34,0,0,0,.76.23,1.43,1.43,0,0,0,1.1-.53,1.65,1.65,0,0,0-.25-2.26,1.41,1.41,0,0,0-1.86.31,1.18,1.18,0,0,0-.28.57A1.4,1.4,0,0,0,19.68,34.93Z"/><path class="cls-1" d="M14.46,42.41a1.38,1.38,0,0,0,1.07-.5L18.83,38a1.39,1.39,0,1,0-2.13-1.78l-3.3,4a1.38,1.38,0,0,0,.18,2A1.4,1.4,0,0,0,14.46,42.41Z"/><path class="cls-1" d="M9.86,51.93a1.39,1.39,0,0,0,.16,2l3.79,3.22a1.36,1.36,0,0,0,.9.33A1.42,1.42,0,0,0,15.78,57a1.39,1.39,0,0,0-.17-2l-3.78-3.22A1.39,1.39,0,0,0,9.86,51.93Z"/><path class="cls-1" d="M17.09,54a1.42,1.42,0,0,0,1.07-.49,1.39,1.39,0,0,0-.16-2l-3.79-3.22a1.39,1.39,0,1,0-1.81,2.12l3.79,3.22A1.41,1.41,0,0,0,17.09,54Z"/><path class="cls-1" d="M19.93,50.54A1.42,1.42,0,0,0,21,50.05a1.39,1.39,0,0,0-.16-2l-3.79-3.22A1.39,1.39,0,1,0,15.25,47L19,50.21A1.35,1.35,0,0,0,19.93,50.54Z"/><path class="cls-1" d="M18.11,41.28a1.38,1.38,0,0,0,.16,2l3.79,3.22a1.34,1.34,0,0,0,.9.33,1.39,1.39,0,0,0,.9-2.45l-3.79-3.22A1.39,1.39,0,0,0,18.11,41.28Z"/><path class="cls-1" d="M35.74,26.32a1.44,1.44,0,0,0-1.13.48,1.38,1.38,0,0,0,.12,2,.86.86,0,0,0,.22.15,1.36,1.36,0,0,0,.88.32A1.4,1.4,0,0,0,37,27,1.64,1.64,0,0,0,35.74,26.32Z"/><path class="cls-1" d="M38.44,23.09a1.41,1.41,0,0,0-1.14.48,1.39,1.39,0,0,0,.12,2,1.16,1.16,0,0,0,.21.16,1.38,1.38,0,0,0,.89.31,1.44,1.44,0,0,0,.81-.26,1.39,1.39,0,0,0,.31-1.94A1.55,1.55,0,0,0,38.44,23.09Z"/><path class="cls-1" d="M41.14,19.86a1.4,1.4,0,0,0-1.13.47,1.37,1.37,0,0,0,.11,2,.82.82,0,0,0,.22.16,1.34,1.34,0,0,0,.88.32,1.4,1.4,0,0,0,1.13-2.21A1.56,1.56,0,0,0,41.14,19.86Z"/><path class="cls-1" d="M43.83,16.62a1.44,1.44,0,0,0-1.13.48,1.39,1.39,0,0,0,.11,2l.22.16a1.41,1.41,0,0,0,1.7.05A1.39,1.39,0,0,0,45,17.33,1.59,1.59,0,0,0,43.83,16.62Z"/><path class="cls-1" d="M46.54,13.39a1.4,1.4,0,0,0-1,2.44,1.66,1.66,0,0,0,.21.16,1.38,1.38,0,0,0,.89.31,1.44,1.44,0,0,0,.81-.26,1.38,1.38,0,0,0,.31-1.94A1.55,1.55,0,0,0,46.54,13.39Z"/><path class="cls-1" d="M48.43,12.75a1.38,1.38,0,0,0,.88.32,1.41,1.41,0,0,0,.82-.27,1.39,1.39,0,0,0,.31-1.94,1.59,1.59,0,0,0-1.2-.71,1.43,1.43,0,0,0-1.13.47,1.38,1.38,0,0,0,.1,2A1.18,1.18,0,0,0,48.43,12.75Z"/><path class="cls-1" d="M23.31,38.53a1.38,1.38,0,0,0,.29,1.94l1.52,1.12a1.38,1.38,0,0,0,1.93-.29,1.39,1.39,0,0,0-.29-1.95l-1.52-1.11A1.38,1.38,0,0,0,23.31,38.53Z"/><path class="cls-1" d="M26.15,37a1.36,1.36,0,0,0,.82.28,1.39,1.39,0,0,0,.82-2.51l-1.51-1.11a1.39,1.39,0,1,0-1.65,2.24Z"/><path class="cls-1" d="M30.64,35.1a1.34,1.34,0,0,0,.82.27,1.37,1.37,0,0,0,1.12-.56,1.39,1.39,0,0,0-.3-2l-1.51-1.11A1.4,1.4,0,0,0,29.12,34Z"/></svg>