<svg id="Capa_1" data-name="Capa 1" xmlns="http://www.w3.org/2000/svg" viewBox="0 0 78.93 80"><defs><style>.cls-1{fill:#33f;}</style></defs><path class="cls-1" d="M64.31,18a1.43,1.43,0,0,0-1,.47,1.38,1.38,0,0,0-.21,1.49c0,.05,0,.1.08.16a1.42,1.42,0,0,0,.36.41,1.6,1.6,0,0,0,1,.37,1.46,1.46,0,0,0-.24-2.9Z"/><path class="cls-1" d="M70.8,6a3.31,3.31,0,0,1-.24-1.62,1.43,1.43,0,0,0,.31-1,1.34,1.34,0,0,0-.51-.92,1.34,1.34,0,0,0-1.91.18,1.5,1.5,0,0,1-.52.08A4,4,0,0,1,67,2.58a1.47,1.47,0,0,0-.36,0,1.37,1.37,0,0,0-1.3,1.06,1.42,1.42,0,0,0,.08.89,1.37,1.37,0,0,0,.93.76,6.92,6.92,0,0,0,1.49.17A6.85,6.85,0,0,0,68.23,7a1.48,1.48,0,0,0,.27.43l-.2,0c-.11,0-.35,0-.64,0A3.53,3.53,0,0,0,66,7.73a1,1,0,0,0-.2.15,2.32,2.32,0,0,0-.17-2.55,1.39,1.39,0,0,0-1.17-.61,1.33,1.33,0,0,0-.73.24,1.36,1.36,0,0,0-.58.88,1.3,1.3,0,0,0,.13.89h0l-.42.49L62.6,7a1.35,1.35,0,0,0-.94-.34,1.3,1.3,0,0,0-.75.25A1.31,1.31,0,0,0,61,6.23V6.18a1.38,1.38,0,0,0-1.49-1.24,1.34,1.34,0,0,0-.93.49,1.39,1.39,0,0,0-.31,1v.06a1.16,1.16,0,0,0,.12.45,1.39,1.39,0,0,0,1.27.8h.1a1.44,1.44,0,0,0,.67-.25,1.35,1.35,0,0,0,0,1.16,1.25,1.25,0,0,0,.33.45l.27.24L60,10.63c-.19-.18-.46-.41-.82-.73a1.38,1.38,0,0,0-.93-.33,1.43,1.43,0,0,0-.75.25,1.37,1.37,0,0,0-.12-1.35l-.07-.11a1.38,1.38,0,0,0-1.17-.59,1.21,1.21,0,0,0-.73.24,1.34,1.34,0,0,0-.47,1.7,1.28,1.28,0,0,0,.11.2l.07.1a1.36,1.36,0,0,0,1.17.6,1.44,1.44,0,0,0,.74-.24,1.44,1.44,0,0,0,0,1.15,1.52,1.52,0,0,0,.35.46c.38.32.65.57.85.74L45.54,27.6a13.26,13.26,0,0,0-6.91-1.85c-5.11.13-9.9,3.57-13.84,9.93a1.37,1.37,0,0,0-.08,1.3,1.47,1.47,0,0,0,.48.57,1.51,1.51,0,0,0,.51.29c1,.32,1.2.81,1.25,1,.35,1.06-.51,3.15-2.23,5.45a4.56,4.56,0,0,1-3.44,1.91,3.81,3.81,0,0,1-.59,0,1.8,1.8,0,0,1-1.53-1.28,1.37,1.37,0,0,0-1.34-1,1.1,1.1,0,0,0-.37.06h0a1.42,1.42,0,0,0-.29,0,1.33,1.33,0,0,0-.85.31C8.56,50.7,6.07,59.12,9.64,66.78a18.82,18.82,0,0,0,1.09,2,14.41,14.41,0,0,0,2.71,3.11l-.39.63a1.85,1.85,0,0,0-.13.29l-2.31,2.84a1.37,1.37,0,0,0-.19,1.45,1.47,1.47,0,0,0,.38.48,1.33,1.33,0,0,0,.9.31h0a1.37,1.37,0,0,0,1-.5l3-3.74h0a19.71,19.71,0,0,0,10.9,3.16c.32,0,.65,0,1-.06,4.52-.38,10.74-2.83,14.63-12.37a1.38,1.38,0,0,0-.76-1.79,1.06,1.06,0,0,0-.25-.09,1.63,1.63,0,0,0-.45-.08h0a1.66,1.66,0,0,1-1.59-.87,4.25,4.25,0,0,1,.54-4.3c1.4-2.11,3.45-3.66,4.87-3.7a2,2,0,0,1,1.66.92,1.38,1.38,0,0,0,1.13.56h.09a1.19,1.19,0,0,0,.33,0A1.35,1.35,0,0,0,49,54.28a14.66,14.66,0,0,1,1.15-1.58c2.8-3.56,8.63-11,1.41-19.9l10-14.13a1.28,1.28,0,0,0,.64.14,1.39,1.39,0,0,0,1-.47,1.43,1.43,0,0,0,.33-1,1.37,1.37,0,0,0-.41-.89l1-1.39.45.39a1.4,1.4,0,0,0,.93.35,1.35,1.35,0,0,0,.4-.08,1.37,1.37,0,0,0,.12.77.83.83,0,0,0,.09.16,1.29,1.29,0,0,0,.35.42,1.62,1.62,0,0,0,1,.37,1.42,1.42,0,0,0,1-.5,1.39,1.39,0,0,0-.32-2.06,1.36,1.36,0,0,0-1.33-.27,1.4,1.4,0,0,0-.45-1.22l-.66-.57,1.91-2.71s0,0,0,0h.44a1.37,1.37,0,0,0,1.5-1.23,1.34,1.34,0,0,0-.3-1l0,0a1.14,1.14,0,0,0,.37,0A1.37,1.37,0,0,0,70.8,6ZM48,51l-.59.75a4.38,4.38,0,0,0-2.88-.94c-2.85.08-5.6,2.7-7.08,4.93a7.11,7.11,0,0,0-.82,6.82l.18.36a4.39,4.39,0,0,0,2.24,2c-2.69,5.57-6.68,8.71-11.63,9.14l-.79,0a17,17,0,0,1-8.81-2.38l11.7-11.3a1.37,1.37,0,0,0,.42-1,1.39,1.39,0,0,0-.5-1l-3.79-3.09a1.34,1.34,0,0,0-1.09-.29,1.36,1.36,0,0,0-.94.62l-8.7,14a11.26,11.26,0,0,1-1.86-2.21,14.9,14.9,0,0,1-.9-1.66c-2.89-6.22-1-13.11,5.1-18.61a4.66,4.66,0,0,0,3,1.77,7,7,0,0,0,1.12.07h0a7.24,7.24,0,0,0,5.57-3c1.66-2.21,3.46-5.39,2.64-7.93a4,4,0,0,0-1.63-2.09c2.43-3.55,6.09-7.26,10.77-7.38a10.39,10.39,0,0,1,5,1.25L34,41.16a1.4,1.4,0,0,0-.31,1,1.36,1.36,0,0,0,.11.44,1.47,1.47,0,0,0,.39.5l5.29,4.2a1.39,1.39,0,0,0,.89.3l.16,0a1.38,1.38,0,0,0,.93-.56l8.43-11.93C55,42.07,50.64,47.62,48,51ZM21.27,64.52l3.85-6.19,1.38,1.13ZM40.08,44.27l-3-2.41L65.21,8.7Z"/></svg>