<?xml version="1.0" encoding="utf-8"?>
<!-- Generator: Adobe Illustrator 27.5.0, SVG Export Plug-In . SVG Version: 6.00 Build 0)  -->
<svg version="1.1" id="Capa_1" xmlns="http://www.w3.org/2000/svg" xmlns:xlink="http://www.w3.org/1999/xlink" x="0px" y="0px"
	 viewBox="0 0 40 40" style="enable-background:new 0 0 40 40;" xml:space="preserve">
<style type="text/css">
	.st0{fill:#0000FF;}
</style>
<g>
	<path class="st0" d="M20,0.13C9.03,0.13,0.13,9.03,0.13,20S9.03,39.87,20,39.87S39.87,30.97,39.87,20S30.97,0.13,20,0.13z
		 M30.75,15c0.01,0.22,0.01,0.43,0.01,0.65c0,6.65-5.06,14.31-14.31,14.31c-2.84,0-5.48-0.83-7.71-2.26
		c0.39,0.05,0.79,0.07,1.2,0.07c2.36,0,4.53-0.8,6.25-2.15c-2.2-0.04-4.06-1.49-4.7-3.49c0.31,0.06,0.62,0.09,0.95,0.09
		c0.46,0,0.9-0.06,1.33-0.18c-2.3-0.46-4.03-2.49-4.03-4.93c0-0.02,0-0.04,0-0.06c0.68,0.38,1.45,0.6,2.28,0.63
		c-1.35-0.9-2.24-2.44-2.24-4.19c0-0.92,0.25-1.79,0.68-2.53C12.93,14,16.64,16,20.82,16.21c-0.09-0.37-0.13-0.75-0.13-1.15
		c0-2.78,2.25-5.03,5.03-5.03c1.45,0,2.75,0.61,3.67,1.59c1.15-0.23,2.22-0.64,3.19-1.22c-0.38,1.17-1.17,2.16-2.21,2.78
		c1.02-0.12,1.99-0.39,2.89-0.79C32.58,13.41,31.73,14.29,30.75,15z"/>
</g>
</svg>
