<?xml version="1.0" encoding="utf-8"?>
<!-- Generator: Adobe Illustrator 27.5.0, SVG Export Plug-In . SVG Version: 6.00 Build 0)  -->
<svg version="1.1" id="Capa_1" xmlns="http://www.w3.org/2000/svg" xmlns:xlink="http://www.w3.org/1999/xlink" x="0px" y="0px"
	 viewBox="0 0 40 40" style="enable-background:new 0 0 40 40;" xml:space="preserve">
<style type="text/css">
	.st0{fill:#0000FF;}
</style>
<g>
	<path class="st0" d="M20,0.13C9.03,0.13,0.13,9.03,0.13,20S9.03,39.87,20,39.87S39.87,30.97,39.87,20S30.97,0.13,20,0.13z
		 M33.55,23.9c-0.19,2.61-0.67,5.3-4.05,5.5c-6.18,0.36-12.83,0.36-19.01,0c-3.38-0.19-3.86-2.89-4.05-5.5c-0.2-2.7-0.2-5.09,0-7.8
		c0.19-2.61,0.67-5.3,4.05-5.5c6.18-0.36,12.83-0.36,19.01,0c3.38,0.19,3.86,2.89,4.05,5.5C33.75,18.8,33.75,21.2,33.55,23.9z"/>
	<polygon class="st0" points="17.62,23.85 24.96,20 17.62,16.15 	"/>
</g>
</svg>
