<?xml version="1.0" encoding="utf-8"?>
<!-- Generator: Adobe Illustrator 27.5.0, SVG Export Plug-In . SVG Version: 6.00 Build 0)  -->
<svg version="1.1" id="Capa_1" xmlns="http://www.w3.org/2000/svg" xmlns:xlink="http://www.w3.org/1999/xlink" x="0px" y="0px"
	 viewBox="0 0 30 25" style="enable-background:new 0 0 30 25;" xml:space="preserve">
<style type="text/css">
	.st0{fill:none;stroke:#0000FF;stroke-miterlimit:10;}
</style>
<g>
	<path class="st0" d="M15,5.04c0.7-1.18,1.39-2.09,2.27-2.79c1.18-0.94,2.58-1.43,4.39-1.43c2.06,0,3.9,0.84,5.23,2.16
		c1.36,1.36,2.16,3.21,2.16,5.23c0,3.55-1.01,6.2-3.31,8.64c-2.23,2.4-5.61,4.57-10.39,7.21c-0.24,0.14-0.52,0.14-0.77,0
		c-4.25-2.61-7.63-4.77-9.93-7.14c-2.44-2.47-3.69-5.16-3.69-8.71c0-2.02,0.8-3.87,2.16-5.23c1.32-1.32,3.17-2.16,5.23-2.16
		C11.58,0.82,13.4,2.22,15,5.04L15,5.04z"/>
</g>
</svg>
