<?xml version="1.0" encoding="utf-8"?>
<!-- Generator: Adobe Illustrator 27.5.0, SVG Export Plug-In . SVG Version: 6.00 Build 0)  -->
<svg version="1.1" id="Capa_1" xmlns="http://www.w3.org/2000/svg" xmlns:xlink="http://www.w3.org/1999/xlink" x="0px" y="0px"
	 viewBox="0 0 139 139" style="enable-background:new 0 0 139 139;" xml:space="preserve">
<style type="text/css">
	.st0{fill-rule:evenodd;clip-rule:evenodd;fill:#ABEDFF;}
	.st1{fill-rule:evenodd;clip-rule:evenodd;fill:#3333FF;}
</style>
<g>
	<circle class="st0" cx="69.5" cy="69.5" r="69.27"/>
	<g>
		<path class="st1" d="M37.55,48.83h59.63c0.87,0,1.58,0.71,1.58,1.66v8.79h-17.9c-0.95,0-1.74,0.32-2.3,0.95
			c-0.63,0.55-0.95,1.43-0.95,2.3v13.94c0,0.87,0.32,1.66,0.95,2.3l0,0c0.55,0.55,1.35,0.95,2.3,0.95h17.9v8.79
			c0,0.87-0.71,1.66-1.58,1.66H37.55c-0.87,0-1.58-0.79-1.58-1.66V50.49C35.96,49.54,36.68,48.83,37.55,48.83L37.55,48.83z
			 M80.86,60.87h20.59c0.87,0,1.58,0.79,1.58,1.66v13.94c0,0.87-0.71,1.58-1.58,1.58H80.86c-0.95,0-1.66-0.71-1.66-1.58V62.53
			C79.2,61.66,79.91,60.87,80.86,60.87L80.86,60.87z M88.7,64.99c1.27,0,2.38,0.55,3.17,1.35l0,0c0.79,0.79,1.35,1.9,1.35,3.17
			c0,1.19-0.55,2.3-1.35,3.17l0,0c-0.79,0.79-1.9,1.27-3.17,1.27c-1.19,0-2.3-0.47-3.17-1.27l0,0c-0.79-0.87-1.27-1.98-1.27-3.17
			c0-1.27,0.48-2.38,1.27-3.17C86.41,65.54,87.52,64.99,88.7,64.99L88.7,64.99z M43.65,56.59c-0.95,0-1.66-0.71-1.66-1.58
			c0-0.95,0.71-1.66,1.66-1.66h46.32c0.87,0,1.58,0.71,1.58,1.66c0,0.87-0.71,1.58-1.58,1.58H43.65z"/>
	</g>
</g>
</svg>
