<?xml version="1.0" encoding="utf-8"?>
<!-- Generator: Adobe Illustrator 27.5.0, SVG Export Plug-In . SVG Version: 6.00 Build 0)  -->
<svg version="1.1" id="Capa_1" xmlns="http://www.w3.org/2000/svg" xmlns:xlink="http://www.w3.org/1999/xlink" x="0px" y="0px"
	 viewBox="0 0 46 46" style="enable-background:new 0 0 46 46;" xml:space="preserve">
<style type="text/css">
	.st0{fill:#3333FF;}
</style>
<g>
	<path class="st0" d="M23,0.21C10.41,0.21,0.21,10.41,0.21,23c0,12.58,10.2,22.79,22.79,22.79S45.79,35.58,45.79,23
		C45.79,10.41,35.59,0.21,23,0.21z M18.93,22.98c0,0.37-0.07,0.75-0.17,1.12l7.51,4.11c0.78-0.85,1.94-1.39,3.19-1.39
		c2.38,0,4.31,1.94,4.31,4.35c0,2.38-1.94,4.35-4.31,4.35c-2.41,0-4.35-1.97-4.35-4.35c0-0.37,0.03-0.75,0.14-1.12l-7.47-4.11
		c-0.82,0.85-1.94,1.39-3.19,1.39c-2.41,0-4.35-1.94-4.35-4.35c0-2.38,1.94-4.35,4.35-4.35c1.26,0,2.38,0.54,3.19,1.39l7.47-4.11
		c-0.1-0.34-0.14-0.71-0.14-1.12c0-2.38,1.94-4.31,4.35-4.31c2.38,0,4.31,1.94,4.31,4.31c0,2.41-1.94,4.35-4.31,4.35
		c-1.26,0-2.41-0.54-3.19-1.39l-7.51,4.11C18.86,22.24,18.93,22.61,18.93,22.98z"/>
</g>
</svg>
