<?xml version="1.0" encoding="utf-8"?>
<!-- Generator: Adobe Illustrator 27.5.0, SVG Export Plug-In . SVG Version: 6.00 Build 0)  -->
<svg version="1.1" id="Capa_1" xmlns="http://www.w3.org/2000/svg" xmlns:xlink="http://www.w3.org/1999/xlink" x="0px" y="0px"
	 viewBox="0 0 33 26" style="enable-background:new 0 0 33 26;" xml:space="preserve">
<style type="text/css">
	.st0{fill:#1D1D1D;}
	.st1{fill:#4E4E4E;}
	.st2{fill:#818181;}
	.st3{fill:#A7A7A7;}
</style>
<g>
	<g>
		<path class="st0" d="M5.82,23.06c-0.09-0.09-0.2-0.17-0.33-0.22c-0.13-0.05-0.27-0.08-0.42-0.08c-0.08,0-0.16,0.01-0.25,0.02
			c-0.09,0.01-0.17,0.04-0.26,0.07C4.48,22.89,4.4,22.94,4.32,23c-0.08,0.06-0.14,0.14-0.2,0.23c-0.09-0.15-0.21-0.26-0.36-0.35
			c-0.15-0.08-0.33-0.13-0.53-0.13c-0.07,0-0.13,0.01-0.21,0.02c-0.07,0.01-0.14,0.03-0.21,0.06c-0.07,0.03-0.14,0.07-0.2,0.12
			c-0.06,0.05-0.12,0.12-0.17,0.19v-0.33H1.89v2.66h0.56v-1.48c0-0.11,0.02-0.21,0.05-0.3c0.04-0.09,0.08-0.16,0.14-0.22
			c0.06-0.06,0.13-0.1,0.21-0.13c0.08-0.03,0.17-0.05,0.26-0.05c0.19,0,0.34,0.06,0.44,0.18c0.1,0.12,0.16,0.29,0.16,0.52v1.48h0.56
			v-1.48c0-0.11,0.02-0.21,0.05-0.3c0.04-0.09,0.08-0.16,0.14-0.22c0.06-0.06,0.13-0.1,0.21-0.13c0.08-0.03,0.17-0.05,0.26-0.05
			c0.19,0,0.34,0.06,0.44,0.18c0.1,0.12,0.16,0.29,0.16,0.52v1.48h0.56v-1.67c0-0.16-0.03-0.3-0.08-0.43
			C5.99,23.26,5.91,23.15,5.82,23.06z"/>
		<path class="st0" d="M8.8,23.15c-0.09-0.12-0.21-0.21-0.34-0.28c-0.14-0.07-0.3-0.11-0.49-0.11c-0.19,0-0.36,0.03-0.52,0.1
			c-0.16,0.07-0.3,0.17-0.42,0.29C6.9,23.28,6.8,23.43,6.73,23.6c-0.07,0.17-0.1,0.36-0.1,0.56c0,0.2,0.03,0.39,0.1,0.56
			c0.07,0.17,0.16,0.32,0.28,0.44c0.12,0.12,0.26,0.22,0.42,0.29c0.16,0.07,0.34,0.1,0.52,0.1c0.19,0,0.35-0.04,0.49-0.11
			c0.14-0.07,0.25-0.16,0.34-0.28v0.32h0.58v-2.66H8.8V23.15z M8.78,24.5c-0.04,0.1-0.09,0.19-0.16,0.27
			c-0.07,0.08-0.15,0.14-0.25,0.18c-0.1,0.04-0.21,0.07-0.33,0.07c-0.13,0-0.24-0.02-0.34-0.07c-0.1-0.05-0.18-0.11-0.25-0.18
			c-0.07-0.08-0.12-0.17-0.16-0.27c-0.04-0.1-0.06-0.21-0.06-0.33c0-0.12,0.02-0.23,0.06-0.33c0.04-0.1,0.09-0.19,0.16-0.27
			c0.07-0.08,0.15-0.14,0.25-0.18c0.1-0.05,0.21-0.07,0.34-0.07c0.12,0,0.23,0.02,0.33,0.07c0.1,0.04,0.18,0.1,0.25,0.18
			c0.07,0.08,0.13,0.17,0.16,0.27c0.04,0.1,0.06,0.22,0.06,0.34C8.84,24.28,8.82,24.4,8.78,24.5z"/>
		<path class="st0" d="M12.05,24.16c-0.16-0.13-0.39-0.21-0.68-0.25l-0.28-0.04c-0.06-0.01-0.12-0.02-0.17-0.03
			c-0.05-0.01-0.1-0.03-0.14-0.05c-0.04-0.02-0.07-0.05-0.09-0.08c-0.02-0.03-0.03-0.07-0.03-0.12c0-0.09,0.04-0.17,0.13-0.23
			c0.09-0.06,0.21-0.09,0.37-0.09c0.08,0,0.17,0.01,0.25,0.02c0.08,0.01,0.16,0.03,0.23,0.06c0.07,0.02,0.14,0.05,0.2,0.07
			c0.06,0.03,0.11,0.05,0.15,0.08l0.25-0.45c-0.14-0.09-0.3-0.16-0.49-0.21c-0.19-0.05-0.38-0.07-0.59-0.07
			c-0.17,0-0.32,0.02-0.46,0.06c-0.14,0.04-0.25,0.1-0.35,0.17c-0.1,0.07-0.17,0.16-0.22,0.27c-0.05,0.11-0.08,0.22-0.08,0.36
			c0,0.21,0.08,0.39,0.23,0.52c0.15,0.13,0.38,0.22,0.67,0.26l0.28,0.04c0.16,0.02,0.28,0.06,0.35,0.11
			c0.07,0.05,0.11,0.11,0.11,0.19c0,0.1-0.05,0.18-0.15,0.24c-0.1,0.06-0.25,0.09-0.45,0.09c-0.11,0-0.21-0.01-0.29-0.02
			c-0.09-0.01-0.16-0.03-0.24-0.06c-0.07-0.02-0.14-0.05-0.19-0.09c-0.06-0.03-0.11-0.07-0.16-0.1l-0.27,0.44
			c0.1,0.07,0.2,0.13,0.3,0.18c0.11,0.04,0.21,0.08,0.31,0.1c0.1,0.03,0.2,0.04,0.29,0.05c0.09,0.01,0.17,0.01,0.24,0.01
			c0.19,0,0.36-0.02,0.51-0.06c0.15-0.04,0.28-0.1,0.38-0.18c0.1-0.08,0.18-0.17,0.24-0.28c0.05-0.11,0.08-0.22,0.08-0.35
			C12.29,24.46,12.21,24.28,12.05,24.16z"/>
		<path class="st0" d="M17.49,23.15c-0.11-0.12-0.24-0.22-0.4-0.29c-0.15-0.07-0.32-0.1-0.51-0.1c-0.2,0-0.38,0.03-0.54,0.1
			c-0.16,0.07-0.3,0.16-0.42,0.29c-0.12,0.12-0.21,0.27-0.27,0.44c-0.06,0.17-0.1,0.36-0.1,0.57c0,0.21,0.03,0.4,0.1,0.58
			c0.07,0.17,0.16,0.32,0.28,0.44c0.12,0.12,0.26,0.22,0.43,0.28c0.17,0.07,0.35,0.1,0.55,0.1c0.2,0,0.39-0.03,0.58-0.08
			c0.18-0.06,0.36-0.15,0.52-0.29l-0.29-0.41c-0.11,0.09-0.23,0.16-0.37,0.21c-0.13,0.05-0.27,0.07-0.4,0.07
			c-0.09,0-0.19-0.01-0.27-0.04c-0.09-0.03-0.17-0.07-0.24-0.12c-0.07-0.05-0.13-0.12-0.18-0.21c-0.05-0.09-0.08-0.19-0.1-0.31h1.97
			c0-0.03,0.01-0.07,0.01-0.11c0-0.04,0-0.07,0-0.11c0-0.21-0.03-0.4-0.09-0.57C17.68,23.42,17.6,23.27,17.49,23.15z M15.86,23.93
			c0.01-0.1,0.04-0.18,0.08-0.27c0.04-0.08,0.08-0.15,0.14-0.21c0.06-0.06,0.13-0.1,0.21-0.13c0.08-0.03,0.17-0.05,0.28-0.05
			c0.19,0,0.34,0.06,0.45,0.17c0.12,0.11,0.19,0.28,0.22,0.48H15.86z"/>
		<path class="st0" d="M25.2,23.15c-0.09-0.12-0.21-0.21-0.34-0.28c-0.14-0.07-0.3-0.11-0.49-0.11c-0.19,0-0.36,0.03-0.52,0.1
			c-0.16,0.07-0.3,0.17-0.42,0.29c-0.12,0.12-0.21,0.27-0.28,0.44c-0.07,0.17-0.1,0.36-0.1,0.56c0,0.2,0.03,0.39,0.1,0.56
			c0.07,0.17,0.16,0.32,0.28,0.44c0.12,0.12,0.26,0.22,0.42,0.29c0.16,0.07,0.34,0.1,0.52,0.1c0.19,0,0.35-0.04,0.49-0.11
			s0.25-0.16,0.34-0.28v0.32h0.58v-2.66H25.2V23.15z M25.18,24.5c-0.04,0.1-0.09,0.19-0.16,0.27c-0.07,0.08-0.15,0.14-0.25,0.18
			c-0.1,0.04-0.21,0.07-0.33,0.07c-0.13,0-0.24-0.02-0.34-0.07c-0.1-0.05-0.18-0.11-0.25-0.18s-0.12-0.17-0.16-0.27
			c-0.04-0.1-0.06-0.21-0.06-0.33c0-0.12,0.02-0.23,0.06-0.33c0.04-0.1,0.09-0.19,0.16-0.27c0.07-0.08,0.15-0.14,0.25-0.18
			c0.1-0.05,0.21-0.07,0.34-0.07c0.12,0,0.23,0.02,0.33,0.07c0.1,0.04,0.18,0.1,0.25,0.18c0.07,0.08,0.13,0.17,0.16,0.27
			c0.04,0.1,0.06,0.22,0.06,0.34C25.24,24.28,25.22,24.4,25.18,24.5z"/>
		<path class="st0" d="M14.54,24.96c-0.09,0.04-0.19,0.05-0.28,0.05c-0.06,0-0.11-0.01-0.17-0.03c-0.05-0.02-0.1-0.05-0.13-0.09
			c-0.04-0.04-0.07-0.09-0.09-0.15c-0.02-0.06-0.03-0.14-0.03-0.23v-1.16h0.93v-0.53h-0.93v-0.81h-0.58v0.81h-0.53v0.53h0.53v1.17
			c0,0.35,0.08,0.61,0.25,0.78c0.17,0.17,0.4,0.25,0.7,0.25c0.17,0,0.32-0.03,0.45-0.08c0.09-0.03,0.17-0.07,0.25-0.12l-0.2-0.49
			C14.66,24.91,14.6,24.94,14.54,24.96z"/>
		<path class="st0" d="M19.78,22.76c-0.16,0-0.31,0.03-0.44,0.09c-0.13,0.06-0.24,0.2-0.33,0.33v-0.35h-0.53v2.66h0.53v-1.46
			c0-0.11,0.02-0.21,0.05-0.3c0.03-0.09,0.07-0.16,0.13-0.23c0.06-0.06,0.12-0.11,0.2-0.14c0.08-0.03,0.16-0.05,0.26-0.05
			c0.07,0,0.15,0.01,0.23,0.03c0.04,0.01,0.08,0.02,0.12,0.03l0.17-0.56c-0.05-0.01-0.09-0.03-0.14-0.04
			C19.95,22.77,19.87,22.76,19.78,22.76z"/>
		<path class="st0" d="M27.86,22.76c-0.16,0-0.31,0.03-0.44,0.09c-0.13,0.06-0.24,0.2-0.33,0.33v-0.35h-0.53v2.66h0.53v-1.46
			c0-0.11,0.02-0.21,0.05-0.3c0.03-0.09,0.07-0.16,0.13-0.23c0.06-0.06,0.12-0.11,0.2-0.14c0.08-0.03,0.16-0.05,0.26-0.05
			c0.07,0,0.15,0.01,0.23,0.03c0.04,0.01,0.08,0.02,0.12,0.03l0.17-0.56c-0.05-0.01-0.09-0.03-0.14-0.04
			C28.03,22.77,27.95,22.76,27.86,22.76z"/>
		<path class="st0" d="M30.57,21.75v1.4c-0.09-0.12-0.21-0.21-0.34-0.28c-0.14-0.07-0.3-0.11-0.49-0.11c-0.19,0-0.36,0.03-0.52,0.1
			c-0.16,0.07-0.3,0.17-0.42,0.29c-0.12,0.12-0.21,0.27-0.28,0.44c-0.07,0.17-0.1,0.36-0.1,0.56c0,0.2,0.03,0.39,0.1,0.56
			c0.07,0.17,0.16,0.32,0.28,0.44c0.12,0.12,0.26,0.22,0.42,0.29c0.16,0.07,0.34,0.1,0.52,0.1c0.19,0,0.35-0.04,0.49-0.11
			c0.14-0.07,0.25-0.16,0.34-0.28v0.32h0.58v-3.74H30.57z M30.55,24.5c-0.04,0.1-0.09,0.19-0.16,0.27
			c-0.07,0.08-0.15,0.14-0.25,0.18c-0.1,0.04-0.21,0.07-0.33,0.07c-0.13,0-0.24-0.02-0.34-0.07c-0.1-0.05-0.18-0.11-0.25-0.18
			c-0.07-0.08-0.12-0.17-0.16-0.27c-0.04-0.1-0.06-0.21-0.06-0.33c0-0.12,0.02-0.23,0.06-0.33c0.04-0.1,0.09-0.19,0.16-0.27
			c0.07-0.08,0.15-0.14,0.25-0.18c0.1-0.05,0.21-0.07,0.34-0.07c0.12,0,0.23,0.02,0.33,0.07c0.1,0.04,0.18,0.1,0.25,0.18
			c0.07,0.08,0.13,0.17,0.16,0.27c0.04,0.1,0.06,0.22,0.06,0.34C30.6,24.28,30.59,24.4,30.55,24.5z"/>
		<path class="st0" d="M21.17,23.55c0.07-0.08,0.16-0.13,0.26-0.18c0.1-0.04,0.21-0.06,0.33-0.06v0c0.13,0,0.25,0.02,0.36,0.06
			c0.11,0.04,0.2,0.1,0.28,0.17l0.28-0.46c-0.1-0.08-0.22-0.15-0.35-0.21c-0.18-0.07-0.37-0.11-0.57-0.11
			c-0.21,0-0.4,0.04-0.57,0.11c-0.18,0.07-0.33,0.17-0.45,0.29c-0.13,0.13-0.23,0.27-0.3,0.44c-0.07,0.17-0.11,0.36-0.11,0.56
			c0,0.2,0.04,0.39,0.11,0.56c0.07,0.17,0.17,0.32,0.3,0.44c0.13,0.13,0.28,0.22,0.45,0.29c0.18,0.07,0.37,0.11,0.57,0.11
			c0.21,0,0.4-0.04,0.57-0.11c0.13-0.05,0.25-0.12,0.35-0.21l-0.28-0.47c-0.08,0.07-0.17,0.13-0.28,0.17
			c-0.11,0.04-0.23,0.06-0.36,0.06v0c-0.12,0-0.23-0.02-0.33-0.06c-0.1-0.04-0.19-0.1-0.26-0.18c-0.07-0.07-0.13-0.16-0.18-0.27
			c-0.04-0.1-0.06-0.22-0.06-0.35c0-0.13,0.02-0.24,0.06-0.35C21.04,23.71,21.1,23.62,21.17,23.55z"/>
	</g>
	<g>
		<path class="st0" d="M32.37,25.1c0.04,0,0.07,0.01,0.11,0.02c0.03,0.01,0.06,0.03,0.09,0.06c0.03,0.02,0.05,0.05,0.06,0.09
			c0.01,0.03,0.02,0.07,0.02,0.11c0,0.04-0.01,0.07-0.02,0.11c-0.01,0.03-0.03,0.06-0.06,0.09c-0.03,0.02-0.05,0.04-0.09,0.06
			c-0.03,0.01-0.07,0.02-0.11,0.02c-0.04,0-0.08-0.01-0.11-0.02c-0.03-0.01-0.06-0.03-0.09-0.06c-0.03-0.02-0.04-0.05-0.06-0.09
			c-0.01-0.03-0.02-0.07-0.02-0.11c0-0.04,0.01-0.07,0.02-0.11c0.01-0.03,0.03-0.06,0.06-0.09c0.03-0.02,0.05-0.04,0.09-0.06
			C32.3,25.11,32.33,25.1,32.37,25.1z M32.37,25.57c0.03,0,0.05-0.01,0.08-0.02c0.02-0.01,0.04-0.02,0.06-0.04
			c0.02-0.02,0.03-0.04,0.04-0.06c0.01-0.02,0.02-0.05,0.02-0.08c0-0.03-0.01-0.05-0.02-0.08c-0.01-0.02-0.02-0.04-0.04-0.06
			c-0.02-0.02-0.04-0.03-0.06-0.04c-0.02-0.01-0.05-0.02-0.08-0.02c-0.03,0-0.05,0.01-0.08,0.02c-0.02,0.01-0.04,0.02-0.06,0.04
			c-0.02,0.02-0.03,0.04-0.04,0.06c-0.01,0.02-0.02,0.05-0.02,0.08c0,0.03,0.01,0.05,0.02,0.08c0.01,0.02,0.02,0.04,0.04,0.06
			c0.02,0.02,0.04,0.03,0.06,0.04C32.32,25.56,32.35,25.57,32.37,25.57z M32.39,25.25c0.03,0,0.06,0.01,0.08,0.02
			c0.02,0.01,0.03,0.03,0.03,0.06c0,0.02-0.01,0.04-0.02,0.05c-0.01,0.01-0.03,0.02-0.05,0.03l0.07,0.09h-0.08l-0.07-0.08h-0.01
			v0.08h-0.07v-0.24H32.39z M32.34,25.31v0.04h0.05c0.01,0,0.02,0,0.02,0c0.01,0,0.01-0.01,0.01-0.02c0-0.01,0-0.01-0.01-0.02
			c-0.01,0-0.01-0.01-0.02-0.01H32.34z"/>
	</g>
	<g>
		<path class="st1" d="M12.69,10.39c0-3.19,1.49-6.03,3.81-7.87c-1.71-1.35-3.87-2.17-6.22-2.17c-5.54,0-10.03,4.49-10.03,10.03
			s4.49,10.03,10.03,10.03c2.35,0,4.51-0.81,6.22-2.17C14.18,16.42,12.69,13.58,12.69,10.39z"/>
		<path class="st2" d="M12.69,10.39c0,3.19,1.49,6.03,3.81,7.87c2.32-1.84,3.81-4.68,3.81-7.87s-1.49-6.03-3.81-7.87
			C14.18,4.36,12.69,7.2,12.69,10.39z"/>
		<path class="st3" d="M22.72,0.35c-2.35,0-4.51,0.81-6.22,2.17c2.32,1.84,3.81,4.68,3.81,7.87s-1.49,6.03-3.81,7.87
			c1.71,1.35,3.87,2.17,6.22,2.17c5.54,0,10.03-4.49,10.03-10.03S28.26,0.35,22.72,0.35z"/>
	</g>
</g>
</svg>
