<?xml version="1.0" encoding="utf-8"?>
<!-- Generator: Adobe Illustrator 27.5.0, SVG Export Plug-In . SVG Version: 6.00 Build 0)  -->
<svg version="1.1" id="Capa_1" xmlns="http://www.w3.org/2000/svg" xmlns:xlink="http://www.w3.org/1999/xlink" x="0px" y="0px"
	 viewBox="0 0 49 49" style="enable-background:new 0 0 49 49;" xml:space="preserve">
<style type="text/css">
	.st0{fill:#3333FF;}
</style>
<g>
	<path class="st0" d="M33.5,0.5h-18c-8.28,0-15,6.72-15,15v18c0,8.28,6.72,15,15,15h18c8.28,0,15-6.72,15-15v-18
		C48.5,7.22,41.78,0.5,33.5,0.5z M33.65,26.01h-6.21v6.11c0,0.84-0.62,1.49-1.46,1.49c-0.81,0-1.42-0.65-1.42-1.49v-6.11h-6.21
		c-0.81,0-1.46-0.68-1.46-1.49c0-0.87,0.65-1.52,1.46-1.52h6.21v-6.11c0-0.84,0.61-1.49,1.42-1.49c0.84,0,1.46,0.65,1.46,1.49V23
		h6.21c0.81,0,1.45,0.65,1.45,1.52C35.11,25.32,34.46,26.01,33.65,26.01z"/>
</g>
</svg>
